%TF.GenerationSoftware,KiCad,Pcbnew,8.0.5*%
%TF.CreationDate,2024-10-29T17:30:03+01:00*%
%TF.ProjectId,plate campsite split,706c6174-6520-4636-916d-707369746520,rev?*%
%TF.SameCoordinates,Original*%
%TF.FileFunction,Legend,Top*%
%TF.FilePolarity,Positive*%
%FSLAX46Y46*%
G04 Gerber Fmt 4.6, Leading zero omitted, Abs format (unit mm)*
G04 Created by KiCad (PCBNEW 8.0.5) date 2024-10-29 17:30:03*
%MOMM*%
%LPD*%
G01*
G04 APERTURE LIST*
%ADD10C,0.200000*%
%ADD11C,0.000000*%
G04 APERTURE END LIST*
D10*
X133068780Y-93529719D02*
X132973542Y-93482100D01*
X132973542Y-93482100D02*
X132925923Y-93386861D01*
X132925923Y-93386861D02*
X132925923Y-92529719D01*
X133592590Y-93529719D02*
X133497352Y-93482100D01*
X133497352Y-93482100D02*
X133449733Y-93434480D01*
X133449733Y-93434480D02*
X133402114Y-93339242D01*
X133402114Y-93339242D02*
X133402114Y-93053528D01*
X133402114Y-93053528D02*
X133449733Y-92958290D01*
X133449733Y-92958290D02*
X133497352Y-92910671D01*
X133497352Y-92910671D02*
X133592590Y-92863052D01*
X133592590Y-92863052D02*
X133735447Y-92863052D01*
X133735447Y-92863052D02*
X133830685Y-92910671D01*
X133830685Y-92910671D02*
X133878304Y-92958290D01*
X133878304Y-92958290D02*
X133925923Y-93053528D01*
X133925923Y-93053528D02*
X133925923Y-93339242D01*
X133925923Y-93339242D02*
X133878304Y-93434480D01*
X133878304Y-93434480D02*
X133830685Y-93482100D01*
X133830685Y-93482100D02*
X133735447Y-93529719D01*
X133735447Y-93529719D02*
X133592590Y-93529719D01*
X134783066Y-92863052D02*
X134783066Y-93672576D01*
X134783066Y-93672576D02*
X134735447Y-93767814D01*
X134735447Y-93767814D02*
X134687828Y-93815433D01*
X134687828Y-93815433D02*
X134592590Y-93863052D01*
X134592590Y-93863052D02*
X134449733Y-93863052D01*
X134449733Y-93863052D02*
X134354495Y-93815433D01*
X134783066Y-93482100D02*
X134687828Y-93529719D01*
X134687828Y-93529719D02*
X134497352Y-93529719D01*
X134497352Y-93529719D02*
X134402114Y-93482100D01*
X134402114Y-93482100D02*
X134354495Y-93434480D01*
X134354495Y-93434480D02*
X134306876Y-93339242D01*
X134306876Y-93339242D02*
X134306876Y-93053528D01*
X134306876Y-93053528D02*
X134354495Y-92958290D01*
X134354495Y-92958290D02*
X134402114Y-92910671D01*
X134402114Y-92910671D02*
X134497352Y-92863052D01*
X134497352Y-92863052D02*
X134687828Y-92863052D01*
X134687828Y-92863052D02*
X134783066Y-92910671D01*
X135402114Y-93529719D02*
X135306876Y-93482100D01*
X135306876Y-93482100D02*
X135259257Y-93434480D01*
X135259257Y-93434480D02*
X135211638Y-93339242D01*
X135211638Y-93339242D02*
X135211638Y-93053528D01*
X135211638Y-93053528D02*
X135259257Y-92958290D01*
X135259257Y-92958290D02*
X135306876Y-92910671D01*
X135306876Y-92910671D02*
X135402114Y-92863052D01*
X135402114Y-92863052D02*
X135544971Y-92863052D01*
X135544971Y-92863052D02*
X135640209Y-92910671D01*
X135640209Y-92910671D02*
X135687828Y-92958290D01*
X135687828Y-92958290D02*
X135735447Y-93053528D01*
X135735447Y-93053528D02*
X135735447Y-93339242D01*
X135735447Y-93339242D02*
X135687828Y-93434480D01*
X135687828Y-93434480D02*
X135640209Y-93482100D01*
X135640209Y-93482100D02*
X135544971Y-93529719D01*
X135544971Y-93529719D02*
X135402114Y-93529719D01*
X136925924Y-93529719D02*
X136925924Y-92529719D01*
X136925924Y-92910671D02*
X137021162Y-92863052D01*
X137021162Y-92863052D02*
X137211638Y-92863052D01*
X137211638Y-92863052D02*
X137306876Y-92910671D01*
X137306876Y-92910671D02*
X137354495Y-92958290D01*
X137354495Y-92958290D02*
X137402114Y-93053528D01*
X137402114Y-93053528D02*
X137402114Y-93339242D01*
X137402114Y-93339242D02*
X137354495Y-93434480D01*
X137354495Y-93434480D02*
X137306876Y-93482100D01*
X137306876Y-93482100D02*
X137211638Y-93529719D01*
X137211638Y-93529719D02*
X137021162Y-93529719D01*
X137021162Y-93529719D02*
X136925924Y-93482100D01*
X137735448Y-92863052D02*
X137973543Y-93529719D01*
X138211638Y-92863052D02*
X137973543Y-93529719D01*
X137973543Y-93529719D02*
X137878305Y-93767814D01*
X137878305Y-93767814D02*
X137830686Y-93815433D01*
X137830686Y-93815433D02*
X137735448Y-93863052D01*
X139783067Y-93482100D02*
X139687829Y-93529719D01*
X139687829Y-93529719D02*
X139497353Y-93529719D01*
X139497353Y-93529719D02*
X139402115Y-93482100D01*
X139402115Y-93482100D02*
X139354496Y-93434480D01*
X139354496Y-93434480D02*
X139306877Y-93339242D01*
X139306877Y-93339242D02*
X139306877Y-93053528D01*
X139306877Y-93053528D02*
X139354496Y-92958290D01*
X139354496Y-92958290D02*
X139402115Y-92910671D01*
X139402115Y-92910671D02*
X139497353Y-92863052D01*
X139497353Y-92863052D02*
X139687829Y-92863052D01*
X139687829Y-92863052D02*
X139783067Y-92910671D01*
X140640210Y-93529719D02*
X140640210Y-93005909D01*
X140640210Y-93005909D02*
X140592591Y-92910671D01*
X140592591Y-92910671D02*
X140497353Y-92863052D01*
X140497353Y-92863052D02*
X140306877Y-92863052D01*
X140306877Y-92863052D02*
X140211639Y-92910671D01*
X140640210Y-93482100D02*
X140544972Y-93529719D01*
X140544972Y-93529719D02*
X140306877Y-93529719D01*
X140306877Y-93529719D02*
X140211639Y-93482100D01*
X140211639Y-93482100D02*
X140164020Y-93386861D01*
X140164020Y-93386861D02*
X140164020Y-93291623D01*
X140164020Y-93291623D02*
X140211639Y-93196385D01*
X140211639Y-93196385D02*
X140306877Y-93148766D01*
X140306877Y-93148766D02*
X140544972Y-93148766D01*
X140544972Y-93148766D02*
X140640210Y-93101147D01*
X141259258Y-93529719D02*
X141164020Y-93482100D01*
X141164020Y-93482100D02*
X141116401Y-93386861D01*
X141116401Y-93386861D02*
X141116401Y-92529719D01*
X142068782Y-92863052D02*
X142068782Y-93529719D01*
X141640211Y-92863052D02*
X141640211Y-93386861D01*
X141640211Y-93386861D02*
X141687830Y-93482100D01*
X141687830Y-93482100D02*
X141783068Y-93529719D01*
X141783068Y-93529719D02*
X141925925Y-93529719D01*
X141925925Y-93529719D02*
X142021163Y-93482100D01*
X142021163Y-93482100D02*
X142068782Y-93434480D01*
X142544973Y-93529719D02*
X142544973Y-92863052D01*
X142544973Y-92958290D02*
X142592592Y-92910671D01*
X142592592Y-92910671D02*
X142687830Y-92863052D01*
X142687830Y-92863052D02*
X142830687Y-92863052D01*
X142830687Y-92863052D02*
X142925925Y-92910671D01*
X142925925Y-92910671D02*
X142973544Y-93005909D01*
X142973544Y-93005909D02*
X142973544Y-93529719D01*
X142973544Y-93005909D02*
X143021163Y-92910671D01*
X143021163Y-92910671D02*
X143116401Y-92863052D01*
X143116401Y-92863052D02*
X143259258Y-92863052D01*
X143259258Y-92863052D02*
X143354497Y-92910671D01*
X143354497Y-92910671D02*
X143402116Y-93005909D01*
X143402116Y-93005909D02*
X143402116Y-93529719D01*
X143783068Y-92863052D02*
X143973544Y-93529719D01*
X143973544Y-93529719D02*
X144164020Y-93053528D01*
X144164020Y-93053528D02*
X144354496Y-93529719D01*
X144354496Y-93529719D02*
X144544972Y-92863052D01*
X144925925Y-93529719D02*
X144925925Y-92863052D01*
X144925925Y-93053528D02*
X144973544Y-92958290D01*
X144973544Y-92958290D02*
X145021163Y-92910671D01*
X145021163Y-92910671D02*
X145116401Y-92863052D01*
X145116401Y-92863052D02*
X145211639Y-92863052D01*
X145544973Y-93529719D02*
X145544973Y-92863052D01*
X145544973Y-92529719D02*
X145497354Y-92577338D01*
X145497354Y-92577338D02*
X145544973Y-92624957D01*
X145544973Y-92624957D02*
X145592592Y-92577338D01*
X145592592Y-92577338D02*
X145544973Y-92529719D01*
X145544973Y-92529719D02*
X145544973Y-92624957D01*
X132925923Y-91275552D02*
X132925923Y-92275552D01*
X132925923Y-91323171D02*
X133021161Y-91275552D01*
X133021161Y-91275552D02*
X133211637Y-91275552D01*
X133211637Y-91275552D02*
X133306875Y-91323171D01*
X133306875Y-91323171D02*
X133354494Y-91370790D01*
X133354494Y-91370790D02*
X133402113Y-91466028D01*
X133402113Y-91466028D02*
X133402113Y-91751742D01*
X133402113Y-91751742D02*
X133354494Y-91846980D01*
X133354494Y-91846980D02*
X133306875Y-91894600D01*
X133306875Y-91894600D02*
X133211637Y-91942219D01*
X133211637Y-91942219D02*
X133021161Y-91942219D01*
X133021161Y-91942219D02*
X132925923Y-91894600D01*
X134259256Y-91894600D02*
X134164018Y-91942219D01*
X134164018Y-91942219D02*
X133973542Y-91942219D01*
X133973542Y-91942219D02*
X133878304Y-91894600D01*
X133878304Y-91894600D02*
X133830685Y-91846980D01*
X133830685Y-91846980D02*
X133783066Y-91751742D01*
X133783066Y-91751742D02*
X133783066Y-91466028D01*
X133783066Y-91466028D02*
X133830685Y-91370790D01*
X133830685Y-91370790D02*
X133878304Y-91323171D01*
X133878304Y-91323171D02*
X133973542Y-91275552D01*
X133973542Y-91275552D02*
X134164018Y-91275552D01*
X134164018Y-91275552D02*
X134259256Y-91323171D01*
X134687828Y-91942219D02*
X134687828Y-90942219D01*
X134687828Y-91323171D02*
X134783066Y-91275552D01*
X134783066Y-91275552D02*
X134973542Y-91275552D01*
X134973542Y-91275552D02*
X135068780Y-91323171D01*
X135068780Y-91323171D02*
X135116399Y-91370790D01*
X135116399Y-91370790D02*
X135164018Y-91466028D01*
X135164018Y-91466028D02*
X135164018Y-91751742D01*
X135164018Y-91751742D02*
X135116399Y-91846980D01*
X135116399Y-91846980D02*
X135068780Y-91894600D01*
X135068780Y-91894600D02*
X134973542Y-91942219D01*
X134973542Y-91942219D02*
X134783066Y-91942219D01*
X134783066Y-91942219D02*
X134687828Y-91894600D01*
X136354495Y-91942219D02*
X136354495Y-90942219D01*
X136354495Y-91323171D02*
X136449733Y-91275552D01*
X136449733Y-91275552D02*
X136640209Y-91275552D01*
X136640209Y-91275552D02*
X136735447Y-91323171D01*
X136735447Y-91323171D02*
X136783066Y-91370790D01*
X136783066Y-91370790D02*
X136830685Y-91466028D01*
X136830685Y-91466028D02*
X136830685Y-91751742D01*
X136830685Y-91751742D02*
X136783066Y-91846980D01*
X136783066Y-91846980D02*
X136735447Y-91894600D01*
X136735447Y-91894600D02*
X136640209Y-91942219D01*
X136640209Y-91942219D02*
X136449733Y-91942219D01*
X136449733Y-91942219D02*
X136354495Y-91894600D01*
X137164019Y-91275552D02*
X137402114Y-91942219D01*
X137640209Y-91275552D02*
X137402114Y-91942219D01*
X137402114Y-91942219D02*
X137306876Y-92180314D01*
X137306876Y-92180314D02*
X137259257Y-92227933D01*
X137259257Y-92227933D02*
X137164019Y-92275552D01*
X139354495Y-91846980D02*
X139306876Y-91894600D01*
X139306876Y-91894600D02*
X139164019Y-91942219D01*
X139164019Y-91942219D02*
X139068781Y-91942219D01*
X139068781Y-91942219D02*
X138925924Y-91894600D01*
X138925924Y-91894600D02*
X138830686Y-91799361D01*
X138830686Y-91799361D02*
X138783067Y-91704123D01*
X138783067Y-91704123D02*
X138735448Y-91513647D01*
X138735448Y-91513647D02*
X138735448Y-91370790D01*
X138735448Y-91370790D02*
X138783067Y-91180314D01*
X138783067Y-91180314D02*
X138830686Y-91085076D01*
X138830686Y-91085076D02*
X138925924Y-90989838D01*
X138925924Y-90989838D02*
X139068781Y-90942219D01*
X139068781Y-90942219D02*
X139164019Y-90942219D01*
X139164019Y-90942219D02*
X139306876Y-90989838D01*
X139306876Y-90989838D02*
X139354495Y-91037457D01*
X140211638Y-91942219D02*
X140211638Y-91418409D01*
X140211638Y-91418409D02*
X140164019Y-91323171D01*
X140164019Y-91323171D02*
X140068781Y-91275552D01*
X140068781Y-91275552D02*
X139878305Y-91275552D01*
X139878305Y-91275552D02*
X139783067Y-91323171D01*
X140211638Y-91894600D02*
X140116400Y-91942219D01*
X140116400Y-91942219D02*
X139878305Y-91942219D01*
X139878305Y-91942219D02*
X139783067Y-91894600D01*
X139783067Y-91894600D02*
X139735448Y-91799361D01*
X139735448Y-91799361D02*
X139735448Y-91704123D01*
X139735448Y-91704123D02*
X139783067Y-91608885D01*
X139783067Y-91608885D02*
X139878305Y-91561266D01*
X139878305Y-91561266D02*
X140116400Y-91561266D01*
X140116400Y-91561266D02*
X140211638Y-91513647D01*
X140830686Y-91942219D02*
X140735448Y-91894600D01*
X140735448Y-91894600D02*
X140687829Y-91799361D01*
X140687829Y-91799361D02*
X140687829Y-90942219D01*
X141116401Y-91275552D02*
X141354496Y-91942219D01*
X141354496Y-91942219D02*
X141592591Y-91275552D01*
X141973544Y-91942219D02*
X141973544Y-91275552D01*
X141973544Y-90942219D02*
X141925925Y-90989838D01*
X141925925Y-90989838D02*
X141973544Y-91037457D01*
X141973544Y-91037457D02*
X142021163Y-90989838D01*
X142021163Y-90989838D02*
X141973544Y-90942219D01*
X141973544Y-90942219D02*
X141973544Y-91037457D01*
X142449734Y-91275552D02*
X142449734Y-91942219D01*
X142449734Y-91370790D02*
X142497353Y-91323171D01*
X142497353Y-91323171D02*
X142592591Y-91275552D01*
X142592591Y-91275552D02*
X142735448Y-91275552D01*
X142735448Y-91275552D02*
X142830686Y-91323171D01*
X142830686Y-91323171D02*
X142878305Y-91418409D01*
X142878305Y-91418409D02*
X142878305Y-91942219D01*
X143544972Y-90942219D02*
X143640210Y-90942219D01*
X143640210Y-90942219D02*
X143735448Y-90989838D01*
X143735448Y-90989838D02*
X143783067Y-91037457D01*
X143783067Y-91037457D02*
X143830686Y-91132695D01*
X143830686Y-91132695D02*
X143878305Y-91323171D01*
X143878305Y-91323171D02*
X143878305Y-91561266D01*
X143878305Y-91561266D02*
X143830686Y-91751742D01*
X143830686Y-91751742D02*
X143783067Y-91846980D01*
X143783067Y-91846980D02*
X143735448Y-91894600D01*
X143735448Y-91894600D02*
X143640210Y-91942219D01*
X143640210Y-91942219D02*
X143544972Y-91942219D01*
X143544972Y-91942219D02*
X143449734Y-91894600D01*
X143449734Y-91894600D02*
X143402115Y-91846980D01*
X143402115Y-91846980D02*
X143354496Y-91751742D01*
X143354496Y-91751742D02*
X143306877Y-91561266D01*
X143306877Y-91561266D02*
X143306877Y-91323171D01*
X143306877Y-91323171D02*
X143354496Y-91132695D01*
X143354496Y-91132695D02*
X143402115Y-91037457D01*
X143402115Y-91037457D02*
X143449734Y-90989838D01*
X143449734Y-90989838D02*
X143544972Y-90942219D01*
X144783067Y-90942219D02*
X144306877Y-90942219D01*
X144306877Y-90942219D02*
X144259258Y-91418409D01*
X144259258Y-91418409D02*
X144306877Y-91370790D01*
X144306877Y-91370790D02*
X144402115Y-91323171D01*
X144402115Y-91323171D02*
X144640210Y-91323171D01*
X144640210Y-91323171D02*
X144735448Y-91370790D01*
X144735448Y-91370790D02*
X144783067Y-91418409D01*
X144783067Y-91418409D02*
X144830686Y-91513647D01*
X144830686Y-91513647D02*
X144830686Y-91751742D01*
X144830686Y-91751742D02*
X144783067Y-91846980D01*
X144783067Y-91846980D02*
X144735448Y-91894600D01*
X144735448Y-91894600D02*
X144640210Y-91942219D01*
X144640210Y-91942219D02*
X144402115Y-91942219D01*
X144402115Y-91942219D02*
X144306877Y-91894600D01*
X144306877Y-91894600D02*
X144259258Y-91846980D01*
X145687829Y-90942219D02*
X145497353Y-90942219D01*
X145497353Y-90942219D02*
X145402115Y-90989838D01*
X145402115Y-90989838D02*
X145354496Y-91037457D01*
X145354496Y-91037457D02*
X145259258Y-91180314D01*
X145259258Y-91180314D02*
X145211639Y-91370790D01*
X145211639Y-91370790D02*
X145211639Y-91751742D01*
X145211639Y-91751742D02*
X145259258Y-91846980D01*
X145259258Y-91846980D02*
X145306877Y-91894600D01*
X145306877Y-91894600D02*
X145402115Y-91942219D01*
X145402115Y-91942219D02*
X145592591Y-91942219D01*
X145592591Y-91942219D02*
X145687829Y-91894600D01*
X145687829Y-91894600D02*
X145735448Y-91846980D01*
X145735448Y-91846980D02*
X145783067Y-91751742D01*
X145783067Y-91751742D02*
X145783067Y-91513647D01*
X145783067Y-91513647D02*
X145735448Y-91418409D01*
X145735448Y-91418409D02*
X145687829Y-91370790D01*
X145687829Y-91370790D02*
X145592591Y-91323171D01*
X145592591Y-91323171D02*
X145402115Y-91323171D01*
X145402115Y-91323171D02*
X145306877Y-91370790D01*
X145306877Y-91370790D02*
X145259258Y-91418409D01*
X145259258Y-91418409D02*
X145211639Y-91513647D01*
X146116401Y-90942219D02*
X146735448Y-90942219D01*
X146735448Y-90942219D02*
X146402115Y-91323171D01*
X146402115Y-91323171D02*
X146544972Y-91323171D01*
X146544972Y-91323171D02*
X146640210Y-91370790D01*
X146640210Y-91370790D02*
X146687829Y-91418409D01*
X146687829Y-91418409D02*
X146735448Y-91513647D01*
X146735448Y-91513647D02*
X146735448Y-91751742D01*
X146735448Y-91751742D02*
X146687829Y-91846980D01*
X146687829Y-91846980D02*
X146640210Y-91894600D01*
X146640210Y-91894600D02*
X146544972Y-91942219D01*
X146544972Y-91942219D02*
X146259258Y-91942219D01*
X146259258Y-91942219D02*
X146164020Y-91894600D01*
X146164020Y-91894600D02*
X146116401Y-91846980D01*
D11*
%TO.C,G\u002A\u002A\u002A*%
G36*
X145279096Y-86601923D02*
G01*
X145352037Y-86625713D01*
X145366350Y-86660093D01*
X145323973Y-86696145D01*
X145237647Y-86723325D01*
X145128360Y-86734523D01*
X145023473Y-86729749D01*
X144950346Y-86709015D01*
X144935950Y-86695989D01*
X144936588Y-86647004D01*
X144998882Y-86611474D01*
X145112969Y-86594043D01*
X145154610Y-86593036D01*
X145279096Y-86601923D01*
G37*
G36*
X135401444Y-86294698D02*
G01*
X135390922Y-86573918D01*
X135060504Y-86584240D01*
X134903761Y-86587845D01*
X134804378Y-86585084D01*
X134747762Y-86573426D01*
X134719319Y-86550340D01*
X134707371Y-86522991D01*
X134709631Y-86430309D01*
X134755589Y-86317594D01*
X134833583Y-86210936D01*
X134857133Y-86187902D01*
X134977694Y-86108648D01*
X135130669Y-86046466D01*
X135277465Y-86016341D01*
X135301209Y-86015478D01*
X135411967Y-86015478D01*
X135401444Y-86294698D01*
G37*
G36*
X139807160Y-86671616D02*
G01*
X139857776Y-86698944D01*
X139856566Y-86749039D01*
X139830450Y-86840675D01*
X139801423Y-86915115D01*
X139723467Y-87096329D01*
X139511733Y-87096329D01*
X139386577Y-87091753D01*
X139320263Y-87075921D01*
X139300031Y-87045680D01*
X139300000Y-87043982D01*
X139319106Y-86954861D01*
X139366299Y-86842841D01*
X139426392Y-86742639D01*
X139438649Y-86727039D01*
X139501401Y-86691217D01*
X139601665Y-86668837D01*
X139712549Y-86661703D01*
X139807160Y-86671616D01*
G37*
G36*
X141824749Y-86671616D02*
G01*
X141875365Y-86698944D01*
X141874154Y-86749039D01*
X141848038Y-86840675D01*
X141819012Y-86915115D01*
X141741055Y-87096329D01*
X141529322Y-87096329D01*
X141404166Y-87091753D01*
X141337851Y-87075921D01*
X141317620Y-87045680D01*
X141317588Y-87043982D01*
X141336694Y-86954861D01*
X141383887Y-86842841D01*
X141443981Y-86742639D01*
X141456238Y-86727039D01*
X141518990Y-86691217D01*
X141619254Y-86668837D01*
X141730138Y-86661703D01*
X141824749Y-86671616D01*
G37*
G36*
X142273208Y-84503003D02*
G01*
X142872150Y-84503137D01*
X143409290Y-84503439D01*
X143888043Y-84503950D01*
X144311828Y-84504711D01*
X144684063Y-84505762D01*
X145008165Y-84507143D01*
X145287553Y-84508895D01*
X145525643Y-84511058D01*
X145725854Y-84513673D01*
X145891603Y-84516781D01*
X146026308Y-84520422D01*
X146133387Y-84524636D01*
X146216258Y-84529465D01*
X146278338Y-84534948D01*
X146323044Y-84541125D01*
X146353796Y-84548039D01*
X146374010Y-84555728D01*
X146387104Y-84564234D01*
X146391695Y-84568450D01*
X146431701Y-84632395D01*
X146467601Y-84741955D01*
X146499647Y-84900143D01*
X146528089Y-85109973D01*
X146553180Y-85374460D01*
X146575171Y-85696617D01*
X146594313Y-86079460D01*
X146610858Y-86526002D01*
X146625058Y-87039257D01*
X146634486Y-87478448D01*
X146639613Y-87785316D01*
X146642987Y-88075816D01*
X146644610Y-88340484D01*
X146644482Y-88569856D01*
X146642604Y-88754466D01*
X146638978Y-88884850D01*
X146634331Y-88947287D01*
X146599372Y-89075779D01*
X146531935Y-89162081D01*
X146419454Y-89215714D01*
X146249366Y-89246196D01*
X146238251Y-89247373D01*
X146116444Y-89265504D01*
X146053727Y-89291140D01*
X146037104Y-89326122D01*
X146002554Y-89520582D01*
X145908812Y-89701555D01*
X145768682Y-89858465D01*
X145594969Y-89980738D01*
X145400478Y-90057800D01*
X145198015Y-90079076D01*
X145133466Y-90072348D01*
X144894874Y-90002767D01*
X144702864Y-89878278D01*
X144558452Y-89699794D01*
X144463242Y-89470342D01*
X144404214Y-89258032D01*
X141333220Y-89258032D01*
X138262226Y-89258032D01*
X138258835Y-89248304D01*
X144761459Y-89248304D01*
X144780309Y-89412482D01*
X144844631Y-89541206D01*
X144975064Y-89672508D01*
X145128660Y-89743251D01*
X145292298Y-89750207D01*
X145452173Y-89690567D01*
X145594276Y-89569463D01*
X145680766Y-89420715D01*
X145706906Y-89258271D01*
X145667963Y-89096075D01*
X145659727Y-89079282D01*
X145550046Y-88933222D01*
X145407054Y-88839370D01*
X145245708Y-88803472D01*
X145080964Y-88831272D01*
X145049318Y-88844795D01*
X144900379Y-88949437D01*
X144802954Y-89088948D01*
X144761459Y-89248304D01*
X138258835Y-89248304D01*
X138222673Y-89144570D01*
X138194650Y-89043860D01*
X138183120Y-88962454D01*
X138173565Y-88921213D01*
X138132922Y-88903396D01*
X138043230Y-88902949D01*
X138011986Y-88904781D01*
X137908463Y-88914459D01*
X137856499Y-88936210D01*
X137835668Y-88985313D01*
X137828900Y-89041717D01*
X137810527Y-89140141D01*
X137781970Y-89209573D01*
X137779453Y-89212851D01*
X137753254Y-89224811D01*
X137692768Y-89234634D01*
X137592591Y-89242487D01*
X137447319Y-89248537D01*
X137251546Y-89252950D01*
X136999868Y-89255892D01*
X136686881Y-89257531D01*
X136312442Y-89258032D01*
X134882927Y-89258032D01*
X134839594Y-89467829D01*
X134762347Y-89684678D01*
X134634641Y-89864849D01*
X134468060Y-90002225D01*
X134274187Y-90090689D01*
X134064608Y-90124123D01*
X133850905Y-90096411D01*
X133733617Y-90051841D01*
X133630189Y-89997767D01*
X133547572Y-89947194D01*
X133531081Y-89934952D01*
X133422065Y-89813506D01*
X133329313Y-89652044D01*
X133270080Y-89482600D01*
X133261320Y-89434197D01*
X133241298Y-89283262D01*
X133578509Y-89283262D01*
X133587055Y-89424184D01*
X133634539Y-89538501D01*
X133750775Y-89683843D01*
X133907845Y-89772308D01*
X134071118Y-89798220D01*
X134175795Y-89790054D01*
X134257144Y-89755678D01*
X134345841Y-89680845D01*
X134365363Y-89661571D01*
X134485046Y-89506661D01*
X134533401Y-89350955D01*
X134511118Y-89191261D01*
X134481574Y-89123601D01*
X134372807Y-88980432D01*
X134232991Y-88891253D01*
X134076965Y-88855994D01*
X133919564Y-88874584D01*
X133775627Y-88946952D01*
X133659991Y-89073027D01*
X133629973Y-89127661D01*
X133578509Y-89283262D01*
X133241298Y-89283262D01*
X133237951Y-89258032D01*
X133060082Y-89258032D01*
X132905514Y-89247354D01*
X132803288Y-89208631D01*
X132735975Y-89131832D01*
X132700686Y-89051145D01*
X132682346Y-88959464D01*
X132668569Y-88810252D01*
X132659505Y-88617902D01*
X132655303Y-88396804D01*
X132656115Y-88161350D01*
X132658456Y-88069095D01*
X140130712Y-88069095D01*
X140485046Y-88069095D01*
X140839379Y-88069095D01*
X140907310Y-87917726D01*
X146129288Y-87917726D01*
X146129712Y-87980402D01*
X146139876Y-88168039D01*
X146168961Y-88293150D01*
X146221040Y-88363722D01*
X146300190Y-88387740D01*
X146336932Y-88386448D01*
X146451631Y-88375337D01*
X146451631Y-88055008D01*
X146446199Y-87872118D01*
X146426547Y-87752549D01*
X146387641Y-87688154D01*
X146324450Y-87670783D01*
X146231939Y-87692289D01*
X146228355Y-87693558D01*
X146175426Y-87716291D01*
X146145428Y-87749146D01*
X146132126Y-87810250D01*
X146129288Y-87917726D01*
X140907310Y-87917726D01*
X140936391Y-87852925D01*
X141033402Y-87636755D01*
X141436701Y-87636554D01*
X141676949Y-87632065D01*
X141858405Y-87616934D01*
X141954826Y-87596526D01*
X142296216Y-87596526D01*
X142310675Y-87618507D01*
X142357651Y-87630557D01*
X142449821Y-87635647D01*
X142599865Y-87636750D01*
X142622040Y-87636755D01*
X142962130Y-87636755D01*
X143081221Y-87382930D01*
X143098623Y-87350571D01*
X144007707Y-87350571D01*
X144038713Y-87472722D01*
X144119170Y-87568862D01*
X144212627Y-87612214D01*
X144272677Y-87616991D01*
X144391525Y-87620660D01*
X144555922Y-87623020D01*
X144752615Y-87623869D01*
X144937990Y-87623234D01*
X145586052Y-87618741D01*
X145665438Y-87456613D01*
X145717667Y-87347781D01*
X145745276Y-87270494D01*
X145740332Y-87219358D01*
X145694899Y-87188976D01*
X145601044Y-87173951D01*
X145450833Y-87168886D01*
X145241678Y-87168386D01*
X145032331Y-87166899D01*
X144886807Y-87161940D01*
X144796924Y-87152759D01*
X144754499Y-87138610D01*
X144749183Y-87123351D01*
X144783847Y-87101577D01*
X144875303Y-87084151D01*
X145028749Y-87070392D01*
X145231402Y-87060301D01*
X145456060Y-87048870D01*
X145621598Y-87030848D01*
X145740944Y-87000741D01*
X145827025Y-86953057D01*
X145892771Y-86882305D01*
X145951109Y-86782991D01*
X145969043Y-86746921D01*
X146036248Y-86564385D01*
X146051912Y-86406034D01*
X146016028Y-86281914D01*
X145969445Y-86227802D01*
X145930793Y-86202099D01*
X145880492Y-86183727D01*
X145806740Y-86171488D01*
X145697736Y-86164185D01*
X145541677Y-86160622D01*
X145326761Y-86159601D01*
X145297077Y-86159592D01*
X145053032Y-86160851D01*
X144869187Y-86166066D01*
X144733709Y-86177390D01*
X144634763Y-86196976D01*
X144560515Y-86226980D01*
X144499131Y-86269555D01*
X144452042Y-86313404D01*
X144399411Y-86386888D01*
X144331459Y-86510801D01*
X144255453Y-86668182D01*
X144178660Y-86842068D01*
X144108345Y-87015499D01*
X144051776Y-87171513D01*
X144016220Y-87293149D01*
X144007707Y-87350571D01*
X143098623Y-87350571D01*
X143161419Y-87233806D01*
X143250534Y-87123790D01*
X143363391Y-87043026D01*
X143514817Y-86981656D01*
X143719639Y-86929826D01*
X143782166Y-86916956D01*
X144067027Y-86860116D01*
X144187485Y-86573733D01*
X144242046Y-86440841D01*
X144283721Y-86333289D01*
X144305955Y-86268245D01*
X144307943Y-86258258D01*
X144276326Y-86242137D01*
X144192893Y-86244063D01*
X144074769Y-86261128D01*
X143939079Y-86290423D01*
X143802950Y-86329037D01*
X143722482Y-86357702D01*
X143600733Y-86401605D01*
X143536617Y-86409710D01*
X143522940Y-86377677D01*
X143552509Y-86301166D01*
X143570287Y-86265888D01*
X143625254Y-86159592D01*
X143255038Y-86160267D01*
X142884822Y-86160942D01*
X142603029Y-86823734D01*
X142515428Y-87031183D01*
X142436912Y-87219777D01*
X142372162Y-87378058D01*
X142325858Y-87494569D01*
X142302682Y-87557850D01*
X142301593Y-87561641D01*
X142296216Y-87596526D01*
X141954826Y-87596526D01*
X141993918Y-87588252D01*
X142096337Y-87543113D01*
X142178510Y-87478608D01*
X142191065Y-87465848D01*
X142242844Y-87392525D01*
X142310673Y-87270108D01*
X142387332Y-87114946D01*
X142465605Y-86943388D01*
X142538272Y-86771782D01*
X142598115Y-86616475D01*
X142637917Y-86493816D01*
X142650638Y-86424972D01*
X142625801Y-86338993D01*
X142565609Y-86251523D01*
X142561486Y-86247306D01*
X142472333Y-86158153D01*
X141707647Y-86167880D01*
X140942962Y-86177606D01*
X140625921Y-86916188D01*
X140527537Y-87145366D01*
X140433056Y-87365425D01*
X140348159Y-87563129D01*
X140278531Y-87725243D01*
X140229855Y-87838534D01*
X140219796Y-87861932D01*
X140130712Y-88069095D01*
X132658456Y-88069095D01*
X132662088Y-87925931D01*
X132673373Y-87704939D01*
X132681271Y-87607768D01*
X132917228Y-87607768D01*
X132918596Y-87747424D01*
X132930814Y-87877867D01*
X132953707Y-87979012D01*
X132986028Y-88030181D01*
X133112101Y-88065916D01*
X133241562Y-88030776D01*
X133297137Y-87993858D01*
X133383538Y-87906592D01*
X133446110Y-87815505D01*
X133481163Y-87709856D01*
X133497034Y-87582864D01*
X133493128Y-87461609D01*
X133468851Y-87373171D01*
X133456198Y-87355734D01*
X133397311Y-87332216D01*
X133293206Y-87317380D01*
X133170331Y-87312410D01*
X133055133Y-87318494D01*
X132979968Y-87334368D01*
X132947738Y-87381156D01*
X132926883Y-87478984D01*
X132917228Y-87607768D01*
X132681271Y-87607768D01*
X132685171Y-87559778D01*
X132707794Y-87403068D01*
X132747649Y-87280576D01*
X132814995Y-87181343D01*
X132920096Y-87094411D01*
X133073213Y-87008823D01*
X133284608Y-86913620D01*
X133293979Y-86909644D01*
X133488915Y-86820929D01*
X133649626Y-86730246D01*
X133786314Y-86626973D01*
X133826309Y-86585800D01*
X134551705Y-86585800D01*
X134587540Y-86647217D01*
X134607305Y-86661103D01*
X134662954Y-86672957D01*
X134778137Y-86682680D01*
X134941781Y-86690294D01*
X135142814Y-86695822D01*
X135370167Y-86699285D01*
X135612766Y-86700704D01*
X135859540Y-86700102D01*
X136099418Y-86697500D01*
X136321329Y-86692920D01*
X136514199Y-86686383D01*
X136666959Y-86677912D01*
X136768537Y-86667528D01*
X136806837Y-86656783D01*
X136821834Y-86606462D01*
X136833879Y-86497045D01*
X136842973Y-86341432D01*
X136849115Y-86152523D01*
X136852306Y-85943217D01*
X136852385Y-85871961D01*
X137390496Y-85871961D01*
X137424676Y-85887763D01*
X137519948Y-85899519D01*
X137665411Y-85906220D01*
X137772649Y-85907393D01*
X137949385Y-85909435D01*
X138063069Y-85916298D01*
X138122607Y-85929085D01*
X138136906Y-85948903D01*
X138135751Y-85952429D01*
X138116358Y-85996975D01*
X138072206Y-86097704D01*
X138007581Y-86244855D01*
X137926773Y-86428668D01*
X137834070Y-86639384D01*
X137771613Y-86781273D01*
X137674595Y-87003082D01*
X137588123Y-87203561D01*
X137516234Y-87373120D01*
X137462966Y-87502166D01*
X137432358Y-87581110D01*
X137426525Y-87600918D01*
X137460780Y-87617292D01*
X137556613Y-87629259D01*
X137703627Y-87635816D01*
X137798141Y-87636755D01*
X138169757Y-87636755D01*
X138283443Y-87375240D01*
X138473040Y-87375240D01*
X138491068Y-87468685D01*
X138545076Y-87536875D01*
X138629860Y-87586788D01*
X138692636Y-87605972D01*
X138787790Y-87619195D01*
X138924942Y-87626974D01*
X139113713Y-87629821D01*
X139363721Y-87628253D01*
X139396539Y-87627817D01*
X139632549Y-87623886D01*
X139807862Y-87618761D01*
X139933839Y-87611209D01*
X140021839Y-87600001D01*
X140083224Y-87583907D01*
X140129354Y-87561694D01*
X140153135Y-87545854D01*
X140215241Y-87478568D01*
X140295012Y-87359554D01*
X140384235Y-87204330D01*
X140474697Y-87028416D01*
X140558184Y-86847332D01*
X140626482Y-86676598D01*
X140650384Y-86606296D01*
X140683205Y-86437399D01*
X140659892Y-86310841D01*
X140579255Y-86222347D01*
X140537310Y-86199593D01*
X140465658Y-86184272D01*
X140329977Y-86172291D01*
X140138233Y-86164080D01*
X139898396Y-86160063D01*
X139793695Y-86159727D01*
X139523145Y-86160446D01*
X139313347Y-86166974D01*
X139153000Y-86186054D01*
X139030807Y-86224428D01*
X138935468Y-86288839D01*
X138855682Y-86386031D01*
X138780152Y-86522745D01*
X138697578Y-86705726D01*
X138635550Y-86850850D01*
X138545210Y-87075575D01*
X138491064Y-87247288D01*
X138473040Y-87375240D01*
X138283443Y-87375240D01*
X138545211Y-86773087D01*
X138920665Y-85909419D01*
X139364906Y-85899399D01*
X139809148Y-85889379D01*
X139932872Y-85608697D01*
X139989025Y-85479493D01*
X140031869Y-85377457D01*
X140054624Y-85318877D01*
X140056595Y-85311463D01*
X140021961Y-85307518D01*
X139923631Y-85303910D01*
X139769967Y-85300754D01*
X139569329Y-85298165D01*
X139330080Y-85296258D01*
X139060580Y-85295150D01*
X138857546Y-85294911D01*
X137658496Y-85294911D01*
X137524496Y-85565720D01*
X137462918Y-85694156D01*
X137416263Y-85799060D01*
X137392184Y-85862943D01*
X137390496Y-85871961D01*
X136852385Y-85871961D01*
X136852546Y-85726416D01*
X136849833Y-85515018D01*
X136844170Y-85321925D01*
X136835554Y-85160036D01*
X136823987Y-85042251D01*
X136809469Y-84981470D01*
X136806837Y-84977861D01*
X136753838Y-84960455D01*
X136644278Y-84947456D01*
X136493519Y-84938900D01*
X136316922Y-84934827D01*
X136129851Y-84935274D01*
X135947667Y-84940279D01*
X135785733Y-84949879D01*
X135659412Y-84964114D01*
X135607092Y-84974898D01*
X135485802Y-85032246D01*
X135355684Y-85141391D01*
X135214160Y-85305698D01*
X135058653Y-85528536D01*
X134886584Y-85813269D01*
X134695375Y-86163266D01*
X134691676Y-86170311D01*
X134602430Y-86355159D01*
X134556221Y-86491051D01*
X134551705Y-86585800D01*
X133826309Y-86585800D01*
X133909179Y-86500490D01*
X134028424Y-86340177D01*
X134154250Y-86135413D01*
X134296860Y-85875578D01*
X134308635Y-85853351D01*
X134480478Y-85534503D01*
X134628764Y-85274510D01*
X134758879Y-85066243D01*
X134876215Y-84902569D01*
X134986160Y-84776358D01*
X135094102Y-84680479D01*
X135205432Y-84607801D01*
X135277019Y-84571945D01*
X135299051Y-84562790D01*
X135325186Y-84554493D01*
X135358897Y-84547012D01*
X135403660Y-84540302D01*
X135462947Y-84534323D01*
X135540235Y-84529031D01*
X135638996Y-84524382D01*
X135762706Y-84520336D01*
X135914838Y-84516848D01*
X136098867Y-84513876D01*
X136318267Y-84511378D01*
X136576513Y-84509311D01*
X136877078Y-84507631D01*
X137223438Y-84506296D01*
X137619066Y-84505264D01*
X138067437Y-84504492D01*
X138572024Y-84503937D01*
X139136303Y-84503556D01*
X139763748Y-84503306D01*
X140457832Y-84503145D01*
X140876241Y-84503078D01*
X141609044Y-84502997D01*
X142273208Y-84503003D01*
G37*
%TD*%
M02*
