%TF.GenerationSoftware,KiCad,Pcbnew,8.0.5*%
%TF.CreationDate,2024-11-10T15:24:53+01:00*%
%TF.ProjectId,plate hull split,706c6174-6520-4687-956c-6c2073706c69,rev?*%
%TF.SameCoordinates,Original*%
%TF.FileFunction,Copper,L1,Top*%
%TF.FilePolarity,Positive*%
%FSLAX46Y46*%
G04 Gerber Fmt 4.6, Leading zero omitted, Abs format (unit mm)*
G04 Created by KiCad (PCBNEW 8.0.5) date 2024-11-10 15:24:53*
%MOMM*%
%LPD*%
G01*
G04 APERTURE LIST*
G04 APERTURE END LIST*
%TA.AperFunction,Conductor*%
%TO.N,GND*%
G36*
X268232242Y-21431266D02*
G01*
X268235146Y-21431312D01*
X268400978Y-21433987D01*
X268415298Y-21435052D01*
X268750789Y-21479666D01*
X268766833Y-21482891D01*
X269092546Y-21571086D01*
X269108019Y-21576396D01*
X269419252Y-21706759D01*
X269433897Y-21714065D01*
X269726090Y-21884830D01*
X269738073Y-21892801D01*
X269818537Y-21953347D01*
X269871306Y-21993055D01*
X269875983Y-21996754D01*
X269916619Y-22030510D01*
X269938016Y-22053440D01*
X270001997Y-22142304D01*
X270018335Y-22173594D01*
X270054014Y-22274980D01*
X270060873Y-22309608D01*
X270066537Y-22416938D01*
X270063360Y-22452096D01*
X270038551Y-22556670D01*
X270025597Y-22589507D01*
X269972326Y-22682854D01*
X269950644Y-22710711D01*
X269873225Y-22785268D01*
X269844571Y-22805886D01*
X269747477Y-22856547D01*
X269718086Y-22867416D01*
X269664348Y-22879858D01*
X269663179Y-22880123D01*
X269551698Y-22904801D01*
X269551695Y-22904801D01*
X269338532Y-22989623D01*
X269338528Y-22989625D01*
X269144427Y-23111889D01*
X269144425Y-23111890D01*
X268975867Y-23267511D01*
X268838519Y-23451259D01*
X268838517Y-23451262D01*
X268736986Y-23656968D01*
X268736982Y-23656977D01*
X268674667Y-23877762D01*
X268674666Y-23877765D01*
X268653661Y-24106209D01*
X268674671Y-24334656D01*
X268674672Y-24334662D01*
X268736986Y-24555434D01*
X268736990Y-24555445D01*
X268812977Y-24709390D01*
X268838528Y-24761155D01*
X268838529Y-24761157D01*
X268838531Y-24761160D01*
X268920718Y-24871107D01*
X268975881Y-24944903D01*
X268975885Y-24944907D01*
X268975889Y-24944911D01*
X269088253Y-25048647D01*
X269144440Y-25100520D01*
X269338553Y-25222787D01*
X269338557Y-25222788D01*
X269338560Y-25222790D01*
X269338809Y-25222889D01*
X269551709Y-25307603D01*
X269663341Y-25332412D01*
X269664051Y-25332573D01*
X269718085Y-25345072D01*
X269747495Y-25355946D01*
X269844579Y-25406602D01*
X269873232Y-25427220D01*
X269950653Y-25501778D01*
X269972336Y-25529635D01*
X270025610Y-25622988D01*
X270038564Y-25655825D01*
X270063374Y-25760402D01*
X270066551Y-25795559D01*
X270060887Y-25902893D01*
X270054028Y-25937521D01*
X270018348Y-26038911D01*
X270002010Y-26070202D01*
X269938033Y-26159060D01*
X269916620Y-26182003D01*
X269875990Y-26215742D01*
X269871319Y-26219434D01*
X269738060Y-26319684D01*
X269726082Y-26327651D01*
X269433896Y-26498412D01*
X269419235Y-26505726D01*
X269108025Y-26636079D01*
X269092528Y-26641397D01*
X268766839Y-26729586D01*
X268750776Y-26732814D01*
X268415306Y-26777426D01*
X268400975Y-26778492D01*
X268235576Y-26781179D01*
X268232235Y-26781234D01*
X268230223Y-26781250D01*
X267406248Y-26781250D01*
X267317848Y-26782987D01*
X267288381Y-26783566D01*
X267288374Y-26783566D01*
X267055544Y-26820449D01*
X266831349Y-26893298D01*
X266673813Y-26973571D01*
X266621302Y-27000328D01*
X266621301Y-27000329D01*
X266430584Y-27138894D01*
X266263894Y-27305584D01*
X266263893Y-27305586D01*
X266125338Y-27496289D01*
X266125329Y-27496301D01*
X266018298Y-27706349D01*
X265945449Y-27930544D01*
X265908566Y-28163374D01*
X265908566Y-28163382D01*
X265906250Y-28281247D01*
X265906250Y-90781252D01*
X265908566Y-90899117D01*
X265908566Y-90899125D01*
X265945449Y-91131955D01*
X266018298Y-91356150D01*
X266070771Y-91459129D01*
X266125328Y-91566198D01*
X266263893Y-91756914D01*
X266430586Y-91923607D01*
X266621302Y-92062172D01*
X266780881Y-92143484D01*
X266831349Y-92169201D01*
X267055544Y-92242050D01*
X267143197Y-92255935D01*
X267288381Y-92278934D01*
X267399300Y-92281113D01*
X267406248Y-92281250D01*
X267406251Y-92281250D01*
X268230243Y-92281250D01*
X268232242Y-92281266D01*
X268235146Y-92281312D01*
X268400978Y-92283987D01*
X268415298Y-92285052D01*
X268750789Y-92329666D01*
X268766833Y-92332891D01*
X269092546Y-92421086D01*
X269108019Y-92426396D01*
X269419252Y-92556759D01*
X269433897Y-92564065D01*
X269726090Y-92734830D01*
X269738073Y-92742801D01*
X269818537Y-92803347D01*
X269871306Y-92843055D01*
X269875983Y-92846754D01*
X269916619Y-92880510D01*
X269938016Y-92903440D01*
X270001997Y-92992304D01*
X270018335Y-93023594D01*
X270054014Y-93124980D01*
X270060873Y-93159608D01*
X270066537Y-93266938D01*
X270063360Y-93302096D01*
X270038551Y-93406670D01*
X270025597Y-93439507D01*
X269972326Y-93532854D01*
X269950644Y-93560711D01*
X269873225Y-93635268D01*
X269844571Y-93655886D01*
X269747477Y-93706547D01*
X269718086Y-93717416D01*
X269664348Y-93729858D01*
X269663179Y-93730123D01*
X269551698Y-93754801D01*
X269551695Y-93754801D01*
X269338532Y-93839623D01*
X269338528Y-93839625D01*
X269144427Y-93961889D01*
X269144425Y-93961890D01*
X268975867Y-94117511D01*
X268838519Y-94301259D01*
X268838517Y-94301262D01*
X268736986Y-94506968D01*
X268736982Y-94506977D01*
X268674667Y-94727762D01*
X268674666Y-94727765D01*
X268653661Y-94956209D01*
X268674671Y-95184656D01*
X268674672Y-95184662D01*
X268736986Y-95405434D01*
X268736990Y-95405445D01*
X268812977Y-95559390D01*
X268838528Y-95611155D01*
X268838529Y-95611157D01*
X268838531Y-95611160D01*
X268920718Y-95721107D01*
X268975881Y-95794903D01*
X268975885Y-95794907D01*
X268975889Y-95794911D01*
X269088253Y-95898647D01*
X269144440Y-95950520D01*
X269338553Y-96072787D01*
X269338557Y-96072788D01*
X269338560Y-96072790D01*
X269338809Y-96072889D01*
X269551709Y-96157603D01*
X269663341Y-96182412D01*
X269664051Y-96182573D01*
X269718085Y-96195072D01*
X269747495Y-96205946D01*
X269844579Y-96256602D01*
X269873232Y-96277220D01*
X269950653Y-96351778D01*
X269972336Y-96379635D01*
X270025610Y-96472988D01*
X270038564Y-96505825D01*
X270063374Y-96610402D01*
X270066551Y-96645559D01*
X270060887Y-96752893D01*
X270054028Y-96787521D01*
X270018348Y-96888911D01*
X270002010Y-96920202D01*
X269938033Y-97009060D01*
X269916620Y-97032003D01*
X269875990Y-97065742D01*
X269871319Y-97069434D01*
X269738060Y-97169684D01*
X269726082Y-97177651D01*
X269433896Y-97348412D01*
X269419235Y-97355726D01*
X269108025Y-97486080D01*
X269092528Y-97491398D01*
X268766839Y-97579587D01*
X268750776Y-97582815D01*
X268415305Y-97627426D01*
X268400974Y-97628492D01*
X268235575Y-97631179D01*
X268232234Y-97631234D01*
X268230222Y-97631250D01*
X20694758Y-97631250D01*
X20692758Y-97631234D01*
X20524034Y-97628512D01*
X20509688Y-97627446D01*
X20174220Y-97582834D01*
X20158157Y-97579606D01*
X19832465Y-97491416D01*
X19816968Y-97486098D01*
X19505755Y-97355744D01*
X19491094Y-97348430D01*
X19491063Y-97348412D01*
X19198913Y-97177672D01*
X19186923Y-97169696D01*
X19053693Y-97069444D01*
X19049016Y-97065745D01*
X19008380Y-97031989D01*
X18986983Y-97009059D01*
X18923002Y-96920195D01*
X18906664Y-96888905D01*
X18870985Y-96787519D01*
X18864126Y-96752891D01*
X18858462Y-96645556D01*
X18861638Y-96610407D01*
X18886450Y-96505823D01*
X18899399Y-96472997D01*
X18952676Y-96379641D01*
X18974352Y-96351791D01*
X19051778Y-96277227D01*
X19080424Y-96256615D01*
X19177527Y-96205949D01*
X19206903Y-96195086D01*
X19260833Y-96182600D01*
X19261856Y-96182369D01*
X19373317Y-96157701D01*
X19586488Y-96072886D01*
X19780615Y-95950616D01*
X19949187Y-95794992D01*
X20086550Y-95611234D01*
X20086589Y-95611155D01*
X20188094Y-95405512D01*
X20188097Y-95405504D01*
X20250418Y-95184712D01*
X20250419Y-95184710D01*
X20257634Y-95106249D01*
X20271428Y-94956250D01*
X20250419Y-94727790D01*
X20188096Y-94506993D01*
X20188094Y-94506987D01*
X20086553Y-94301271D01*
X20086551Y-94301269D01*
X20086550Y-94301266D01*
X20007945Y-94196111D01*
X19949187Y-94117507D01*
X19949185Y-94117505D01*
X19780621Y-93961889D01*
X19780614Y-93961883D01*
X19586497Y-93839619D01*
X19586480Y-93839610D01*
X19373321Y-93754800D01*
X19373317Y-93754799D01*
X19261911Y-93730143D01*
X19260783Y-93729888D01*
X19235344Y-93724003D01*
X19206918Y-93717428D01*
X19177504Y-93706553D01*
X19080420Y-93655897D01*
X19051767Y-93635279D01*
X18974346Y-93560721D01*
X18952663Y-93532864D01*
X18952657Y-93532854D01*
X18934917Y-93501768D01*
X18899389Y-93439511D01*
X18886435Y-93406674D01*
X18861625Y-93302097D01*
X18858448Y-93266944D01*
X18864112Y-93159603D01*
X18870971Y-93124978D01*
X18906651Y-93023588D01*
X18922986Y-92992301D01*
X18986973Y-92903431D01*
X19008375Y-92880499D01*
X19049034Y-92846737D01*
X19053635Y-92843098D01*
X19186957Y-92742801D01*
X19198907Y-92734853D01*
X19491117Y-92564079D01*
X19505749Y-92556780D01*
X19816991Y-92426413D01*
X19832455Y-92421106D01*
X20158174Y-92332909D01*
X20174212Y-92329686D01*
X20509698Y-92285072D01*
X20524024Y-92284007D01*
X20692765Y-92281265D01*
X20694779Y-92281250D01*
X21518759Y-92281250D01*
X21594524Y-92279763D01*
X21636621Y-92278938D01*
X21869459Y-92242060D01*
X22093663Y-92169212D01*
X22303710Y-92062188D01*
X22494428Y-91923622D01*
X22661122Y-91756928D01*
X22799688Y-91566210D01*
X22906712Y-91356163D01*
X22979560Y-91131959D01*
X23016438Y-90899121D01*
X23018750Y-90781250D01*
X23018750Y-82106249D01*
X27625000Y-82106249D01*
X27625000Y-82106250D01*
X27625000Y-94106250D01*
X28625000Y-95106250D01*
X41225000Y-95106250D01*
X42225000Y-94106250D01*
X42225000Y-88106250D01*
X43324915Y-88106250D01*
X43345247Y-88319174D01*
X43405507Y-88524402D01*
X43455716Y-88621794D01*
X43503520Y-88714521D01*
X43635735Y-88882645D01*
X43635743Y-88882653D01*
X43797387Y-89022717D01*
X43982619Y-89129661D01*
X43982620Y-89129661D01*
X43982623Y-89129663D01*
X44184751Y-89199621D01*
X44396466Y-89230061D01*
X44610116Y-89219883D01*
X44817979Y-89169456D01*
X45012543Y-89080602D01*
X45186774Y-88956533D01*
X45334377Y-88801731D01*
X45450015Y-88621794D01*
X45529511Y-88423223D01*
X45569991Y-88213196D01*
X45572532Y-88106250D01*
X45569991Y-87999304D01*
X45529511Y-87789277D01*
X45450015Y-87590706D01*
X45334377Y-87410769D01*
X45186774Y-87255967D01*
X45012543Y-87131898D01*
X45012541Y-87131897D01*
X45012542Y-87131897D01*
X44905116Y-87082838D01*
X44817979Y-87043044D01*
X44610116Y-86992617D01*
X44396466Y-86982439D01*
X44396465Y-86982439D01*
X44396464Y-86982439D01*
X44396463Y-86982439D01*
X44184749Y-87012879D01*
X43982619Y-87082838D01*
X43797388Y-87189782D01*
X43797387Y-87189782D01*
X43635743Y-87329846D01*
X43635735Y-87329854D01*
X43503520Y-87497978D01*
X43455716Y-87590706D01*
X43405507Y-87688098D01*
X43345247Y-87893326D01*
X43324915Y-88106250D01*
X42225000Y-88106250D01*
X42225000Y-82106250D01*
X42224999Y-82106249D01*
X49056250Y-82106249D01*
X49056250Y-82106250D01*
X49056250Y-94106250D01*
X50056250Y-95106250D01*
X62656250Y-95106250D01*
X63656250Y-94106250D01*
X63656250Y-88106250D01*
X67137415Y-88106250D01*
X67157747Y-88319174D01*
X67218007Y-88524402D01*
X67268216Y-88621794D01*
X67316020Y-88714521D01*
X67448235Y-88882645D01*
X67448243Y-88882653D01*
X67609887Y-89022717D01*
X67795119Y-89129661D01*
X67795120Y-89129661D01*
X67795123Y-89129663D01*
X67997251Y-89199621D01*
X68208966Y-89230061D01*
X68422616Y-89219883D01*
X68630479Y-89169456D01*
X68825043Y-89080602D01*
X68999274Y-88956533D01*
X69146877Y-88801731D01*
X69262515Y-88621794D01*
X69342011Y-88423223D01*
X69382491Y-88213196D01*
X69385032Y-88106250D01*
X69382491Y-87999304D01*
X69342011Y-87789277D01*
X69262515Y-87590706D01*
X69146877Y-87410769D01*
X68999274Y-87255967D01*
X68825043Y-87131898D01*
X68825041Y-87131897D01*
X68825042Y-87131897D01*
X68717616Y-87082838D01*
X68630479Y-87043044D01*
X68422616Y-86992617D01*
X68208966Y-86982439D01*
X68208965Y-86982439D01*
X68208964Y-86982439D01*
X68208963Y-86982439D01*
X67997249Y-87012879D01*
X67795119Y-87082838D01*
X67609888Y-87189782D01*
X67609887Y-87189782D01*
X67448243Y-87329846D01*
X67448235Y-87329854D01*
X67316020Y-87497978D01*
X67268216Y-87590706D01*
X67218007Y-87688098D01*
X67157747Y-87893326D01*
X67137415Y-88106250D01*
X63656250Y-88106250D01*
X63656250Y-82106250D01*
X63656249Y-82106249D01*
X70487500Y-82106249D01*
X70487500Y-82106250D01*
X70487500Y-94106250D01*
X71487500Y-95106250D01*
X84087500Y-95106250D01*
X85087500Y-94106250D01*
X85087500Y-88106250D01*
X88568665Y-88106250D01*
X88588997Y-88319174D01*
X88649257Y-88524402D01*
X88699466Y-88621794D01*
X88747270Y-88714521D01*
X88879485Y-88882645D01*
X88879493Y-88882653D01*
X89041137Y-89022717D01*
X89226369Y-89129661D01*
X89226370Y-89129661D01*
X89226373Y-89129663D01*
X89428501Y-89199621D01*
X89640216Y-89230061D01*
X89853866Y-89219883D01*
X90061729Y-89169456D01*
X90256293Y-89080602D01*
X90430524Y-88956533D01*
X90578127Y-88801731D01*
X90693765Y-88621794D01*
X90773261Y-88423223D01*
X90813741Y-88213196D01*
X90816282Y-88106250D01*
X99887500Y-88106250D01*
X99887500Y-93606250D01*
X99887501Y-93606251D01*
X102887499Y-95106250D01*
X128887500Y-95106250D01*
X128887501Y-95106250D01*
X131887498Y-93606251D01*
X131887500Y-93606250D01*
X131887500Y-88106250D01*
X147512500Y-88106250D01*
X147512500Y-93606250D01*
X147512501Y-93606251D01*
X150512499Y-95106250D01*
X176512500Y-95106250D01*
X176512501Y-95106250D01*
X179512498Y-93606251D01*
X179512500Y-93606250D01*
X179512500Y-91182607D01*
X181557575Y-91182607D01*
X185154924Y-91182607D01*
X185154924Y-88106250D01*
X186199915Y-88106250D01*
X186220247Y-88319174D01*
X186280507Y-88524402D01*
X186330716Y-88621794D01*
X186378520Y-88714521D01*
X186510735Y-88882645D01*
X186510743Y-88882653D01*
X186672387Y-89022717D01*
X186857619Y-89129661D01*
X186857620Y-89129661D01*
X186857623Y-89129663D01*
X187059751Y-89199621D01*
X187271466Y-89230061D01*
X187485116Y-89219883D01*
X187692979Y-89169456D01*
X187887543Y-89080602D01*
X188061774Y-88956533D01*
X188209377Y-88801731D01*
X188325015Y-88621794D01*
X188404511Y-88423223D01*
X188444991Y-88213196D01*
X188447532Y-88106250D01*
X188444991Y-87999304D01*
X188404511Y-87789277D01*
X188325015Y-87590706D01*
X188209377Y-87410769D01*
X188061774Y-87255967D01*
X187887543Y-87131898D01*
X187887541Y-87131897D01*
X187887542Y-87131897D01*
X187780116Y-87082838D01*
X187692979Y-87043044D01*
X187485116Y-86992617D01*
X187271466Y-86982439D01*
X187271465Y-86982439D01*
X187271464Y-86982439D01*
X187271463Y-86982439D01*
X187059749Y-87012879D01*
X186857619Y-87082838D01*
X186672388Y-87189782D01*
X186672387Y-87189782D01*
X186510743Y-87329846D01*
X186510735Y-87329854D01*
X186378520Y-87497978D01*
X186330716Y-87590706D01*
X186280507Y-87688098D01*
X186220247Y-87893326D01*
X186199915Y-88106250D01*
X185154924Y-88106250D01*
X185154924Y-85028334D01*
X181557575Y-85028334D01*
X181557575Y-91182607D01*
X179512500Y-91182607D01*
X179512500Y-88106250D01*
X179512500Y-82106249D01*
X189550000Y-82106249D01*
X189550000Y-82106250D01*
X189550000Y-94106250D01*
X190550000Y-95106250D01*
X203150000Y-95106250D01*
X204150000Y-94106250D01*
X204150000Y-88106250D01*
X207631165Y-88106250D01*
X207651497Y-88319174D01*
X207711757Y-88524402D01*
X207761966Y-88621794D01*
X207809770Y-88714521D01*
X207941985Y-88882645D01*
X207941993Y-88882653D01*
X208103637Y-89022717D01*
X208288869Y-89129661D01*
X208288870Y-89129661D01*
X208288873Y-89129663D01*
X208491001Y-89199621D01*
X208702716Y-89230061D01*
X208916366Y-89219883D01*
X209124229Y-89169456D01*
X209318793Y-89080602D01*
X209493024Y-88956533D01*
X209640627Y-88801731D01*
X209756265Y-88621794D01*
X209835761Y-88423223D01*
X209876241Y-88213196D01*
X209878782Y-88106250D01*
X209876241Y-87999304D01*
X209835761Y-87789277D01*
X209756265Y-87590706D01*
X209640627Y-87410769D01*
X209493024Y-87255967D01*
X209318793Y-87131898D01*
X209318791Y-87131897D01*
X209318792Y-87131897D01*
X209211366Y-87082838D01*
X209124229Y-87043044D01*
X208916366Y-86992617D01*
X208702716Y-86982439D01*
X208702715Y-86982439D01*
X208702714Y-86982439D01*
X208702713Y-86982439D01*
X208490999Y-87012879D01*
X208288869Y-87082838D01*
X208103638Y-87189782D01*
X208103637Y-87189782D01*
X207941993Y-87329846D01*
X207941985Y-87329854D01*
X207809770Y-87497978D01*
X207761966Y-87590706D01*
X207711757Y-87688098D01*
X207651497Y-87893326D01*
X207631165Y-88106250D01*
X204150000Y-88106250D01*
X204150000Y-82106250D01*
X204149999Y-82106249D01*
X210981250Y-82106249D01*
X210981250Y-82106250D01*
X210981250Y-94106250D01*
X211981250Y-95106250D01*
X224581250Y-95106250D01*
X225581250Y-94106250D01*
X225581250Y-82106250D01*
X225581249Y-82106249D01*
X230031250Y-82106249D01*
X230031250Y-82106250D01*
X230031250Y-94106250D01*
X231031250Y-95106250D01*
X243631250Y-95106250D01*
X244631250Y-94106250D01*
X244631250Y-88106250D01*
X245731165Y-88106250D01*
X245751497Y-88319174D01*
X245811757Y-88524402D01*
X245861966Y-88621794D01*
X245909770Y-88714521D01*
X246041985Y-88882645D01*
X246041993Y-88882653D01*
X246203637Y-89022717D01*
X246388869Y-89129661D01*
X246388870Y-89129661D01*
X246388873Y-89129663D01*
X246591001Y-89199621D01*
X246802716Y-89230061D01*
X247016366Y-89219883D01*
X247224229Y-89169456D01*
X247418793Y-89080602D01*
X247593024Y-88956533D01*
X247740627Y-88801731D01*
X247856265Y-88621794D01*
X247935761Y-88423223D01*
X247976241Y-88213196D01*
X247978782Y-88106250D01*
X247976241Y-87999304D01*
X247935761Y-87789277D01*
X247856265Y-87590706D01*
X247740627Y-87410769D01*
X247593024Y-87255967D01*
X247418793Y-87131898D01*
X247418791Y-87131897D01*
X247418792Y-87131897D01*
X247311366Y-87082838D01*
X247224229Y-87043044D01*
X247016366Y-86992617D01*
X246802716Y-86982439D01*
X246802715Y-86982439D01*
X246802714Y-86982439D01*
X246802713Y-86982439D01*
X246590999Y-87012879D01*
X246388869Y-87082838D01*
X246203638Y-87189782D01*
X246203637Y-87189782D01*
X246041993Y-87329846D01*
X246041985Y-87329854D01*
X245909770Y-87497978D01*
X245861966Y-87590706D01*
X245811757Y-87688098D01*
X245751497Y-87893326D01*
X245731165Y-88106250D01*
X244631250Y-88106250D01*
X244631250Y-82106250D01*
X244631249Y-82106249D01*
X249081250Y-82106249D01*
X249081250Y-82106250D01*
X249081250Y-94106250D01*
X250081250Y-95106250D01*
X262681250Y-95106250D01*
X263681250Y-94106250D01*
X263681250Y-82106250D01*
X262681250Y-81106250D01*
X250081249Y-81106250D01*
X249081250Y-82106249D01*
X244631249Y-82106249D01*
X243631250Y-81106250D01*
X231031249Y-81106250D01*
X230031250Y-82106249D01*
X225581249Y-82106249D01*
X224581250Y-81106250D01*
X211981249Y-81106250D01*
X210981250Y-82106249D01*
X204149999Y-82106249D01*
X203150000Y-81106250D01*
X190549999Y-81106250D01*
X189550000Y-82106249D01*
X179512500Y-82106249D01*
X179512500Y-81106250D01*
X147512500Y-81106250D01*
X147512500Y-88106250D01*
X131887500Y-88106250D01*
X131887500Y-81106250D01*
X99887500Y-81106250D01*
X99887500Y-88106250D01*
X90816282Y-88106250D01*
X90813741Y-87999304D01*
X90773261Y-87789277D01*
X90693765Y-87590706D01*
X90578127Y-87410769D01*
X90430524Y-87255967D01*
X90256293Y-87131898D01*
X90256291Y-87131897D01*
X90256292Y-87131897D01*
X90148866Y-87082838D01*
X90061729Y-87043044D01*
X89853866Y-86992617D01*
X89640216Y-86982439D01*
X89640215Y-86982439D01*
X89640214Y-86982439D01*
X89640213Y-86982439D01*
X89428499Y-87012879D01*
X89226369Y-87082838D01*
X89041138Y-87189782D01*
X89041137Y-87189782D01*
X88879493Y-87329846D01*
X88879485Y-87329854D01*
X88747270Y-87497978D01*
X88699466Y-87590706D01*
X88649257Y-87688098D01*
X88588997Y-87893326D01*
X88568665Y-88106250D01*
X85087500Y-88106250D01*
X85087500Y-82106250D01*
X84087500Y-81106250D01*
X71487499Y-81106250D01*
X70487500Y-82106249D01*
X63656249Y-82106249D01*
X62656250Y-81106250D01*
X50056249Y-81106250D01*
X49056250Y-82106249D01*
X42224999Y-82106249D01*
X41225000Y-81106250D01*
X28624999Y-81106250D01*
X27625000Y-82106249D01*
X23018750Y-82106249D01*
X23018750Y-69056250D01*
X29037415Y-69056250D01*
X29057747Y-69269174D01*
X29118007Y-69474402D01*
X29168216Y-69571794D01*
X29216020Y-69664521D01*
X29348235Y-69832645D01*
X29348243Y-69832653D01*
X29509887Y-69972717D01*
X29695119Y-70079661D01*
X29695120Y-70079661D01*
X29695123Y-70079663D01*
X29897251Y-70149621D01*
X30108966Y-70180061D01*
X30322616Y-70169883D01*
X30530479Y-70119456D01*
X30725043Y-70030602D01*
X30899274Y-69906533D01*
X31046877Y-69751731D01*
X31162515Y-69571794D01*
X31242011Y-69373223D01*
X31282491Y-69163196D01*
X31285032Y-69056250D01*
X31282491Y-68949304D01*
X31242011Y-68739277D01*
X31162515Y-68540706D01*
X31046877Y-68360769D01*
X30899274Y-68205967D01*
X30725043Y-68081898D01*
X30725041Y-68081897D01*
X30725042Y-68081897D01*
X30617616Y-68032838D01*
X30530479Y-67993044D01*
X30322616Y-67942617D01*
X30108966Y-67932439D01*
X30108965Y-67932439D01*
X30108964Y-67932439D01*
X30108963Y-67932439D01*
X29897249Y-67962879D01*
X29695119Y-68032838D01*
X29509888Y-68139782D01*
X29509887Y-68139782D01*
X29348243Y-68279846D01*
X29348235Y-68279854D01*
X29216020Y-68447978D01*
X29168216Y-68540706D01*
X29118007Y-68638098D01*
X29057747Y-68843326D01*
X29037415Y-69056250D01*
X23018750Y-69056250D01*
X23018750Y-63056249D01*
X32387500Y-63056249D01*
X32387500Y-63056250D01*
X32387500Y-75056250D01*
X33387500Y-76056250D01*
X45987500Y-76056250D01*
X46987500Y-75056250D01*
X46987500Y-63056250D01*
X46987499Y-63056249D01*
X58581250Y-63056249D01*
X58581250Y-63056250D01*
X58581250Y-75056250D01*
X59581250Y-76056250D01*
X72181250Y-76056250D01*
X73181250Y-75056250D01*
X73181250Y-63056250D01*
X73181249Y-63056249D01*
X77631250Y-63056249D01*
X77631250Y-63056250D01*
X77631250Y-75056250D01*
X78631250Y-76056250D01*
X91231250Y-76056250D01*
X92231250Y-75056250D01*
X92231250Y-69056250D01*
X93331165Y-69056250D01*
X93351497Y-69269174D01*
X93411757Y-69474402D01*
X93461966Y-69571794D01*
X93509770Y-69664521D01*
X93641985Y-69832645D01*
X93641993Y-69832653D01*
X93803637Y-69972717D01*
X93988869Y-70079661D01*
X93988870Y-70079661D01*
X93988873Y-70079663D01*
X94191001Y-70149621D01*
X94402716Y-70180061D01*
X94616366Y-70169883D01*
X94824229Y-70119456D01*
X95018793Y-70030602D01*
X95193024Y-69906533D01*
X95340627Y-69751731D01*
X95456265Y-69571794D01*
X95535761Y-69373223D01*
X95576241Y-69163196D01*
X95578782Y-69056250D01*
X95576241Y-68949304D01*
X95535761Y-68739277D01*
X95456265Y-68540706D01*
X95340627Y-68360769D01*
X95193024Y-68205967D01*
X95018793Y-68081898D01*
X95018791Y-68081897D01*
X95018792Y-68081897D01*
X94911366Y-68032838D01*
X94824229Y-67993044D01*
X94616366Y-67942617D01*
X94402716Y-67932439D01*
X94402715Y-67932439D01*
X94402714Y-67932439D01*
X94402713Y-67932439D01*
X94190999Y-67962879D01*
X93988869Y-68032838D01*
X93803638Y-68139782D01*
X93803637Y-68139782D01*
X93641993Y-68279846D01*
X93641985Y-68279854D01*
X93509770Y-68447978D01*
X93461966Y-68540706D01*
X93411757Y-68638098D01*
X93351497Y-68843326D01*
X93331165Y-69056250D01*
X92231250Y-69056250D01*
X92231250Y-63056250D01*
X92231249Y-63056249D01*
X96681250Y-63056249D01*
X96681250Y-63056250D01*
X96681250Y-75056250D01*
X97681250Y-76056250D01*
X110281250Y-76056250D01*
X111281250Y-75056250D01*
X111281250Y-63056250D01*
X111281249Y-63056249D01*
X115731250Y-63056249D01*
X115731250Y-63056250D01*
X115731250Y-75056250D01*
X116731250Y-76056250D01*
X129331250Y-76056250D01*
X130331250Y-75056250D01*
X130331250Y-63056250D01*
X130331249Y-63056249D01*
X134781250Y-63056249D01*
X134781250Y-63056250D01*
X134781250Y-75056250D01*
X135781250Y-76056250D01*
X148381250Y-76056250D01*
X149381250Y-75056250D01*
X149381250Y-69056250D01*
X150481165Y-69056250D01*
X150501497Y-69269174D01*
X150561757Y-69474402D01*
X150611966Y-69571794D01*
X150659770Y-69664521D01*
X150791985Y-69832645D01*
X150791993Y-69832653D01*
X150953637Y-69972717D01*
X151138869Y-70079661D01*
X151138870Y-70079661D01*
X151138873Y-70079663D01*
X151341001Y-70149621D01*
X151552716Y-70180061D01*
X151766366Y-70169883D01*
X151974229Y-70119456D01*
X152168793Y-70030602D01*
X152343024Y-69906533D01*
X152490627Y-69751731D01*
X152606265Y-69571794D01*
X152685761Y-69373223D01*
X152726241Y-69163196D01*
X152728782Y-69056250D01*
X152726241Y-68949304D01*
X152685761Y-68739277D01*
X152606265Y-68540706D01*
X152490627Y-68360769D01*
X152343024Y-68205967D01*
X152168793Y-68081898D01*
X152168791Y-68081897D01*
X152168792Y-68081897D01*
X152061366Y-68032838D01*
X151974229Y-67993044D01*
X151766366Y-67942617D01*
X151552716Y-67932439D01*
X151552715Y-67932439D01*
X151552714Y-67932439D01*
X151552713Y-67932439D01*
X151340999Y-67962879D01*
X151138869Y-68032838D01*
X150953638Y-68139782D01*
X150953637Y-68139782D01*
X150791993Y-68279846D01*
X150791985Y-68279854D01*
X150659770Y-68447978D01*
X150611966Y-68540706D01*
X150561757Y-68638098D01*
X150501497Y-68843326D01*
X150481165Y-69056250D01*
X149381250Y-69056250D01*
X149381250Y-63056250D01*
X149381249Y-63056249D01*
X153831250Y-63056249D01*
X153831250Y-63056250D01*
X153831250Y-75056250D01*
X154831250Y-76056250D01*
X167431250Y-76056250D01*
X168431250Y-75056250D01*
X168431250Y-63056250D01*
X168431249Y-63056249D01*
X172881250Y-63056249D01*
X172881250Y-63056250D01*
X172881250Y-75056250D01*
X173881250Y-76056250D01*
X186481250Y-76056250D01*
X187481250Y-75056250D01*
X187481250Y-63056250D01*
X187481249Y-63056249D01*
X191931250Y-63056249D01*
X191931250Y-63056250D01*
X191931250Y-75056250D01*
X192931250Y-76056250D01*
X205531250Y-76056250D01*
X206531250Y-75056250D01*
X206531250Y-69056250D01*
X207631165Y-69056250D01*
X207651497Y-69269174D01*
X207711757Y-69474402D01*
X207761966Y-69571794D01*
X207809770Y-69664521D01*
X207941985Y-69832645D01*
X207941993Y-69832653D01*
X208103637Y-69972717D01*
X208288869Y-70079661D01*
X208288870Y-70079661D01*
X208288873Y-70079663D01*
X208491001Y-70149621D01*
X208702716Y-70180061D01*
X208916366Y-70169883D01*
X209124229Y-70119456D01*
X209318793Y-70030602D01*
X209493024Y-69906533D01*
X209640627Y-69751731D01*
X209756265Y-69571794D01*
X209835761Y-69373223D01*
X209876241Y-69163196D01*
X209878782Y-69056250D01*
X209876241Y-68949304D01*
X209835761Y-68739277D01*
X209756265Y-68540706D01*
X209640627Y-68360769D01*
X209493024Y-68205967D01*
X209318793Y-68081898D01*
X209318791Y-68081897D01*
X209318792Y-68081897D01*
X209211366Y-68032838D01*
X209124229Y-67993044D01*
X208916366Y-67942617D01*
X208702716Y-67932439D01*
X208702715Y-67932439D01*
X208702714Y-67932439D01*
X208702713Y-67932439D01*
X208490999Y-67962879D01*
X208288869Y-68032838D01*
X208103638Y-68139782D01*
X208103637Y-68139782D01*
X207941993Y-68279846D01*
X207941985Y-68279854D01*
X207809770Y-68447978D01*
X207761966Y-68540706D01*
X207711757Y-68638098D01*
X207651497Y-68843326D01*
X207631165Y-69056250D01*
X206531250Y-69056250D01*
X206531250Y-63056250D01*
X206531249Y-63056249D01*
X210981250Y-63056249D01*
X210981250Y-63056250D01*
X210981250Y-75056250D01*
X211981250Y-76056250D01*
X224581250Y-76056250D01*
X225581250Y-75056250D01*
X225581250Y-63056250D01*
X225581249Y-63056249D01*
X230031250Y-63056249D01*
X230031250Y-63056250D01*
X230031250Y-75056250D01*
X231031250Y-76056250D01*
X243631250Y-76056250D01*
X244631250Y-75056250D01*
X244631250Y-69056250D01*
X245731165Y-69056250D01*
X245751497Y-69269174D01*
X245811757Y-69474402D01*
X245861966Y-69571794D01*
X245909770Y-69664521D01*
X246041985Y-69832645D01*
X246041993Y-69832653D01*
X246203637Y-69972717D01*
X246388869Y-70079661D01*
X246388870Y-70079661D01*
X246388873Y-70079663D01*
X246591001Y-70149621D01*
X246802716Y-70180061D01*
X247016366Y-70169883D01*
X247224229Y-70119456D01*
X247418793Y-70030602D01*
X247593024Y-69906533D01*
X247740627Y-69751731D01*
X247856265Y-69571794D01*
X247935761Y-69373223D01*
X247976241Y-69163196D01*
X247978782Y-69056250D01*
X247976241Y-68949304D01*
X247935761Y-68739277D01*
X247856265Y-68540706D01*
X247740627Y-68360769D01*
X247593024Y-68205967D01*
X247418793Y-68081898D01*
X247418791Y-68081897D01*
X247418792Y-68081897D01*
X247311366Y-68032838D01*
X247224229Y-67993044D01*
X247016366Y-67942617D01*
X246802716Y-67932439D01*
X246802715Y-67932439D01*
X246802714Y-67932439D01*
X246802713Y-67932439D01*
X246590999Y-67962879D01*
X246388869Y-68032838D01*
X246203638Y-68139782D01*
X246203637Y-68139782D01*
X246041993Y-68279846D01*
X246041985Y-68279854D01*
X245909770Y-68447978D01*
X245861966Y-68540706D01*
X245811757Y-68638098D01*
X245751497Y-68843326D01*
X245731165Y-69056250D01*
X244631250Y-69056250D01*
X244631250Y-63056250D01*
X244631249Y-63056249D01*
X249081250Y-63056249D01*
X249081250Y-63056250D01*
X249081250Y-75056250D01*
X250081250Y-76056250D01*
X262681250Y-76056250D01*
X263681250Y-75056250D01*
X263681250Y-63056250D01*
X262681250Y-62056250D01*
X250081249Y-62056250D01*
X249081250Y-63056249D01*
X244631249Y-63056249D01*
X243631250Y-62056250D01*
X231031249Y-62056250D01*
X230031250Y-63056249D01*
X225581249Y-63056249D01*
X224581250Y-62056250D01*
X211981249Y-62056250D01*
X210981250Y-63056249D01*
X206531249Y-63056249D01*
X205531250Y-62056250D01*
X192931249Y-62056250D01*
X191931250Y-63056249D01*
X187481249Y-63056249D01*
X186481250Y-62056250D01*
X173881249Y-62056250D01*
X172881250Y-63056249D01*
X168431249Y-63056249D01*
X167431250Y-62056250D01*
X154831249Y-62056250D01*
X153831250Y-63056249D01*
X149381249Y-63056249D01*
X148381250Y-62056250D01*
X135781249Y-62056250D01*
X134781250Y-63056249D01*
X130331249Y-63056249D01*
X129331250Y-62056250D01*
X116731249Y-62056250D01*
X115731250Y-63056249D01*
X111281249Y-63056249D01*
X110281250Y-62056250D01*
X97681249Y-62056250D01*
X96681250Y-63056249D01*
X92231249Y-63056249D01*
X91231250Y-62056250D01*
X78631249Y-62056250D01*
X77631250Y-63056249D01*
X73181249Y-63056249D01*
X72181250Y-62056250D01*
X59581249Y-62056250D01*
X58581250Y-63056249D01*
X46987499Y-63056249D01*
X45987500Y-62056250D01*
X33387499Y-62056250D01*
X32387500Y-63056249D01*
X23018750Y-63056249D01*
X23018750Y-50006250D01*
X24274915Y-50006250D01*
X24295247Y-50219174D01*
X24355507Y-50424402D01*
X24405716Y-50521794D01*
X24453520Y-50614521D01*
X24585735Y-50782645D01*
X24585743Y-50782653D01*
X24747387Y-50922717D01*
X24932619Y-51029661D01*
X24932620Y-51029661D01*
X24932623Y-51029663D01*
X25134751Y-51099621D01*
X25346466Y-51130061D01*
X25560116Y-51119883D01*
X25767979Y-51069456D01*
X25962543Y-50980602D01*
X26136774Y-50856533D01*
X26284377Y-50701731D01*
X26400015Y-50521794D01*
X26479511Y-50323223D01*
X26519991Y-50113196D01*
X26522532Y-50006250D01*
X26519991Y-49899304D01*
X26479511Y-49689277D01*
X26400015Y-49490706D01*
X26284377Y-49310769D01*
X26136774Y-49155967D01*
X25962543Y-49031898D01*
X25962541Y-49031897D01*
X25962542Y-49031897D01*
X25855116Y-48982838D01*
X25767979Y-48943044D01*
X25560116Y-48892617D01*
X25346466Y-48882439D01*
X25346465Y-48882439D01*
X25346464Y-48882439D01*
X25346463Y-48882439D01*
X25134749Y-48912879D01*
X24932619Y-48982838D01*
X24747388Y-49089782D01*
X24747387Y-49089782D01*
X24585743Y-49229846D01*
X24585735Y-49229854D01*
X24453520Y-49397978D01*
X24405716Y-49490706D01*
X24355507Y-49588098D01*
X24295247Y-49793326D01*
X24274915Y-50006250D01*
X23018750Y-50006250D01*
X23018750Y-44006249D01*
X27625000Y-44006249D01*
X27625000Y-44006250D01*
X27625000Y-56006250D01*
X28625000Y-57006250D01*
X41225000Y-57006250D01*
X42225000Y-56006250D01*
X42225000Y-44006250D01*
X42224999Y-44006249D01*
X49056250Y-44006249D01*
X49056250Y-44006250D01*
X49056250Y-56006250D01*
X50056250Y-57006250D01*
X62656250Y-57006250D01*
X63656250Y-56006250D01*
X63656250Y-50006250D01*
X64756165Y-50006250D01*
X64776497Y-50219174D01*
X64836757Y-50424402D01*
X64886966Y-50521794D01*
X64934770Y-50614521D01*
X65066985Y-50782645D01*
X65066993Y-50782653D01*
X65228637Y-50922717D01*
X65413869Y-51029661D01*
X65413870Y-51029661D01*
X65413873Y-51029663D01*
X65616001Y-51099621D01*
X65827716Y-51130061D01*
X66041366Y-51119883D01*
X66249229Y-51069456D01*
X66443793Y-50980602D01*
X66618024Y-50856533D01*
X66765627Y-50701731D01*
X66881265Y-50521794D01*
X66960761Y-50323223D01*
X67001241Y-50113196D01*
X67003782Y-50006250D01*
X67001241Y-49899304D01*
X66960761Y-49689277D01*
X66881265Y-49490706D01*
X66765627Y-49310769D01*
X66618024Y-49155967D01*
X66443793Y-49031898D01*
X66443791Y-49031897D01*
X66443792Y-49031897D01*
X66336366Y-48982838D01*
X66249229Y-48943044D01*
X66041366Y-48892617D01*
X65827716Y-48882439D01*
X65827715Y-48882439D01*
X65827714Y-48882439D01*
X65827713Y-48882439D01*
X65615999Y-48912879D01*
X65413869Y-48982838D01*
X65228638Y-49089782D01*
X65228637Y-49089782D01*
X65066993Y-49229846D01*
X65066985Y-49229854D01*
X64934770Y-49397978D01*
X64886966Y-49490706D01*
X64836757Y-49588098D01*
X64776497Y-49793326D01*
X64756165Y-50006250D01*
X63656250Y-50006250D01*
X63656250Y-44006250D01*
X63656249Y-44006249D01*
X68106250Y-44006249D01*
X68106250Y-44006250D01*
X68106250Y-56006250D01*
X69106250Y-57006250D01*
X81706250Y-57006250D01*
X82706250Y-56006250D01*
X82706250Y-44006250D01*
X82706249Y-44006249D01*
X87156250Y-44006249D01*
X87156250Y-44006250D01*
X87156250Y-56006250D01*
X88156250Y-57006250D01*
X100756250Y-57006250D01*
X101756250Y-56006250D01*
X101756250Y-50006250D01*
X102856165Y-50006250D01*
X102876497Y-50219174D01*
X102936757Y-50424402D01*
X102986966Y-50521794D01*
X103034770Y-50614521D01*
X103166985Y-50782645D01*
X103166993Y-50782653D01*
X103328637Y-50922717D01*
X103513869Y-51029661D01*
X103513870Y-51029661D01*
X103513873Y-51029663D01*
X103716001Y-51099621D01*
X103927716Y-51130061D01*
X104141366Y-51119883D01*
X104349229Y-51069456D01*
X104543793Y-50980602D01*
X104718024Y-50856533D01*
X104865627Y-50701731D01*
X104981265Y-50521794D01*
X105060761Y-50323223D01*
X105101241Y-50113196D01*
X105103782Y-50006250D01*
X105101241Y-49899304D01*
X105060761Y-49689277D01*
X104981265Y-49490706D01*
X104865627Y-49310769D01*
X104718024Y-49155967D01*
X104543793Y-49031898D01*
X104543791Y-49031897D01*
X104543792Y-49031897D01*
X104436366Y-48982838D01*
X104349229Y-48943044D01*
X104141366Y-48892617D01*
X103927716Y-48882439D01*
X103927715Y-48882439D01*
X103927714Y-48882439D01*
X103927713Y-48882439D01*
X103715999Y-48912879D01*
X103513869Y-48982838D01*
X103328638Y-49089782D01*
X103328637Y-49089782D01*
X103166993Y-49229846D01*
X103166985Y-49229854D01*
X103034770Y-49397978D01*
X102986966Y-49490706D01*
X102936757Y-49588098D01*
X102876497Y-49793326D01*
X102856165Y-50006250D01*
X101756250Y-50006250D01*
X101756250Y-44006250D01*
X101756249Y-44006249D01*
X106206250Y-44006249D01*
X106206250Y-44006250D01*
X106206250Y-56006250D01*
X107206250Y-57006250D01*
X119806250Y-57006250D01*
X120806250Y-56006250D01*
X120806250Y-44006250D01*
X120806249Y-44006249D01*
X125256250Y-44006249D01*
X125256250Y-44006250D01*
X125256250Y-56006250D01*
X126256250Y-57006250D01*
X138856250Y-57006250D01*
X139856250Y-56006250D01*
X139856250Y-50006250D01*
X140956165Y-50006250D01*
X140976497Y-50219174D01*
X141036757Y-50424402D01*
X141086966Y-50521794D01*
X141134770Y-50614521D01*
X141266985Y-50782645D01*
X141266993Y-50782653D01*
X141428637Y-50922717D01*
X141613869Y-51029661D01*
X141613870Y-51029661D01*
X141613873Y-51029663D01*
X141816001Y-51099621D01*
X142027716Y-51130061D01*
X142241366Y-51119883D01*
X142449229Y-51069456D01*
X142643793Y-50980602D01*
X142818024Y-50856533D01*
X142965627Y-50701731D01*
X143081265Y-50521794D01*
X143160761Y-50323223D01*
X143201241Y-50113196D01*
X143203782Y-50006250D01*
X143201241Y-49899304D01*
X143160761Y-49689277D01*
X143081265Y-49490706D01*
X142965627Y-49310769D01*
X142818024Y-49155967D01*
X142643793Y-49031898D01*
X142643791Y-49031897D01*
X142643792Y-49031897D01*
X142536366Y-48982838D01*
X142449229Y-48943044D01*
X142241366Y-48892617D01*
X142027716Y-48882439D01*
X142027715Y-48882439D01*
X142027714Y-48882439D01*
X142027713Y-48882439D01*
X141815999Y-48912879D01*
X141613869Y-48982838D01*
X141428638Y-49089782D01*
X141428637Y-49089782D01*
X141266993Y-49229846D01*
X141266985Y-49229854D01*
X141134770Y-49397978D01*
X141086966Y-49490706D01*
X141036757Y-49588098D01*
X140976497Y-49793326D01*
X140956165Y-50006250D01*
X139856250Y-50006250D01*
X139856250Y-44006250D01*
X139856249Y-44006249D01*
X144306250Y-44006249D01*
X144306250Y-44006250D01*
X144306250Y-56006250D01*
X145306250Y-57006250D01*
X157906250Y-57006250D01*
X158906250Y-56006250D01*
X158906250Y-44006250D01*
X158906249Y-44006249D01*
X163356250Y-44006249D01*
X163356250Y-44006250D01*
X163356250Y-56006250D01*
X164356250Y-57006250D01*
X176956250Y-57006250D01*
X177956250Y-56006250D01*
X177956250Y-44006250D01*
X177956249Y-44006249D01*
X182406250Y-44006249D01*
X182406250Y-44006250D01*
X182406250Y-56006250D01*
X183406250Y-57006250D01*
X196006250Y-57006250D01*
X197006250Y-56006250D01*
X197006250Y-50006250D01*
X198106165Y-50006250D01*
X198126497Y-50219174D01*
X198186757Y-50424402D01*
X198236966Y-50521794D01*
X198284770Y-50614521D01*
X198416985Y-50782645D01*
X198416993Y-50782653D01*
X198578637Y-50922717D01*
X198763869Y-51029661D01*
X198763870Y-51029661D01*
X198763873Y-51029663D01*
X198966001Y-51099621D01*
X199177716Y-51130061D01*
X199391366Y-51119883D01*
X199599229Y-51069456D01*
X199793793Y-50980602D01*
X199968024Y-50856533D01*
X200115627Y-50701731D01*
X200231265Y-50521794D01*
X200310761Y-50323223D01*
X200351241Y-50113196D01*
X200353782Y-50006250D01*
X200351241Y-49899304D01*
X200310761Y-49689277D01*
X200231265Y-49490706D01*
X200115627Y-49310769D01*
X199968024Y-49155967D01*
X199793793Y-49031898D01*
X199793791Y-49031897D01*
X199793792Y-49031897D01*
X199686366Y-48982838D01*
X199599229Y-48943044D01*
X199391366Y-48892617D01*
X199177716Y-48882439D01*
X199177715Y-48882439D01*
X199177714Y-48882439D01*
X199177713Y-48882439D01*
X198965999Y-48912879D01*
X198763869Y-48982838D01*
X198578638Y-49089782D01*
X198578637Y-49089782D01*
X198416993Y-49229846D01*
X198416985Y-49229854D01*
X198284770Y-49397978D01*
X198236966Y-49490706D01*
X198186757Y-49588098D01*
X198126497Y-49793326D01*
X198106165Y-50006250D01*
X197006250Y-50006250D01*
X197006250Y-44006250D01*
X197006249Y-44006249D01*
X201456250Y-44006249D01*
X201456250Y-44006250D01*
X201456250Y-56006250D01*
X202456250Y-57006250D01*
X215056250Y-57006250D01*
X216056250Y-56006250D01*
X216056250Y-44006250D01*
X216056249Y-44006249D01*
X220506250Y-44006249D01*
X220506250Y-44006250D01*
X220506250Y-56006250D01*
X221506250Y-57006250D01*
X234106250Y-57006250D01*
X235106250Y-56006250D01*
X235106250Y-50006250D01*
X240968665Y-50006250D01*
X240988997Y-50219174D01*
X241049257Y-50424402D01*
X241099466Y-50521794D01*
X241147270Y-50614521D01*
X241279485Y-50782645D01*
X241279493Y-50782653D01*
X241441137Y-50922717D01*
X241626369Y-51029661D01*
X241626370Y-51029661D01*
X241626373Y-51029663D01*
X241828501Y-51099621D01*
X242040216Y-51130061D01*
X242253866Y-51119883D01*
X242461729Y-51069456D01*
X242656293Y-50980602D01*
X242830524Y-50856533D01*
X242978127Y-50701731D01*
X243093765Y-50521794D01*
X243173261Y-50323223D01*
X243213741Y-50113196D01*
X243216282Y-50006250D01*
X243213741Y-49899304D01*
X243173261Y-49689277D01*
X243093765Y-49490706D01*
X242978127Y-49310769D01*
X242830524Y-49155967D01*
X242656293Y-49031898D01*
X242656291Y-49031897D01*
X242656292Y-49031897D01*
X242548866Y-48982838D01*
X242461729Y-48943044D01*
X242253866Y-48892617D01*
X242040216Y-48882439D01*
X242040215Y-48882439D01*
X242040214Y-48882439D01*
X242040213Y-48882439D01*
X241828499Y-48912879D01*
X241626369Y-48982838D01*
X241441138Y-49089782D01*
X241441137Y-49089782D01*
X241279493Y-49229846D01*
X241279485Y-49229854D01*
X241147270Y-49397978D01*
X241099466Y-49490706D01*
X241049257Y-49588098D01*
X240988997Y-49793326D01*
X240968665Y-50006250D01*
X235106250Y-50006250D01*
X235106250Y-44006250D01*
X235106249Y-44006249D01*
X244318750Y-44006249D01*
X244318750Y-44006250D01*
X244318750Y-56006250D01*
X245318750Y-57006250D01*
X257918750Y-57006250D01*
X258918750Y-56006250D01*
X258918750Y-44006250D01*
X257918750Y-43006250D01*
X245318749Y-43006250D01*
X244318750Y-44006249D01*
X235106249Y-44006249D01*
X234106250Y-43006250D01*
X221506249Y-43006250D01*
X220506250Y-44006249D01*
X216056249Y-44006249D01*
X215056250Y-43006250D01*
X202456249Y-43006250D01*
X201456250Y-44006249D01*
X197006249Y-44006249D01*
X196006250Y-43006250D01*
X183406249Y-43006250D01*
X182406250Y-44006249D01*
X177956249Y-44006249D01*
X176956250Y-43006250D01*
X164356249Y-43006250D01*
X163356250Y-44006249D01*
X158906249Y-44006249D01*
X157906250Y-43006250D01*
X145306249Y-43006250D01*
X144306250Y-44006249D01*
X139856249Y-44006249D01*
X138856250Y-43006250D01*
X126256249Y-43006250D01*
X125256250Y-44006249D01*
X120806249Y-44006249D01*
X119806250Y-43006250D01*
X107206249Y-43006250D01*
X106206250Y-44006249D01*
X101756249Y-44006249D01*
X100756250Y-43006250D01*
X88156249Y-43006250D01*
X87156250Y-44006249D01*
X82706249Y-44006249D01*
X81706250Y-43006250D01*
X69106249Y-43006250D01*
X68106250Y-44006249D01*
X63656249Y-44006249D01*
X62656250Y-43006250D01*
X50056249Y-43006250D01*
X49056250Y-44006249D01*
X42224999Y-44006249D01*
X41225000Y-43006250D01*
X28624999Y-43006250D01*
X27625000Y-44006249D01*
X23018750Y-44006249D01*
X23018750Y-28281250D01*
X23016438Y-28163379D01*
X22979560Y-27930541D01*
X22906712Y-27706337D01*
X22799688Y-27496290D01*
X22661122Y-27305572D01*
X22494428Y-27138878D01*
X22303710Y-27000312D01*
X22093663Y-26893288D01*
X22093660Y-26893286D01*
X21869460Y-26820440D01*
X21636616Y-26783561D01*
X21518759Y-26781250D01*
X21518750Y-26781250D01*
X20694758Y-26781250D01*
X20692758Y-26781234D01*
X20524034Y-26778512D01*
X20509688Y-26777446D01*
X20174220Y-26732834D01*
X20158157Y-26729606D01*
X19832465Y-26641416D01*
X19816968Y-26636098D01*
X19505755Y-26505744D01*
X19491094Y-26498430D01*
X19491063Y-26498412D01*
X19198913Y-26327672D01*
X19186923Y-26319696D01*
X19053693Y-26219444D01*
X19049016Y-26215745D01*
X19008380Y-26181989D01*
X18986983Y-26159059D01*
X18923002Y-26070195D01*
X18906664Y-26038905D01*
X18870985Y-25937519D01*
X18864126Y-25902891D01*
X18858462Y-25795556D01*
X18861638Y-25760407D01*
X18886450Y-25655823D01*
X18899399Y-25622997D01*
X18952676Y-25529641D01*
X18974352Y-25501791D01*
X19051778Y-25427227D01*
X19080424Y-25406615D01*
X19177527Y-25355949D01*
X19206903Y-25345086D01*
X19260833Y-25332600D01*
X19261856Y-25332369D01*
X19373317Y-25307701D01*
X19586488Y-25222886D01*
X19780615Y-25100616D01*
X19936992Y-24956250D01*
X19936993Y-24956249D01*
X25243750Y-24956249D01*
X25243750Y-24956250D01*
X25243750Y-36956250D01*
X26243750Y-37956250D01*
X38843750Y-37956250D01*
X39843750Y-36956250D01*
X39843750Y-30956250D01*
X40943665Y-30956250D01*
X40963997Y-31169174D01*
X41024257Y-31374402D01*
X41074466Y-31471794D01*
X41122270Y-31564521D01*
X41254485Y-31732645D01*
X41254493Y-31732653D01*
X41416137Y-31872717D01*
X41601369Y-31979661D01*
X41601370Y-31979661D01*
X41601373Y-31979663D01*
X41803501Y-32049621D01*
X42015216Y-32080061D01*
X42228866Y-32069883D01*
X42436729Y-32019456D01*
X42631293Y-31930602D01*
X42805524Y-31806533D01*
X42953127Y-31651731D01*
X43068765Y-31471794D01*
X43148261Y-31273223D01*
X43188741Y-31063196D01*
X43191282Y-30956250D01*
X43188741Y-30849304D01*
X43148261Y-30639277D01*
X43068765Y-30440706D01*
X42953127Y-30260769D01*
X42805524Y-30105967D01*
X42631293Y-29981898D01*
X42631291Y-29981897D01*
X42631292Y-29981897D01*
X42523866Y-29932838D01*
X42436729Y-29893044D01*
X42228866Y-29842617D01*
X42015216Y-29832439D01*
X42015215Y-29832439D01*
X42015214Y-29832439D01*
X42015213Y-29832439D01*
X41803499Y-29862879D01*
X41601369Y-29932838D01*
X41416138Y-30039782D01*
X41416137Y-30039782D01*
X41254493Y-30179846D01*
X41254485Y-30179854D01*
X41122270Y-30347978D01*
X41074466Y-30440706D01*
X41024257Y-30538098D01*
X40963997Y-30743326D01*
X40943665Y-30956250D01*
X39843750Y-30956250D01*
X39843750Y-24956250D01*
X39843749Y-24956249D01*
X44293750Y-24956249D01*
X44293750Y-24956250D01*
X44293750Y-36956250D01*
X45293750Y-37956250D01*
X57893750Y-37956250D01*
X58893750Y-36956250D01*
X58893750Y-24956250D01*
X58893749Y-24956249D01*
X63343750Y-24956249D01*
X63343750Y-24956250D01*
X63343750Y-36956250D01*
X64343750Y-37956250D01*
X76943750Y-37956250D01*
X77943750Y-36956250D01*
X77943750Y-24956250D01*
X77943749Y-24956249D01*
X82393750Y-24956249D01*
X82393750Y-24956250D01*
X82393750Y-36956250D01*
X83393750Y-37956250D01*
X95993750Y-37956250D01*
X96993750Y-36956250D01*
X96993750Y-30956250D01*
X98093665Y-30956250D01*
X98113997Y-31169174D01*
X98174257Y-31374402D01*
X98224466Y-31471794D01*
X98272270Y-31564521D01*
X98404485Y-31732645D01*
X98404493Y-31732653D01*
X98566137Y-31872717D01*
X98751369Y-31979661D01*
X98751370Y-31979661D01*
X98751373Y-31979663D01*
X98953501Y-32049621D01*
X99165216Y-32080061D01*
X99378866Y-32069883D01*
X99586729Y-32019456D01*
X99781293Y-31930602D01*
X99955524Y-31806533D01*
X100103127Y-31651731D01*
X100218765Y-31471794D01*
X100298261Y-31273223D01*
X100338741Y-31063196D01*
X100341282Y-30956250D01*
X100338741Y-30849304D01*
X100298261Y-30639277D01*
X100218765Y-30440706D01*
X100103127Y-30260769D01*
X99955524Y-30105967D01*
X99781293Y-29981898D01*
X99781291Y-29981897D01*
X99781292Y-29981897D01*
X99673866Y-29932838D01*
X99586729Y-29893044D01*
X99378866Y-29842617D01*
X99165216Y-29832439D01*
X99165215Y-29832439D01*
X99165214Y-29832439D01*
X99165213Y-29832439D01*
X98953499Y-29862879D01*
X98751369Y-29932838D01*
X98566138Y-30039782D01*
X98566137Y-30039782D01*
X98404493Y-30179846D01*
X98404485Y-30179854D01*
X98272270Y-30347978D01*
X98224466Y-30440706D01*
X98174257Y-30538098D01*
X98113997Y-30743326D01*
X98093665Y-30956250D01*
X96993750Y-30956250D01*
X96993750Y-24956250D01*
X96993749Y-24956249D01*
X101443750Y-24956249D01*
X101443750Y-24956250D01*
X101443750Y-36956250D01*
X102443750Y-37956250D01*
X115043750Y-37956250D01*
X116043750Y-36956250D01*
X116043750Y-24956250D01*
X116043749Y-24956249D01*
X120493750Y-24956249D01*
X120493750Y-24956250D01*
X120493750Y-36956250D01*
X121493750Y-37956250D01*
X134093750Y-37956250D01*
X135093750Y-36956250D01*
X135093750Y-24956250D01*
X135093749Y-24956249D01*
X139543750Y-24956249D01*
X139543750Y-24956250D01*
X139543750Y-36956250D01*
X140543750Y-37956250D01*
X153143750Y-37956250D01*
X154143750Y-36956250D01*
X154143750Y-30956250D01*
X155243665Y-30956250D01*
X155263997Y-31169174D01*
X155324257Y-31374402D01*
X155374466Y-31471794D01*
X155422270Y-31564521D01*
X155554485Y-31732645D01*
X155554493Y-31732653D01*
X155716137Y-31872717D01*
X155901369Y-31979661D01*
X155901370Y-31979661D01*
X155901373Y-31979663D01*
X156103501Y-32049621D01*
X156315216Y-32080061D01*
X156528866Y-32069883D01*
X156736729Y-32019456D01*
X156931293Y-31930602D01*
X157105524Y-31806533D01*
X157253127Y-31651731D01*
X157368765Y-31471794D01*
X157448261Y-31273223D01*
X157488741Y-31063196D01*
X157491282Y-30956250D01*
X157488741Y-30849304D01*
X157448261Y-30639277D01*
X157368765Y-30440706D01*
X157253127Y-30260769D01*
X157105524Y-30105967D01*
X156931293Y-29981898D01*
X156931291Y-29981897D01*
X156931292Y-29981897D01*
X156823866Y-29932838D01*
X156736729Y-29893044D01*
X156528866Y-29842617D01*
X156315216Y-29832439D01*
X156315215Y-29832439D01*
X156315214Y-29832439D01*
X156315213Y-29832439D01*
X156103499Y-29862879D01*
X155901369Y-29932838D01*
X155716138Y-30039782D01*
X155716137Y-30039782D01*
X155554493Y-30179846D01*
X155554485Y-30179854D01*
X155422270Y-30347978D01*
X155374466Y-30440706D01*
X155324257Y-30538098D01*
X155263997Y-30743326D01*
X155243665Y-30956250D01*
X154143750Y-30956250D01*
X154143750Y-24956250D01*
X154143749Y-24956249D01*
X158593750Y-24956249D01*
X158593750Y-24956250D01*
X158593750Y-36956250D01*
X159593750Y-37956250D01*
X172193750Y-37956250D01*
X173193750Y-36956250D01*
X173193750Y-24956250D01*
X173193749Y-24956249D01*
X177643750Y-24956249D01*
X177643750Y-24956250D01*
X177643750Y-36956250D01*
X178643750Y-37956250D01*
X191243750Y-37956250D01*
X192243750Y-36956250D01*
X192243750Y-24956250D01*
X192243749Y-24956249D01*
X196693750Y-24956249D01*
X196693750Y-24956250D01*
X196693750Y-36956250D01*
X197693750Y-37956250D01*
X210293750Y-37956250D01*
X211293750Y-36956250D01*
X211293750Y-30956250D01*
X212393665Y-30956250D01*
X212413997Y-31169174D01*
X212474257Y-31374402D01*
X212524466Y-31471794D01*
X212572270Y-31564521D01*
X212704485Y-31732645D01*
X212704493Y-31732653D01*
X212866137Y-31872717D01*
X213051369Y-31979661D01*
X213051370Y-31979661D01*
X213051373Y-31979663D01*
X213253501Y-32049621D01*
X213465216Y-32080061D01*
X213678866Y-32069883D01*
X213886729Y-32019456D01*
X214081293Y-31930602D01*
X214255524Y-31806533D01*
X214403127Y-31651731D01*
X214518765Y-31471794D01*
X214598261Y-31273223D01*
X214638741Y-31063196D01*
X214641282Y-30956250D01*
X214638741Y-30849304D01*
X214598261Y-30639277D01*
X214518765Y-30440706D01*
X214403127Y-30260769D01*
X214255524Y-30105967D01*
X214081293Y-29981898D01*
X214081291Y-29981897D01*
X214081292Y-29981897D01*
X213973866Y-29932838D01*
X213886729Y-29893044D01*
X213678866Y-29842617D01*
X213465216Y-29832439D01*
X213465215Y-29832439D01*
X213465214Y-29832439D01*
X213465213Y-29832439D01*
X213253499Y-29862879D01*
X213051369Y-29932838D01*
X212866138Y-30039782D01*
X212866137Y-30039782D01*
X212704493Y-30179846D01*
X212704485Y-30179854D01*
X212572270Y-30347978D01*
X212524466Y-30440706D01*
X212474257Y-30538098D01*
X212413997Y-30743326D01*
X212393665Y-30956250D01*
X211293750Y-30956250D01*
X211293750Y-24956250D01*
X211293749Y-24956249D01*
X215743750Y-24956249D01*
X215743750Y-24956250D01*
X215743750Y-36956250D01*
X216743750Y-37956250D01*
X229343750Y-37956250D01*
X230343750Y-36956250D01*
X230343750Y-24956250D01*
X230343749Y-24956249D01*
X241937500Y-24956249D01*
X241937500Y-24956250D01*
X241937500Y-36956250D01*
X242937500Y-37956250D01*
X255537500Y-37956250D01*
X256537500Y-36956250D01*
X256537500Y-30956250D01*
X257637415Y-30956250D01*
X257657747Y-31169174D01*
X257718007Y-31374402D01*
X257768216Y-31471794D01*
X257816020Y-31564521D01*
X257948235Y-31732645D01*
X257948243Y-31732653D01*
X258109887Y-31872717D01*
X258295119Y-31979661D01*
X258295120Y-31979661D01*
X258295123Y-31979663D01*
X258497251Y-32049621D01*
X258708966Y-32080061D01*
X258922616Y-32069883D01*
X259130479Y-32019456D01*
X259325043Y-31930602D01*
X259499274Y-31806533D01*
X259646877Y-31651731D01*
X259762515Y-31471794D01*
X259842011Y-31273223D01*
X259882491Y-31063196D01*
X259885032Y-30956250D01*
X259882491Y-30849304D01*
X259842011Y-30639277D01*
X259762515Y-30440706D01*
X259646877Y-30260769D01*
X259499274Y-30105967D01*
X259325043Y-29981898D01*
X259325041Y-29981897D01*
X259325042Y-29981897D01*
X259217616Y-29932838D01*
X259130479Y-29893044D01*
X258922616Y-29842617D01*
X258708966Y-29832439D01*
X258708965Y-29832439D01*
X258708964Y-29832439D01*
X258708963Y-29832439D01*
X258497249Y-29862879D01*
X258295119Y-29932838D01*
X258109888Y-30039782D01*
X258109887Y-30039782D01*
X257948243Y-30179846D01*
X257948235Y-30179854D01*
X257816020Y-30347978D01*
X257768216Y-30440706D01*
X257718007Y-30538098D01*
X257657747Y-30743326D01*
X257637415Y-30956250D01*
X256537500Y-30956250D01*
X256537500Y-24956250D01*
X255537500Y-23956250D01*
X242937499Y-23956250D01*
X241937500Y-24956249D01*
X230343749Y-24956249D01*
X229343750Y-23956250D01*
X216743749Y-23956250D01*
X215743750Y-24956249D01*
X211293749Y-24956249D01*
X210293750Y-23956250D01*
X197693749Y-23956250D01*
X196693750Y-24956249D01*
X192243749Y-24956249D01*
X191243750Y-23956250D01*
X178643749Y-23956250D01*
X177643750Y-24956249D01*
X173193749Y-24956249D01*
X172193750Y-23956250D01*
X159593749Y-23956250D01*
X158593750Y-24956249D01*
X154143749Y-24956249D01*
X153143750Y-23956250D01*
X140543749Y-23956250D01*
X139543750Y-24956249D01*
X135093749Y-24956249D01*
X134093750Y-23956250D01*
X121493749Y-23956250D01*
X120493750Y-24956249D01*
X116043749Y-24956249D01*
X115043750Y-23956250D01*
X102443749Y-23956250D01*
X101443750Y-24956249D01*
X96993749Y-24956249D01*
X95993750Y-23956250D01*
X83393749Y-23956250D01*
X82393750Y-24956249D01*
X77943749Y-24956249D01*
X76943750Y-23956250D01*
X64343749Y-23956250D01*
X63343750Y-24956249D01*
X58893749Y-24956249D01*
X57893750Y-23956250D01*
X45293749Y-23956250D01*
X44293750Y-24956249D01*
X39843749Y-24956249D01*
X38843750Y-23956250D01*
X26243749Y-23956250D01*
X25243750Y-24956249D01*
X19936993Y-24956249D01*
X19949185Y-24944994D01*
X19949187Y-24944992D01*
X19949255Y-24944901D01*
X20086550Y-24761234D01*
X20086589Y-24761155D01*
X20188094Y-24555512D01*
X20188097Y-24555504D01*
X20250418Y-24334712D01*
X20250419Y-24334710D01*
X20250424Y-24334656D01*
X20271428Y-24106250D01*
X20250419Y-23877790D01*
X20188096Y-23656993D01*
X20188094Y-23656987D01*
X20086553Y-23451271D01*
X20086551Y-23451269D01*
X20086550Y-23451266D01*
X20007945Y-23346111D01*
X19949187Y-23267507D01*
X19949185Y-23267505D01*
X19780621Y-23111889D01*
X19780614Y-23111883D01*
X19586497Y-22989619D01*
X19586480Y-22989610D01*
X19373321Y-22904800D01*
X19373317Y-22904799D01*
X19261911Y-22880143D01*
X19260783Y-22879888D01*
X19235344Y-22874003D01*
X19206918Y-22867428D01*
X19177504Y-22856553D01*
X19080420Y-22805897D01*
X19051767Y-22785279D01*
X18974346Y-22710721D01*
X18952663Y-22682864D01*
X18952657Y-22682854D01*
X18934917Y-22651768D01*
X18899389Y-22589511D01*
X18886435Y-22556674D01*
X18861625Y-22452097D01*
X18858448Y-22416944D01*
X18864112Y-22309603D01*
X18870971Y-22274978D01*
X18906651Y-22173588D01*
X18922986Y-22142301D01*
X18986973Y-22053431D01*
X19008375Y-22030499D01*
X19049034Y-21996737D01*
X19053635Y-21993098D01*
X19186957Y-21892801D01*
X19198907Y-21884853D01*
X19491117Y-21714079D01*
X19505749Y-21706780D01*
X19816991Y-21576413D01*
X19832455Y-21571106D01*
X20158174Y-21482909D01*
X20174212Y-21479686D01*
X20509698Y-21435072D01*
X20524024Y-21434007D01*
X20692765Y-21431265D01*
X20694779Y-21431250D01*
X268230243Y-21431250D01*
X268232242Y-21431266D01*
G37*
%TD.AperFunction*%
%TD*%
M02*
