%TF.GenerationSoftware,KiCad,Pcbnew,8.0.5*%
%TF.CreationDate,2024-11-10T15:14:38+01:00*%
%TF.ProjectId,plate tray split,706c6174-6520-4747-9261-792073706c69,rev?*%
%TF.SameCoordinates,Original*%
%TF.FileFunction,Profile,NP*%
%FSLAX46Y46*%
G04 Gerber Fmt 4.6, Leading zero omitted, Abs format (unit mm)*
G04 Created by KiCad (PCBNEW 8.0.5) date 2024-11-10 15:14:38*
%MOMM*%
%LPD*%
G01*
G04 APERTURE LIST*
%TA.AperFunction,Profile*%
%ADD10C,0.100000*%
%TD*%
%TA.AperFunction,Profile*%
%ADD11C,0.200000*%
%TD*%
%TA.AperFunction,Profile*%
%ADD12C,0.120000*%
%TD*%
G04 APERTURE END LIST*
D10*
X139856250Y-56006250D02*
X139856250Y-44006250D01*
X53330477Y-37956250D02*
X45293750Y-37956250D01*
D11*
X266156045Y-94631650D02*
G75*
G02*
X263156044Y-97631645I-3000045J50D01*
G01*
D10*
X247978782Y-69056250D02*
G75*
G02*
X245733718Y-69056250I-1122532J0D01*
G01*
X245733718Y-69056250D02*
G75*
G02*
X247978782Y-69056250I1122532J0D01*
G01*
X125256250Y-44006250D02*
X126256250Y-43006250D01*
X55509349Y-43006250D02*
X62656250Y-43006250D01*
X120493750Y-36956250D02*
X120493750Y-24956250D01*
X243216282Y-50006250D02*
G75*
G02*
X240971218Y-50006250I-1122532J0D01*
G01*
X240971218Y-50006250D02*
G75*
G02*
X243216282Y-50006250I1122532J0D01*
G01*
X45293750Y-23956250D02*
X57893750Y-23956250D01*
X181559133Y-85023727D02*
X185202687Y-85023727D01*
X185202687Y-91151781D01*
X181559133Y-91151781D01*
X181559133Y-85023727D01*
X126256250Y-57006250D02*
X125256250Y-56006250D01*
X153831250Y-63056250D02*
X154831250Y-62056250D01*
X105103782Y-50006250D02*
G75*
G02*
X102858718Y-50006250I-1122532J0D01*
G01*
X102858718Y-50006250D02*
G75*
G02*
X105103782Y-50006250I1122532J0D01*
G01*
X152728782Y-69056250D02*
G75*
G02*
X150483718Y-69056250I-1122532J0D01*
G01*
X150483718Y-69056250D02*
G75*
G02*
X152728782Y-69056250I1122532J0D01*
G01*
D11*
X22768752Y-24431750D02*
G75*
G02*
X25768750Y-21431752I2999998J0D01*
G01*
D10*
X134093750Y-37956250D02*
X131707031Y-37956250D01*
X26522532Y-50006250D02*
G75*
G02*
X24277468Y-50006250I-1122532J0D01*
G01*
X24277468Y-50006250D02*
G75*
G02*
X26522532Y-50006250I1122532J0D01*
G01*
X167431250Y-76056250D02*
X154831250Y-76056250D01*
X139856250Y-56006250D02*
X138856250Y-57006250D01*
D11*
X263156044Y-21431750D02*
X25768750Y-21431750D01*
D10*
X259885032Y-30956250D02*
G75*
G02*
X257639968Y-30956250I-1122532J0D01*
G01*
X257639968Y-30956250D02*
G75*
G02*
X259885032Y-30956250I1122532J0D01*
G01*
X209878782Y-69056250D02*
G75*
G02*
X207633718Y-69056250I-1122532J0D01*
G01*
X207633718Y-69056250D02*
G75*
G02*
X209878782Y-69056250I1122532J0D01*
G01*
D11*
X263156044Y-21431750D02*
G75*
G02*
X266156050Y-24431751I-44J-3000050D01*
G01*
D10*
X43191282Y-30956250D02*
G75*
G02*
X40946218Y-30956250I-1122532J0D01*
G01*
X40946218Y-30956250D02*
G75*
G02*
X43191282Y-30956250I1122532J0D01*
G01*
X247978782Y-88106250D02*
G75*
G02*
X245733718Y-88106250I-1122532J0D01*
G01*
X245733718Y-88106250D02*
G75*
G02*
X247978782Y-88106250I1122532J0D01*
G01*
X55507031Y-37956250D02*
G75*
G02*
X55509349Y-43006250I-1088281J-2525500D01*
G01*
X167431250Y-62056250D02*
X168431250Y-63056250D01*
D11*
X25768750Y-97631651D02*
X263156044Y-97631651D01*
D10*
X50056250Y-57006250D02*
X49056250Y-56006250D01*
X62656250Y-57006250D02*
X50056250Y-57006250D01*
X214641282Y-30956250D02*
G75*
G02*
X212396218Y-30956250I-1122532J0D01*
G01*
X212396218Y-30956250D02*
G75*
G02*
X214641282Y-30956250I1122532J0D01*
G01*
X120493750Y-24956250D02*
X121493750Y-23956250D01*
X135093750Y-36956250D02*
X134093750Y-37956250D01*
X90816282Y-88106250D02*
G75*
G02*
X88571218Y-88106250I-1122532J0D01*
G01*
X88571218Y-88106250D02*
G75*
G02*
X90816282Y-88106250I1122532J0D01*
G01*
X53328157Y-43006250D02*
G75*
G02*
X53330477Y-37956249I1090593J2524500D01*
G01*
D11*
X266156045Y-94631650D02*
X266156045Y-24431751D01*
D10*
X129528157Y-43006250D02*
G75*
G02*
X129530477Y-37956249I1090593J2524500D01*
G01*
X236406045Y-38181750D02*
G75*
G02*
X230906045Y-38181750I-2750000J0D01*
G01*
X230906045Y-38181750D02*
G75*
G02*
X236406045Y-38181750I2750000J0D01*
G01*
X162305771Y-62056250D02*
X167431250Y-62056250D01*
X168431250Y-63056250D02*
X168431250Y-75056250D01*
X121493750Y-37956250D02*
X120493750Y-36956250D01*
X131707031Y-37956250D02*
G75*
G02*
X131709349Y-43006250I-1088281J-2525500D01*
G01*
X50056250Y-43006250D02*
X49056250Y-44006250D01*
X138856250Y-43006250D02*
X131709349Y-43006250D01*
X157491282Y-30956250D02*
G75*
G02*
X155246218Y-30956250I-1122532J0D01*
G01*
X155246218Y-30956250D02*
G75*
G02*
X157491282Y-30956250I1122532J0D01*
G01*
X188447532Y-88106250D02*
G75*
G02*
X186202468Y-88106250I-1122532J0D01*
G01*
X186202468Y-88106250D02*
G75*
G02*
X188447532Y-88106250I1122532J0D01*
G01*
X67003782Y-50006250D02*
G75*
G02*
X64758718Y-50006250I-1122532J0D01*
G01*
X64758718Y-50006250D02*
G75*
G02*
X67003782Y-50006250I1122532J0D01*
G01*
X50056250Y-43006250D02*
X53328157Y-43006250D01*
D11*
X22768752Y-24431750D02*
X22768752Y-94631650D01*
D10*
X95578782Y-69056250D02*
G75*
G02*
X93333718Y-69056250I-1122532J0D01*
G01*
X93333718Y-69056250D02*
G75*
G02*
X95578782Y-69056250I1122532J0D01*
G01*
X121493750Y-23956250D02*
X134093750Y-23956250D01*
X31285032Y-69056250D02*
G75*
G02*
X29039968Y-69056250I-1122532J0D01*
G01*
X29039968Y-69056250D02*
G75*
G02*
X31285032Y-69056250I1122532J0D01*
G01*
X63656250Y-44006250D02*
X63656250Y-56006250D01*
X100341282Y-30956250D02*
G75*
G02*
X98096218Y-30956250I-1122532J0D01*
G01*
X98096218Y-30956250D02*
G75*
G02*
X100341282Y-30956250I1122532J0D01*
G01*
X58893750Y-24956250D02*
X58893750Y-36956250D01*
X45293750Y-37956250D02*
X44293750Y-36956250D01*
X143203782Y-50006250D02*
G75*
G02*
X140958718Y-50006250I-1122532J0D01*
G01*
X140958718Y-50006250D02*
G75*
G02*
X143203782Y-50006250I1122532J0D01*
G01*
X55618752Y-75231651D02*
G75*
G02*
X50118752Y-75231651I-2750000J0D01*
G01*
X50118752Y-75231651D02*
G75*
G02*
X55618752Y-75231651I2750000J0D01*
G01*
X45572532Y-88106250D02*
G75*
G02*
X43327468Y-88106250I-1122532J0D01*
G01*
X43327468Y-88106250D02*
G75*
G02*
X45572532Y-88106250I1122532J0D01*
G01*
X129530477Y-37956250D02*
X121493750Y-37956250D01*
X69385032Y-88106250D02*
G75*
G02*
X67139968Y-88106250I-1122532J0D01*
G01*
X67139968Y-88106250D02*
G75*
G02*
X69385032Y-88106250I1122532J0D01*
G01*
X154831250Y-76056250D02*
X153831250Y-75056250D01*
X62656250Y-43006250D02*
X63656250Y-44006250D01*
X57893750Y-37956250D02*
X58893750Y-36956250D01*
X209878782Y-88106250D02*
G75*
G02*
X207633718Y-88106250I-1122532J0D01*
G01*
X207633718Y-88106250D02*
G75*
G02*
X209878782Y-88106250I1122532J0D01*
G01*
X58893750Y-24956250D02*
X57893750Y-23956250D01*
X138856250Y-43006250D02*
X139856250Y-44006250D01*
X126256250Y-57006250D02*
X138856250Y-57006250D01*
X200353782Y-50006250D02*
G75*
G02*
X198108718Y-50006250I-1122532J0D01*
G01*
X198108718Y-50006250D02*
G75*
G02*
X200353782Y-50006250I1122532J0D01*
G01*
X129528157Y-43006250D02*
X126256250Y-43006250D01*
X62656250Y-57006250D02*
X63656250Y-56006250D01*
X44293750Y-24956250D02*
X45293750Y-23956250D01*
X159906319Y-62056250D02*
G75*
G02*
X162305771Y-62056250I1199726J2474502D01*
G01*
D11*
X25768750Y-97631651D02*
G75*
G02*
X22768749Y-94631650I0J3000001D01*
G01*
D10*
X57893750Y-37956250D02*
X55507031Y-37956250D01*
X49056250Y-56006250D02*
X49056250Y-44006250D01*
X153831250Y-75056250D02*
X153831250Y-63056250D01*
X168431250Y-75056250D02*
X167431250Y-76056250D01*
X134093750Y-23956250D02*
X135093750Y-24956250D01*
X125256250Y-44006250D02*
X125256250Y-56006250D01*
X44293750Y-36956250D02*
X44293750Y-24956250D01*
X154831250Y-62056250D02*
X159906319Y-62056250D01*
X135093750Y-24956250D02*
X135093750Y-36956250D01*
D12*
%TO.C,REF\u002A\u002A*%
X139543750Y-24956250D02*
X139543750Y-36956250D01*
X139543750Y-36956250D02*
X140543750Y-37956250D01*
X140543750Y-23956250D02*
X139543750Y-24956250D01*
X140543750Y-37956250D02*
X153143750Y-37956250D01*
X153143750Y-23956250D02*
X140543750Y-23956250D01*
X153143750Y-23956250D02*
X154143750Y-24956250D01*
X153143750Y-37956250D02*
X154143750Y-36956250D01*
X154143750Y-36956250D02*
X154143750Y-24956250D01*
X49056250Y-82106250D02*
X49056250Y-94106250D01*
X49056250Y-94106250D02*
X50056250Y-95106250D01*
X50056250Y-81106250D02*
X49056250Y-82106250D01*
X50056250Y-95106250D02*
X62656250Y-95106250D01*
X62656250Y-81106250D02*
X50056250Y-81106250D01*
X62656250Y-81106250D02*
X63656250Y-82106250D01*
X62656250Y-95106250D02*
X63656250Y-94106250D01*
X63656250Y-94106250D02*
X63656250Y-82106250D01*
X27625000Y-82106250D02*
X27625000Y-94106250D01*
X27625000Y-94106250D02*
X28625000Y-95106250D01*
X28625000Y-81106250D02*
X27625000Y-82106250D01*
X28625000Y-95106250D02*
X41225000Y-95106250D01*
X41225000Y-81106250D02*
X28625000Y-81106250D01*
X41225000Y-81106250D02*
X42225000Y-82106250D01*
X41225000Y-95106250D02*
X42225000Y-94106250D01*
X42225000Y-94106250D02*
X42225000Y-82106250D01*
X106206250Y-44006250D02*
X106206250Y-56006250D01*
X106206250Y-56006250D02*
X107206250Y-57006250D01*
X107206250Y-43006250D02*
X106206250Y-44006250D01*
X107206250Y-57006250D02*
X119806250Y-57006250D01*
X119806250Y-43006250D02*
X107206250Y-43006250D01*
X119806250Y-43006250D02*
X120806250Y-44006250D01*
X119806250Y-57006250D02*
X120806250Y-56006250D01*
X120806250Y-56006250D02*
X120806250Y-44006250D01*
X172881250Y-63056250D02*
X172881250Y-75056250D01*
X172881250Y-75056250D02*
X173881250Y-76056250D01*
X173881250Y-62056250D02*
X172881250Y-63056250D01*
X173881250Y-76056250D02*
X186481250Y-76056250D01*
X186481250Y-62056250D02*
X173881250Y-62056250D01*
X186481250Y-62056250D02*
X187481250Y-63056250D01*
X186481250Y-76056250D02*
X187481250Y-75056250D01*
X187481250Y-75056250D02*
X187481250Y-63056250D01*
X87156250Y-44006250D02*
X87156250Y-56006250D01*
X87156250Y-56006250D02*
X88156250Y-57006250D01*
X88156250Y-43006250D02*
X87156250Y-44006250D01*
X88156250Y-57006250D02*
X100756250Y-57006250D01*
X100756250Y-43006250D02*
X88156250Y-43006250D01*
X100756250Y-43006250D02*
X101756250Y-44006250D01*
X100756250Y-57006250D02*
X101756250Y-56006250D01*
X101756250Y-56006250D02*
X101756250Y-44006250D01*
X68106250Y-44006250D02*
X68106250Y-56006250D01*
X68106250Y-56006250D02*
X69106250Y-57006250D01*
X69106250Y-43006250D02*
X68106250Y-44006250D01*
X69106250Y-57006250D02*
X81706250Y-57006250D01*
X81706250Y-43006250D02*
X69106250Y-43006250D01*
X81706250Y-43006250D02*
X82706250Y-44006250D01*
X81706250Y-57006250D02*
X82706250Y-56006250D01*
X82706250Y-56006250D02*
X82706250Y-44006250D01*
X215743750Y-24956250D02*
X215743750Y-36956250D01*
X215743750Y-36956250D02*
X216743750Y-37956250D01*
X216743750Y-23956250D02*
X215743750Y-24956250D01*
X216743750Y-37956250D02*
X229343750Y-37956250D01*
X229343750Y-23956250D02*
X216743750Y-23956250D01*
X229343750Y-23956250D02*
X230343750Y-24956250D01*
X229343750Y-37956250D02*
X230343750Y-36956250D01*
X230343750Y-36956250D02*
X230343750Y-24956250D01*
X244318750Y-44006250D02*
X244318750Y-56006250D01*
X244318750Y-56006250D02*
X245318750Y-57006250D01*
X245318750Y-43006250D02*
X244318750Y-44006250D01*
X245318750Y-57006250D02*
X257918750Y-57006250D01*
X257918750Y-43006250D02*
X245318750Y-43006250D01*
X257918750Y-43006250D02*
X258918750Y-44006250D01*
X257918750Y-57006250D02*
X258918750Y-56006250D01*
X258918750Y-56006250D02*
X258918750Y-44006250D01*
X241937500Y-24956250D02*
X241937500Y-36956250D01*
X241937500Y-36956250D02*
X242937500Y-37956250D01*
X242937500Y-23956250D02*
X241937500Y-24956250D01*
X242937500Y-37956250D02*
X255537500Y-37956250D01*
X255537500Y-23956250D02*
X242937500Y-23956250D01*
X255537500Y-23956250D02*
X256537500Y-24956250D01*
X255537500Y-37956250D02*
X256537500Y-36956250D01*
X256537500Y-36956250D02*
X256537500Y-24956250D01*
X201456250Y-44006250D02*
X201456250Y-56006250D01*
X201456250Y-56006250D02*
X202456250Y-57006250D01*
X202456250Y-43006250D02*
X201456250Y-44006250D01*
X202456250Y-57006250D02*
X215056250Y-57006250D01*
X215056250Y-43006250D02*
X202456250Y-43006250D01*
X215056250Y-43006250D02*
X216056250Y-44006250D01*
X215056250Y-57006250D02*
X216056250Y-56006250D01*
X216056250Y-56006250D02*
X216056250Y-44006250D01*
X77631250Y-63056250D02*
X77631250Y-75056250D01*
X77631250Y-75056250D02*
X78631250Y-76056250D01*
X78631250Y-62056250D02*
X77631250Y-63056250D01*
X78631250Y-76056250D02*
X91231250Y-76056250D01*
X91231250Y-62056250D02*
X78631250Y-62056250D01*
X91231250Y-62056250D02*
X92231250Y-63056250D01*
X91231250Y-76056250D02*
X92231250Y-75056250D01*
X92231250Y-75056250D02*
X92231250Y-63056250D01*
X32387500Y-63056250D02*
X32387500Y-75056250D01*
X32387500Y-75056250D02*
X33387500Y-76056250D01*
X33387500Y-62056250D02*
X32387500Y-63056250D01*
X33387500Y-76056250D02*
X45987500Y-76056250D01*
X45987500Y-62056250D02*
X33387500Y-62056250D01*
X45987500Y-62056250D02*
X46987500Y-63056250D01*
X45987500Y-76056250D02*
X46987500Y-75056250D01*
X46987500Y-75056250D02*
X46987500Y-63056250D01*
X191931250Y-63056250D02*
X191931250Y-75056250D01*
X191931250Y-75056250D02*
X192931250Y-76056250D01*
X192931250Y-62056250D02*
X191931250Y-63056250D01*
X192931250Y-76056250D02*
X205531250Y-76056250D01*
X205531250Y-62056250D02*
X192931250Y-62056250D01*
X205531250Y-62056250D02*
X206531250Y-63056250D01*
X205531250Y-76056250D02*
X206531250Y-75056250D01*
X206531250Y-75056250D02*
X206531250Y-63056250D01*
X182406250Y-44006250D02*
X182406250Y-56006250D01*
X182406250Y-56006250D02*
X183406250Y-57006250D01*
X183406250Y-43006250D02*
X182406250Y-44006250D01*
X183406250Y-57006250D02*
X196006250Y-57006250D01*
X196006250Y-43006250D02*
X183406250Y-43006250D01*
X196006250Y-43006250D02*
X197006250Y-44006250D01*
X196006250Y-57006250D02*
X197006250Y-56006250D01*
X197006250Y-56006250D02*
X197006250Y-44006250D01*
X27625000Y-44006250D02*
X27625000Y-56006250D01*
X27625000Y-56006250D02*
X28625000Y-57006250D01*
X28625000Y-43006250D02*
X27625000Y-44006250D01*
X28625000Y-57006250D02*
X41225000Y-57006250D01*
X41225000Y-43006250D02*
X28625000Y-43006250D01*
X41225000Y-43006250D02*
X42225000Y-44006250D01*
X41225000Y-57006250D02*
X42225000Y-56006250D01*
X42225000Y-56006250D02*
X42225000Y-44006250D01*
X249081250Y-82106250D02*
X249081250Y-94106250D01*
X249081250Y-94106250D02*
X250081250Y-95106250D01*
X250081250Y-81106250D02*
X249081250Y-82106250D01*
X250081250Y-95106250D02*
X262681250Y-95106250D01*
X262681250Y-81106250D02*
X250081250Y-81106250D01*
X262681250Y-81106250D02*
X263681250Y-82106250D01*
X262681250Y-95106250D02*
X263681250Y-94106250D01*
X263681250Y-94106250D02*
X263681250Y-82106250D01*
X115731250Y-63056250D02*
X115731250Y-75056250D01*
X115731250Y-75056250D02*
X116731250Y-76056250D01*
X116731250Y-62056250D02*
X115731250Y-63056250D01*
X116731250Y-76056250D02*
X129331250Y-76056250D01*
X129331250Y-62056250D02*
X116731250Y-62056250D01*
X129331250Y-62056250D02*
X130331250Y-63056250D01*
X129331250Y-76056250D02*
X130331250Y-75056250D01*
X130331250Y-75056250D02*
X130331250Y-63056250D01*
X25243750Y-24956250D02*
X25243750Y-36956250D01*
X25243750Y-36956250D02*
X26243750Y-37956250D01*
X26243750Y-23956250D02*
X25243750Y-24956250D01*
X26243750Y-37956250D02*
X38843750Y-37956250D01*
X38843750Y-23956250D02*
X26243750Y-23956250D01*
X38843750Y-23956250D02*
X39843750Y-24956250D01*
X38843750Y-37956250D02*
X39843750Y-36956250D01*
X39843750Y-36956250D02*
X39843750Y-24956250D01*
X58581250Y-63056250D02*
X58581250Y-75056250D01*
X58581250Y-75056250D02*
X59581250Y-76056250D01*
X59581250Y-62056250D02*
X58581250Y-63056250D01*
X59581250Y-76056250D02*
X72181250Y-76056250D01*
X72181250Y-62056250D02*
X59581250Y-62056250D01*
X72181250Y-62056250D02*
X73181250Y-63056250D01*
X72181250Y-76056250D02*
X73181250Y-75056250D01*
X73181250Y-75056250D02*
X73181250Y-63056250D01*
X101443750Y-24956250D02*
X101443750Y-36956250D01*
X101443750Y-36956250D02*
X102443750Y-37956250D01*
X102443750Y-23956250D02*
X101443750Y-24956250D01*
X102443750Y-37956250D02*
X115043750Y-37956250D01*
X115043750Y-23956250D02*
X102443750Y-23956250D01*
X115043750Y-23956250D02*
X116043750Y-24956250D01*
X115043750Y-37956250D02*
X116043750Y-36956250D01*
X116043750Y-36956250D02*
X116043750Y-24956250D01*
X147512500Y-81106250D02*
X179512500Y-81106250D01*
X147512500Y-88106250D02*
X147512500Y-81106250D01*
X147512500Y-88106250D02*
X147512500Y-93606250D01*
X147512500Y-93606250D02*
X150512500Y-95106250D01*
X176512500Y-95106250D02*
X150512500Y-95106250D01*
X179512500Y-81106250D02*
X179512500Y-88106250D01*
X179512500Y-88106250D02*
X179512500Y-93606250D01*
X179512500Y-93606250D02*
X176512500Y-95106250D01*
X230031250Y-63056250D02*
X230031250Y-75056250D01*
X230031250Y-75056250D02*
X231031250Y-76056250D01*
X231031250Y-62056250D02*
X230031250Y-63056250D01*
X231031250Y-76056250D02*
X243631250Y-76056250D01*
X243631250Y-62056250D02*
X231031250Y-62056250D01*
X243631250Y-62056250D02*
X244631250Y-63056250D01*
X243631250Y-76056250D02*
X244631250Y-75056250D01*
X244631250Y-75056250D02*
X244631250Y-63056250D01*
X249081250Y-63056250D02*
X249081250Y-75056250D01*
X249081250Y-75056250D02*
X250081250Y-76056250D01*
X250081250Y-62056250D02*
X249081250Y-63056250D01*
X250081250Y-76056250D02*
X262681250Y-76056250D01*
X262681250Y-62056250D02*
X250081250Y-62056250D01*
X262681250Y-62056250D02*
X263681250Y-63056250D01*
X262681250Y-76056250D02*
X263681250Y-75056250D01*
X263681250Y-75056250D02*
X263681250Y-63056250D01*
X210981250Y-82106250D02*
X210981250Y-94106250D01*
X210981250Y-94106250D02*
X211981250Y-95106250D01*
X211981250Y-81106250D02*
X210981250Y-82106250D01*
X211981250Y-95106250D02*
X224581250Y-95106250D01*
X224581250Y-81106250D02*
X211981250Y-81106250D01*
X224581250Y-81106250D02*
X225581250Y-82106250D01*
X224581250Y-95106250D02*
X225581250Y-94106250D01*
X225581250Y-94106250D02*
X225581250Y-82106250D01*
X96681250Y-63056250D02*
X96681250Y-75056250D01*
X96681250Y-75056250D02*
X97681250Y-76056250D01*
X97681250Y-62056250D02*
X96681250Y-63056250D01*
X97681250Y-76056250D02*
X110281250Y-76056250D01*
X110281250Y-62056250D02*
X97681250Y-62056250D01*
X110281250Y-62056250D02*
X111281250Y-63056250D01*
X110281250Y-76056250D02*
X111281250Y-75056250D01*
X111281250Y-75056250D02*
X111281250Y-63056250D01*
X163356250Y-44006250D02*
X163356250Y-56006250D01*
X163356250Y-56006250D02*
X164356250Y-57006250D01*
X164356250Y-43006250D02*
X163356250Y-44006250D01*
X164356250Y-57006250D02*
X176956250Y-57006250D01*
X176956250Y-43006250D02*
X164356250Y-43006250D01*
X176956250Y-43006250D02*
X177956250Y-44006250D01*
X176956250Y-57006250D02*
X177956250Y-56006250D01*
X177956250Y-56006250D02*
X177956250Y-44006250D01*
X82393750Y-24956250D02*
X82393750Y-36956250D01*
X82393750Y-36956250D02*
X83393750Y-37956250D01*
X83393750Y-23956250D02*
X82393750Y-24956250D01*
X83393750Y-37956250D02*
X95993750Y-37956250D01*
X95993750Y-23956250D02*
X83393750Y-23956250D01*
X95993750Y-23956250D02*
X96993750Y-24956250D01*
X95993750Y-37956250D02*
X96993750Y-36956250D01*
X96993750Y-36956250D02*
X96993750Y-24956250D01*
X70487500Y-82106250D02*
X70487500Y-94106250D01*
X70487500Y-94106250D02*
X71487500Y-95106250D01*
X71487500Y-81106250D02*
X70487500Y-82106250D01*
X71487500Y-95106250D02*
X84087500Y-95106250D01*
X84087500Y-81106250D02*
X71487500Y-81106250D01*
X84087500Y-81106250D02*
X85087500Y-82106250D01*
X84087500Y-95106250D02*
X85087500Y-94106250D01*
X85087500Y-94106250D02*
X85087500Y-82106250D01*
X210981250Y-63056250D02*
X210981250Y-75056250D01*
X210981250Y-75056250D02*
X211981250Y-76056250D01*
X211981250Y-62056250D02*
X210981250Y-63056250D01*
X211981250Y-76056250D02*
X224581250Y-76056250D01*
X224581250Y-62056250D02*
X211981250Y-62056250D01*
X224581250Y-62056250D02*
X225581250Y-63056250D01*
X224581250Y-76056250D02*
X225581250Y-75056250D01*
X225581250Y-75056250D02*
X225581250Y-63056250D01*
X196693750Y-24956250D02*
X196693750Y-36956250D01*
X196693750Y-36956250D02*
X197693750Y-37956250D01*
X197693750Y-23956250D02*
X196693750Y-24956250D01*
X197693750Y-37956250D02*
X210293750Y-37956250D01*
X210293750Y-23956250D02*
X197693750Y-23956250D01*
X210293750Y-23956250D02*
X211293750Y-24956250D01*
X210293750Y-37956250D02*
X211293750Y-36956250D01*
X211293750Y-36956250D02*
X211293750Y-24956250D01*
X134781250Y-63056250D02*
X134781250Y-75056250D01*
X134781250Y-75056250D02*
X135781250Y-76056250D01*
X135781250Y-62056250D02*
X134781250Y-63056250D01*
X135781250Y-76056250D02*
X148381250Y-76056250D01*
X148381250Y-62056250D02*
X135781250Y-62056250D01*
X148381250Y-62056250D02*
X149381250Y-63056250D01*
X148381250Y-76056250D02*
X149381250Y-75056250D01*
X149381250Y-75056250D02*
X149381250Y-63056250D01*
X177643750Y-24956250D02*
X177643750Y-36956250D01*
X177643750Y-36956250D02*
X178643750Y-37956250D01*
X178643750Y-23956250D02*
X177643750Y-24956250D01*
X178643750Y-37956250D02*
X191243750Y-37956250D01*
X191243750Y-23956250D02*
X178643750Y-23956250D01*
X191243750Y-23956250D02*
X192243750Y-24956250D01*
X191243750Y-37956250D02*
X192243750Y-36956250D01*
X192243750Y-36956250D02*
X192243750Y-24956250D01*
X220506250Y-44006250D02*
X220506250Y-56006250D01*
X220506250Y-56006250D02*
X221506250Y-57006250D01*
X221506250Y-43006250D02*
X220506250Y-44006250D01*
X221506250Y-57006250D02*
X234106250Y-57006250D01*
X234106250Y-43006250D02*
X221506250Y-43006250D01*
X234106250Y-43006250D02*
X235106250Y-44006250D01*
X234106250Y-57006250D02*
X235106250Y-56006250D01*
X235106250Y-56006250D02*
X235106250Y-44006250D01*
X99887500Y-81106250D02*
X131887500Y-81106250D01*
X99887500Y-88106250D02*
X99887500Y-81106250D01*
X99887500Y-88106250D02*
X99887500Y-93606250D01*
X99887500Y-93606250D02*
X102887500Y-95106250D01*
X128887500Y-95106250D02*
X102887500Y-95106250D01*
X131887500Y-81106250D02*
X131887500Y-88106250D01*
X131887500Y-88106250D02*
X131887500Y-93606250D01*
X131887500Y-93606250D02*
X128887500Y-95106250D01*
X63343750Y-24956250D02*
X63343750Y-36956250D01*
X63343750Y-36956250D02*
X64343750Y-37956250D01*
X64343750Y-23956250D02*
X63343750Y-24956250D01*
X64343750Y-37956250D02*
X76943750Y-37956250D01*
X76943750Y-23956250D02*
X64343750Y-23956250D01*
X76943750Y-23956250D02*
X77943750Y-24956250D01*
X76943750Y-37956250D02*
X77943750Y-36956250D01*
X77943750Y-36956250D02*
X77943750Y-24956250D01*
X144306250Y-44006250D02*
X144306250Y-56006250D01*
X144306250Y-56006250D02*
X145306250Y-57006250D01*
X145306250Y-43006250D02*
X144306250Y-44006250D01*
X145306250Y-57006250D02*
X157906250Y-57006250D01*
X157906250Y-43006250D02*
X145306250Y-43006250D01*
X157906250Y-43006250D02*
X158906250Y-44006250D01*
X157906250Y-57006250D02*
X158906250Y-56006250D01*
X158906250Y-56006250D02*
X158906250Y-44006250D01*
X158593750Y-24956250D02*
X158593750Y-36956250D01*
X158593750Y-36956250D02*
X159593750Y-37956250D01*
X159593750Y-23956250D02*
X158593750Y-24956250D01*
X159593750Y-37956250D02*
X172193750Y-37956250D01*
X172193750Y-23956250D02*
X159593750Y-23956250D01*
X172193750Y-23956250D02*
X173193750Y-24956250D01*
X172193750Y-37956250D02*
X173193750Y-36956250D01*
X173193750Y-36956250D02*
X173193750Y-24956250D01*
X230031250Y-82106250D02*
X230031250Y-94106250D01*
X230031250Y-94106250D02*
X231031250Y-95106250D01*
X231031250Y-81106250D02*
X230031250Y-82106250D01*
X231031250Y-95106250D02*
X243631250Y-95106250D01*
X243631250Y-81106250D02*
X231031250Y-81106250D01*
X243631250Y-81106250D02*
X244631250Y-82106250D01*
X243631250Y-95106250D02*
X244631250Y-94106250D01*
X244631250Y-94106250D02*
X244631250Y-82106250D01*
%TD*%
M02*
