%TF.GenerationSoftware,KiCad,Pcbnew,8.0.3*%
%TF.CreationDate,2024-08-24T23:48:56+02:00*%
%TF.ProjectId,plate split,706c6174-6520-4737-906c-69742e6b6963,rev?*%
%TF.SameCoordinates,Original*%
%TF.FileFunction,Copper,L1,Top*%
%TF.FilePolarity,Positive*%
%FSLAX46Y46*%
G04 Gerber Fmt 4.6, Leading zero omitted, Abs format (unit mm)*
G04 Created by KiCad (PCBNEW 8.0.3) date 2024-08-24 23:48:56*
%MOMM*%
%LPD*%
G01*
G04 APERTURE LIST*
G04 APERTURE END LIST*
%TA.AperFunction,Conductor*%
%TO.N,GND*%
G36*
X37204661Y-15431267D02*
G01*
X37208267Y-15431325D01*
X37371661Y-15433996D01*
X37385797Y-15435039D01*
X37717997Y-15478776D01*
X37733885Y-15481936D01*
X38056556Y-15568396D01*
X38071894Y-15573603D01*
X38380212Y-15701313D01*
X38380504Y-15701434D01*
X38395051Y-15708608D01*
X38684327Y-15875621D01*
X38697813Y-15884632D01*
X38963622Y-16088592D01*
X38974371Y-16097864D01*
X39094417Y-16214046D01*
X39095863Y-16215469D01*
X43235261Y-20354867D01*
X43364412Y-20480886D01*
X43643364Y-20709814D01*
X43643368Y-20709817D01*
X43943399Y-20910291D01*
X43943405Y-20910294D01*
X43943413Y-20910300D01*
X44261668Y-21080410D01*
X44428365Y-21149458D01*
X44595057Y-21218505D01*
X44595061Y-21218506D01*
X44595063Y-21218507D01*
X44940389Y-21323261D01*
X45294319Y-21393663D01*
X45653446Y-21429036D01*
X45833878Y-21431250D01*
X243091106Y-21431250D01*
X243091122Y-21431250D01*
X243294116Y-21428520D01*
X243697634Y-21383800D01*
X244093765Y-21294885D01*
X244477686Y-21162858D01*
X244844719Y-20989328D01*
X245190394Y-20776408D01*
X245510500Y-20526691D01*
X245657711Y-20386895D01*
X247863355Y-18181250D01*
X254153596Y-18181250D01*
X254173724Y-18404893D01*
X254233463Y-18621356D01*
X254330891Y-18823667D01*
X254330893Y-18823671D01*
X254462875Y-19005329D01*
X254462876Y-19005331D01*
X254462879Y-19005334D01*
X254462880Y-19005335D01*
X254625185Y-19160514D01*
X254812589Y-19284219D01*
X255019070Y-19372473D01*
X255237991Y-19422440D01*
X255462316Y-19432515D01*
X255684835Y-19402373D01*
X255898396Y-19332982D01*
X256096135Y-19226575D01*
X256271696Y-19086569D01*
X256419437Y-18917466D01*
X256534609Y-18724701D01*
X256613511Y-18514468D01*
X256653606Y-18293526D01*
X256656122Y-18181250D01*
X256653606Y-18068974D01*
X256613511Y-17848032D01*
X256534609Y-17637799D01*
X256534605Y-17637793D01*
X256534605Y-17637791D01*
X256469398Y-17528654D01*
X256419437Y-17445034D01*
X256271696Y-17275931D01*
X256271694Y-17275930D01*
X256271693Y-17275928D01*
X256096136Y-17135926D01*
X256096135Y-17135925D01*
X255989014Y-17078281D01*
X255898397Y-17029518D01*
X255684837Y-16960127D01*
X255610662Y-16950079D01*
X255462316Y-16929985D01*
X255462312Y-16929985D01*
X255237996Y-16940059D01*
X255237985Y-16940061D01*
X255019080Y-16990024D01*
X255019073Y-16990026D01*
X255019070Y-16990027D01*
X254926676Y-17029518D01*
X254812588Y-17078281D01*
X254725261Y-17135926D01*
X254625185Y-17201986D01*
X254625184Y-17201987D01*
X254462876Y-17357168D01*
X254462875Y-17357170D01*
X254330893Y-17538828D01*
X254330891Y-17538832D01*
X254233463Y-17741143D01*
X254173724Y-17957606D01*
X254153596Y-18181250D01*
X247863355Y-18181250D01*
X249829185Y-16215420D01*
X249830557Y-16214071D01*
X249950606Y-16097855D01*
X249961362Y-16088574D01*
X250227190Y-15884609D01*
X250240642Y-15875621D01*
X250529956Y-15708593D01*
X250544480Y-15701431D01*
X250853100Y-15573601D01*
X250868447Y-15568391D01*
X251191116Y-15481934D01*
X251206993Y-15478777D01*
X251539202Y-15435041D01*
X251553334Y-15433998D01*
X251720339Y-15431267D01*
X251722367Y-15431250D01*
X259090135Y-15431250D01*
X259092078Y-15431264D01*
X259172726Y-15432529D01*
X259259127Y-15433884D01*
X259273350Y-15434927D01*
X259605529Y-15478653D01*
X259621422Y-15481814D01*
X259944097Y-15568271D01*
X259959438Y-15573478D01*
X260225515Y-15683689D01*
X260268062Y-15701313D01*
X260282610Y-15708487D01*
X260571901Y-15875510D01*
X260585388Y-15884522D01*
X260851170Y-16088468D01*
X260861983Y-16097802D01*
X260981950Y-16214077D01*
X260983331Y-16215437D01*
X265122017Y-20354123D01*
X265123428Y-20355557D01*
X265239644Y-20475606D01*
X265248930Y-20486369D01*
X265452882Y-20752179D01*
X265461885Y-20765653D01*
X265628899Y-21054945D01*
X265636070Y-21069486D01*
X265763896Y-21378095D01*
X265769109Y-21393453D01*
X265855561Y-21716101D01*
X265858725Y-21732009D01*
X265902457Y-22064190D01*
X265903501Y-22078347D01*
X265906233Y-22245338D01*
X265906250Y-22247366D01*
X265906250Y-96815134D01*
X265906235Y-96817079D01*
X265903615Y-96984128D01*
X265902570Y-96998366D01*
X265858849Y-97330514D01*
X265855684Y-97346423D01*
X265769231Y-97669088D01*
X265764017Y-97684448D01*
X265636186Y-97993062D01*
X265629012Y-98007610D01*
X265461989Y-98296901D01*
X265452977Y-98310388D01*
X265249031Y-98576170D01*
X265239697Y-98586983D01*
X265123422Y-98706950D01*
X265122062Y-98708331D01*
X260983376Y-102847017D01*
X260981942Y-102848428D01*
X260861893Y-102964644D01*
X260851130Y-102973930D01*
X260585320Y-103177882D01*
X260571839Y-103186889D01*
X260317823Y-103333538D01*
X260282560Y-103353897D01*
X260268013Y-103361070D01*
X259959404Y-103488896D01*
X259944046Y-103494109D01*
X259621398Y-103580561D01*
X259605490Y-103583725D01*
X259273309Y-103627457D01*
X259259152Y-103628501D01*
X259092161Y-103631233D01*
X259090133Y-103631250D01*
X251722365Y-103631250D01*
X251720422Y-103631235D01*
X251717120Y-103631183D01*
X251553371Y-103628615D01*
X251539133Y-103627570D01*
X251538275Y-103627457D01*
X251206982Y-103583848D01*
X251191076Y-103580684D01*
X250868411Y-103494231D01*
X250853051Y-103489017D01*
X250544437Y-103361186D01*
X250529889Y-103354012D01*
X250240598Y-103186989D01*
X250227111Y-103177977D01*
X249961329Y-102974031D01*
X249950516Y-102964697D01*
X249830549Y-102848422D01*
X249829168Y-102847062D01*
X247863356Y-100881250D01*
X254153852Y-100881250D01*
X254173980Y-101104893D01*
X254233719Y-101321356D01*
X254331147Y-101523667D01*
X254331149Y-101523671D01*
X254463131Y-101705329D01*
X254463132Y-101705331D01*
X254463135Y-101705334D01*
X254463136Y-101705335D01*
X254625441Y-101860514D01*
X254812845Y-101984219D01*
X255019326Y-102072473D01*
X255238247Y-102122440D01*
X255462572Y-102132515D01*
X255685091Y-102102373D01*
X255898652Y-102032982D01*
X256096391Y-101926575D01*
X256271952Y-101786569D01*
X256419693Y-101617466D01*
X256534865Y-101424701D01*
X256613767Y-101214468D01*
X256653862Y-100993526D01*
X256656378Y-100881250D01*
X256653862Y-100768974D01*
X256613767Y-100548032D01*
X256534865Y-100337799D01*
X256534861Y-100337793D01*
X256534861Y-100337791D01*
X256469654Y-100228654D01*
X256419693Y-100145034D01*
X256271952Y-99975931D01*
X256271950Y-99975930D01*
X256271949Y-99975928D01*
X256096392Y-99835926D01*
X256096391Y-99835925D01*
X255989270Y-99778281D01*
X255898653Y-99729518D01*
X255685093Y-99660127D01*
X255610918Y-99650079D01*
X255462572Y-99629985D01*
X255462568Y-99629985D01*
X255238252Y-99640059D01*
X255238241Y-99640061D01*
X255019336Y-99690024D01*
X255019329Y-99690026D01*
X255019326Y-99690027D01*
X254926932Y-99729518D01*
X254812844Y-99778281D01*
X254725517Y-99835926D01*
X254625441Y-99901986D01*
X254625440Y-99901987D01*
X254463132Y-100057168D01*
X254463131Y-100057170D01*
X254331149Y-100238828D01*
X254331147Y-100238832D01*
X254233719Y-100441143D01*
X254173980Y-100657606D01*
X254153852Y-100881250D01*
X247863356Y-100881250D01*
X245689747Y-98707641D01*
X245689739Y-98707633D01*
X245560646Y-98581550D01*
X245560640Y-98581545D01*
X245560637Y-98581542D01*
X245432006Y-98475976D01*
X245281689Y-98352612D01*
X245281685Y-98352609D01*
X245281680Y-98352605D01*
X244981641Y-98152124D01*
X244981640Y-98152123D01*
X244981635Y-98152120D01*
X244663374Y-97982005D01*
X244601801Y-97956501D01*
X244329978Y-97843909D01*
X244329975Y-97843908D01*
X244329970Y-97843906D01*
X244196503Y-97803420D01*
X243984638Y-97739153D01*
X243630692Y-97668754D01*
X243309489Y-97637124D01*
X243271559Y-97633389D01*
X243271558Y-97633388D01*
X243271548Y-97633388D01*
X243091146Y-97631250D01*
X243091122Y-97631250D01*
X45833878Y-97631250D01*
X45833837Y-97631250D01*
X45653443Y-97633363D01*
X45338780Y-97664357D01*
X45294306Y-97668738D01*
X45294304Y-97668738D01*
X45294297Y-97668739D01*
X44940363Y-97739144D01*
X44595038Y-97843901D01*
X44261626Y-97982009D01*
X43943374Y-98152123D01*
X43943359Y-98152131D01*
X43643330Y-98352610D01*
X43643310Y-98352625D01*
X43364364Y-98581555D01*
X43235246Y-98707647D01*
X39095854Y-102847039D01*
X39094458Y-102848413D01*
X38974457Y-102964681D01*
X38963660Y-102974001D01*
X38697867Y-103177957D01*
X38684381Y-103186968D01*
X38395094Y-103353994D01*
X38380546Y-103361168D01*
X38071938Y-103489003D01*
X38056579Y-103494217D01*
X37733923Y-103580677D01*
X37718014Y-103583842D01*
X37385864Y-103627573D01*
X37371620Y-103628619D01*
X37206950Y-103631197D01*
X37204579Y-103631235D01*
X37202639Y-103631250D01*
X29834865Y-103631250D01*
X29832838Y-103631233D01*
X29665849Y-103628503D01*
X29651690Y-103627459D01*
X29319512Y-103583725D01*
X29303604Y-103580561D01*
X29142279Y-103537333D01*
X28980952Y-103494105D01*
X28965595Y-103488892D01*
X28656995Y-103361065D01*
X28642448Y-103353891D01*
X28353172Y-103186878D01*
X28339686Y-103177867D01*
X28073877Y-102973907D01*
X28063128Y-102964635D01*
X27943082Y-102848453D01*
X27941636Y-102847030D01*
X25975856Y-100881250D01*
X32266352Y-100881250D01*
X32286480Y-101104893D01*
X32346219Y-101321356D01*
X32443647Y-101523667D01*
X32443649Y-101523671D01*
X32575631Y-101705329D01*
X32575632Y-101705331D01*
X32575635Y-101705334D01*
X32575636Y-101705335D01*
X32737941Y-101860514D01*
X32925345Y-101984219D01*
X33131826Y-102072473D01*
X33350747Y-102122440D01*
X33575072Y-102132515D01*
X33797591Y-102102373D01*
X34011152Y-102032982D01*
X34208891Y-101926575D01*
X34384452Y-101786569D01*
X34532193Y-101617466D01*
X34647365Y-101424701D01*
X34726267Y-101214468D01*
X34766362Y-100993526D01*
X34768878Y-100881250D01*
X34766362Y-100768974D01*
X34726267Y-100548032D01*
X34647365Y-100337799D01*
X34647361Y-100337793D01*
X34647361Y-100337791D01*
X34582154Y-100228654D01*
X34532193Y-100145034D01*
X34384452Y-99975931D01*
X34384450Y-99975930D01*
X34384449Y-99975928D01*
X34208892Y-99835926D01*
X34208891Y-99835925D01*
X34101770Y-99778281D01*
X34011153Y-99729518D01*
X33797593Y-99660127D01*
X33723418Y-99650079D01*
X33575072Y-99629985D01*
X33575068Y-99629985D01*
X33350752Y-99640059D01*
X33350741Y-99640061D01*
X33131836Y-99690024D01*
X33131829Y-99690026D01*
X33131826Y-99690027D01*
X33039432Y-99729518D01*
X32925344Y-99778281D01*
X32838017Y-99835926D01*
X32737941Y-99901986D01*
X32737940Y-99901987D01*
X32575632Y-100057168D01*
X32575631Y-100057170D01*
X32443649Y-100238828D01*
X32443647Y-100238832D01*
X32346219Y-100441143D01*
X32286480Y-100657606D01*
X32266352Y-100881250D01*
X25975856Y-100881250D01*
X23802970Y-98708364D01*
X23801547Y-98706918D01*
X23685360Y-98586866D01*
X23676098Y-98576127D01*
X23472133Y-98310312D01*
X23463122Y-98296826D01*
X23296109Y-98007551D01*
X23288935Y-97993004D01*
X23161109Y-97684404D01*
X23155895Y-97669045D01*
X23069448Y-97346423D01*
X23069438Y-97346386D01*
X23066278Y-97330497D01*
X23022541Y-96998298D01*
X23021498Y-96984161D01*
X23018766Y-96817079D01*
X23018750Y-96815133D01*
X23018750Y-82106249D01*
X27625000Y-82106249D01*
X27625000Y-82106250D01*
X27625000Y-94106250D01*
X28625000Y-95106250D01*
X41225000Y-95106250D01*
X42225000Y-94106250D01*
X42225000Y-88106250D01*
X43324915Y-88106250D01*
X43345247Y-88319174D01*
X43405507Y-88524402D01*
X43455716Y-88621794D01*
X43503520Y-88714521D01*
X43635735Y-88882645D01*
X43635743Y-88882653D01*
X43797387Y-89022717D01*
X43982619Y-89129661D01*
X43982620Y-89129661D01*
X43982623Y-89129663D01*
X44184751Y-89199621D01*
X44396466Y-89230061D01*
X44610116Y-89219883D01*
X44817979Y-89169456D01*
X45012543Y-89080602D01*
X45186774Y-88956533D01*
X45334377Y-88801731D01*
X45450015Y-88621794D01*
X45529511Y-88423223D01*
X45569991Y-88213196D01*
X45572532Y-88106250D01*
X45569991Y-87999304D01*
X45529511Y-87789277D01*
X45450015Y-87590706D01*
X45334377Y-87410769D01*
X45186774Y-87255967D01*
X45012543Y-87131898D01*
X45012541Y-87131897D01*
X45012542Y-87131897D01*
X44905116Y-87082838D01*
X44817979Y-87043044D01*
X44610116Y-86992617D01*
X44396466Y-86982439D01*
X44396465Y-86982439D01*
X44396464Y-86982439D01*
X44396463Y-86982439D01*
X44184749Y-87012879D01*
X43982619Y-87082838D01*
X43797388Y-87189782D01*
X43797387Y-87189782D01*
X43635743Y-87329846D01*
X43635735Y-87329854D01*
X43503520Y-87497978D01*
X43455716Y-87590706D01*
X43405507Y-87688098D01*
X43345247Y-87893326D01*
X43324915Y-88106250D01*
X42225000Y-88106250D01*
X42225000Y-82106250D01*
X42224999Y-82106249D01*
X49056250Y-82106249D01*
X49056250Y-82106250D01*
X49056250Y-94106250D01*
X50056250Y-95106250D01*
X62656250Y-95106250D01*
X63656250Y-94106250D01*
X63656250Y-88106250D01*
X67137415Y-88106250D01*
X67157747Y-88319174D01*
X67218007Y-88524402D01*
X67268216Y-88621794D01*
X67316020Y-88714521D01*
X67448235Y-88882645D01*
X67448243Y-88882653D01*
X67609887Y-89022717D01*
X67795119Y-89129661D01*
X67795120Y-89129661D01*
X67795123Y-89129663D01*
X67997251Y-89199621D01*
X68208966Y-89230061D01*
X68422616Y-89219883D01*
X68630479Y-89169456D01*
X68825043Y-89080602D01*
X68999274Y-88956533D01*
X69146877Y-88801731D01*
X69262515Y-88621794D01*
X69342011Y-88423223D01*
X69382491Y-88213196D01*
X69385032Y-88106250D01*
X69382491Y-87999304D01*
X69342011Y-87789277D01*
X69262515Y-87590706D01*
X69146877Y-87410769D01*
X68999274Y-87255967D01*
X68825043Y-87131898D01*
X68825041Y-87131897D01*
X68825042Y-87131897D01*
X68717616Y-87082838D01*
X68630479Y-87043044D01*
X68422616Y-86992617D01*
X68208966Y-86982439D01*
X68208965Y-86982439D01*
X68208964Y-86982439D01*
X68208963Y-86982439D01*
X67997249Y-87012879D01*
X67795119Y-87082838D01*
X67609888Y-87189782D01*
X67609887Y-87189782D01*
X67448243Y-87329846D01*
X67448235Y-87329854D01*
X67316020Y-87497978D01*
X67268216Y-87590706D01*
X67218007Y-87688098D01*
X67157747Y-87893326D01*
X67137415Y-88106250D01*
X63656250Y-88106250D01*
X63656250Y-82106250D01*
X63656249Y-82106249D01*
X70487500Y-82106249D01*
X70487500Y-82106250D01*
X70487500Y-94106250D01*
X71487500Y-95106250D01*
X84087500Y-95106250D01*
X85087500Y-94106250D01*
X85087500Y-88106250D01*
X88568665Y-88106250D01*
X88588997Y-88319174D01*
X88649257Y-88524402D01*
X88699466Y-88621794D01*
X88747270Y-88714521D01*
X88879485Y-88882645D01*
X88879493Y-88882653D01*
X89041137Y-89022717D01*
X89226369Y-89129661D01*
X89226370Y-89129661D01*
X89226373Y-89129663D01*
X89428501Y-89199621D01*
X89640216Y-89230061D01*
X89853866Y-89219883D01*
X90061729Y-89169456D01*
X90256293Y-89080602D01*
X90430524Y-88956533D01*
X90578127Y-88801731D01*
X90693765Y-88621794D01*
X90773261Y-88423223D01*
X90813741Y-88213196D01*
X90816282Y-88106250D01*
X99887500Y-88106250D01*
X99887500Y-93606250D01*
X99887501Y-93606251D01*
X102887499Y-95106250D01*
X128887500Y-95106250D01*
X128887501Y-95106250D01*
X131887498Y-93606251D01*
X131887500Y-93606250D01*
X131887500Y-88106250D01*
X147512500Y-88106250D01*
X147512500Y-93606250D01*
X147512501Y-93606251D01*
X150512499Y-95106250D01*
X176512500Y-95106250D01*
X176512501Y-95106250D01*
X179512498Y-93606251D01*
X179512500Y-93606250D01*
X179512500Y-91182607D01*
X181557575Y-91182607D01*
X185154924Y-91182607D01*
X185154924Y-88106250D01*
X186199915Y-88106250D01*
X186220247Y-88319174D01*
X186280507Y-88524402D01*
X186330716Y-88621794D01*
X186378520Y-88714521D01*
X186510735Y-88882645D01*
X186510743Y-88882653D01*
X186672387Y-89022717D01*
X186857619Y-89129661D01*
X186857620Y-89129661D01*
X186857623Y-89129663D01*
X187059751Y-89199621D01*
X187271466Y-89230061D01*
X187485116Y-89219883D01*
X187692979Y-89169456D01*
X187887543Y-89080602D01*
X188061774Y-88956533D01*
X188209377Y-88801731D01*
X188325015Y-88621794D01*
X188404511Y-88423223D01*
X188444991Y-88213196D01*
X188447532Y-88106250D01*
X188444991Y-87999304D01*
X188404511Y-87789277D01*
X188325015Y-87590706D01*
X188209377Y-87410769D01*
X188061774Y-87255967D01*
X187887543Y-87131898D01*
X187887541Y-87131897D01*
X187887542Y-87131897D01*
X187780116Y-87082838D01*
X187692979Y-87043044D01*
X187485116Y-86992617D01*
X187271466Y-86982439D01*
X187271465Y-86982439D01*
X187271464Y-86982439D01*
X187271463Y-86982439D01*
X187059749Y-87012879D01*
X186857619Y-87082838D01*
X186672388Y-87189782D01*
X186672387Y-87189782D01*
X186510743Y-87329846D01*
X186510735Y-87329854D01*
X186378520Y-87497978D01*
X186330716Y-87590706D01*
X186280507Y-87688098D01*
X186220247Y-87893326D01*
X186199915Y-88106250D01*
X185154924Y-88106250D01*
X185154924Y-85028334D01*
X181557575Y-85028334D01*
X181557575Y-91182607D01*
X179512500Y-91182607D01*
X179512500Y-88106250D01*
X179512500Y-82106249D01*
X189550000Y-82106249D01*
X189550000Y-82106250D01*
X189550000Y-94106250D01*
X190550000Y-95106250D01*
X203150000Y-95106250D01*
X204150000Y-94106250D01*
X204150000Y-88106250D01*
X207631165Y-88106250D01*
X207651497Y-88319174D01*
X207711757Y-88524402D01*
X207761966Y-88621794D01*
X207809770Y-88714521D01*
X207941985Y-88882645D01*
X207941993Y-88882653D01*
X208103637Y-89022717D01*
X208288869Y-89129661D01*
X208288870Y-89129661D01*
X208288873Y-89129663D01*
X208491001Y-89199621D01*
X208702716Y-89230061D01*
X208916366Y-89219883D01*
X209124229Y-89169456D01*
X209318793Y-89080602D01*
X209493024Y-88956533D01*
X209640627Y-88801731D01*
X209756265Y-88621794D01*
X209835761Y-88423223D01*
X209876241Y-88213196D01*
X209878782Y-88106250D01*
X209876241Y-87999304D01*
X209835761Y-87789277D01*
X209756265Y-87590706D01*
X209640627Y-87410769D01*
X209493024Y-87255967D01*
X209318793Y-87131898D01*
X209318791Y-87131897D01*
X209318792Y-87131897D01*
X209211366Y-87082838D01*
X209124229Y-87043044D01*
X208916366Y-86992617D01*
X208702716Y-86982439D01*
X208702715Y-86982439D01*
X208702714Y-86982439D01*
X208702713Y-86982439D01*
X208490999Y-87012879D01*
X208288869Y-87082838D01*
X208103638Y-87189782D01*
X208103637Y-87189782D01*
X207941993Y-87329846D01*
X207941985Y-87329854D01*
X207809770Y-87497978D01*
X207761966Y-87590706D01*
X207711757Y-87688098D01*
X207651497Y-87893326D01*
X207631165Y-88106250D01*
X204150000Y-88106250D01*
X204150000Y-82106250D01*
X204149999Y-82106249D01*
X210981250Y-82106249D01*
X210981250Y-82106250D01*
X210981250Y-94106250D01*
X211981250Y-95106250D01*
X224581250Y-95106250D01*
X225581250Y-94106250D01*
X225581250Y-82106250D01*
X225581249Y-82106249D01*
X230031250Y-82106249D01*
X230031250Y-82106250D01*
X230031250Y-94106250D01*
X231031250Y-95106250D01*
X243631250Y-95106250D01*
X244631250Y-94106250D01*
X244631250Y-88106250D01*
X245731165Y-88106250D01*
X245751497Y-88319174D01*
X245811757Y-88524402D01*
X245861966Y-88621794D01*
X245909770Y-88714521D01*
X246041985Y-88882645D01*
X246041993Y-88882653D01*
X246203637Y-89022717D01*
X246388869Y-89129661D01*
X246388870Y-89129661D01*
X246388873Y-89129663D01*
X246591001Y-89199621D01*
X246802716Y-89230061D01*
X247016366Y-89219883D01*
X247224229Y-89169456D01*
X247418793Y-89080602D01*
X247593024Y-88956533D01*
X247740627Y-88801731D01*
X247856265Y-88621794D01*
X247935761Y-88423223D01*
X247976241Y-88213196D01*
X247978782Y-88106250D01*
X247976241Y-87999304D01*
X247935761Y-87789277D01*
X247856265Y-87590706D01*
X247740627Y-87410769D01*
X247593024Y-87255967D01*
X247418793Y-87131898D01*
X247418791Y-87131897D01*
X247418792Y-87131897D01*
X247311366Y-87082838D01*
X247224229Y-87043044D01*
X247016366Y-86992617D01*
X246802716Y-86982439D01*
X246802715Y-86982439D01*
X246802714Y-86982439D01*
X246802713Y-86982439D01*
X246590999Y-87012879D01*
X246388869Y-87082838D01*
X246203638Y-87189782D01*
X246203637Y-87189782D01*
X246041993Y-87329846D01*
X246041985Y-87329854D01*
X245909770Y-87497978D01*
X245861966Y-87590706D01*
X245811757Y-87688098D01*
X245751497Y-87893326D01*
X245731165Y-88106250D01*
X244631250Y-88106250D01*
X244631250Y-82106250D01*
X244631249Y-82106249D01*
X249081250Y-82106249D01*
X249081250Y-82106250D01*
X249081250Y-94106250D01*
X250081250Y-95106250D01*
X262681250Y-95106250D01*
X263681250Y-94106250D01*
X263681250Y-82106250D01*
X262681250Y-81106250D01*
X250081249Y-81106250D01*
X249081250Y-82106249D01*
X244631249Y-82106249D01*
X243631250Y-81106250D01*
X231031249Y-81106250D01*
X230031250Y-82106249D01*
X225581249Y-82106249D01*
X224581250Y-81106250D01*
X211981249Y-81106250D01*
X210981250Y-82106249D01*
X204149999Y-82106249D01*
X203150000Y-81106250D01*
X190549999Y-81106250D01*
X189550000Y-82106249D01*
X179512500Y-82106249D01*
X179512500Y-81106250D01*
X147512500Y-81106250D01*
X147512500Y-88106250D01*
X131887500Y-88106250D01*
X131887500Y-81106250D01*
X99887500Y-81106250D01*
X99887500Y-88106250D01*
X90816282Y-88106250D01*
X90813741Y-87999304D01*
X90773261Y-87789277D01*
X90693765Y-87590706D01*
X90578127Y-87410769D01*
X90430524Y-87255967D01*
X90256293Y-87131898D01*
X90256291Y-87131897D01*
X90256292Y-87131897D01*
X90148866Y-87082838D01*
X90061729Y-87043044D01*
X89853866Y-86992617D01*
X89640216Y-86982439D01*
X89640215Y-86982439D01*
X89640214Y-86982439D01*
X89640213Y-86982439D01*
X89428499Y-87012879D01*
X89226369Y-87082838D01*
X89041138Y-87189782D01*
X89041137Y-87189782D01*
X88879493Y-87329846D01*
X88879485Y-87329854D01*
X88747270Y-87497978D01*
X88699466Y-87590706D01*
X88649257Y-87688098D01*
X88588997Y-87893326D01*
X88568665Y-88106250D01*
X85087500Y-88106250D01*
X85087500Y-82106250D01*
X84087500Y-81106250D01*
X71487499Y-81106250D01*
X70487500Y-82106249D01*
X63656249Y-82106249D01*
X62656250Y-81106250D01*
X50056249Y-81106250D01*
X49056250Y-82106249D01*
X42224999Y-82106249D01*
X41225000Y-81106250D01*
X28624999Y-81106250D01*
X27625000Y-82106249D01*
X23018750Y-82106249D01*
X23018750Y-69056250D01*
X29037415Y-69056250D01*
X29057747Y-69269174D01*
X29118007Y-69474402D01*
X29168216Y-69571794D01*
X29216020Y-69664521D01*
X29348235Y-69832645D01*
X29348243Y-69832653D01*
X29509887Y-69972717D01*
X29695119Y-70079661D01*
X29695120Y-70079661D01*
X29695123Y-70079663D01*
X29897251Y-70149621D01*
X30108966Y-70180061D01*
X30322616Y-70169883D01*
X30530479Y-70119456D01*
X30725043Y-70030602D01*
X30899274Y-69906533D01*
X31046877Y-69751731D01*
X31162515Y-69571794D01*
X31242011Y-69373223D01*
X31282491Y-69163196D01*
X31285032Y-69056250D01*
X31282491Y-68949304D01*
X31242011Y-68739277D01*
X31162515Y-68540706D01*
X31046877Y-68360769D01*
X30899274Y-68205967D01*
X30725043Y-68081898D01*
X30725041Y-68081897D01*
X30725042Y-68081897D01*
X30617616Y-68032838D01*
X30530479Y-67993044D01*
X30322616Y-67942617D01*
X30108966Y-67932439D01*
X30108965Y-67932439D01*
X30108964Y-67932439D01*
X30108963Y-67932439D01*
X29897249Y-67962879D01*
X29695119Y-68032838D01*
X29509888Y-68139782D01*
X29509887Y-68139782D01*
X29348243Y-68279846D01*
X29348235Y-68279854D01*
X29216020Y-68447978D01*
X29168216Y-68540706D01*
X29118007Y-68638098D01*
X29057747Y-68843326D01*
X29037415Y-69056250D01*
X23018750Y-69056250D01*
X23018750Y-63056249D01*
X32387500Y-63056249D01*
X32387500Y-63056250D01*
X32387500Y-75056250D01*
X33387500Y-76056250D01*
X45987500Y-76056250D01*
X46987500Y-75056250D01*
X46987500Y-63056250D01*
X46987499Y-63056249D01*
X58581250Y-63056249D01*
X58581250Y-63056250D01*
X58581250Y-75056250D01*
X59581250Y-76056250D01*
X72181250Y-76056250D01*
X73181250Y-75056250D01*
X73181250Y-63056250D01*
X73181249Y-63056249D01*
X77631250Y-63056249D01*
X77631250Y-63056250D01*
X77631250Y-75056250D01*
X78631250Y-76056250D01*
X91231250Y-76056250D01*
X92231250Y-75056250D01*
X92231250Y-69056250D01*
X93331165Y-69056250D01*
X93351497Y-69269174D01*
X93411757Y-69474402D01*
X93461966Y-69571794D01*
X93509770Y-69664521D01*
X93641985Y-69832645D01*
X93641993Y-69832653D01*
X93803637Y-69972717D01*
X93988869Y-70079661D01*
X93988870Y-70079661D01*
X93988873Y-70079663D01*
X94191001Y-70149621D01*
X94402716Y-70180061D01*
X94616366Y-70169883D01*
X94824229Y-70119456D01*
X95018793Y-70030602D01*
X95193024Y-69906533D01*
X95340627Y-69751731D01*
X95456265Y-69571794D01*
X95535761Y-69373223D01*
X95576241Y-69163196D01*
X95578782Y-69056250D01*
X95576241Y-68949304D01*
X95535761Y-68739277D01*
X95456265Y-68540706D01*
X95340627Y-68360769D01*
X95193024Y-68205967D01*
X95018793Y-68081898D01*
X95018791Y-68081897D01*
X95018792Y-68081897D01*
X94911366Y-68032838D01*
X94824229Y-67993044D01*
X94616366Y-67942617D01*
X94402716Y-67932439D01*
X94402715Y-67932439D01*
X94402714Y-67932439D01*
X94402713Y-67932439D01*
X94190999Y-67962879D01*
X93988869Y-68032838D01*
X93803638Y-68139782D01*
X93803637Y-68139782D01*
X93641993Y-68279846D01*
X93641985Y-68279854D01*
X93509770Y-68447978D01*
X93461966Y-68540706D01*
X93411757Y-68638098D01*
X93351497Y-68843326D01*
X93331165Y-69056250D01*
X92231250Y-69056250D01*
X92231250Y-63056250D01*
X92231249Y-63056249D01*
X96681250Y-63056249D01*
X96681250Y-63056250D01*
X96681250Y-75056250D01*
X97681250Y-76056250D01*
X110281250Y-76056250D01*
X111281250Y-75056250D01*
X111281250Y-63056250D01*
X111281249Y-63056249D01*
X115731250Y-63056249D01*
X115731250Y-63056250D01*
X115731250Y-75056250D01*
X116731250Y-76056250D01*
X129331250Y-76056250D01*
X130331250Y-75056250D01*
X130331250Y-63056250D01*
X130331249Y-63056249D01*
X134781250Y-63056249D01*
X134781250Y-63056250D01*
X134781250Y-75056250D01*
X135781250Y-76056250D01*
X148381250Y-76056250D01*
X149381250Y-75056250D01*
X149381250Y-69056250D01*
X150481165Y-69056250D01*
X150501497Y-69269174D01*
X150561757Y-69474402D01*
X150611966Y-69571794D01*
X150659770Y-69664521D01*
X150791985Y-69832645D01*
X150791993Y-69832653D01*
X150953637Y-69972717D01*
X151138869Y-70079661D01*
X151138870Y-70079661D01*
X151138873Y-70079663D01*
X151341001Y-70149621D01*
X151552716Y-70180061D01*
X151766366Y-70169883D01*
X151974229Y-70119456D01*
X152168793Y-70030602D01*
X152343024Y-69906533D01*
X152490627Y-69751731D01*
X152606265Y-69571794D01*
X152685761Y-69373223D01*
X152726241Y-69163196D01*
X152728782Y-69056250D01*
X152726241Y-68949304D01*
X152685761Y-68739277D01*
X152606265Y-68540706D01*
X152490627Y-68360769D01*
X152343024Y-68205967D01*
X152168793Y-68081898D01*
X152168791Y-68081897D01*
X152168792Y-68081897D01*
X152061366Y-68032838D01*
X151974229Y-67993044D01*
X151766366Y-67942617D01*
X151552716Y-67932439D01*
X151552715Y-67932439D01*
X151552714Y-67932439D01*
X151552713Y-67932439D01*
X151340999Y-67962879D01*
X151138869Y-68032838D01*
X150953638Y-68139782D01*
X150953637Y-68139782D01*
X150791993Y-68279846D01*
X150791985Y-68279854D01*
X150659770Y-68447978D01*
X150611966Y-68540706D01*
X150561757Y-68638098D01*
X150501497Y-68843326D01*
X150481165Y-69056250D01*
X149381250Y-69056250D01*
X149381250Y-63056250D01*
X149381249Y-63056249D01*
X153831250Y-63056249D01*
X153831250Y-63056250D01*
X153831250Y-75056250D01*
X154831250Y-76056250D01*
X167431250Y-76056250D01*
X168431250Y-75056250D01*
X168431250Y-63056250D01*
X168431249Y-63056249D01*
X172881250Y-63056249D01*
X172881250Y-63056250D01*
X172881250Y-75056250D01*
X173881250Y-76056250D01*
X186481250Y-76056250D01*
X187481250Y-75056250D01*
X187481250Y-63056250D01*
X187481249Y-63056249D01*
X191931250Y-63056249D01*
X191931250Y-63056250D01*
X191931250Y-75056250D01*
X192931250Y-76056250D01*
X205531250Y-76056250D01*
X206531250Y-75056250D01*
X206531250Y-69056250D01*
X207631165Y-69056250D01*
X207651497Y-69269174D01*
X207711757Y-69474402D01*
X207761966Y-69571794D01*
X207809770Y-69664521D01*
X207941985Y-69832645D01*
X207941993Y-69832653D01*
X208103637Y-69972717D01*
X208288869Y-70079661D01*
X208288870Y-70079661D01*
X208288873Y-70079663D01*
X208491001Y-70149621D01*
X208702716Y-70180061D01*
X208916366Y-70169883D01*
X209124229Y-70119456D01*
X209318793Y-70030602D01*
X209493024Y-69906533D01*
X209640627Y-69751731D01*
X209756265Y-69571794D01*
X209835761Y-69373223D01*
X209876241Y-69163196D01*
X209878782Y-69056250D01*
X209876241Y-68949304D01*
X209835761Y-68739277D01*
X209756265Y-68540706D01*
X209640627Y-68360769D01*
X209493024Y-68205967D01*
X209318793Y-68081898D01*
X209318791Y-68081897D01*
X209318792Y-68081897D01*
X209211366Y-68032838D01*
X209124229Y-67993044D01*
X208916366Y-67942617D01*
X208702716Y-67932439D01*
X208702715Y-67932439D01*
X208702714Y-67932439D01*
X208702713Y-67932439D01*
X208490999Y-67962879D01*
X208288869Y-68032838D01*
X208103638Y-68139782D01*
X208103637Y-68139782D01*
X207941993Y-68279846D01*
X207941985Y-68279854D01*
X207809770Y-68447978D01*
X207761966Y-68540706D01*
X207711757Y-68638098D01*
X207651497Y-68843326D01*
X207631165Y-69056250D01*
X206531250Y-69056250D01*
X206531250Y-63056250D01*
X206531249Y-63056249D01*
X210981250Y-63056249D01*
X210981250Y-63056250D01*
X210981250Y-75056250D01*
X211981250Y-76056250D01*
X224581250Y-76056250D01*
X225581250Y-75056250D01*
X225581250Y-63056250D01*
X225581249Y-63056249D01*
X230031250Y-63056249D01*
X230031250Y-63056250D01*
X230031250Y-75056250D01*
X231031250Y-76056250D01*
X243631250Y-76056250D01*
X244631250Y-75056250D01*
X244631250Y-69056250D01*
X245731165Y-69056250D01*
X245751497Y-69269174D01*
X245811757Y-69474402D01*
X245861966Y-69571794D01*
X245909770Y-69664521D01*
X246041985Y-69832645D01*
X246041993Y-69832653D01*
X246203637Y-69972717D01*
X246388869Y-70079661D01*
X246388870Y-70079661D01*
X246388873Y-70079663D01*
X246591001Y-70149621D01*
X246802716Y-70180061D01*
X247016366Y-70169883D01*
X247224229Y-70119456D01*
X247418793Y-70030602D01*
X247593024Y-69906533D01*
X247740627Y-69751731D01*
X247856265Y-69571794D01*
X247935761Y-69373223D01*
X247976241Y-69163196D01*
X247978782Y-69056250D01*
X247976241Y-68949304D01*
X247935761Y-68739277D01*
X247856265Y-68540706D01*
X247740627Y-68360769D01*
X247593024Y-68205967D01*
X247418793Y-68081898D01*
X247418791Y-68081897D01*
X247418792Y-68081897D01*
X247311366Y-68032838D01*
X247224229Y-67993044D01*
X247016366Y-67942617D01*
X246802716Y-67932439D01*
X246802715Y-67932439D01*
X246802714Y-67932439D01*
X246802713Y-67932439D01*
X246590999Y-67962879D01*
X246388869Y-68032838D01*
X246203638Y-68139782D01*
X246203637Y-68139782D01*
X246041993Y-68279846D01*
X246041985Y-68279854D01*
X245909770Y-68447978D01*
X245861966Y-68540706D01*
X245811757Y-68638098D01*
X245751497Y-68843326D01*
X245731165Y-69056250D01*
X244631250Y-69056250D01*
X244631250Y-63056250D01*
X244631249Y-63056249D01*
X249081250Y-63056249D01*
X249081250Y-63056250D01*
X249081250Y-75056250D01*
X250081250Y-76056250D01*
X262681250Y-76056250D01*
X263681250Y-75056250D01*
X263681250Y-63056250D01*
X262681250Y-62056250D01*
X250081249Y-62056250D01*
X249081250Y-63056249D01*
X244631249Y-63056249D01*
X243631250Y-62056250D01*
X231031249Y-62056250D01*
X230031250Y-63056249D01*
X225581249Y-63056249D01*
X224581250Y-62056250D01*
X211981249Y-62056250D01*
X210981250Y-63056249D01*
X206531249Y-63056249D01*
X205531250Y-62056250D01*
X192931249Y-62056250D01*
X191931250Y-63056249D01*
X187481249Y-63056249D01*
X186481250Y-62056250D01*
X173881249Y-62056250D01*
X172881250Y-63056249D01*
X168431249Y-63056249D01*
X167431250Y-62056250D01*
X154831249Y-62056250D01*
X153831250Y-63056249D01*
X149381249Y-63056249D01*
X148381250Y-62056250D01*
X135781249Y-62056250D01*
X134781250Y-63056249D01*
X130331249Y-63056249D01*
X129331250Y-62056250D01*
X116731249Y-62056250D01*
X115731250Y-63056249D01*
X111281249Y-63056249D01*
X110281250Y-62056250D01*
X97681249Y-62056250D01*
X96681250Y-63056249D01*
X92231249Y-63056249D01*
X91231250Y-62056250D01*
X78631249Y-62056250D01*
X77631250Y-63056249D01*
X73181249Y-63056249D01*
X72181250Y-62056250D01*
X59581249Y-62056250D01*
X58581250Y-63056249D01*
X46987499Y-63056249D01*
X45987500Y-62056250D01*
X33387499Y-62056250D01*
X32387500Y-63056249D01*
X23018750Y-63056249D01*
X23018750Y-50006250D01*
X24274915Y-50006250D01*
X24295247Y-50219174D01*
X24355507Y-50424402D01*
X24405716Y-50521794D01*
X24453520Y-50614521D01*
X24585735Y-50782645D01*
X24585743Y-50782653D01*
X24747387Y-50922717D01*
X24932619Y-51029661D01*
X24932620Y-51029661D01*
X24932623Y-51029663D01*
X25134751Y-51099621D01*
X25346466Y-51130061D01*
X25560116Y-51119883D01*
X25767979Y-51069456D01*
X25962543Y-50980602D01*
X26136774Y-50856533D01*
X26284377Y-50701731D01*
X26400015Y-50521794D01*
X26479511Y-50323223D01*
X26519991Y-50113196D01*
X26522532Y-50006250D01*
X26519991Y-49899304D01*
X26479511Y-49689277D01*
X26400015Y-49490706D01*
X26284377Y-49310769D01*
X26136774Y-49155967D01*
X25962543Y-49031898D01*
X25962541Y-49031897D01*
X25962542Y-49031897D01*
X25855116Y-48982838D01*
X25767979Y-48943044D01*
X25560116Y-48892617D01*
X25346466Y-48882439D01*
X25346465Y-48882439D01*
X25346464Y-48882439D01*
X25346463Y-48882439D01*
X25134749Y-48912879D01*
X24932619Y-48982838D01*
X24747388Y-49089782D01*
X24747387Y-49089782D01*
X24585743Y-49229846D01*
X24585735Y-49229854D01*
X24453520Y-49397978D01*
X24405716Y-49490706D01*
X24355507Y-49588098D01*
X24295247Y-49793326D01*
X24274915Y-50006250D01*
X23018750Y-50006250D01*
X23018750Y-44006249D01*
X27625000Y-44006249D01*
X27625000Y-44006250D01*
X27625000Y-56006250D01*
X28625000Y-57006250D01*
X41225000Y-57006250D01*
X42225000Y-56006250D01*
X42225000Y-44006250D01*
X42224999Y-44006249D01*
X49056250Y-44006249D01*
X49056250Y-44006250D01*
X49056250Y-56006250D01*
X50056250Y-57006250D01*
X62656250Y-57006250D01*
X63656250Y-56006250D01*
X63656250Y-50006250D01*
X64756165Y-50006250D01*
X64776497Y-50219174D01*
X64836757Y-50424402D01*
X64886966Y-50521794D01*
X64934770Y-50614521D01*
X65066985Y-50782645D01*
X65066993Y-50782653D01*
X65228637Y-50922717D01*
X65413869Y-51029661D01*
X65413870Y-51029661D01*
X65413873Y-51029663D01*
X65616001Y-51099621D01*
X65827716Y-51130061D01*
X66041366Y-51119883D01*
X66249229Y-51069456D01*
X66443793Y-50980602D01*
X66618024Y-50856533D01*
X66765627Y-50701731D01*
X66881265Y-50521794D01*
X66960761Y-50323223D01*
X67001241Y-50113196D01*
X67003782Y-50006250D01*
X67001241Y-49899304D01*
X66960761Y-49689277D01*
X66881265Y-49490706D01*
X66765627Y-49310769D01*
X66618024Y-49155967D01*
X66443793Y-49031898D01*
X66443791Y-49031897D01*
X66443792Y-49031897D01*
X66336366Y-48982838D01*
X66249229Y-48943044D01*
X66041366Y-48892617D01*
X65827716Y-48882439D01*
X65827715Y-48882439D01*
X65827714Y-48882439D01*
X65827713Y-48882439D01*
X65615999Y-48912879D01*
X65413869Y-48982838D01*
X65228638Y-49089782D01*
X65228637Y-49089782D01*
X65066993Y-49229846D01*
X65066985Y-49229854D01*
X64934770Y-49397978D01*
X64886966Y-49490706D01*
X64836757Y-49588098D01*
X64776497Y-49793326D01*
X64756165Y-50006250D01*
X63656250Y-50006250D01*
X63656250Y-44006250D01*
X63656249Y-44006249D01*
X68106250Y-44006249D01*
X68106250Y-44006250D01*
X68106250Y-56006250D01*
X69106250Y-57006250D01*
X81706250Y-57006250D01*
X82706250Y-56006250D01*
X82706250Y-44006250D01*
X82706249Y-44006249D01*
X87156250Y-44006249D01*
X87156250Y-44006250D01*
X87156250Y-56006250D01*
X88156250Y-57006250D01*
X100756250Y-57006250D01*
X101756250Y-56006250D01*
X101756250Y-50006250D01*
X102856165Y-50006250D01*
X102876497Y-50219174D01*
X102936757Y-50424402D01*
X102986966Y-50521794D01*
X103034770Y-50614521D01*
X103166985Y-50782645D01*
X103166993Y-50782653D01*
X103328637Y-50922717D01*
X103513869Y-51029661D01*
X103513870Y-51029661D01*
X103513873Y-51029663D01*
X103716001Y-51099621D01*
X103927716Y-51130061D01*
X104141366Y-51119883D01*
X104349229Y-51069456D01*
X104543793Y-50980602D01*
X104718024Y-50856533D01*
X104865627Y-50701731D01*
X104981265Y-50521794D01*
X105060761Y-50323223D01*
X105101241Y-50113196D01*
X105103782Y-50006250D01*
X105101241Y-49899304D01*
X105060761Y-49689277D01*
X104981265Y-49490706D01*
X104865627Y-49310769D01*
X104718024Y-49155967D01*
X104543793Y-49031898D01*
X104543791Y-49031897D01*
X104543792Y-49031897D01*
X104436366Y-48982838D01*
X104349229Y-48943044D01*
X104141366Y-48892617D01*
X103927716Y-48882439D01*
X103927715Y-48882439D01*
X103927714Y-48882439D01*
X103927713Y-48882439D01*
X103715999Y-48912879D01*
X103513869Y-48982838D01*
X103328638Y-49089782D01*
X103328637Y-49089782D01*
X103166993Y-49229846D01*
X103166985Y-49229854D01*
X103034770Y-49397978D01*
X102986966Y-49490706D01*
X102936757Y-49588098D01*
X102876497Y-49793326D01*
X102856165Y-50006250D01*
X101756250Y-50006250D01*
X101756250Y-44006250D01*
X101756249Y-44006249D01*
X106206250Y-44006249D01*
X106206250Y-44006250D01*
X106206250Y-56006250D01*
X107206250Y-57006250D01*
X119806250Y-57006250D01*
X120806250Y-56006250D01*
X120806250Y-44006250D01*
X120806249Y-44006249D01*
X125256250Y-44006249D01*
X125256250Y-44006250D01*
X125256250Y-56006250D01*
X126256250Y-57006250D01*
X138856250Y-57006250D01*
X139856250Y-56006250D01*
X139856250Y-50006250D01*
X140956165Y-50006250D01*
X140976497Y-50219174D01*
X141036757Y-50424402D01*
X141086966Y-50521794D01*
X141134770Y-50614521D01*
X141266985Y-50782645D01*
X141266993Y-50782653D01*
X141428637Y-50922717D01*
X141613869Y-51029661D01*
X141613870Y-51029661D01*
X141613873Y-51029663D01*
X141816001Y-51099621D01*
X142027716Y-51130061D01*
X142241366Y-51119883D01*
X142449229Y-51069456D01*
X142643793Y-50980602D01*
X142818024Y-50856533D01*
X142965627Y-50701731D01*
X143081265Y-50521794D01*
X143160761Y-50323223D01*
X143201241Y-50113196D01*
X143203782Y-50006250D01*
X143201241Y-49899304D01*
X143160761Y-49689277D01*
X143081265Y-49490706D01*
X142965627Y-49310769D01*
X142818024Y-49155967D01*
X142643793Y-49031898D01*
X142643791Y-49031897D01*
X142643792Y-49031897D01*
X142536366Y-48982838D01*
X142449229Y-48943044D01*
X142241366Y-48892617D01*
X142027716Y-48882439D01*
X142027715Y-48882439D01*
X142027714Y-48882439D01*
X142027713Y-48882439D01*
X141815999Y-48912879D01*
X141613869Y-48982838D01*
X141428638Y-49089782D01*
X141428637Y-49089782D01*
X141266993Y-49229846D01*
X141266985Y-49229854D01*
X141134770Y-49397978D01*
X141086966Y-49490706D01*
X141036757Y-49588098D01*
X140976497Y-49793326D01*
X140956165Y-50006250D01*
X139856250Y-50006250D01*
X139856250Y-44006250D01*
X139856249Y-44006249D01*
X144306250Y-44006249D01*
X144306250Y-44006250D01*
X144306250Y-56006250D01*
X145306250Y-57006250D01*
X157906250Y-57006250D01*
X158906250Y-56006250D01*
X158906250Y-44006250D01*
X158906249Y-44006249D01*
X163356250Y-44006249D01*
X163356250Y-44006250D01*
X163356250Y-56006250D01*
X164356250Y-57006250D01*
X176956250Y-57006250D01*
X177956250Y-56006250D01*
X177956250Y-44006250D01*
X177956249Y-44006249D01*
X182406250Y-44006249D01*
X182406250Y-44006250D01*
X182406250Y-56006250D01*
X183406250Y-57006250D01*
X196006250Y-57006250D01*
X197006250Y-56006250D01*
X197006250Y-50006250D01*
X198106165Y-50006250D01*
X198126497Y-50219174D01*
X198186757Y-50424402D01*
X198236966Y-50521794D01*
X198284770Y-50614521D01*
X198416985Y-50782645D01*
X198416993Y-50782653D01*
X198578637Y-50922717D01*
X198763869Y-51029661D01*
X198763870Y-51029661D01*
X198763873Y-51029663D01*
X198966001Y-51099621D01*
X199177716Y-51130061D01*
X199391366Y-51119883D01*
X199599229Y-51069456D01*
X199793793Y-50980602D01*
X199968024Y-50856533D01*
X200115627Y-50701731D01*
X200231265Y-50521794D01*
X200310761Y-50323223D01*
X200351241Y-50113196D01*
X200353782Y-50006250D01*
X200351241Y-49899304D01*
X200310761Y-49689277D01*
X200231265Y-49490706D01*
X200115627Y-49310769D01*
X199968024Y-49155967D01*
X199793793Y-49031898D01*
X199793791Y-49031897D01*
X199793792Y-49031897D01*
X199686366Y-48982838D01*
X199599229Y-48943044D01*
X199391366Y-48892617D01*
X199177716Y-48882439D01*
X199177715Y-48882439D01*
X199177714Y-48882439D01*
X199177713Y-48882439D01*
X198965999Y-48912879D01*
X198763869Y-48982838D01*
X198578638Y-49089782D01*
X198578637Y-49089782D01*
X198416993Y-49229846D01*
X198416985Y-49229854D01*
X198284770Y-49397978D01*
X198236966Y-49490706D01*
X198186757Y-49588098D01*
X198126497Y-49793326D01*
X198106165Y-50006250D01*
X197006250Y-50006250D01*
X197006250Y-44006250D01*
X197006249Y-44006249D01*
X201456250Y-44006249D01*
X201456250Y-44006250D01*
X201456250Y-56006250D01*
X202456250Y-57006250D01*
X215056250Y-57006250D01*
X216056250Y-56006250D01*
X216056250Y-44006250D01*
X216056249Y-44006249D01*
X220506250Y-44006249D01*
X220506250Y-44006250D01*
X220506250Y-56006250D01*
X221506250Y-57006250D01*
X234106250Y-57006250D01*
X235106250Y-56006250D01*
X235106250Y-50006250D01*
X240968665Y-50006250D01*
X240988997Y-50219174D01*
X241049257Y-50424402D01*
X241099466Y-50521794D01*
X241147270Y-50614521D01*
X241279485Y-50782645D01*
X241279493Y-50782653D01*
X241441137Y-50922717D01*
X241626369Y-51029661D01*
X241626370Y-51029661D01*
X241626373Y-51029663D01*
X241828501Y-51099621D01*
X242040216Y-51130061D01*
X242253866Y-51119883D01*
X242461729Y-51069456D01*
X242656293Y-50980602D01*
X242830524Y-50856533D01*
X242978127Y-50701731D01*
X243093765Y-50521794D01*
X243173261Y-50323223D01*
X243213741Y-50113196D01*
X243216282Y-50006250D01*
X243213741Y-49899304D01*
X243173261Y-49689277D01*
X243093765Y-49490706D01*
X242978127Y-49310769D01*
X242830524Y-49155967D01*
X242656293Y-49031898D01*
X242656291Y-49031897D01*
X242656292Y-49031897D01*
X242548866Y-48982838D01*
X242461729Y-48943044D01*
X242253866Y-48892617D01*
X242040216Y-48882439D01*
X242040215Y-48882439D01*
X242040214Y-48882439D01*
X242040213Y-48882439D01*
X241828499Y-48912879D01*
X241626369Y-48982838D01*
X241441138Y-49089782D01*
X241441137Y-49089782D01*
X241279493Y-49229846D01*
X241279485Y-49229854D01*
X241147270Y-49397978D01*
X241099466Y-49490706D01*
X241049257Y-49588098D01*
X240988997Y-49793326D01*
X240968665Y-50006250D01*
X235106250Y-50006250D01*
X235106250Y-44006250D01*
X235106249Y-44006249D01*
X244318750Y-44006249D01*
X244318750Y-44006250D01*
X244318750Y-56006250D01*
X245318750Y-57006250D01*
X257918750Y-57006250D01*
X258918750Y-56006250D01*
X258918750Y-44006250D01*
X257918750Y-43006250D01*
X245318749Y-43006250D01*
X244318750Y-44006249D01*
X235106249Y-44006249D01*
X234106250Y-43006250D01*
X221506249Y-43006250D01*
X220506250Y-44006249D01*
X216056249Y-44006249D01*
X215056250Y-43006250D01*
X202456249Y-43006250D01*
X201456250Y-44006249D01*
X197006249Y-44006249D01*
X196006250Y-43006250D01*
X183406249Y-43006250D01*
X182406250Y-44006249D01*
X177956249Y-44006249D01*
X176956250Y-43006250D01*
X164356249Y-43006250D01*
X163356250Y-44006249D01*
X158906249Y-44006249D01*
X157906250Y-43006250D01*
X145306249Y-43006250D01*
X144306250Y-44006249D01*
X139856249Y-44006249D01*
X138856250Y-43006250D01*
X126256249Y-43006250D01*
X125256250Y-44006249D01*
X120806249Y-44006249D01*
X119806250Y-43006250D01*
X107206249Y-43006250D01*
X106206250Y-44006249D01*
X101756249Y-44006249D01*
X100756250Y-43006250D01*
X88156249Y-43006250D01*
X87156250Y-44006249D01*
X82706249Y-44006249D01*
X81706250Y-43006250D01*
X69106249Y-43006250D01*
X68106250Y-44006249D01*
X63656249Y-44006249D01*
X62656250Y-43006250D01*
X50056249Y-43006250D01*
X49056250Y-44006249D01*
X42224999Y-44006249D01*
X41225000Y-43006250D01*
X28624999Y-43006250D01*
X27625000Y-44006249D01*
X23018750Y-44006249D01*
X23018750Y-24956249D01*
X25243750Y-24956249D01*
X25243750Y-24956250D01*
X25243750Y-36956250D01*
X26243750Y-37956250D01*
X38843750Y-37956250D01*
X39843750Y-36956250D01*
X39843750Y-30956250D01*
X40943665Y-30956250D01*
X40963997Y-31169174D01*
X41024257Y-31374402D01*
X41074466Y-31471794D01*
X41122270Y-31564521D01*
X41254485Y-31732645D01*
X41254493Y-31732653D01*
X41416137Y-31872717D01*
X41601369Y-31979661D01*
X41601370Y-31979661D01*
X41601373Y-31979663D01*
X41803501Y-32049621D01*
X42015216Y-32080061D01*
X42228866Y-32069883D01*
X42436729Y-32019456D01*
X42631293Y-31930602D01*
X42805524Y-31806533D01*
X42953127Y-31651731D01*
X43068765Y-31471794D01*
X43148261Y-31273223D01*
X43188741Y-31063196D01*
X43191282Y-30956250D01*
X43188741Y-30849304D01*
X43148261Y-30639277D01*
X43068765Y-30440706D01*
X42953127Y-30260769D01*
X42805524Y-30105967D01*
X42631293Y-29981898D01*
X42631291Y-29981897D01*
X42631292Y-29981897D01*
X42523866Y-29932838D01*
X42436729Y-29893044D01*
X42228866Y-29842617D01*
X42015216Y-29832439D01*
X42015215Y-29832439D01*
X42015214Y-29832439D01*
X42015213Y-29832439D01*
X41803499Y-29862879D01*
X41601369Y-29932838D01*
X41416138Y-30039782D01*
X41416137Y-30039782D01*
X41254493Y-30179846D01*
X41254485Y-30179854D01*
X41122270Y-30347978D01*
X41074466Y-30440706D01*
X41024257Y-30538098D01*
X40963997Y-30743326D01*
X40943665Y-30956250D01*
X39843750Y-30956250D01*
X39843750Y-24956250D01*
X39843749Y-24956249D01*
X44293750Y-24956249D01*
X44293750Y-24956250D01*
X44293750Y-36956250D01*
X45293750Y-37956250D01*
X57893750Y-37956250D01*
X58893750Y-36956250D01*
X58893750Y-24956250D01*
X58893749Y-24956249D01*
X63343750Y-24956249D01*
X63343750Y-24956250D01*
X63343750Y-36956250D01*
X64343750Y-37956250D01*
X76943750Y-37956250D01*
X77943750Y-36956250D01*
X77943750Y-24956250D01*
X77943749Y-24956249D01*
X82393750Y-24956249D01*
X82393750Y-24956250D01*
X82393750Y-36956250D01*
X83393750Y-37956250D01*
X95993750Y-37956250D01*
X96993750Y-36956250D01*
X96993750Y-30956250D01*
X98093665Y-30956250D01*
X98113997Y-31169174D01*
X98174257Y-31374402D01*
X98224466Y-31471794D01*
X98272270Y-31564521D01*
X98404485Y-31732645D01*
X98404493Y-31732653D01*
X98566137Y-31872717D01*
X98751369Y-31979661D01*
X98751370Y-31979661D01*
X98751373Y-31979663D01*
X98953501Y-32049621D01*
X99165216Y-32080061D01*
X99378866Y-32069883D01*
X99586729Y-32019456D01*
X99781293Y-31930602D01*
X99955524Y-31806533D01*
X100103127Y-31651731D01*
X100218765Y-31471794D01*
X100298261Y-31273223D01*
X100338741Y-31063196D01*
X100341282Y-30956250D01*
X100338741Y-30849304D01*
X100298261Y-30639277D01*
X100218765Y-30440706D01*
X100103127Y-30260769D01*
X99955524Y-30105967D01*
X99781293Y-29981898D01*
X99781291Y-29981897D01*
X99781292Y-29981897D01*
X99673866Y-29932838D01*
X99586729Y-29893044D01*
X99378866Y-29842617D01*
X99165216Y-29832439D01*
X99165215Y-29832439D01*
X99165214Y-29832439D01*
X99165213Y-29832439D01*
X98953499Y-29862879D01*
X98751369Y-29932838D01*
X98566138Y-30039782D01*
X98566137Y-30039782D01*
X98404493Y-30179846D01*
X98404485Y-30179854D01*
X98272270Y-30347978D01*
X98224466Y-30440706D01*
X98174257Y-30538098D01*
X98113997Y-30743326D01*
X98093665Y-30956250D01*
X96993750Y-30956250D01*
X96993750Y-24956250D01*
X96993749Y-24956249D01*
X101443750Y-24956249D01*
X101443750Y-24956250D01*
X101443750Y-36956250D01*
X102443750Y-37956250D01*
X115043750Y-37956250D01*
X116043750Y-36956250D01*
X116043750Y-24956250D01*
X116043749Y-24956249D01*
X120493750Y-24956249D01*
X120493750Y-24956250D01*
X120493750Y-36956250D01*
X121493750Y-37956250D01*
X134093750Y-37956250D01*
X135093750Y-36956250D01*
X135093750Y-24956250D01*
X135093749Y-24956249D01*
X139543750Y-24956249D01*
X139543750Y-24956250D01*
X139543750Y-36956250D01*
X140543750Y-37956250D01*
X153143750Y-37956250D01*
X154143750Y-36956250D01*
X154143750Y-30956250D01*
X155243665Y-30956250D01*
X155263997Y-31169174D01*
X155324257Y-31374402D01*
X155374466Y-31471794D01*
X155422270Y-31564521D01*
X155554485Y-31732645D01*
X155554493Y-31732653D01*
X155716137Y-31872717D01*
X155901369Y-31979661D01*
X155901370Y-31979661D01*
X155901373Y-31979663D01*
X156103501Y-32049621D01*
X156315216Y-32080061D01*
X156528866Y-32069883D01*
X156736729Y-32019456D01*
X156931293Y-31930602D01*
X157105524Y-31806533D01*
X157253127Y-31651731D01*
X157368765Y-31471794D01*
X157448261Y-31273223D01*
X157488741Y-31063196D01*
X157491282Y-30956250D01*
X157488741Y-30849304D01*
X157448261Y-30639277D01*
X157368765Y-30440706D01*
X157253127Y-30260769D01*
X157105524Y-30105967D01*
X156931293Y-29981898D01*
X156931291Y-29981897D01*
X156931292Y-29981897D01*
X156823866Y-29932838D01*
X156736729Y-29893044D01*
X156528866Y-29842617D01*
X156315216Y-29832439D01*
X156315215Y-29832439D01*
X156315214Y-29832439D01*
X156315213Y-29832439D01*
X156103499Y-29862879D01*
X155901369Y-29932838D01*
X155716138Y-30039782D01*
X155716137Y-30039782D01*
X155554493Y-30179846D01*
X155554485Y-30179854D01*
X155422270Y-30347978D01*
X155374466Y-30440706D01*
X155324257Y-30538098D01*
X155263997Y-30743326D01*
X155243665Y-30956250D01*
X154143750Y-30956250D01*
X154143750Y-24956250D01*
X154143749Y-24956249D01*
X158593750Y-24956249D01*
X158593750Y-24956250D01*
X158593750Y-36956250D01*
X159593750Y-37956250D01*
X172193750Y-37956250D01*
X173193750Y-36956250D01*
X173193750Y-24956250D01*
X173193749Y-24956249D01*
X177643750Y-24956249D01*
X177643750Y-24956250D01*
X177643750Y-36956250D01*
X178643750Y-37956250D01*
X191243750Y-37956250D01*
X192243750Y-36956250D01*
X192243750Y-24956250D01*
X192243749Y-24956249D01*
X196693750Y-24956249D01*
X196693750Y-24956250D01*
X196693750Y-36956250D01*
X197693750Y-37956250D01*
X210293750Y-37956250D01*
X211293750Y-36956250D01*
X211293750Y-30956250D01*
X212393665Y-30956250D01*
X212413997Y-31169174D01*
X212474257Y-31374402D01*
X212524466Y-31471794D01*
X212572270Y-31564521D01*
X212704485Y-31732645D01*
X212704493Y-31732653D01*
X212866137Y-31872717D01*
X213051369Y-31979661D01*
X213051370Y-31979661D01*
X213051373Y-31979663D01*
X213253501Y-32049621D01*
X213465216Y-32080061D01*
X213678866Y-32069883D01*
X213886729Y-32019456D01*
X214081293Y-31930602D01*
X214255524Y-31806533D01*
X214403127Y-31651731D01*
X214518765Y-31471794D01*
X214598261Y-31273223D01*
X214638741Y-31063196D01*
X214641282Y-30956250D01*
X214638741Y-30849304D01*
X214598261Y-30639277D01*
X214518765Y-30440706D01*
X214403127Y-30260769D01*
X214255524Y-30105967D01*
X214081293Y-29981898D01*
X214081291Y-29981897D01*
X214081292Y-29981897D01*
X213973866Y-29932838D01*
X213886729Y-29893044D01*
X213678866Y-29842617D01*
X213465216Y-29832439D01*
X213465215Y-29832439D01*
X213465214Y-29832439D01*
X213465213Y-29832439D01*
X213253499Y-29862879D01*
X213051369Y-29932838D01*
X212866138Y-30039782D01*
X212866137Y-30039782D01*
X212704493Y-30179846D01*
X212704485Y-30179854D01*
X212572270Y-30347978D01*
X212524466Y-30440706D01*
X212474257Y-30538098D01*
X212413997Y-30743326D01*
X212393665Y-30956250D01*
X211293750Y-30956250D01*
X211293750Y-24956250D01*
X211293749Y-24956249D01*
X215743750Y-24956249D01*
X215743750Y-24956250D01*
X215743750Y-36956250D01*
X216743750Y-37956250D01*
X229343750Y-37956250D01*
X230343750Y-36956250D01*
X230343750Y-24956250D01*
X230343749Y-24956249D01*
X241937500Y-24956249D01*
X241937500Y-24956250D01*
X241937500Y-36956250D01*
X242937500Y-37956250D01*
X255537500Y-37956250D01*
X256537500Y-36956250D01*
X256537500Y-30956250D01*
X257637415Y-30956250D01*
X257657747Y-31169174D01*
X257718007Y-31374402D01*
X257768216Y-31471794D01*
X257816020Y-31564521D01*
X257948235Y-31732645D01*
X257948243Y-31732653D01*
X258109887Y-31872717D01*
X258295119Y-31979661D01*
X258295120Y-31979661D01*
X258295123Y-31979663D01*
X258497251Y-32049621D01*
X258708966Y-32080061D01*
X258922616Y-32069883D01*
X259130479Y-32019456D01*
X259325043Y-31930602D01*
X259499274Y-31806533D01*
X259646877Y-31651731D01*
X259762515Y-31471794D01*
X259842011Y-31273223D01*
X259882491Y-31063196D01*
X259885032Y-30956250D01*
X259882491Y-30849304D01*
X259842011Y-30639277D01*
X259762515Y-30440706D01*
X259646877Y-30260769D01*
X259499274Y-30105967D01*
X259325043Y-29981898D01*
X259325041Y-29981897D01*
X259325042Y-29981897D01*
X259217616Y-29932838D01*
X259130479Y-29893044D01*
X258922616Y-29842617D01*
X258708966Y-29832439D01*
X258708965Y-29832439D01*
X258708964Y-29832439D01*
X258708963Y-29832439D01*
X258497249Y-29862879D01*
X258295119Y-29932838D01*
X258109888Y-30039782D01*
X258109887Y-30039782D01*
X257948243Y-30179846D01*
X257948235Y-30179854D01*
X257816020Y-30347978D01*
X257768216Y-30440706D01*
X257718007Y-30538098D01*
X257657747Y-30743326D01*
X257637415Y-30956250D01*
X256537500Y-30956250D01*
X256537500Y-24956250D01*
X255537500Y-23956250D01*
X242937499Y-23956250D01*
X241937500Y-24956249D01*
X230343749Y-24956249D01*
X229343750Y-23956250D01*
X216743749Y-23956250D01*
X215743750Y-24956249D01*
X211293749Y-24956249D01*
X210293750Y-23956250D01*
X197693749Y-23956250D01*
X196693750Y-24956249D01*
X192243749Y-24956249D01*
X191243750Y-23956250D01*
X178643749Y-23956250D01*
X177643750Y-24956249D01*
X173193749Y-24956249D01*
X172193750Y-23956250D01*
X159593749Y-23956250D01*
X158593750Y-24956249D01*
X154143749Y-24956249D01*
X153143750Y-23956250D01*
X140543749Y-23956250D01*
X139543750Y-24956249D01*
X135093749Y-24956249D01*
X134093750Y-23956250D01*
X121493749Y-23956250D01*
X120493750Y-24956249D01*
X116043749Y-24956249D01*
X115043750Y-23956250D01*
X102443749Y-23956250D01*
X101443750Y-24956249D01*
X96993749Y-24956249D01*
X95993750Y-23956250D01*
X83393749Y-23956250D01*
X82393750Y-24956249D01*
X77943749Y-24956249D01*
X76943750Y-23956250D01*
X64343749Y-23956250D01*
X63343750Y-24956249D01*
X58893749Y-24956249D01*
X57893750Y-23956250D01*
X45293749Y-23956250D01*
X44293750Y-24956249D01*
X39843749Y-24956249D01*
X38843750Y-23956250D01*
X26243749Y-23956250D01*
X25243750Y-24956249D01*
X23018750Y-24956249D01*
X23018750Y-22247365D01*
X23018767Y-22245339D01*
X23018824Y-22241811D01*
X23021496Y-22078337D01*
X23022538Y-22064203D01*
X23066276Y-21731999D01*
X23069435Y-21716117D01*
X23155898Y-21393438D01*
X23161101Y-21378110D01*
X23288938Y-21069486D01*
X23296104Y-21054954D01*
X23463125Y-20765665D01*
X23472127Y-20752192D01*
X23676099Y-20486369D01*
X23685359Y-20475633D01*
X23801607Y-20355519D01*
X23802907Y-20354198D01*
X25975855Y-18181250D01*
X32266096Y-18181250D01*
X32286224Y-18404893D01*
X32345963Y-18621356D01*
X32443391Y-18823667D01*
X32443393Y-18823671D01*
X32575375Y-19005329D01*
X32575376Y-19005331D01*
X32575379Y-19005334D01*
X32575380Y-19005335D01*
X32737685Y-19160514D01*
X32925089Y-19284219D01*
X33131570Y-19372473D01*
X33350491Y-19422440D01*
X33574816Y-19432515D01*
X33797335Y-19402373D01*
X34010896Y-19332982D01*
X34208635Y-19226575D01*
X34384196Y-19086569D01*
X34531937Y-18917466D01*
X34647109Y-18724701D01*
X34726011Y-18514468D01*
X34766106Y-18293526D01*
X34768622Y-18181250D01*
X34766106Y-18068974D01*
X34726011Y-17848032D01*
X34647109Y-17637799D01*
X34647105Y-17637793D01*
X34647105Y-17637791D01*
X34581898Y-17528654D01*
X34531937Y-17445034D01*
X34384196Y-17275931D01*
X34384194Y-17275930D01*
X34384193Y-17275928D01*
X34208636Y-17135926D01*
X34208635Y-17135925D01*
X34101514Y-17078281D01*
X34010897Y-17029518D01*
X33797337Y-16960127D01*
X33723162Y-16950079D01*
X33574816Y-16929985D01*
X33574812Y-16929985D01*
X33350496Y-16940059D01*
X33350485Y-16940061D01*
X33131580Y-16990024D01*
X33131573Y-16990026D01*
X33131570Y-16990027D01*
X33039176Y-17029518D01*
X32925088Y-17078281D01*
X32837761Y-17135926D01*
X32737685Y-17201986D01*
X32737684Y-17201987D01*
X32575376Y-17357168D01*
X32575375Y-17357170D01*
X32443393Y-17538828D01*
X32443391Y-17538832D01*
X32345963Y-17741143D01*
X32286224Y-17957606D01*
X32266096Y-18181250D01*
X25975855Y-18181250D01*
X27941697Y-16215408D01*
X27943057Y-16214071D01*
X28063142Y-16097852D01*
X28073863Y-16088605D01*
X28339693Y-15884628D01*
X28353166Y-15875626D01*
X28642454Y-15708605D01*
X28656988Y-15701438D01*
X28965597Y-15573608D01*
X28980954Y-15568395D01*
X29303616Y-15481937D01*
X29319499Y-15478778D01*
X29651702Y-15435041D01*
X29665837Y-15433998D01*
X29832839Y-15431267D01*
X29834867Y-15431250D01*
X37202635Y-15431250D01*
X37204661Y-15431267D01*
G37*
%TD.AperFunction*%
%TD*%
M02*
