%TF.GenerationSoftware,KiCad,Pcbnew,8.0.5*%
%TF.CreationDate,2024-10-29T17:29:43+01:00*%
%TF.ProjectId,plate campsite,706c6174-6520-4636-916d-70736974652e,rev?*%
%TF.SameCoordinates,Original*%
%TF.FileFunction,Legend,Top*%
%TF.FilePolarity,Positive*%
%FSLAX46Y46*%
G04 Gerber Fmt 4.6, Leading zero omitted, Abs format (unit mm)*
G04 Created by KiCad (PCBNEW 8.0.5) date 2024-10-29 17:29:43*
%MOMM*%
%LPD*%
G01*
G04 APERTURE LIST*
%ADD10C,0.150000*%
%ADD11C,0.200000*%
%ADD12C,0.000000*%
G04 APERTURE END LIST*
D10*
X181951488Y-84592319D02*
X181951488Y-83592319D01*
X181951488Y-83973271D02*
X182046726Y-83925652D01*
X182046726Y-83925652D02*
X182237202Y-83925652D01*
X182237202Y-83925652D02*
X182332440Y-83973271D01*
X182332440Y-83973271D02*
X182380059Y-84020890D01*
X182380059Y-84020890D02*
X182427678Y-84116128D01*
X182427678Y-84116128D02*
X182427678Y-84401842D01*
X182427678Y-84401842D02*
X182380059Y-84497080D01*
X182380059Y-84497080D02*
X182332440Y-84544700D01*
X182332440Y-84544700D02*
X182237202Y-84592319D01*
X182237202Y-84592319D02*
X182046726Y-84592319D01*
X182046726Y-84592319D02*
X181951488Y-84544700D01*
X182999107Y-84592319D02*
X182903869Y-84544700D01*
X182903869Y-84544700D02*
X182856250Y-84497080D01*
X182856250Y-84497080D02*
X182808631Y-84401842D01*
X182808631Y-84401842D02*
X182808631Y-84116128D01*
X182808631Y-84116128D02*
X182856250Y-84020890D01*
X182856250Y-84020890D02*
X182903869Y-83973271D01*
X182903869Y-83973271D02*
X182999107Y-83925652D01*
X182999107Y-83925652D02*
X183141964Y-83925652D01*
X183141964Y-83925652D02*
X183237202Y-83973271D01*
X183237202Y-83973271D02*
X183284821Y-84020890D01*
X183284821Y-84020890D02*
X183332440Y-84116128D01*
X183332440Y-84116128D02*
X183332440Y-84401842D01*
X183332440Y-84401842D02*
X183284821Y-84497080D01*
X183284821Y-84497080D02*
X183237202Y-84544700D01*
X183237202Y-84544700D02*
X183141964Y-84592319D01*
X183141964Y-84592319D02*
X182999107Y-84592319D01*
X183903869Y-84592319D02*
X183808631Y-84544700D01*
X183808631Y-84544700D02*
X183761012Y-84497080D01*
X183761012Y-84497080D02*
X183713393Y-84401842D01*
X183713393Y-84401842D02*
X183713393Y-84116128D01*
X183713393Y-84116128D02*
X183761012Y-84020890D01*
X183761012Y-84020890D02*
X183808631Y-83973271D01*
X183808631Y-83973271D02*
X183903869Y-83925652D01*
X183903869Y-83925652D02*
X184046726Y-83925652D01*
X184046726Y-83925652D02*
X184141964Y-83973271D01*
X184141964Y-83973271D02*
X184189583Y-84020890D01*
X184189583Y-84020890D02*
X184237202Y-84116128D01*
X184237202Y-84116128D02*
X184237202Y-84401842D01*
X184237202Y-84401842D02*
X184189583Y-84497080D01*
X184189583Y-84497080D02*
X184141964Y-84544700D01*
X184141964Y-84544700D02*
X184046726Y-84592319D01*
X184046726Y-84592319D02*
X183903869Y-84592319D01*
X184522917Y-83925652D02*
X184903869Y-83925652D01*
X184665774Y-83592319D02*
X184665774Y-84449461D01*
X184665774Y-84449461D02*
X184713393Y-84544700D01*
X184713393Y-84544700D02*
X184808631Y-84592319D01*
X184808631Y-84592319D02*
X184903869Y-84592319D01*
D11*
X116800030Y-93529719D02*
X116704792Y-93482100D01*
X116704792Y-93482100D02*
X116657173Y-93386861D01*
X116657173Y-93386861D02*
X116657173Y-92529719D01*
X117323840Y-93529719D02*
X117228602Y-93482100D01*
X117228602Y-93482100D02*
X117180983Y-93434480D01*
X117180983Y-93434480D02*
X117133364Y-93339242D01*
X117133364Y-93339242D02*
X117133364Y-93053528D01*
X117133364Y-93053528D02*
X117180983Y-92958290D01*
X117180983Y-92958290D02*
X117228602Y-92910671D01*
X117228602Y-92910671D02*
X117323840Y-92863052D01*
X117323840Y-92863052D02*
X117466697Y-92863052D01*
X117466697Y-92863052D02*
X117561935Y-92910671D01*
X117561935Y-92910671D02*
X117609554Y-92958290D01*
X117609554Y-92958290D02*
X117657173Y-93053528D01*
X117657173Y-93053528D02*
X117657173Y-93339242D01*
X117657173Y-93339242D02*
X117609554Y-93434480D01*
X117609554Y-93434480D02*
X117561935Y-93482100D01*
X117561935Y-93482100D02*
X117466697Y-93529719D01*
X117466697Y-93529719D02*
X117323840Y-93529719D01*
X118514316Y-92863052D02*
X118514316Y-93672576D01*
X118514316Y-93672576D02*
X118466697Y-93767814D01*
X118466697Y-93767814D02*
X118419078Y-93815433D01*
X118419078Y-93815433D02*
X118323840Y-93863052D01*
X118323840Y-93863052D02*
X118180983Y-93863052D01*
X118180983Y-93863052D02*
X118085745Y-93815433D01*
X118514316Y-93482100D02*
X118419078Y-93529719D01*
X118419078Y-93529719D02*
X118228602Y-93529719D01*
X118228602Y-93529719D02*
X118133364Y-93482100D01*
X118133364Y-93482100D02*
X118085745Y-93434480D01*
X118085745Y-93434480D02*
X118038126Y-93339242D01*
X118038126Y-93339242D02*
X118038126Y-93053528D01*
X118038126Y-93053528D02*
X118085745Y-92958290D01*
X118085745Y-92958290D02*
X118133364Y-92910671D01*
X118133364Y-92910671D02*
X118228602Y-92863052D01*
X118228602Y-92863052D02*
X118419078Y-92863052D01*
X118419078Y-92863052D02*
X118514316Y-92910671D01*
X119133364Y-93529719D02*
X119038126Y-93482100D01*
X119038126Y-93482100D02*
X118990507Y-93434480D01*
X118990507Y-93434480D02*
X118942888Y-93339242D01*
X118942888Y-93339242D02*
X118942888Y-93053528D01*
X118942888Y-93053528D02*
X118990507Y-92958290D01*
X118990507Y-92958290D02*
X119038126Y-92910671D01*
X119038126Y-92910671D02*
X119133364Y-92863052D01*
X119133364Y-92863052D02*
X119276221Y-92863052D01*
X119276221Y-92863052D02*
X119371459Y-92910671D01*
X119371459Y-92910671D02*
X119419078Y-92958290D01*
X119419078Y-92958290D02*
X119466697Y-93053528D01*
X119466697Y-93053528D02*
X119466697Y-93339242D01*
X119466697Y-93339242D02*
X119419078Y-93434480D01*
X119419078Y-93434480D02*
X119371459Y-93482100D01*
X119371459Y-93482100D02*
X119276221Y-93529719D01*
X119276221Y-93529719D02*
X119133364Y-93529719D01*
X120657174Y-93529719D02*
X120657174Y-92529719D01*
X120657174Y-92910671D02*
X120752412Y-92863052D01*
X120752412Y-92863052D02*
X120942888Y-92863052D01*
X120942888Y-92863052D02*
X121038126Y-92910671D01*
X121038126Y-92910671D02*
X121085745Y-92958290D01*
X121085745Y-92958290D02*
X121133364Y-93053528D01*
X121133364Y-93053528D02*
X121133364Y-93339242D01*
X121133364Y-93339242D02*
X121085745Y-93434480D01*
X121085745Y-93434480D02*
X121038126Y-93482100D01*
X121038126Y-93482100D02*
X120942888Y-93529719D01*
X120942888Y-93529719D02*
X120752412Y-93529719D01*
X120752412Y-93529719D02*
X120657174Y-93482100D01*
X121466698Y-92863052D02*
X121704793Y-93529719D01*
X121942888Y-92863052D02*
X121704793Y-93529719D01*
X121704793Y-93529719D02*
X121609555Y-93767814D01*
X121609555Y-93767814D02*
X121561936Y-93815433D01*
X121561936Y-93815433D02*
X121466698Y-93863052D01*
X123514317Y-93482100D02*
X123419079Y-93529719D01*
X123419079Y-93529719D02*
X123228603Y-93529719D01*
X123228603Y-93529719D02*
X123133365Y-93482100D01*
X123133365Y-93482100D02*
X123085746Y-93434480D01*
X123085746Y-93434480D02*
X123038127Y-93339242D01*
X123038127Y-93339242D02*
X123038127Y-93053528D01*
X123038127Y-93053528D02*
X123085746Y-92958290D01*
X123085746Y-92958290D02*
X123133365Y-92910671D01*
X123133365Y-92910671D02*
X123228603Y-92863052D01*
X123228603Y-92863052D02*
X123419079Y-92863052D01*
X123419079Y-92863052D02*
X123514317Y-92910671D01*
X124371460Y-93529719D02*
X124371460Y-93005909D01*
X124371460Y-93005909D02*
X124323841Y-92910671D01*
X124323841Y-92910671D02*
X124228603Y-92863052D01*
X124228603Y-92863052D02*
X124038127Y-92863052D01*
X124038127Y-92863052D02*
X123942889Y-92910671D01*
X124371460Y-93482100D02*
X124276222Y-93529719D01*
X124276222Y-93529719D02*
X124038127Y-93529719D01*
X124038127Y-93529719D02*
X123942889Y-93482100D01*
X123942889Y-93482100D02*
X123895270Y-93386861D01*
X123895270Y-93386861D02*
X123895270Y-93291623D01*
X123895270Y-93291623D02*
X123942889Y-93196385D01*
X123942889Y-93196385D02*
X124038127Y-93148766D01*
X124038127Y-93148766D02*
X124276222Y-93148766D01*
X124276222Y-93148766D02*
X124371460Y-93101147D01*
X124990508Y-93529719D02*
X124895270Y-93482100D01*
X124895270Y-93482100D02*
X124847651Y-93386861D01*
X124847651Y-93386861D02*
X124847651Y-92529719D01*
X125800032Y-92863052D02*
X125800032Y-93529719D01*
X125371461Y-92863052D02*
X125371461Y-93386861D01*
X125371461Y-93386861D02*
X125419080Y-93482100D01*
X125419080Y-93482100D02*
X125514318Y-93529719D01*
X125514318Y-93529719D02*
X125657175Y-93529719D01*
X125657175Y-93529719D02*
X125752413Y-93482100D01*
X125752413Y-93482100D02*
X125800032Y-93434480D01*
X126276223Y-93529719D02*
X126276223Y-92863052D01*
X126276223Y-92958290D02*
X126323842Y-92910671D01*
X126323842Y-92910671D02*
X126419080Y-92863052D01*
X126419080Y-92863052D02*
X126561937Y-92863052D01*
X126561937Y-92863052D02*
X126657175Y-92910671D01*
X126657175Y-92910671D02*
X126704794Y-93005909D01*
X126704794Y-93005909D02*
X126704794Y-93529719D01*
X126704794Y-93005909D02*
X126752413Y-92910671D01*
X126752413Y-92910671D02*
X126847651Y-92863052D01*
X126847651Y-92863052D02*
X126990508Y-92863052D01*
X126990508Y-92863052D02*
X127085747Y-92910671D01*
X127085747Y-92910671D02*
X127133366Y-93005909D01*
X127133366Y-93005909D02*
X127133366Y-93529719D01*
X127514318Y-92863052D02*
X127704794Y-93529719D01*
X127704794Y-93529719D02*
X127895270Y-93053528D01*
X127895270Y-93053528D02*
X128085746Y-93529719D01*
X128085746Y-93529719D02*
X128276222Y-92863052D01*
X128657175Y-93529719D02*
X128657175Y-92863052D01*
X128657175Y-93053528D02*
X128704794Y-92958290D01*
X128704794Y-92958290D02*
X128752413Y-92910671D01*
X128752413Y-92910671D02*
X128847651Y-92863052D01*
X128847651Y-92863052D02*
X128942889Y-92863052D01*
X129276223Y-93529719D02*
X129276223Y-92863052D01*
X129276223Y-92529719D02*
X129228604Y-92577338D01*
X129228604Y-92577338D02*
X129276223Y-92624957D01*
X129276223Y-92624957D02*
X129323842Y-92577338D01*
X129323842Y-92577338D02*
X129276223Y-92529719D01*
X129276223Y-92529719D02*
X129276223Y-92624957D01*
X116657173Y-91275552D02*
X116657173Y-92275552D01*
X116657173Y-91323171D02*
X116752411Y-91275552D01*
X116752411Y-91275552D02*
X116942887Y-91275552D01*
X116942887Y-91275552D02*
X117038125Y-91323171D01*
X117038125Y-91323171D02*
X117085744Y-91370790D01*
X117085744Y-91370790D02*
X117133363Y-91466028D01*
X117133363Y-91466028D02*
X117133363Y-91751742D01*
X117133363Y-91751742D02*
X117085744Y-91846980D01*
X117085744Y-91846980D02*
X117038125Y-91894600D01*
X117038125Y-91894600D02*
X116942887Y-91942219D01*
X116942887Y-91942219D02*
X116752411Y-91942219D01*
X116752411Y-91942219D02*
X116657173Y-91894600D01*
X117990506Y-91894600D02*
X117895268Y-91942219D01*
X117895268Y-91942219D02*
X117704792Y-91942219D01*
X117704792Y-91942219D02*
X117609554Y-91894600D01*
X117609554Y-91894600D02*
X117561935Y-91846980D01*
X117561935Y-91846980D02*
X117514316Y-91751742D01*
X117514316Y-91751742D02*
X117514316Y-91466028D01*
X117514316Y-91466028D02*
X117561935Y-91370790D01*
X117561935Y-91370790D02*
X117609554Y-91323171D01*
X117609554Y-91323171D02*
X117704792Y-91275552D01*
X117704792Y-91275552D02*
X117895268Y-91275552D01*
X117895268Y-91275552D02*
X117990506Y-91323171D01*
X118419078Y-91942219D02*
X118419078Y-90942219D01*
X118419078Y-91323171D02*
X118514316Y-91275552D01*
X118514316Y-91275552D02*
X118704792Y-91275552D01*
X118704792Y-91275552D02*
X118800030Y-91323171D01*
X118800030Y-91323171D02*
X118847649Y-91370790D01*
X118847649Y-91370790D02*
X118895268Y-91466028D01*
X118895268Y-91466028D02*
X118895268Y-91751742D01*
X118895268Y-91751742D02*
X118847649Y-91846980D01*
X118847649Y-91846980D02*
X118800030Y-91894600D01*
X118800030Y-91894600D02*
X118704792Y-91942219D01*
X118704792Y-91942219D02*
X118514316Y-91942219D01*
X118514316Y-91942219D02*
X118419078Y-91894600D01*
X120085745Y-91942219D02*
X120085745Y-90942219D01*
X120085745Y-91323171D02*
X120180983Y-91275552D01*
X120180983Y-91275552D02*
X120371459Y-91275552D01*
X120371459Y-91275552D02*
X120466697Y-91323171D01*
X120466697Y-91323171D02*
X120514316Y-91370790D01*
X120514316Y-91370790D02*
X120561935Y-91466028D01*
X120561935Y-91466028D02*
X120561935Y-91751742D01*
X120561935Y-91751742D02*
X120514316Y-91846980D01*
X120514316Y-91846980D02*
X120466697Y-91894600D01*
X120466697Y-91894600D02*
X120371459Y-91942219D01*
X120371459Y-91942219D02*
X120180983Y-91942219D01*
X120180983Y-91942219D02*
X120085745Y-91894600D01*
X120895269Y-91275552D02*
X121133364Y-91942219D01*
X121371459Y-91275552D02*
X121133364Y-91942219D01*
X121133364Y-91942219D02*
X121038126Y-92180314D01*
X121038126Y-92180314D02*
X120990507Y-92227933D01*
X120990507Y-92227933D02*
X120895269Y-92275552D01*
X123085745Y-91846980D02*
X123038126Y-91894600D01*
X123038126Y-91894600D02*
X122895269Y-91942219D01*
X122895269Y-91942219D02*
X122800031Y-91942219D01*
X122800031Y-91942219D02*
X122657174Y-91894600D01*
X122657174Y-91894600D02*
X122561936Y-91799361D01*
X122561936Y-91799361D02*
X122514317Y-91704123D01*
X122514317Y-91704123D02*
X122466698Y-91513647D01*
X122466698Y-91513647D02*
X122466698Y-91370790D01*
X122466698Y-91370790D02*
X122514317Y-91180314D01*
X122514317Y-91180314D02*
X122561936Y-91085076D01*
X122561936Y-91085076D02*
X122657174Y-90989838D01*
X122657174Y-90989838D02*
X122800031Y-90942219D01*
X122800031Y-90942219D02*
X122895269Y-90942219D01*
X122895269Y-90942219D02*
X123038126Y-90989838D01*
X123038126Y-90989838D02*
X123085745Y-91037457D01*
X123942888Y-91942219D02*
X123942888Y-91418409D01*
X123942888Y-91418409D02*
X123895269Y-91323171D01*
X123895269Y-91323171D02*
X123800031Y-91275552D01*
X123800031Y-91275552D02*
X123609555Y-91275552D01*
X123609555Y-91275552D02*
X123514317Y-91323171D01*
X123942888Y-91894600D02*
X123847650Y-91942219D01*
X123847650Y-91942219D02*
X123609555Y-91942219D01*
X123609555Y-91942219D02*
X123514317Y-91894600D01*
X123514317Y-91894600D02*
X123466698Y-91799361D01*
X123466698Y-91799361D02*
X123466698Y-91704123D01*
X123466698Y-91704123D02*
X123514317Y-91608885D01*
X123514317Y-91608885D02*
X123609555Y-91561266D01*
X123609555Y-91561266D02*
X123847650Y-91561266D01*
X123847650Y-91561266D02*
X123942888Y-91513647D01*
X124561936Y-91942219D02*
X124466698Y-91894600D01*
X124466698Y-91894600D02*
X124419079Y-91799361D01*
X124419079Y-91799361D02*
X124419079Y-90942219D01*
X124847651Y-91275552D02*
X125085746Y-91942219D01*
X125085746Y-91942219D02*
X125323841Y-91275552D01*
X125704794Y-91942219D02*
X125704794Y-91275552D01*
X125704794Y-90942219D02*
X125657175Y-90989838D01*
X125657175Y-90989838D02*
X125704794Y-91037457D01*
X125704794Y-91037457D02*
X125752413Y-90989838D01*
X125752413Y-90989838D02*
X125704794Y-90942219D01*
X125704794Y-90942219D02*
X125704794Y-91037457D01*
X126180984Y-91275552D02*
X126180984Y-91942219D01*
X126180984Y-91370790D02*
X126228603Y-91323171D01*
X126228603Y-91323171D02*
X126323841Y-91275552D01*
X126323841Y-91275552D02*
X126466698Y-91275552D01*
X126466698Y-91275552D02*
X126561936Y-91323171D01*
X126561936Y-91323171D02*
X126609555Y-91418409D01*
X126609555Y-91418409D02*
X126609555Y-91942219D01*
X127276222Y-90942219D02*
X127371460Y-90942219D01*
X127371460Y-90942219D02*
X127466698Y-90989838D01*
X127466698Y-90989838D02*
X127514317Y-91037457D01*
X127514317Y-91037457D02*
X127561936Y-91132695D01*
X127561936Y-91132695D02*
X127609555Y-91323171D01*
X127609555Y-91323171D02*
X127609555Y-91561266D01*
X127609555Y-91561266D02*
X127561936Y-91751742D01*
X127561936Y-91751742D02*
X127514317Y-91846980D01*
X127514317Y-91846980D02*
X127466698Y-91894600D01*
X127466698Y-91894600D02*
X127371460Y-91942219D01*
X127371460Y-91942219D02*
X127276222Y-91942219D01*
X127276222Y-91942219D02*
X127180984Y-91894600D01*
X127180984Y-91894600D02*
X127133365Y-91846980D01*
X127133365Y-91846980D02*
X127085746Y-91751742D01*
X127085746Y-91751742D02*
X127038127Y-91561266D01*
X127038127Y-91561266D02*
X127038127Y-91323171D01*
X127038127Y-91323171D02*
X127085746Y-91132695D01*
X127085746Y-91132695D02*
X127133365Y-91037457D01*
X127133365Y-91037457D02*
X127180984Y-90989838D01*
X127180984Y-90989838D02*
X127276222Y-90942219D01*
X128514317Y-90942219D02*
X128038127Y-90942219D01*
X128038127Y-90942219D02*
X127990508Y-91418409D01*
X127990508Y-91418409D02*
X128038127Y-91370790D01*
X128038127Y-91370790D02*
X128133365Y-91323171D01*
X128133365Y-91323171D02*
X128371460Y-91323171D01*
X128371460Y-91323171D02*
X128466698Y-91370790D01*
X128466698Y-91370790D02*
X128514317Y-91418409D01*
X128514317Y-91418409D02*
X128561936Y-91513647D01*
X128561936Y-91513647D02*
X128561936Y-91751742D01*
X128561936Y-91751742D02*
X128514317Y-91846980D01*
X128514317Y-91846980D02*
X128466698Y-91894600D01*
X128466698Y-91894600D02*
X128371460Y-91942219D01*
X128371460Y-91942219D02*
X128133365Y-91942219D01*
X128133365Y-91942219D02*
X128038127Y-91894600D01*
X128038127Y-91894600D02*
X127990508Y-91846980D01*
X129419079Y-90942219D02*
X129228603Y-90942219D01*
X129228603Y-90942219D02*
X129133365Y-90989838D01*
X129133365Y-90989838D02*
X129085746Y-91037457D01*
X129085746Y-91037457D02*
X128990508Y-91180314D01*
X128990508Y-91180314D02*
X128942889Y-91370790D01*
X128942889Y-91370790D02*
X128942889Y-91751742D01*
X128942889Y-91751742D02*
X128990508Y-91846980D01*
X128990508Y-91846980D02*
X129038127Y-91894600D01*
X129038127Y-91894600D02*
X129133365Y-91942219D01*
X129133365Y-91942219D02*
X129323841Y-91942219D01*
X129323841Y-91942219D02*
X129419079Y-91894600D01*
X129419079Y-91894600D02*
X129466698Y-91846980D01*
X129466698Y-91846980D02*
X129514317Y-91751742D01*
X129514317Y-91751742D02*
X129514317Y-91513647D01*
X129514317Y-91513647D02*
X129466698Y-91418409D01*
X129466698Y-91418409D02*
X129419079Y-91370790D01*
X129419079Y-91370790D02*
X129323841Y-91323171D01*
X129323841Y-91323171D02*
X129133365Y-91323171D01*
X129133365Y-91323171D02*
X129038127Y-91370790D01*
X129038127Y-91370790D02*
X128990508Y-91418409D01*
X128990508Y-91418409D02*
X128942889Y-91513647D01*
X129847651Y-90942219D02*
X130466698Y-90942219D01*
X130466698Y-90942219D02*
X130133365Y-91323171D01*
X130133365Y-91323171D02*
X130276222Y-91323171D01*
X130276222Y-91323171D02*
X130371460Y-91370790D01*
X130371460Y-91370790D02*
X130419079Y-91418409D01*
X130419079Y-91418409D02*
X130466698Y-91513647D01*
X130466698Y-91513647D02*
X130466698Y-91751742D01*
X130466698Y-91751742D02*
X130419079Y-91846980D01*
X130419079Y-91846980D02*
X130371460Y-91894600D01*
X130371460Y-91894600D02*
X130276222Y-91942219D01*
X130276222Y-91942219D02*
X129990508Y-91942219D01*
X129990508Y-91942219D02*
X129895270Y-91894600D01*
X129895270Y-91894600D02*
X129847651Y-91846980D01*
D12*
%TO.C,G\u002A\u002A\u002A*%
G36*
X129010346Y-86601923D02*
G01*
X129083287Y-86625713D01*
X129097600Y-86660093D01*
X129055223Y-86696145D01*
X128968897Y-86723325D01*
X128859610Y-86734523D01*
X128754723Y-86729749D01*
X128681596Y-86709015D01*
X128667200Y-86695989D01*
X128667838Y-86647004D01*
X128730132Y-86611474D01*
X128844219Y-86594043D01*
X128885860Y-86593036D01*
X129010346Y-86601923D01*
G37*
G36*
X119132694Y-86294698D02*
G01*
X119122172Y-86573918D01*
X118791754Y-86584240D01*
X118635011Y-86587845D01*
X118535628Y-86585084D01*
X118479012Y-86573426D01*
X118450569Y-86550340D01*
X118438621Y-86522991D01*
X118440881Y-86430309D01*
X118486839Y-86317594D01*
X118564833Y-86210936D01*
X118588383Y-86187902D01*
X118708944Y-86108648D01*
X118861919Y-86046466D01*
X119008715Y-86016341D01*
X119032459Y-86015478D01*
X119143217Y-86015478D01*
X119132694Y-86294698D01*
G37*
G36*
X123538410Y-86671616D02*
G01*
X123589026Y-86698944D01*
X123587816Y-86749039D01*
X123561700Y-86840675D01*
X123532673Y-86915115D01*
X123454717Y-87096329D01*
X123242983Y-87096329D01*
X123117827Y-87091753D01*
X123051513Y-87075921D01*
X123031281Y-87045680D01*
X123031250Y-87043982D01*
X123050356Y-86954861D01*
X123097549Y-86842841D01*
X123157642Y-86742639D01*
X123169899Y-86727039D01*
X123232651Y-86691217D01*
X123332915Y-86668837D01*
X123443799Y-86661703D01*
X123538410Y-86671616D01*
G37*
G36*
X125555999Y-86671616D02*
G01*
X125606615Y-86698944D01*
X125605404Y-86749039D01*
X125579288Y-86840675D01*
X125550262Y-86915115D01*
X125472305Y-87096329D01*
X125260572Y-87096329D01*
X125135416Y-87091753D01*
X125069101Y-87075921D01*
X125048870Y-87045680D01*
X125048838Y-87043982D01*
X125067944Y-86954861D01*
X125115137Y-86842841D01*
X125175231Y-86742639D01*
X125187488Y-86727039D01*
X125250240Y-86691217D01*
X125350504Y-86668837D01*
X125461388Y-86661703D01*
X125555999Y-86671616D01*
G37*
G36*
X126004458Y-84503003D02*
G01*
X126603400Y-84503137D01*
X127140540Y-84503439D01*
X127619293Y-84503950D01*
X128043078Y-84504711D01*
X128415313Y-84505762D01*
X128739415Y-84507143D01*
X129018803Y-84508895D01*
X129256893Y-84511058D01*
X129457104Y-84513673D01*
X129622853Y-84516781D01*
X129757558Y-84520422D01*
X129864637Y-84524636D01*
X129947508Y-84529465D01*
X130009588Y-84534948D01*
X130054294Y-84541125D01*
X130085046Y-84548039D01*
X130105260Y-84555728D01*
X130118354Y-84564234D01*
X130122945Y-84568450D01*
X130162951Y-84632395D01*
X130198851Y-84741955D01*
X130230897Y-84900143D01*
X130259339Y-85109973D01*
X130284430Y-85374460D01*
X130306421Y-85696617D01*
X130325563Y-86079460D01*
X130342108Y-86526002D01*
X130356308Y-87039257D01*
X130365736Y-87478448D01*
X130370863Y-87785316D01*
X130374237Y-88075816D01*
X130375860Y-88340484D01*
X130375732Y-88569856D01*
X130373854Y-88754466D01*
X130370228Y-88884850D01*
X130365581Y-88947287D01*
X130330622Y-89075779D01*
X130263185Y-89162081D01*
X130150704Y-89215714D01*
X129980616Y-89246196D01*
X129969501Y-89247373D01*
X129847694Y-89265504D01*
X129784977Y-89291140D01*
X129768354Y-89326122D01*
X129733804Y-89520582D01*
X129640062Y-89701555D01*
X129499932Y-89858465D01*
X129326219Y-89980738D01*
X129131728Y-90057800D01*
X128929265Y-90079076D01*
X128864716Y-90072348D01*
X128626124Y-90002767D01*
X128434114Y-89878278D01*
X128289702Y-89699794D01*
X128194492Y-89470342D01*
X128135464Y-89258032D01*
X125064470Y-89258032D01*
X121993476Y-89258032D01*
X121990085Y-89248304D01*
X128492709Y-89248304D01*
X128511559Y-89412482D01*
X128575881Y-89541206D01*
X128706314Y-89672508D01*
X128859910Y-89743251D01*
X129023548Y-89750207D01*
X129183423Y-89690567D01*
X129325526Y-89569463D01*
X129412016Y-89420715D01*
X129438156Y-89258271D01*
X129399213Y-89096075D01*
X129390977Y-89079282D01*
X129281296Y-88933222D01*
X129138304Y-88839370D01*
X128976958Y-88803472D01*
X128812214Y-88831272D01*
X128780568Y-88844795D01*
X128631629Y-88949437D01*
X128534204Y-89088948D01*
X128492709Y-89248304D01*
X121990085Y-89248304D01*
X121953923Y-89144570D01*
X121925900Y-89043860D01*
X121914370Y-88962454D01*
X121904815Y-88921213D01*
X121864172Y-88903396D01*
X121774480Y-88902949D01*
X121743236Y-88904781D01*
X121639713Y-88914459D01*
X121587749Y-88936210D01*
X121566918Y-88985313D01*
X121560150Y-89041717D01*
X121541777Y-89140141D01*
X121513220Y-89209573D01*
X121510703Y-89212851D01*
X121484504Y-89224811D01*
X121424018Y-89234634D01*
X121323841Y-89242487D01*
X121178569Y-89248537D01*
X120982796Y-89252950D01*
X120731118Y-89255892D01*
X120418131Y-89257531D01*
X120043692Y-89258032D01*
X118614177Y-89258032D01*
X118570844Y-89467829D01*
X118493597Y-89684678D01*
X118365891Y-89864849D01*
X118199310Y-90002225D01*
X118005437Y-90090689D01*
X117795858Y-90124123D01*
X117582155Y-90096411D01*
X117464867Y-90051841D01*
X117361439Y-89997767D01*
X117278822Y-89947194D01*
X117262331Y-89934952D01*
X117153315Y-89813506D01*
X117060563Y-89652044D01*
X117001330Y-89482600D01*
X116992570Y-89434197D01*
X116972548Y-89283262D01*
X117309759Y-89283262D01*
X117318305Y-89424184D01*
X117365789Y-89538501D01*
X117482025Y-89683843D01*
X117639095Y-89772308D01*
X117802368Y-89798220D01*
X117907045Y-89790054D01*
X117988394Y-89755678D01*
X118077091Y-89680845D01*
X118096613Y-89661571D01*
X118216296Y-89506661D01*
X118264651Y-89350955D01*
X118242368Y-89191261D01*
X118212824Y-89123601D01*
X118104057Y-88980432D01*
X117964241Y-88891253D01*
X117808215Y-88855994D01*
X117650814Y-88874584D01*
X117506877Y-88946952D01*
X117391241Y-89073027D01*
X117361223Y-89127661D01*
X117309759Y-89283262D01*
X116972548Y-89283262D01*
X116969201Y-89258032D01*
X116791332Y-89258032D01*
X116636764Y-89247354D01*
X116534538Y-89208631D01*
X116467225Y-89131832D01*
X116431936Y-89051145D01*
X116413596Y-88959464D01*
X116399819Y-88810252D01*
X116390755Y-88617902D01*
X116386553Y-88396804D01*
X116387365Y-88161350D01*
X116389706Y-88069095D01*
X123861962Y-88069095D01*
X124216296Y-88069095D01*
X124570629Y-88069095D01*
X124638560Y-87917726D01*
X129860538Y-87917726D01*
X129860962Y-87980402D01*
X129871126Y-88168039D01*
X129900211Y-88293150D01*
X129952290Y-88363722D01*
X130031440Y-88387740D01*
X130068182Y-88386448D01*
X130182881Y-88375337D01*
X130182881Y-88055008D01*
X130177449Y-87872118D01*
X130157797Y-87752549D01*
X130118891Y-87688154D01*
X130055700Y-87670783D01*
X129963189Y-87692289D01*
X129959605Y-87693558D01*
X129906676Y-87716291D01*
X129876678Y-87749146D01*
X129863376Y-87810250D01*
X129860538Y-87917726D01*
X124638560Y-87917726D01*
X124667641Y-87852925D01*
X124764652Y-87636755D01*
X125167951Y-87636554D01*
X125408199Y-87632065D01*
X125589655Y-87616934D01*
X125686076Y-87596526D01*
X126027466Y-87596526D01*
X126041925Y-87618507D01*
X126088901Y-87630557D01*
X126181071Y-87635647D01*
X126331115Y-87636750D01*
X126353290Y-87636755D01*
X126693380Y-87636755D01*
X126812471Y-87382930D01*
X126829873Y-87350571D01*
X127738957Y-87350571D01*
X127769963Y-87472722D01*
X127850420Y-87568862D01*
X127943877Y-87612214D01*
X128003927Y-87616991D01*
X128122775Y-87620660D01*
X128287172Y-87623020D01*
X128483865Y-87623869D01*
X128669240Y-87623234D01*
X129317302Y-87618741D01*
X129396688Y-87456613D01*
X129448917Y-87347781D01*
X129476526Y-87270494D01*
X129471582Y-87219358D01*
X129426149Y-87188976D01*
X129332294Y-87173951D01*
X129182083Y-87168886D01*
X128972928Y-87168386D01*
X128763581Y-87166899D01*
X128618057Y-87161940D01*
X128528174Y-87152759D01*
X128485749Y-87138610D01*
X128480433Y-87123351D01*
X128515097Y-87101577D01*
X128606553Y-87084151D01*
X128759999Y-87070392D01*
X128962652Y-87060301D01*
X129187310Y-87048870D01*
X129352848Y-87030848D01*
X129472194Y-87000741D01*
X129558275Y-86953057D01*
X129624021Y-86882305D01*
X129682359Y-86782991D01*
X129700293Y-86746921D01*
X129767498Y-86564385D01*
X129783162Y-86406034D01*
X129747278Y-86281914D01*
X129700695Y-86227802D01*
X129662043Y-86202099D01*
X129611742Y-86183727D01*
X129537990Y-86171488D01*
X129428986Y-86164185D01*
X129272927Y-86160622D01*
X129058011Y-86159601D01*
X129028327Y-86159592D01*
X128784282Y-86160851D01*
X128600437Y-86166066D01*
X128464959Y-86177390D01*
X128366013Y-86196976D01*
X128291765Y-86226980D01*
X128230381Y-86269555D01*
X128183292Y-86313404D01*
X128130661Y-86386888D01*
X128062709Y-86510801D01*
X127986703Y-86668182D01*
X127909910Y-86842068D01*
X127839595Y-87015499D01*
X127783026Y-87171513D01*
X127747470Y-87293149D01*
X127738957Y-87350571D01*
X126829873Y-87350571D01*
X126892669Y-87233806D01*
X126981784Y-87123790D01*
X127094641Y-87043026D01*
X127246067Y-86981656D01*
X127450889Y-86929826D01*
X127513416Y-86916956D01*
X127798277Y-86860116D01*
X127918735Y-86573733D01*
X127973296Y-86440841D01*
X128014971Y-86333289D01*
X128037205Y-86268245D01*
X128039193Y-86258258D01*
X128007576Y-86242137D01*
X127924143Y-86244063D01*
X127806019Y-86261128D01*
X127670329Y-86290423D01*
X127534200Y-86329037D01*
X127453732Y-86357702D01*
X127331983Y-86401605D01*
X127267867Y-86409710D01*
X127254190Y-86377677D01*
X127283759Y-86301166D01*
X127301537Y-86265888D01*
X127356504Y-86159592D01*
X126986288Y-86160267D01*
X126616072Y-86160942D01*
X126334279Y-86823734D01*
X126246678Y-87031183D01*
X126168162Y-87219777D01*
X126103412Y-87378058D01*
X126057108Y-87494569D01*
X126033932Y-87557850D01*
X126032843Y-87561641D01*
X126027466Y-87596526D01*
X125686076Y-87596526D01*
X125725168Y-87588252D01*
X125827587Y-87543113D01*
X125909760Y-87478608D01*
X125922315Y-87465848D01*
X125974094Y-87392525D01*
X126041923Y-87270108D01*
X126118582Y-87114946D01*
X126196855Y-86943388D01*
X126269522Y-86771782D01*
X126329365Y-86616475D01*
X126369167Y-86493816D01*
X126381888Y-86424972D01*
X126357051Y-86338993D01*
X126296859Y-86251523D01*
X126292736Y-86247306D01*
X126203583Y-86158153D01*
X125438897Y-86167880D01*
X124674212Y-86177606D01*
X124357171Y-86916188D01*
X124258787Y-87145366D01*
X124164306Y-87365425D01*
X124079409Y-87563129D01*
X124009781Y-87725243D01*
X123961105Y-87838534D01*
X123951046Y-87861932D01*
X123861962Y-88069095D01*
X116389706Y-88069095D01*
X116393338Y-87925931D01*
X116404623Y-87704939D01*
X116412521Y-87607768D01*
X116648478Y-87607768D01*
X116649846Y-87747424D01*
X116662064Y-87877867D01*
X116684957Y-87979012D01*
X116717278Y-88030181D01*
X116843351Y-88065916D01*
X116972812Y-88030776D01*
X117028387Y-87993858D01*
X117114788Y-87906592D01*
X117177360Y-87815505D01*
X117212413Y-87709856D01*
X117228284Y-87582864D01*
X117224378Y-87461609D01*
X117200101Y-87373171D01*
X117187448Y-87355734D01*
X117128561Y-87332216D01*
X117024456Y-87317380D01*
X116901581Y-87312410D01*
X116786383Y-87318494D01*
X116711218Y-87334368D01*
X116678988Y-87381156D01*
X116658133Y-87478984D01*
X116648478Y-87607768D01*
X116412521Y-87607768D01*
X116416421Y-87559778D01*
X116439044Y-87403068D01*
X116478899Y-87280576D01*
X116546245Y-87181343D01*
X116651346Y-87094411D01*
X116804463Y-87008823D01*
X117015858Y-86913620D01*
X117025229Y-86909644D01*
X117220165Y-86820929D01*
X117380876Y-86730246D01*
X117517564Y-86626973D01*
X117557559Y-86585800D01*
X118282955Y-86585800D01*
X118318790Y-86647217D01*
X118338555Y-86661103D01*
X118394204Y-86672957D01*
X118509387Y-86682680D01*
X118673031Y-86690294D01*
X118874064Y-86695822D01*
X119101417Y-86699285D01*
X119344016Y-86700704D01*
X119590790Y-86700102D01*
X119830668Y-86697500D01*
X120052579Y-86692920D01*
X120245449Y-86686383D01*
X120398209Y-86677912D01*
X120499787Y-86667528D01*
X120538087Y-86656783D01*
X120553084Y-86606462D01*
X120565129Y-86497045D01*
X120574223Y-86341432D01*
X120580365Y-86152523D01*
X120583556Y-85943217D01*
X120583635Y-85871961D01*
X121121746Y-85871961D01*
X121155926Y-85887763D01*
X121251198Y-85899519D01*
X121396661Y-85906220D01*
X121503899Y-85907393D01*
X121680635Y-85909435D01*
X121794319Y-85916298D01*
X121853857Y-85929085D01*
X121868156Y-85948903D01*
X121867001Y-85952429D01*
X121847608Y-85996975D01*
X121803456Y-86097704D01*
X121738831Y-86244855D01*
X121658023Y-86428668D01*
X121565320Y-86639384D01*
X121502863Y-86781273D01*
X121405845Y-87003082D01*
X121319373Y-87203561D01*
X121247484Y-87373120D01*
X121194216Y-87502166D01*
X121163608Y-87581110D01*
X121157775Y-87600918D01*
X121192030Y-87617292D01*
X121287863Y-87629259D01*
X121434877Y-87635816D01*
X121529391Y-87636755D01*
X121901007Y-87636755D01*
X122014693Y-87375240D01*
X122204290Y-87375240D01*
X122222318Y-87468685D01*
X122276326Y-87536875D01*
X122361110Y-87586788D01*
X122423886Y-87605972D01*
X122519040Y-87619195D01*
X122656192Y-87626974D01*
X122844963Y-87629821D01*
X123094971Y-87628253D01*
X123127789Y-87627817D01*
X123363799Y-87623886D01*
X123539112Y-87618761D01*
X123665089Y-87611209D01*
X123753089Y-87600001D01*
X123814474Y-87583907D01*
X123860604Y-87561694D01*
X123884385Y-87545854D01*
X123946491Y-87478568D01*
X124026262Y-87359554D01*
X124115485Y-87204330D01*
X124205947Y-87028416D01*
X124289434Y-86847332D01*
X124357732Y-86676598D01*
X124381634Y-86606296D01*
X124414455Y-86437399D01*
X124391142Y-86310841D01*
X124310505Y-86222347D01*
X124268560Y-86199593D01*
X124196908Y-86184272D01*
X124061227Y-86172291D01*
X123869483Y-86164080D01*
X123629646Y-86160063D01*
X123524945Y-86159727D01*
X123254395Y-86160446D01*
X123044597Y-86166974D01*
X122884250Y-86186054D01*
X122762057Y-86224428D01*
X122666718Y-86288839D01*
X122586932Y-86386031D01*
X122511402Y-86522745D01*
X122428828Y-86705726D01*
X122366800Y-86850850D01*
X122276460Y-87075575D01*
X122222314Y-87247288D01*
X122204290Y-87375240D01*
X122014693Y-87375240D01*
X122276461Y-86773087D01*
X122651915Y-85909419D01*
X123096156Y-85899399D01*
X123540398Y-85889379D01*
X123664122Y-85608697D01*
X123720275Y-85479493D01*
X123763119Y-85377457D01*
X123785874Y-85318877D01*
X123787845Y-85311463D01*
X123753211Y-85307518D01*
X123654881Y-85303910D01*
X123501217Y-85300754D01*
X123300579Y-85298165D01*
X123061330Y-85296258D01*
X122791830Y-85295150D01*
X122588796Y-85294911D01*
X121389746Y-85294911D01*
X121255746Y-85565720D01*
X121194168Y-85694156D01*
X121147513Y-85799060D01*
X121123434Y-85862943D01*
X121121746Y-85871961D01*
X120583635Y-85871961D01*
X120583796Y-85726416D01*
X120581083Y-85515018D01*
X120575420Y-85321925D01*
X120566804Y-85160036D01*
X120555237Y-85042251D01*
X120540719Y-84981470D01*
X120538087Y-84977861D01*
X120485088Y-84960455D01*
X120375528Y-84947456D01*
X120224769Y-84938900D01*
X120048172Y-84934827D01*
X119861101Y-84935274D01*
X119678917Y-84940279D01*
X119516983Y-84949879D01*
X119390662Y-84964114D01*
X119338342Y-84974898D01*
X119217052Y-85032246D01*
X119086934Y-85141391D01*
X118945410Y-85305698D01*
X118789903Y-85528536D01*
X118617834Y-85813269D01*
X118426625Y-86163266D01*
X118422926Y-86170311D01*
X118333680Y-86355159D01*
X118287471Y-86491051D01*
X118282955Y-86585800D01*
X117557559Y-86585800D01*
X117640429Y-86500490D01*
X117759674Y-86340177D01*
X117885500Y-86135413D01*
X118028110Y-85875578D01*
X118039885Y-85853351D01*
X118211728Y-85534503D01*
X118360014Y-85274510D01*
X118490129Y-85066243D01*
X118607465Y-84902569D01*
X118717410Y-84776358D01*
X118825352Y-84680479D01*
X118936682Y-84607801D01*
X119008269Y-84571945D01*
X119030301Y-84562790D01*
X119056436Y-84554493D01*
X119090147Y-84547012D01*
X119134910Y-84540302D01*
X119194197Y-84534323D01*
X119271485Y-84529031D01*
X119370246Y-84524382D01*
X119493956Y-84520336D01*
X119646088Y-84516848D01*
X119830117Y-84513876D01*
X120049517Y-84511378D01*
X120307763Y-84509311D01*
X120608328Y-84507631D01*
X120954688Y-84506296D01*
X121350316Y-84505264D01*
X121798687Y-84504492D01*
X122303274Y-84503937D01*
X122867553Y-84503556D01*
X123494998Y-84503306D01*
X124189082Y-84503145D01*
X124607491Y-84503078D01*
X125340294Y-84502997D01*
X126004458Y-84503003D01*
G37*
%TD*%
M02*
