M48
; DRILL file {KiCad (7.0.0)} date Wed May  8 10:39:45 2024
; FORMAT={-:-/ absolute / inch / decimal}
; #@! TF.CreationDate,2024-05-08T10:39:45+02:00
; #@! TF.GenerationSoftware,Kicad,Pcbnew,(7.0.0)
; #@! TF.FileFunction,Plated,1,4,PTH
FMAT,2
INCH
; #@! TA.AperFunction,Plated,PTH,ViaDrill
T1C0.0157
; #@! TA.AperFunction,Plated,PTH,ComponentDrill
T2C0.0236
; #@! TA.AperFunction,Plated,PTH,ComponentDrill
T3C0.0394
%
G90
G05
T1
X1.0Y-1.8125
X1.0Y-2.125
X1.0Y-3.4688
X1.1875Y-2.5625
X1.1875Y-2.875
X1.2436Y-1.2195
X1.3217Y-1.2182
X1.3327Y-3.4673
X1.3346Y-1.969
X1.4164Y-3.468
X1.4184Y-1.9697
X1.5062Y-1.4812
X1.5062Y-1.5813
X1.5225Y-2.7207
X1.6062Y-1.4812
X1.6062Y-1.5813
X1.6063Y-2.7214
X1.6312Y-2.2262
X1.6312Y-2.3262
X1.6562Y-1.0625
X1.6562Y-1.375
X1.6674Y-3.067
X1.7312Y-2.2262
X1.7312Y-2.3262
X1.7314Y-3.2192
X1.75Y-1.9688
X1.75Y-3.3125
X1.75Y-3.625
X1.7677Y-3.0669
X1.7681Y-3.1545
X1.8438Y-1.9688
X1.8438Y-3.4688
X1.8569Y-3.1554
X1.8575Y-3.0665
X1.9062Y-2.2262
X1.9375Y-2.7188
X1.9512Y-3.0665
X1.9519Y-3.1554
X1.9905Y-1.2187
X2.0312Y-2.2262
X2.045Y-3.0665
X2.0469Y-3.1554
X2.0733Y-1.2198
X2.1369Y-3.1554
X2.1387Y-3.0665
X2.1781Y-1.9685
X2.1787Y-3.4677
X2.2188Y-2.7188
X2.2319Y-3.1554
X2.2325Y-3.0665
X2.2563Y-1.4863
X2.2563Y-1.5862
X2.2618Y-1.9692
X2.2625Y-3.4683
X2.3246Y-2.9889
X2.3257Y-3.0671
X2.3264Y-3.156
X2.3562Y-1.4863
X2.3562Y-1.5862
X2.3562Y-2.2312
X2.3562Y-2.3312
X2.4062Y-1.2188
X2.4242Y-2.9891
X2.4253Y-3.0674
X2.4253Y-3.1577
X2.4562Y-2.2312
X2.4562Y-2.3312
X2.5026Y-3.0672
X2.5521Y-2.7181
X2.5816Y-3.2181
X2.5938Y-1.8125
X2.5938Y-2.125
X2.5938Y-3.4688
X2.5964Y-3.0672
X2.6262Y-3.1612
X2.6358Y-2.7188
X2.6875Y-3.3125
X2.6875Y-3.625
X2.6901Y-3.0672
X2.7083Y-3.1594
X2.7421Y-1.2187
X2.7839Y-3.0672
X2.8033Y-3.1594
X2.8207Y-1.2187
X2.8644Y-3.0673
X2.8654Y-2.9865
X2.8682Y-3.1602
X2.9283Y-1.9681
X2.9677Y-2.9858
X2.9688Y-2.7188
X2.9688Y-3.0674
X3.0012Y-3.1662
X3.012Y-1.9688
X3.021Y-3.4674
X3.0521Y-1.4678
X3.0521Y-1.5813
X3.0625Y-3.0674
X3.0968Y-3.1637
X3.1047Y-3.4681
X3.1062Y-2.2312
X3.1062Y-2.3312
X3.1562Y-1.2188
X3.1562Y-3.0674
X3.1562Y-3.1637
X3.1771Y-1.4678
X3.1771Y-1.5813
X3.2062Y-2.2312
X3.2062Y-2.3312
X3.25Y-3.0674
X3.25Y-3.1637
X3.3035Y-2.7181
X3.3438Y-1.9688
X3.3438Y-3.0674
X3.3873Y-2.7187
X3.4369Y-3.2183
X3.4694Y-3.0674
X3.4875Y-1.2208
X3.5312Y-3.3125
X3.5312Y-3.625
X3.5631Y-3.0674
X3.5723Y-1.2177
X3.6562Y-3.7712
X3.661Y-2.9925
X3.6612Y-3.0672
X3.6795Y-1.969
X3.7188Y-2.5625
X3.7188Y-2.875
X3.75Y-3.2188
X3.75Y-3.3438
X3.7506Y-3.0674
X3.7527Y-2.9925
X3.7632Y-1.9697
X3.7765Y-1.4612
X3.7765Y-1.5862
X3.7812Y-3.625
X3.7931Y-3.7712
X3.8538Y-3.0682
X3.8562Y-2.2312
X3.8562Y-2.3312
X3.87Y-3.5412
X3.9015Y-1.4612
X3.9015Y-1.5862
X3.9062Y-1.0625
X3.9062Y-1.375
X3.9062Y-3.0674
X3.9186Y-3.1088
X3.9562Y-2.2312
X3.9562Y-2.3312
X3.9812Y-3.6062
X4.0Y-3.0674
X4.0504Y-2.7185
X4.0938Y-1.8125
X4.0938Y-2.125
X4.0938Y-3.0674
X4.1342Y-2.7192
X4.1875Y-3.0674
X4.1875Y-3.2188
X4.1875Y-3.4688
X4.2394Y-1.2187
X4.2812Y-3.0674
X4.3231Y-1.2194
X4.3583Y-3.0673
X4.3583Y-3.1667
X4.3583Y-2.9877
X4.4289Y-1.9687
X4.4685Y-2.9879
X4.4688Y-2.7188
X4.4688Y-3.0674
X4.4688Y-3.1667
X4.5126Y-1.9694
X4.523Y-3.4673
X4.5588Y-1.4555
X4.5588Y-1.5805
X4.5625Y-3.0674
X4.6067Y-3.468
X4.6362Y-2.2312
X4.6362Y-2.3312
X4.6562Y-1.2188
X4.6562Y-3.0674
X4.6838Y-1.4555
X4.6838Y-1.5805
X4.6884Y-3.1667
X4.7363Y-2.2312
X4.7363Y-2.3312
X4.75Y-3.0674
X4.7512Y-3.7712
X4.7812Y-3.1662
X4.7999Y-2.7205
X4.8362Y-1.4563
X4.8438Y-1.9688
X4.8438Y-2.2312
X4.8438Y-2.3312
X4.8438Y-3.0674
X4.8462Y-1.5813
X4.8603Y-3.1728
X4.8607Y-3.6411
X4.8613Y-3.715
X4.8712Y-3.7712
X4.8837Y-2.7212
X4.9212Y-2.2312
X4.9262Y-3.4512
X4.9266Y-3.2176
X4.9274Y-3.3354
X4.9363Y-1.5813
X4.9375Y-3.0674
X4.9936Y-1.2177
X4.9956Y-3.0669
X4.9958Y-2.9921
X5.0312Y-3.5913
X5.0316Y-3.1421
X5.0625Y-3.3125
X5.0625Y-3.5111
X5.0722Y-1.2198
X5.0736Y-3.0661
X5.0766Y-2.9916
X5.1786Y-1.9681
X5.1863Y-3.3112
X5.1975Y-3.7582
X5.1997Y-3.6207
X5.2623Y-1.9687
X5.2912Y-1.4763
X5.2912Y-1.5762
X5.2999Y-2.9914
X5.3103Y-3.1624
X5.3428Y-3.0687
X5.3435Y-3.219
X5.3438Y-3.4688
X5.3894Y-2.9914
X5.3913Y-1.4763
X5.3913Y-1.5762
X5.3966Y-3.1421
X5.402Y-3.6605
X5.4062Y-1.2188
X5.421Y-3.1742
X5.4688Y-3.0674
X5.5019Y-3.6099
X5.523Y-3.2889
X5.5309Y-3.4542
X5.5312Y-3.375
X5.5317Y-3.4148
X5.5505Y-2.7164
X5.5625Y-3.0674
X5.5938Y-1.8125
X5.5938Y-2.2188
X5.5938Y-2.3438
X5.5938Y-3.6722
X5.5938Y-3.7125
X5.5938Y-3.7519
X5.5945Y-3.3327
X5.6342Y-2.7171
X5.6571Y-3.0672
X5.7012Y-2.2212
X5.7012Y-2.3462
X5.7401Y-1.2187
X5.7667Y-2.9947
X5.7668Y-3.0663
X5.8012Y-2.2262
X5.8238Y-1.2187
X5.8309Y-3.4703
X5.8388Y-3.75
X5.8442Y-3.0665
X5.9147Y-3.471
X5.9278Y-1.9694
X5.9375Y-2.9921
X5.9375Y-3.1562
X5.9379Y-3.0665
X5.9688Y-2.5625
X5.9688Y-2.875
X6.0115Y-1.97
X6.0312Y-2.9921
X6.0312Y-3.1562
X6.0317Y-3.0665
X6.0362Y-1.5762
X6.125Y-3.75
X6.1254Y-3.0665
X6.1362Y-1.4763
X6.1362Y-1.5762
X6.1562Y-1.0625
X6.1562Y-1.375
X6.2066Y-3.2188
X6.245Y-3.75
X6.25Y-3.0674
X6.25Y-3.1641
X6.3009Y-2.7181
X6.3438Y-1.9688
X6.3438Y-2.2262
X6.3438Y-3.0674
X6.3438Y-3.1641
X6.3847Y-2.7188
X6.3939Y-3.4681
X6.4375Y-2.2262
X6.4375Y-2.3262
X6.4375Y-2.375
X6.4375Y-3.0674
X6.4375Y-3.1641
X6.4776Y-3.4688
X6.4885Y-1.2188
X6.5312Y-2.9921
X6.5312Y-3.0674
X6.5312Y-3.1641
X6.5682Y-1.2177
X6.625Y-2.9921
X6.625Y-3.0674
X6.625Y-3.1641
X6.6752Y-1.9672
X6.7188Y-2.7188
X6.7188Y-3.0674
X6.759Y-1.9678
X6.7812Y-3.2188
X6.8125Y-3.0674
X6.8125Y-3.75
X6.8262Y-1.4712
X6.8262Y-1.5713
X6.875Y-3.4615
X6.8862Y-2.2262
X6.8862Y-2.3262
X6.8865Y-2.3767
X6.887Y-2.467
X6.9062Y-1.2188
X6.9262Y-1.4712
X6.9262Y-1.5713
X6.9325Y-3.75
X6.9375Y-3.0674
X6.9379Y-2.9899
X6.9863Y-2.2262
X6.9863Y-2.3262
X6.9865Y-2.3767
X7.0312Y-3.625
X7.0488Y-2.7181
X7.0625Y-3.0674
X7.0938Y-1.9688
X7.1137Y-3.1562
X7.125Y-3.75
X7.1326Y-2.7187
X7.1562Y-3.0674
X7.1562Y-3.2188
X7.1562Y-3.3438
X7.2349Y-3.1563
X7.2417Y-1.2192
X7.25Y-3.0674
X7.2763Y-3.75
X7.3164Y-3.4785
X7.3224Y-1.2202
X7.3275Y-3.3999
X7.3438Y-3.0674
X7.375Y-3.1875
X7.375Y-3.7188
X7.3986Y-3.5902
X7.4286Y-1.9681
X7.4375Y-3.0674
X7.4688Y-2.7188
X7.5123Y-1.9688
X7.5312Y-3.0674
X7.5312Y-3.1662
X7.5313Y-2.9889
X7.5412Y-1.4663
X7.5412Y-1.5662
X7.6362Y-2.2262
X7.6362Y-2.3262
X7.637Y-2.3767
X7.6377Y-2.4627
X7.6412Y-1.4663
X7.6412Y-1.5662
X7.6562Y-1.2188
X7.6562Y-3.0674
X7.6562Y-3.1662
X7.6563Y-2.9889
X7.7098Y-3.4675
X7.7363Y-2.2262
X7.7363Y-2.3262
X7.737Y-2.3767
X7.75Y-3.0674
X7.7512Y-3.1662
X7.7935Y-3.4681
X7.803Y-2.7194
X7.8438Y-1.8125
X7.8438Y-2.125
X7.8438Y-3.0674
X7.8462Y-3.1662
X7.8867Y-2.7201
X7.9375Y-3.0674
X7.9413Y-3.1662
X7.9886Y-1.2188
X8.0312Y-3.0674
X8.0364Y-3.1658
X8.0703Y-1.2175
X8.125Y-3.0674
X8.1263Y-3.1713
X8.175Y-1.9685
X8.2188Y-2.5625
X8.2188Y-2.875
X8.2188Y-3.0674
X8.2188Y-3.3125
X8.2188Y-3.625
X8.2587Y-1.9692
X8.2912Y-1.4663
X8.2912Y-1.5662
X8.3438Y-3.0674
X8.3451Y-3.162
X8.3453Y-2.9907
X8.3513Y-2.2262
X8.3513Y-2.3262
X8.3521Y-2.3767
X8.3526Y-2.4559
X8.3728Y-3.2188
X8.3912Y-1.4663
X8.3912Y-1.5662
X8.4062Y-1.0625
X8.4062Y-1.375
X8.4512Y-2.2262
X8.4512Y-2.3262
X8.4521Y-2.3767
X8.4548Y-2.4559
X8.4688Y-3.0674
X8.4688Y-3.1612
X8.4703Y-2.9907
X8.5536Y-2.7181
X8.5554Y-3.4679
X8.587Y-3.0672
X8.5938Y-1.9688
X8.6373Y-2.7188
X8.6391Y-3.4685
X8.6862Y-3.1612
X8.6881Y-3.0674
X8.7392Y-1.2187
X8.7812Y-3.1612
X8.7819Y-3.0674
X8.8235Y-1.2187
X8.8756Y-3.0674
X8.8763Y-3.1662
X8.9268Y-1.9681
X8.9688Y-2.7188
X8.9688Y-3.4688
X8.9694Y-3.0674
X9.0105Y-1.9688
X9.0623Y-3.1337
X9.0631Y-3.0674
X9.0632Y-2.9952
X9.0712Y-1.4663
X9.0712Y-1.5662
X9.0822Y-3.1808
X9.1046Y-1.2046
X9.1262Y-0.9375
X9.1363Y-2.2262
X9.1363Y-2.3262
X9.1368Y-2.3767
X9.137Y-2.4576
X9.1713Y-1.5662
X9.1881Y-3.0674
X9.1882Y-2.9952
X9.1887Y-3.1337
X9.2116Y-1.2884
X9.2141Y-1.4156
X9.2363Y-2.2262
X9.2363Y-2.3262
X9.2368Y-2.3767
X9.2812Y-1.1875
X9.2819Y-3.0674
X9.2837Y-3.1337
X9.3009Y-3.4681
X9.3028Y-2.7181
X9.3125Y-1.6062
X9.3756Y-3.0674
X9.3846Y-3.4687
X9.3866Y-2.7188
X9.4287Y-1.6412
X9.4293Y-1.7188
X9.4375Y-2.2262
X9.4375Y-2.375
X9.4663Y-0.9375
X9.4687Y-3.1337
X9.4694Y-3.0674
X9.4768Y-1.2297
X9.5Y-1.1562
X9.5312Y-1.8125
X9.5312Y-2.125
X9.5631Y-3.0674
X9.5687Y-3.1337
X9.6569Y-3.0674
X9.6587Y-3.1337
X9.7188Y-2.5938
X9.7188Y-2.875
X9.7188Y-3.3125
X9.7188Y-3.625
X9.7506Y-3.0674
X9.7686Y-1.2175
X9.8524Y-1.2181
X9.8673Y-1.9672
X9.875Y-3.2188
X9.9511Y-1.9679
X10.0504Y-3.4678
X10.0529Y-2.7178
X10.1342Y-3.4684
X10.1366Y-2.7184
X10.1875Y-1.0625
X10.1875Y-1.375
X10.2812Y-1.9688
T3
X6.875Y-3.4186
X6.875Y-3.5186
X9.7188Y-2.3375
X9.7188Y-2.4375
X9.7188Y-2.5375
T2
G00X9.1262Y-0.8516
M15
G01X9.1262Y-0.8752
M16
G05
G00X9.1262Y-1.0063
M15
G01X9.1262Y-1.0496
M16
G05
G00X9.4663Y-0.8516
M15
G01X9.4663Y-0.8752
M16
G05
G00X9.4663Y-1.0063
M15
G01X9.4663Y-1.0496
M16
G05
T0
M30
