%TF.GenerationSoftware,KiCad,Pcbnew,8.0.5*%
%TF.CreationDate,2024-12-22T15:28:51+01:00*%
%TF.ProjectId,toprevan V2,746f7072-6576-4616-9e20-56322e6b6963,rev?*%
%TF.SameCoordinates,Original*%
%TF.FileFunction,Legend,Top*%
%TF.FilePolarity,Positive*%
%FSLAX46Y46*%
G04 Gerber Fmt 4.6, Leading zero omitted, Abs format (unit mm)*
G04 Created by KiCad (PCBNEW 8.0.5) date 2024-12-22 15:28:51*
%MOMM*%
%LPD*%
G01*
G04 APERTURE LIST*
%ADD10C,0.150000*%
%ADD11C,1.662500*%
%ADD12C,0.200000*%
%ADD13C,0.250000*%
%ADD14C,0.900000*%
%ADD15C,0.120000*%
%ADD16C,0.000000*%
%ADD17C,2.200000*%
G04 APERTURE END LIST*
D10*
X223893910Y-88049840D02*
G75*
G02*
X212668590Y-88049840I-5612660J0D01*
G01*
X212668590Y-88049840D02*
G75*
G02*
X223893910Y-88049840I5612660J0D01*
G01*
X115093750Y-50006250D02*
G75*
G02*
X111918750Y-50006250I-1587500J0D01*
G01*
X111918750Y-50006250D02*
G75*
G02*
X115093750Y-50006250I1587500J0D01*
G01*
X241378597Y-88049840D02*
G75*
G02*
X233283903Y-88049840I-4047347J0D01*
G01*
X233283903Y-88049840D02*
G75*
G02*
X241378597Y-88049840I4047347J0D01*
G01*
X53181250Y-30899840D02*
G75*
G02*
X50006250Y-30899840I-1587500J0D01*
G01*
X50006250Y-30899840D02*
G75*
G02*
X53181250Y-30899840I1587500J0D01*
G01*
X42862500Y-69056250D02*
G75*
G02*
X36512500Y-69056250I-3175000J0D01*
G01*
X36512500Y-69056250D02*
G75*
G02*
X42862500Y-69056250I3175000J0D01*
G01*
X57206410Y-30899840D02*
G75*
G02*
X45981090Y-30899840I-5612660J0D01*
G01*
X45981090Y-30899840D02*
G75*
G02*
X57206410Y-30899840I5612660J0D01*
G01*
X92075000Y-30899840D02*
G75*
G02*
X87312500Y-30899840I-2381250J0D01*
G01*
X87312500Y-30899840D02*
G75*
G02*
X92075000Y-30899840I2381250J0D01*
G01*
X200897347Y-88171942D02*
G75*
G02*
X192802653Y-88171942I-4047347J0D01*
G01*
X192802653Y-88171942D02*
G75*
G02*
X200897347Y-88171942I4047347J0D01*
G01*
X257968750Y-68999840D02*
G75*
G02*
X254793750Y-68999840I-1587500J0D01*
G01*
X254793750Y-68999840D02*
G75*
G02*
X257968750Y-68999840I1587500J0D01*
G01*
X57943750Y-88049840D02*
G75*
G02*
X54768750Y-88049840I-1587500J0D01*
G01*
X54768750Y-88049840D02*
G75*
G02*
X57943750Y-88049840I1587500J0D01*
G01*
X157218910Y-50006250D02*
G75*
G02*
X145993590Y-50006250I-5612660J0D01*
G01*
X145993590Y-50006250D02*
G75*
G02*
X157218910Y-50006250I5612660J0D01*
G01*
X254000000Y-49949840D02*
G75*
G02*
X249237500Y-49949840I-2381250J0D01*
G01*
X249237500Y-49949840D02*
G75*
G02*
X254000000Y-49949840I2381250J0D01*
G01*
X38972347Y-88049840D02*
G75*
G02*
X30877653Y-88049840I-4047347J0D01*
G01*
X30877653Y-88049840D02*
G75*
G02*
X38972347Y-88049840I4047347J0D01*
G01*
X82615693Y-88049840D02*
G75*
G02*
X72959307Y-88049840I-4828193J0D01*
G01*
X72959307Y-88049840D02*
G75*
G02*
X82615693Y-88049840I4828193J0D01*
G01*
X59531250Y-50006250D02*
G75*
G02*
X53181250Y-50006250I-3175000J0D01*
G01*
X53181250Y-50006250D02*
G75*
G02*
X59531250Y-50006250I3175000J0D01*
G01*
X154781250Y-50006250D02*
G75*
G02*
X148431250Y-50006250I-3175000J0D01*
G01*
X148431250Y-50006250D02*
G75*
G02*
X154781250Y-50006250I3175000J0D01*
G01*
X118334443Y-50006250D02*
G75*
G02*
X108678057Y-50006250I-4828193J0D01*
G01*
X108678057Y-50006250D02*
G75*
G02*
X118334443Y-50006250I4828193J0D01*
G01*
X208041097Y-30899840D02*
G75*
G02*
X199946403Y-30899840I-4047347J0D01*
G01*
X199946403Y-30899840D02*
G75*
G02*
X208041097Y-30899840I4047347J0D01*
G01*
X79375000Y-88049840D02*
G75*
G02*
X76200000Y-88049840I-1587500J0D01*
G01*
X76200000Y-88049840D02*
G75*
G02*
X79375000Y-88049840I1587500J0D01*
G01*
X80962500Y-88049840D02*
G75*
G02*
X74612500Y-88049840I-3175000J0D01*
G01*
X74612500Y-88049840D02*
G75*
G02*
X80962500Y-88049840I3175000J0D01*
G01*
X201612500Y-68999840D02*
G75*
G02*
X196850000Y-68999840I-2381250J0D01*
G01*
X196850000Y-68999840D02*
G75*
G02*
X201612500Y-68999840I2381250J0D01*
G01*
X242159443Y-88049840D02*
G75*
G02*
X232503057Y-88049840I-4828193J0D01*
G01*
X232503057Y-88049840D02*
G75*
G02*
X242159443Y-88049840I4828193J0D01*
G01*
X252412500Y-30956250D02*
G75*
G02*
X246062500Y-30956250I-3175000J0D01*
G01*
X246062500Y-30956250D02*
G75*
G02*
X252412500Y-30956250I3175000J0D01*
G01*
X254793750Y-49949840D02*
G75*
G02*
X248443750Y-49949840I-3175000J0D01*
G01*
X248443750Y-49949840D02*
G75*
G02*
X254793750Y-49949840I3175000J0D01*
G01*
X100068910Y-50006250D02*
G75*
G02*
X88843590Y-50006250I-5612660J0D01*
G01*
X88843590Y-50006250D02*
G75*
G02*
X100068910Y-50006250I5612660J0D01*
G01*
X261993910Y-88049840D02*
G75*
G02*
X250768590Y-88049840I-5612660J0D01*
G01*
X250768590Y-88049840D02*
G75*
G02*
X261993910Y-88049840I5612660J0D01*
G01*
X258762500Y-68999840D02*
G75*
G02*
X254000000Y-68999840I-2381250J0D01*
G01*
X254000000Y-68999840D02*
G75*
G02*
X258762500Y-68999840I2381250J0D01*
G01*
X91281250Y-30899840D02*
G75*
G02*
X88106250Y-30899840I-1587500J0D01*
G01*
X88106250Y-30899840D02*
G75*
G02*
X91281250Y-30899840I1587500J0D01*
G01*
X73818750Y-30899840D02*
G75*
G02*
X67468750Y-30899840I-3175000J0D01*
G01*
X67468750Y-30899840D02*
G75*
G02*
X73818750Y-30899840I3175000J0D01*
G01*
X81834847Y-88049840D02*
G75*
G02*
X73740153Y-88049840I-4047347J0D01*
G01*
X73740153Y-88049840D02*
G75*
G02*
X81834847Y-88049840I4047347J0D01*
G01*
X221456250Y-68999840D02*
G75*
G02*
X215106250Y-68999840I-3175000J0D01*
G01*
X215106250Y-68999840D02*
G75*
G02*
X221456250Y-68999840I3175000J0D01*
G01*
X128643910Y-68999840D02*
G75*
G02*
X117418590Y-68999840I-5612660J0D01*
G01*
X117418590Y-68999840D02*
G75*
G02*
X128643910Y-68999840I5612660J0D01*
G01*
X241378597Y-68999840D02*
G75*
G02*
X233283903Y-68999840I-4047347J0D01*
G01*
X233283903Y-68999840D02*
G75*
G02*
X241378597Y-68999840I4047347J0D01*
G01*
X78581250Y-50006250D02*
G75*
G02*
X72231250Y-50006250I-3175000J0D01*
G01*
X72231250Y-50006250D02*
G75*
G02*
X78581250Y-50006250I3175000J0D01*
G01*
X106362500Y-68999840D02*
G75*
G02*
X101600000Y-68999840I-2381250J0D01*
G01*
X101600000Y-68999840D02*
G75*
G02*
X106362500Y-68999840I2381250J0D01*
G01*
X206375000Y-30899840D02*
G75*
G02*
X201612500Y-30899840I-2381250J0D01*
G01*
X201612500Y-30899840D02*
G75*
G02*
X206375000Y-30899840I2381250J0D01*
G01*
X185009443Y-68999840D02*
G75*
G02*
X175353057Y-68999840I-4828193J0D01*
G01*
X175353057Y-68999840D02*
G75*
G02*
X185009443Y-68999840I4828193J0D01*
G01*
X109593910Y-68999840D02*
G75*
G02*
X98368590Y-68999840I-5612660J0D01*
G01*
X98368590Y-68999840D02*
G75*
G02*
X109593910Y-68999840I5612660J0D01*
G01*
X61184443Y-88049840D02*
G75*
G02*
X51528057Y-88049840I-4828193J0D01*
G01*
X51528057Y-88049840D02*
G75*
G02*
X61184443Y-88049840I4828193J0D01*
G01*
X146909443Y-68999840D02*
G75*
G02*
X137253057Y-68999840I-4828193J0D01*
G01*
X137253057Y-68999840D02*
G75*
G02*
X146909443Y-68999840I4828193J0D01*
G01*
X165959443Y-68999840D02*
G75*
G02*
X156303057Y-68999840I-4828193J0D01*
G01*
X156303057Y-68999840D02*
G75*
G02*
X165959443Y-68999840I4828193J0D01*
G01*
X87312500Y-68999840D02*
G75*
G02*
X82550000Y-68999840I-2381250J0D01*
G01*
X82550000Y-68999840D02*
G75*
G02*
X87312500Y-68999840I2381250J0D01*
G01*
X76993750Y-50006250D02*
G75*
G02*
X73818750Y-50006250I-1587500J0D01*
G01*
X73818750Y-50006250D02*
G75*
G02*
X76993750Y-50006250I1587500J0D01*
G01*
X223893910Y-68999840D02*
G75*
G02*
X212668590Y-68999840I-5612660J0D01*
G01*
X212668590Y-68999840D02*
G75*
G02*
X223893910Y-68999840I5612660J0D01*
G01*
X40537660Y-50006250D02*
G75*
G02*
X29312340Y-50006250I-5612660J0D01*
G01*
X29312340Y-50006250D02*
G75*
G02*
X40537660Y-50006250I5612660J0D01*
G01*
X108809443Y-68999840D02*
G75*
G02*
X99153057Y-68999840I-4828193J0D01*
G01*
X99153057Y-68999840D02*
G75*
G02*
X108809443Y-68999840I4828193J0D01*
G01*
D11*
X100516830Y-86809831D02*
G75*
G02*
X98854330Y-86809831I-831250J0D01*
G01*
X98854330Y-86809831D02*
G75*
G02*
X100516830Y-86809831I831250J0D01*
G01*
D10*
X111125000Y-30899840D02*
G75*
G02*
X106362500Y-30899840I-2381250J0D01*
G01*
X106362500Y-30899840D02*
G75*
G02*
X111125000Y-30899840I2381250J0D01*
G01*
X175484443Y-50006250D02*
G75*
G02*
X165828057Y-50006250I-4828193J0D01*
G01*
X165828057Y-50006250D02*
G75*
G02*
X175484443Y-50006250I4828193J0D01*
G01*
X152400000Y-88106250D02*
G75*
G02*
X146050000Y-88106250I-3175000J0D01*
G01*
X146050000Y-88106250D02*
G75*
G02*
X152400000Y-88106250I3175000J0D01*
G01*
X57943750Y-50006250D02*
G75*
G02*
X54768750Y-50006250I-1587500J0D01*
G01*
X54768750Y-50006250D02*
G75*
G02*
X57943750Y-50006250I1587500J0D01*
G01*
X151671943Y-30899840D02*
G75*
G02*
X142015557Y-30899840I-4828193J0D01*
G01*
X142015557Y-30899840D02*
G75*
G02*
X151671943Y-30899840I4828193J0D01*
G01*
X192881250Y-50006250D02*
G75*
G02*
X186531250Y-50006250I-3175000J0D01*
G01*
X186531250Y-50006250D02*
G75*
G02*
X192881250Y-50006250I3175000J0D01*
G01*
X38972347Y-50006250D02*
G75*
G02*
X30877653Y-50006250I-4047347J0D01*
G01*
X30877653Y-50006250D02*
G75*
G02*
X38972347Y-50006250I4047347J0D01*
G01*
X242159443Y-68999840D02*
G75*
G02*
X232503057Y-68999840I-4828193J0D01*
G01*
X232503057Y-68999840D02*
G75*
G02*
X242159443Y-68999840I4828193J0D01*
G01*
X124618750Y-68999840D02*
G75*
G02*
X121443750Y-68999840I-1587500J0D01*
G01*
X121443750Y-68999840D02*
G75*
G02*
X124618750Y-68999840I1587500J0D01*
G01*
X110331250Y-30899840D02*
G75*
G02*
X107156250Y-30899840I-1587500J0D01*
G01*
X107156250Y-30899840D02*
G75*
G02*
X110331250Y-30899840I1587500J0D01*
G01*
X37306250Y-50006250D02*
G75*
G02*
X32543750Y-50006250I-2381250J0D01*
G01*
X32543750Y-50006250D02*
G75*
G02*
X37306250Y-50006250I2381250J0D01*
G01*
X259556250Y-68999840D02*
G75*
G02*
X253206250Y-68999840I-3175000J0D01*
G01*
X253206250Y-68999840D02*
G75*
G02*
X259556250Y-68999840I3175000J0D01*
G01*
X61968910Y-50006250D02*
G75*
G02*
X50743590Y-50006250I-5612660J0D01*
G01*
X50743590Y-50006250D02*
G75*
G02*
X61968910Y-50006250I5612660J0D01*
G01*
X38100000Y-88049840D02*
G75*
G02*
X31750000Y-88049840I-3175000J0D01*
G01*
X31750000Y-88049840D02*
G75*
G02*
X38100000Y-88049840I3175000J0D01*
G01*
X163512500Y-68999840D02*
G75*
G02*
X158750000Y-68999840I-2381250J0D01*
G01*
X158750000Y-68999840D02*
G75*
G02*
X163512500Y-68999840I2381250J0D01*
G01*
X40537660Y-88049840D02*
G75*
G02*
X29312340Y-88049840I-5612660J0D01*
G01*
X29312340Y-88049840D02*
G75*
G02*
X40537660Y-88049840I5612660J0D01*
G01*
X227871943Y-30899840D02*
G75*
G02*
X218215557Y-30899840I-4828193J0D01*
G01*
X218215557Y-30899840D02*
G75*
G02*
X227871943Y-30899840I4828193J0D01*
G01*
X95306410Y-30899840D02*
G75*
G02*
X84081090Y-30899840I-5612660J0D01*
G01*
X84081090Y-30899840D02*
G75*
G02*
X95306410Y-30899840I5612660J0D01*
G01*
X188991097Y-30899840D02*
G75*
G02*
X180896403Y-30899840I-4047347J0D01*
G01*
X180896403Y-30899840D02*
G75*
G02*
X188991097Y-30899840I4047347J0D01*
G01*
X169125160Y-88049840D02*
G75*
G02*
X157899840Y-88049840I-5612660J0D01*
G01*
X157899840Y-88049840D02*
G75*
G02*
X169125160Y-88049840I5612660J0D01*
G01*
X148431250Y-30899840D02*
G75*
G02*
X145256250Y-30899840I-1587500J0D01*
G01*
X145256250Y-30899840D02*
G75*
G02*
X148431250Y-30899840I1587500J0D01*
G01*
X219868750Y-88049840D02*
G75*
G02*
X216693750Y-88049840I-1587500J0D01*
G01*
X216693750Y-88049840D02*
G75*
G02*
X219868750Y-88049840I1587500J0D01*
G01*
X131841097Y-30899840D02*
G75*
G02*
X123746403Y-30899840I-4047347J0D01*
G01*
X123746403Y-30899840D02*
G75*
G02*
X131841097Y-30899840I4047347J0D01*
G01*
X220662500Y-88049840D02*
G75*
G02*
X215900000Y-88049840I-2381250J0D01*
G01*
X215900000Y-88049840D02*
G75*
G02*
X220662500Y-88049840I2381250J0D01*
G01*
X162718750Y-68999840D02*
G75*
G02*
X159543750Y-68999840I-1587500J0D01*
G01*
X159543750Y-68999840D02*
G75*
G02*
X162718750Y-68999840I1587500J0D01*
G01*
X38100000Y-50006250D02*
G75*
G02*
X31750000Y-50006250I-3175000J0D01*
G01*
X31750000Y-50006250D02*
G75*
G02*
X38100000Y-50006250I3175000J0D01*
G01*
X188118750Y-30899840D02*
G75*
G02*
X181768750Y-30899840I-3175000J0D01*
G01*
X181768750Y-30899840D02*
G75*
G02*
X188118750Y-30899840I3175000J0D01*
G01*
X220662500Y-68999840D02*
G75*
G02*
X215900000Y-68999840I-2381250J0D01*
G01*
X215900000Y-68999840D02*
G75*
G02*
X220662500Y-68999840I2381250J0D01*
G01*
X222328597Y-88049840D02*
G75*
G02*
X214233903Y-88049840I-4047347J0D01*
G01*
X214233903Y-88049840D02*
G75*
G02*
X222328597Y-88049840I4047347J0D01*
G01*
X119934847Y-88049840D02*
G75*
G02*
X111840153Y-88049840I-4047347J0D01*
G01*
X111840153Y-88049840D02*
G75*
G02*
X119934847Y-88049840I4047347J0D01*
G01*
X72231250Y-30899840D02*
G75*
G02*
X69056250Y-30899840I-1587500J0D01*
G01*
X69056250Y-30899840D02*
G75*
G02*
X72231250Y-30899840I1587500J0D01*
G01*
X150812500Y-88106250D02*
G75*
G02*
X147637500Y-88106250I-1587500J0D01*
G01*
X147637500Y-88106250D02*
G75*
G02*
X150812500Y-88106250I1587500J0D01*
G01*
X149225000Y-30899840D02*
G75*
G02*
X144462500Y-30899840I-2381250J0D01*
G01*
X144462500Y-30899840D02*
G75*
G02*
X149225000Y-30899840I2381250J0D01*
G01*
X194534443Y-50006250D02*
G75*
G02*
X184878057Y-50006250I-4828193J0D01*
G01*
X184878057Y-50006250D02*
G75*
G02*
X194534443Y-50006250I4828193J0D01*
G01*
X70709443Y-68999840D02*
G75*
G02*
X61053057Y-68999840I-4828193J0D01*
G01*
X61053057Y-68999840D02*
G75*
G02*
X70709443Y-68999840I4828193J0D01*
G01*
X207168750Y-30899840D02*
G75*
G02*
X200818750Y-30899840I-3175000J0D01*
G01*
X200818750Y-30899840D02*
G75*
G02*
X207168750Y-30899840I3175000J0D01*
G01*
X117553597Y-50006250D02*
G75*
G02*
X109458903Y-50006250I-4047347J0D01*
G01*
X109458903Y-50006250D02*
G75*
G02*
X117553597Y-50006250I4047347J0D01*
G01*
X153987500Y-50006250D02*
G75*
G02*
X149225000Y-50006250I-2381250J0D01*
G01*
X149225000Y-50006250D02*
G75*
G02*
X153987500Y-50006250I2381250J0D01*
G01*
X121500160Y-88049840D02*
G75*
G02*
X110274840Y-88049840I-5612660J0D01*
G01*
X110274840Y-88049840D02*
G75*
G02*
X121500160Y-88049840I5612660J0D01*
G01*
X191293750Y-50006250D02*
G75*
G02*
X188118750Y-50006250I-1587500J0D01*
G01*
X188118750Y-50006250D02*
G75*
G02*
X191293750Y-50006250I1587500J0D01*
G01*
X53975000Y-30899840D02*
G75*
G02*
X49212500Y-30899840I-2381250J0D01*
G01*
X49212500Y-30899840D02*
G75*
G02*
X53975000Y-30899840I2381250J0D01*
G01*
X138168910Y-50006250D02*
G75*
G02*
X126943590Y-50006250I-5612660J0D01*
G01*
X126943590Y-50006250D02*
G75*
G02*
X138168910Y-50006250I5612660J0D01*
G01*
X71493910Y-68999840D02*
G75*
G02*
X60268590Y-68999840I-5612660J0D01*
G01*
X60268590Y-68999840D02*
G75*
G02*
X71493910Y-68999840I5612660J0D01*
G01*
X223109443Y-88049840D02*
G75*
G02*
X213453057Y-88049840I-4828193J0D01*
G01*
X213453057Y-88049840D02*
G75*
G02*
X223109443Y-88049840I4828193J0D01*
G01*
X231853597Y-50006250D02*
G75*
G02*
X223758903Y-50006250I-4047347J0D01*
G01*
X223758903Y-50006250D02*
G75*
G02*
X231853597Y-50006250I4047347J0D01*
G01*
X165178597Y-68999840D02*
G75*
G02*
X157083903Y-68999840I-4047347J0D01*
G01*
X157083903Y-68999840D02*
G75*
G02*
X165178597Y-68999840I4047347J0D01*
G01*
X168275000Y-30899840D02*
G75*
G02*
X163512500Y-30899840I-2381250J0D01*
G01*
X163512500Y-30899840D02*
G75*
G02*
X168275000Y-30899840I2381250J0D01*
G01*
X36512500Y-50006250D02*
G75*
G02*
X33337500Y-50006250I-1587500J0D01*
G01*
X33337500Y-50006250D02*
G75*
G02*
X36512500Y-50006250I1587500J0D01*
G01*
X259556250Y-88049840D02*
G75*
G02*
X253206250Y-88049840I-3175000J0D01*
G01*
X253206250Y-88049840D02*
G75*
G02*
X259556250Y-88049840I3175000J0D01*
G01*
X45300160Y-69056250D02*
G75*
G02*
X34074840Y-69056250I-5612660J0D01*
G01*
X34074840Y-69056250D02*
G75*
G02*
X45300160Y-69056250I5612660J0D01*
G01*
X261209443Y-88049840D02*
G75*
G02*
X251553057Y-88049840I-4828193J0D01*
G01*
X251553057Y-88049840D02*
G75*
G02*
X261209443Y-88049840I4828193J0D01*
G01*
X153272347Y-88106250D02*
G75*
G02*
X145177653Y-88106250I-4047347J0D01*
G01*
X145177653Y-88106250D02*
G75*
G02*
X153272347Y-88106250I4047347J0D01*
G01*
X37306250Y-88049840D02*
G75*
G02*
X32543750Y-88049840I-2381250J0D01*
G01*
X32543750Y-88049840D02*
G75*
G02*
X37306250Y-88049840I2381250J0D01*
G01*
X261209443Y-68999840D02*
G75*
G02*
X251553057Y-68999840I-4828193J0D01*
G01*
X251553057Y-68999840D02*
G75*
G02*
X261209443Y-68999840I4828193J0D01*
G01*
X88106250Y-68999840D02*
G75*
G02*
X81756250Y-68999840I-3175000J0D01*
G01*
X81756250Y-68999840D02*
G75*
G02*
X88106250Y-68999840I3175000J0D01*
G01*
X55641097Y-30899840D02*
G75*
G02*
X47546403Y-30899840I-4047347J0D01*
G01*
X47546403Y-30899840D02*
G75*
G02*
X55641097Y-30899840I4047347J0D01*
G01*
X37371943Y-30899840D02*
G75*
G02*
X27715557Y-30899840I-4828193J0D01*
G01*
X27715557Y-30899840D02*
G75*
G02*
X37371943Y-30899840I4828193J0D01*
G01*
X232634443Y-50006250D02*
G75*
G02*
X222978057Y-50006250I-4828193J0D01*
G01*
X222978057Y-50006250D02*
G75*
G02*
X232634443Y-50006250I4828193J0D01*
G01*
X136603597Y-50006250D02*
G75*
G02*
X128508903Y-50006250I-4047347J0D01*
G01*
X128508903Y-50006250D02*
G75*
G02*
X136603597Y-50006250I4047347J0D01*
G01*
X213584443Y-50006250D02*
G75*
G02*
X203928057Y-50006250I-4828193J0D01*
G01*
X203928057Y-50006250D02*
G75*
G02*
X213584443Y-50006250I4828193J0D01*
G01*
X253284847Y-30956250D02*
G75*
G02*
X245190153Y-30956250I-4047347J0D01*
G01*
X245190153Y-30956250D02*
G75*
G02*
X253284847Y-30956250I4047347J0D01*
G01*
X189771943Y-30899840D02*
G75*
G02*
X180115557Y-30899840I-4828193J0D01*
G01*
X180115557Y-30899840D02*
G75*
G02*
X189771943Y-30899840I4828193J0D01*
G01*
X34925000Y-30899840D02*
G75*
G02*
X30162500Y-30899840I-2381250J0D01*
G01*
X30162500Y-30899840D02*
G75*
G02*
X34925000Y-30899840I2381250J0D01*
G01*
X239712500Y-88049840D02*
G75*
G02*
X234950000Y-88049840I-2381250J0D01*
G01*
X234950000Y-88049840D02*
G75*
G02*
X239712500Y-88049840I2381250J0D01*
G01*
X150891097Y-30899840D02*
G75*
G02*
X142796403Y-30899840I-4047347J0D01*
G01*
X142796403Y-30899840D02*
G75*
G02*
X150891097Y-30899840I4047347J0D01*
G01*
X239712500Y-68999840D02*
G75*
G02*
X234950000Y-68999840I-2381250J0D01*
G01*
X234950000Y-68999840D02*
G75*
G02*
X239712500Y-68999840I2381250J0D01*
G01*
X172243750Y-50006250D02*
G75*
G02*
X169068750Y-50006250I-1587500J0D01*
G01*
X169068750Y-50006250D02*
G75*
G02*
X172243750Y-50006250I1587500J0D01*
G01*
X90543910Y-68999840D02*
G75*
G02*
X79318590Y-68999840I-5612660J0D01*
G01*
X79318590Y-68999840D02*
G75*
G02*
X90543910Y-68999840I5612660J0D01*
G01*
X60403597Y-50006250D02*
G75*
G02*
X52308903Y-50006250I-4047347J0D01*
G01*
X52308903Y-50006250D02*
G75*
G02*
X60403597Y-50006250I4047347J0D01*
G01*
X182562500Y-68999840D02*
G75*
G02*
X177800000Y-68999840I-2381250J0D01*
G01*
X177800000Y-68999840D02*
G75*
G02*
X182562500Y-68999840I2381250J0D01*
G01*
X151606250Y-88106250D02*
G75*
G02*
X146843750Y-88106250I-2381250J0D01*
G01*
X146843750Y-88106250D02*
G75*
G02*
X151606250Y-88106250I2381250J0D01*
G01*
X199231250Y-88171942D02*
G75*
G02*
X194468750Y-88171942I-2381250J0D01*
G01*
X194468750Y-88171942D02*
G75*
G02*
X199231250Y-88171942I2381250J0D01*
G01*
X58737500Y-50006250D02*
G75*
G02*
X53975000Y-50006250I-2381250J0D01*
G01*
X53975000Y-50006250D02*
G75*
G02*
X58737500Y-50006250I2381250J0D01*
G01*
X186531250Y-30899840D02*
G75*
G02*
X183356250Y-30899840I-1587500J0D01*
G01*
X183356250Y-30899840D02*
G75*
G02*
X186531250Y-30899840I1587500J0D01*
G01*
X36591097Y-30899840D02*
G75*
G02*
X28496403Y-30899840I-4047347J0D01*
G01*
X28496403Y-30899840D02*
G75*
G02*
X36591097Y-30899840I4047347J0D01*
G01*
X44515693Y-69056250D02*
G75*
G02*
X34859307Y-69056250I-4828193J0D01*
G01*
X34859307Y-69056250D02*
G75*
G02*
X44515693Y-69056250I4828193J0D01*
G01*
X76256410Y-30899840D02*
G75*
G02*
X65031090Y-30899840I-5612660J0D01*
G01*
X65031090Y-30899840D02*
G75*
G02*
X76256410Y-30899840I5612660J0D01*
G01*
X73025000Y-30899840D02*
G75*
G02*
X68262500Y-30899840I-2381250J0D01*
G01*
X68262500Y-30899840D02*
G75*
G02*
X73025000Y-30899840I2381250J0D01*
G01*
X146128597Y-68999840D02*
G75*
G02*
X138033903Y-68999840I-4047347J0D01*
G01*
X138033903Y-68999840D02*
G75*
G02*
X146128597Y-68999840I4047347J0D01*
G01*
X224631250Y-30899840D02*
G75*
G02*
X221456250Y-30899840I-1587500J0D01*
G01*
X221456250Y-30899840D02*
G75*
G02*
X224631250Y-30899840I1587500J0D01*
G01*
X173831250Y-50006250D02*
G75*
G02*
X167481250Y-50006250I-3175000J0D01*
G01*
X167481250Y-50006250D02*
G75*
G02*
X173831250Y-50006250I3175000J0D01*
G01*
X169941097Y-30899840D02*
G75*
G02*
X161846403Y-30899840I-4047347J0D01*
G01*
X161846403Y-30899840D02*
G75*
G02*
X169941097Y-30899840I4047347J0D01*
G01*
X43734847Y-69056250D02*
G75*
G02*
X35640153Y-69056250I-4047347J0D01*
G01*
X35640153Y-69056250D02*
G75*
G02*
X43734847Y-69056250I4047347J0D01*
G01*
X36512500Y-88049840D02*
G75*
G02*
X33337500Y-88049840I-1587500J0D01*
G01*
X33337500Y-88049840D02*
G75*
G02*
X36512500Y-88049840I1587500J0D01*
G01*
X116681250Y-50006250D02*
G75*
G02*
X110331250Y-50006250I-3175000J0D01*
G01*
X110331250Y-50006250D02*
G75*
G02*
X116681250Y-50006250I3175000J0D01*
G01*
X202406250Y-68999840D02*
G75*
G02*
X196056250Y-68999840I-3175000J0D01*
G01*
X196056250Y-68999840D02*
G75*
G02*
X202406250Y-68999840I3175000J0D01*
G01*
X75471943Y-30899840D02*
G75*
G02*
X65815557Y-30899840I-4828193J0D01*
G01*
X65815557Y-30899840D02*
G75*
G02*
X75471943Y-30899840I4828193J0D01*
G01*
X242943910Y-68999840D02*
G75*
G02*
X231718590Y-68999840I-5612660J0D01*
G01*
X231718590Y-68999840D02*
G75*
G02*
X242943910Y-68999840I5612660J0D01*
G01*
X250825000Y-30956250D02*
G75*
G02*
X247650000Y-30956250I-1587500J0D01*
G01*
X247650000Y-30956250D02*
G75*
G02*
X250825000Y-30956250I1587500J0D01*
G01*
X254850160Y-30956250D02*
G75*
G02*
X243624840Y-30956250I-5612660J0D01*
G01*
X243624840Y-30956250D02*
G75*
G02*
X254850160Y-30956250I5612660J0D01*
G01*
X39753193Y-88049840D02*
G75*
G02*
X30096807Y-88049840I-4828193J0D01*
G01*
X30096807Y-88049840D02*
G75*
G02*
X39753193Y-88049840I4828193J0D01*
G01*
X74691097Y-30899840D02*
G75*
G02*
X66596403Y-30899840I-4047347J0D01*
G01*
X66596403Y-30899840D02*
G75*
G02*
X74691097Y-30899840I4047347J0D01*
G01*
X153193750Y-50006250D02*
G75*
G02*
X150018750Y-50006250I-1587500J0D01*
G01*
X150018750Y-50006250D02*
G75*
G02*
X153193750Y-50006250I1587500J0D01*
G01*
X256446943Y-49949840D02*
G75*
G02*
X246790557Y-49949840I-4828193J0D01*
G01*
X246790557Y-49949840D02*
G75*
G02*
X256446943Y-49949840I4828193J0D01*
G01*
X68262500Y-68999840D02*
G75*
G02*
X63500000Y-68999840I-2381250J0D01*
G01*
X63500000Y-68999840D02*
G75*
G02*
X68262500Y-68999840I2381250J0D01*
G01*
X212803597Y-50006250D02*
G75*
G02*
X204708903Y-50006250I-4047347J0D01*
G01*
X204708903Y-50006250D02*
G75*
G02*
X212803597Y-50006250I4047347J0D01*
G01*
X144462500Y-68999840D02*
G75*
G02*
X139700000Y-68999840I-2381250J0D01*
G01*
X139700000Y-68999840D02*
G75*
G02*
X144462500Y-68999840I2381250J0D01*
G01*
X130175000Y-30899840D02*
G75*
G02*
X125412500Y-30899840I-2381250J0D01*
G01*
X125412500Y-30899840D02*
G75*
G02*
X130175000Y-30899840I2381250J0D01*
G01*
X219868750Y-68999840D02*
G75*
G02*
X216693750Y-68999840I-1587500J0D01*
G01*
X216693750Y-68999840D02*
G75*
G02*
X219868750Y-68999840I1587500J0D01*
G01*
X240506250Y-88049840D02*
G75*
G02*
X234156250Y-88049840I-3175000J0D01*
G01*
X234156250Y-88049840D02*
G75*
G02*
X240506250Y-88049840I3175000J0D01*
G01*
X167559847Y-88049840D02*
G75*
G02*
X159465153Y-88049840I-4047347J0D01*
G01*
X159465153Y-88049840D02*
G75*
G02*
X167559847Y-88049840I4047347J0D01*
G01*
X260428597Y-88049840D02*
G75*
G02*
X252333903Y-88049840I-4047347J0D01*
G01*
X252333903Y-88049840D02*
G75*
G02*
X260428597Y-88049840I4047347J0D01*
G01*
X193753597Y-50006250D02*
G75*
G02*
X185658903Y-50006250I-4047347J0D01*
G01*
X185658903Y-50006250D02*
G75*
G02*
X193753597Y-50006250I4047347J0D01*
G01*
D11*
X206263227Y-86989076D02*
G75*
G02*
X204600727Y-86989076I-831250J0D01*
G01*
X204600727Y-86989076D02*
G75*
G02*
X206263227Y-86989076I831250J0D01*
G01*
D10*
X125412500Y-68999840D02*
G75*
G02*
X120650000Y-68999840I-2381250J0D01*
G01*
X120650000Y-68999840D02*
G75*
G02*
X125412500Y-68999840I2381250J0D01*
G01*
X130968750Y-30899840D02*
G75*
G02*
X124618750Y-30899840I-3175000J0D01*
G01*
X124618750Y-30899840D02*
G75*
G02*
X130968750Y-30899840I3175000J0D01*
G01*
X60403597Y-88049840D02*
G75*
G02*
X52308903Y-88049840I-4047347J0D01*
G01*
X52308903Y-88049840D02*
G75*
G02*
X60403597Y-88049840I4047347J0D01*
G01*
X174703597Y-50006250D02*
G75*
G02*
X166608903Y-50006250I-4047347J0D01*
G01*
X166608903Y-50006250D02*
G75*
G02*
X174703597Y-50006250I4047347J0D01*
G01*
X258762500Y-88049840D02*
G75*
G02*
X254000000Y-88049840I-2381250J0D01*
G01*
X254000000Y-88049840D02*
G75*
G02*
X258762500Y-88049840I2381250J0D01*
G01*
X166743910Y-68999840D02*
G75*
G02*
X155518590Y-68999840I-5612660J0D01*
G01*
X155518590Y-68999840D02*
G75*
G02*
X166743910Y-68999840I5612660J0D01*
G01*
X94521943Y-30899840D02*
G75*
G02*
X84865557Y-30899840I-4828193J0D01*
G01*
X84865557Y-30899840D02*
G75*
G02*
X94521943Y-30899840I4828193J0D01*
G01*
X80234443Y-50006250D02*
G75*
G02*
X70578057Y-50006250I-4828193J0D01*
G01*
X70578057Y-50006250D02*
G75*
G02*
X80234443Y-50006250I4828193J0D01*
G01*
X221456250Y-88049840D02*
G75*
G02*
X215106250Y-88049840I-3175000J0D01*
G01*
X215106250Y-88049840D02*
G75*
G02*
X221456250Y-88049840I3175000J0D01*
G01*
X127859443Y-68999840D02*
G75*
G02*
X118203057Y-68999840I-4828193J0D01*
G01*
X118203057Y-68999840D02*
G75*
G02*
X127859443Y-68999840I4828193J0D01*
G01*
X154837660Y-88106250D02*
G75*
G02*
X143612340Y-88106250I-5612660J0D01*
G01*
X143612340Y-88106250D02*
G75*
G02*
X154837660Y-88106250I5612660J0D01*
G01*
X227091097Y-30899840D02*
G75*
G02*
X218996403Y-30899840I-4047347J0D01*
G01*
X218996403Y-30899840D02*
G75*
G02*
X227091097Y-30899840I4047347J0D01*
G01*
D11*
X131516382Y-40456607D02*
G75*
G02*
X129853882Y-40456607I-831250J0D01*
G01*
X129853882Y-40456607D02*
G75*
G02*
X131516382Y-40456607I831250J0D01*
G01*
D10*
X195318910Y-50006250D02*
G75*
G02*
X184093590Y-50006250I-5612660J0D01*
G01*
X184093590Y-50006250D02*
G75*
G02*
X195318910Y-50006250I5612660J0D01*
G01*
X38156410Y-30899840D02*
G75*
G02*
X26931090Y-30899840I-5612660J0D01*
G01*
X26931090Y-30899840D02*
G75*
G02*
X38156410Y-30899840I5612660J0D01*
G01*
X134143750Y-50006250D02*
G75*
G02*
X130968750Y-50006250I-1587500J0D01*
G01*
X130968750Y-50006250D02*
G75*
G02*
X134143750Y-50006250I1587500J0D01*
G01*
X154053193Y-88106250D02*
G75*
G02*
X144396807Y-88106250I-4828193J0D01*
G01*
X144396807Y-88106250D02*
G75*
G02*
X154053193Y-88106250I4828193J0D01*
G01*
X251618750Y-30956250D02*
G75*
G02*
X246856250Y-30956250I-2381250J0D01*
G01*
X246856250Y-30956250D02*
G75*
G02*
X251618750Y-30956250I2381250J0D01*
G01*
D11*
X55302537Y-40459135D02*
G75*
G02*
X53640037Y-40459135I-831250J0D01*
G01*
X53640037Y-40459135D02*
G75*
G02*
X55302537Y-40459135I831250J0D01*
G01*
D10*
X183356250Y-68999840D02*
G75*
G02*
X177006250Y-68999840I-3175000J0D01*
G01*
X177006250Y-68999840D02*
G75*
G02*
X183356250Y-68999840I3175000J0D01*
G01*
X233418910Y-50006250D02*
G75*
G02*
X222193590Y-50006250I-5612660J0D01*
G01*
X222193590Y-50006250D02*
G75*
G02*
X233418910Y-50006250I5612660J0D01*
G01*
X120715693Y-88049840D02*
G75*
G02*
X111059307Y-88049840I-4828193J0D01*
G01*
X111059307Y-88049840D02*
G75*
G02*
X120715693Y-88049840I4828193J0D01*
G01*
X165893750Y-88049840D02*
G75*
G02*
X161131250Y-88049840I-2381250J0D01*
G01*
X161131250Y-88049840D02*
G75*
G02*
X165893750Y-88049840I2381250J0D01*
G01*
X77787500Y-50006250D02*
G75*
G02*
X73025000Y-50006250I-2381250J0D01*
G01*
X73025000Y-50006250D02*
G75*
G02*
X77787500Y-50006250I2381250J0D01*
G01*
X225425000Y-30899840D02*
G75*
G02*
X220662500Y-30899840I-2381250J0D01*
G01*
X220662500Y-30899840D02*
G75*
G02*
X225425000Y-30899840I2381250J0D01*
G01*
X230981250Y-50006250D02*
G75*
G02*
X224631250Y-50006250I-3175000J0D01*
G01*
X224631250Y-50006250D02*
G75*
G02*
X230981250Y-50006250I3175000J0D01*
G01*
X89759443Y-68999840D02*
G75*
G02*
X80103057Y-68999840I-4828193J0D01*
G01*
X80103057Y-68999840D02*
G75*
G02*
X89759443Y-68999840I4828193J0D01*
G01*
X92868750Y-30899840D02*
G75*
G02*
X86518750Y-30899840I-3175000J0D01*
G01*
X86518750Y-30899840D02*
G75*
G02*
X92868750Y-30899840I3175000J0D01*
G01*
X156434443Y-50006250D02*
G75*
G02*
X146778057Y-50006250I-4828193J0D01*
G01*
X146778057Y-50006250D02*
G75*
G02*
X156434443Y-50006250I4828193J0D01*
G01*
X96043750Y-50006250D02*
G75*
G02*
X92868750Y-50006250I-1587500J0D01*
G01*
X92868750Y-50006250D02*
G75*
G02*
X96043750Y-50006250I1587500J0D01*
G01*
X167481250Y-30899840D02*
G75*
G02*
X164306250Y-30899840I-1587500J0D01*
G01*
X164306250Y-30899840D02*
G75*
G02*
X167481250Y-30899840I1587500J0D01*
G01*
X211137500Y-50006250D02*
G75*
G02*
X206375000Y-50006250I-2381250J0D01*
G01*
X206375000Y-50006250D02*
G75*
G02*
X211137500Y-50006250I2381250J0D01*
G01*
X173037500Y-50006250D02*
G75*
G02*
X168275000Y-50006250I-2381250J0D01*
G01*
X168275000Y-50006250D02*
G75*
G02*
X173037500Y-50006250I2381250J0D01*
G01*
X150018750Y-30899840D02*
G75*
G02*
X143668750Y-30899840I-3175000J0D01*
G01*
X143668750Y-30899840D02*
G75*
G02*
X150018750Y-30899840I3175000J0D01*
G01*
X97631250Y-50006250D02*
G75*
G02*
X91281250Y-50006250I-3175000J0D01*
G01*
X91281250Y-50006250D02*
G75*
G02*
X97631250Y-50006250I3175000J0D01*
G01*
X226218750Y-30899840D02*
G75*
G02*
X219868750Y-30899840I-3175000J0D01*
G01*
X219868750Y-30899840D02*
G75*
G02*
X226218750Y-30899840I3175000J0D01*
G01*
X209606410Y-30899840D02*
G75*
G02*
X198381090Y-30899840I-5612660J0D01*
G01*
X198381090Y-30899840D02*
G75*
G02*
X209606410Y-30899840I5612660J0D01*
G01*
X230187500Y-50006250D02*
G75*
G02*
X225425000Y-50006250I-2381250J0D01*
G01*
X225425000Y-50006250D02*
G75*
G02*
X230187500Y-50006250I2381250J0D01*
G01*
X115887500Y-50006250D02*
G75*
G02*
X111125000Y-50006250I-2381250J0D01*
G01*
X111125000Y-50006250D02*
G75*
G02*
X115887500Y-50006250I2381250J0D01*
G01*
X155653597Y-50006250D02*
G75*
G02*
X147558903Y-50006250I-4047347J0D01*
G01*
X147558903Y-50006250D02*
G75*
G02*
X155653597Y-50006250I4047347J0D01*
G01*
X134937500Y-50006250D02*
G75*
G02*
X130175000Y-50006250I-2381250J0D01*
G01*
X130175000Y-50006250D02*
G75*
G02*
X134937500Y-50006250I2381250J0D01*
G01*
X61968910Y-88049840D02*
G75*
G02*
X50743590Y-88049840I-5612660J0D01*
G01*
X50743590Y-88049840D02*
G75*
G02*
X61968910Y-88049840I5612660J0D01*
G01*
X135731250Y-50006250D02*
G75*
G02*
X129381250Y-50006250I-3175000J0D01*
G01*
X129381250Y-50006250D02*
G75*
G02*
X135731250Y-50006250I3175000J0D01*
G01*
X184228597Y-68999840D02*
G75*
G02*
X176133903Y-68999840I-4047347J0D01*
G01*
X176133903Y-68999840D02*
G75*
G02*
X184228597Y-68999840I4047347J0D01*
G01*
X255666097Y-49949840D02*
G75*
G02*
X247571403Y-49949840I-4047347J0D01*
G01*
X247571403Y-49949840D02*
G75*
G02*
X255666097Y-49949840I4047347J0D01*
G01*
D11*
X53700896Y-75234339D02*
G75*
G02*
X52038396Y-75234339I-831250J0D01*
G01*
X52038396Y-75234339D02*
G75*
G02*
X53700896Y-75234339I831250J0D01*
G01*
D10*
X152456410Y-30899840D02*
G75*
G02*
X141231090Y-30899840I-5612660J0D01*
G01*
X141231090Y-30899840D02*
G75*
G02*
X152456410Y-30899840I5612660J0D01*
G01*
X111918750Y-30899840D02*
G75*
G02*
X105568750Y-30899840I-3175000J0D01*
G01*
X105568750Y-30899840D02*
G75*
G02*
X111918750Y-30899840I3175000J0D01*
G01*
X105568750Y-68999840D02*
G75*
G02*
X102393750Y-68999840I-1587500J0D01*
G01*
X102393750Y-68999840D02*
G75*
G02*
X105568750Y-68999840I1587500J0D01*
G01*
X254065693Y-30956250D02*
G75*
G02*
X244409307Y-30956250I-4828193J0D01*
G01*
X244409307Y-30956250D02*
G75*
G02*
X254065693Y-30956250I4828193J0D01*
G01*
X35718750Y-30899840D02*
G75*
G02*
X29368750Y-30899840I-3175000J0D01*
G01*
X29368750Y-30899840D02*
G75*
G02*
X35718750Y-30899840I3175000J0D01*
G01*
X133406410Y-30899840D02*
G75*
G02*
X122181090Y-30899840I-5612660J0D01*
G01*
X122181090Y-30899840D02*
G75*
G02*
X133406410Y-30899840I5612660J0D01*
G01*
X181768750Y-68999840D02*
G75*
G02*
X178593750Y-68999840I-1587500J0D01*
G01*
X178593750Y-68999840D02*
G75*
G02*
X181768750Y-68999840I1587500J0D01*
G01*
X208821943Y-30899840D02*
G75*
G02*
X199165557Y-30899840I-4828193J0D01*
G01*
X199165557Y-30899840D02*
G75*
G02*
X208821943Y-30899840I4828193J0D01*
G01*
X192087500Y-50006250D02*
G75*
G02*
X187325000Y-50006250I-2381250J0D01*
G01*
X187325000Y-50006250D02*
G75*
G02*
X192087500Y-50006250I2381250J0D01*
G01*
X118268750Y-88049840D02*
G75*
G02*
X113506250Y-88049840I-2381250J0D01*
G01*
X113506250Y-88049840D02*
G75*
G02*
X118268750Y-88049840I2381250J0D01*
G01*
X107156250Y-68999840D02*
G75*
G02*
X100806250Y-68999840I-3175000J0D01*
G01*
X100806250Y-68999840D02*
G75*
G02*
X107156250Y-68999840I3175000J0D01*
G01*
X42068750Y-69056250D02*
G75*
G02*
X37306250Y-69056250I-2381250J0D01*
G01*
X37306250Y-69056250D02*
G75*
G02*
X42068750Y-69056250I2381250J0D01*
G01*
X114356410Y-30899840D02*
G75*
G02*
X103131090Y-30899840I-5612660J0D01*
G01*
X103131090Y-30899840D02*
G75*
G02*
X114356410Y-30899840I5612660J0D01*
G01*
X67468750Y-68999840D02*
G75*
G02*
X64293750Y-68999840I-1587500J0D01*
G01*
X64293750Y-68999840D02*
G75*
G02*
X67468750Y-68999840I1587500J0D01*
G01*
X98503597Y-50006250D02*
G75*
G02*
X90408903Y-50006250I-4047347J0D01*
G01*
X90408903Y-50006250D02*
G75*
G02*
X98503597Y-50006250I4047347J0D01*
G01*
X170721943Y-30899840D02*
G75*
G02*
X161065557Y-30899840I-4828193J0D01*
G01*
X161065557Y-30899840D02*
G75*
G02*
X170721943Y-30899840I4828193J0D01*
G01*
X169068750Y-30899840D02*
G75*
G02*
X162718750Y-30899840I-3175000J0D01*
G01*
X162718750Y-30899840D02*
G75*
G02*
X169068750Y-30899840I3175000J0D01*
G01*
X108028597Y-68999840D02*
G75*
G02*
X99933903Y-68999840I-4047347J0D01*
G01*
X99933903Y-68999840D02*
G75*
G02*
X108028597Y-68999840I4047347J0D01*
G01*
X58737500Y-88049840D02*
G75*
G02*
X53975000Y-88049840I-2381250J0D01*
G01*
X53975000Y-88049840D02*
G75*
G02*
X58737500Y-88049840I2381250J0D01*
G01*
X204059443Y-68999840D02*
G75*
G02*
X194403057Y-68999840I-4828193J0D01*
G01*
X194403057Y-68999840D02*
G75*
G02*
X204059443Y-68999840I4828193J0D01*
G01*
X99284443Y-50006250D02*
G75*
G02*
X89628057Y-50006250I-4828193J0D01*
G01*
X89628057Y-50006250D02*
G75*
G02*
X99284443Y-50006250I4828193J0D01*
G01*
X228656410Y-30899840D02*
G75*
G02*
X217431090Y-30899840I-5612660J0D01*
G01*
X217431090Y-30899840D02*
G75*
G02*
X228656410Y-30899840I5612660J0D01*
G01*
X61184443Y-50006250D02*
G75*
G02*
X51528057Y-50006250I-4828193J0D01*
G01*
X51528057Y-50006250D02*
G75*
G02*
X61184443Y-50006250I4828193J0D01*
G01*
X238918750Y-68999840D02*
G75*
G02*
X235743750Y-68999840I-1587500J0D01*
G01*
X235743750Y-68999840D02*
G75*
G02*
X238918750Y-68999840I1587500J0D01*
G01*
X214368910Y-50006250D02*
G75*
G02*
X203143590Y-50006250I-5612660J0D01*
G01*
X203143590Y-50006250D02*
G75*
G02*
X214368910Y-50006250I5612660J0D01*
G01*
X171506410Y-30899840D02*
G75*
G02*
X160281090Y-30899840I-5612660J0D01*
G01*
X160281090Y-30899840D02*
G75*
G02*
X171506410Y-30899840I5612660J0D01*
G01*
X34131250Y-30899840D02*
G75*
G02*
X30956250Y-30899840I-1587500J0D01*
G01*
X30956250Y-30899840D02*
G75*
G02*
X34131250Y-30899840I1587500J0D01*
G01*
X242943910Y-88049840D02*
G75*
G02*
X231718590Y-88049840I-5612660J0D01*
G01*
X231718590Y-88049840D02*
G75*
G02*
X242943910Y-88049840I5612660J0D01*
G01*
X80168750Y-88049840D02*
G75*
G02*
X75406250Y-88049840I-2381250J0D01*
G01*
X75406250Y-88049840D02*
G75*
G02*
X80168750Y-88049840I2381250J0D01*
G01*
X129381250Y-30899840D02*
G75*
G02*
X126206250Y-30899840I-1587500J0D01*
G01*
X126206250Y-30899840D02*
G75*
G02*
X129381250Y-30899840I1587500J0D01*
G01*
X187325000Y-30899840D02*
G75*
G02*
X182562500Y-30899840I-2381250J0D01*
G01*
X182562500Y-30899840D02*
G75*
G02*
X187325000Y-30899840I2381250J0D01*
G01*
X165100000Y-88049840D02*
G75*
G02*
X161925000Y-88049840I-1587500J0D01*
G01*
X161925000Y-88049840D02*
G75*
G02*
X165100000Y-88049840I1587500J0D01*
G01*
X147693910Y-68999840D02*
G75*
G02*
X136468590Y-68999840I-5612660J0D01*
G01*
X136468590Y-68999840D02*
G75*
G02*
X147693910Y-68999840I5612660J0D01*
G01*
X229393750Y-50006250D02*
G75*
G02*
X226218750Y-50006250I-1587500J0D01*
G01*
X226218750Y-50006250D02*
G75*
G02*
X229393750Y-50006250I1587500J0D01*
G01*
X96837500Y-50006250D02*
G75*
G02*
X92075000Y-50006250I-2381250J0D01*
G01*
X92075000Y-50006250D02*
G75*
G02*
X96837500Y-50006250I2381250J0D01*
G01*
X200818750Y-68999840D02*
G75*
G02*
X197643750Y-68999840I-1587500J0D01*
G01*
X197643750Y-68999840D02*
G75*
G02*
X200818750Y-68999840I1587500J0D01*
G01*
X223109443Y-68999840D02*
G75*
G02*
X213453057Y-68999840I-4828193J0D01*
G01*
X213453057Y-68999840D02*
G75*
G02*
X223109443Y-68999840I4828193J0D01*
G01*
X117475000Y-88049840D02*
G75*
G02*
X114300000Y-88049840I-1587500J0D01*
G01*
X114300000Y-88049840D02*
G75*
G02*
X117475000Y-88049840I1587500J0D01*
G01*
X88978597Y-68999840D02*
G75*
G02*
X80883903Y-68999840I-4047347J0D01*
G01*
X80883903Y-68999840D02*
G75*
G02*
X88978597Y-68999840I4047347J0D01*
G01*
X132621943Y-30899840D02*
G75*
G02*
X122965557Y-30899840I-4828193J0D01*
G01*
X122965557Y-30899840D02*
G75*
G02*
X132621943Y-30899840I4828193J0D01*
G01*
D11*
X234514685Y-38259341D02*
G75*
G02*
X232852185Y-38259341I-831250J0D01*
G01*
X232852185Y-38259341D02*
G75*
G02*
X234514685Y-38259341I831250J0D01*
G01*
D10*
X56421943Y-30899840D02*
G75*
G02*
X46765557Y-30899840I-4828193J0D01*
G01*
X46765557Y-30899840D02*
G75*
G02*
X56421943Y-30899840I4828193J0D01*
G01*
X176268910Y-50006250D02*
G75*
G02*
X165043590Y-50006250I-5612660J0D01*
G01*
X165043590Y-50006250D02*
G75*
G02*
X176268910Y-50006250I5612660J0D01*
G01*
X201678193Y-88171942D02*
G75*
G02*
X192021807Y-88171942I-4828193J0D01*
G01*
X192021807Y-88171942D02*
G75*
G02*
X201678193Y-88171942I4828193J0D01*
G01*
X238918750Y-88049840D02*
G75*
G02*
X235743750Y-88049840I-1587500J0D01*
G01*
X235743750Y-88049840D02*
G75*
G02*
X238918750Y-88049840I1587500J0D01*
G01*
X93741097Y-30899840D02*
G75*
G02*
X85646403Y-30899840I-4047347J0D01*
G01*
X85646403Y-30899840D02*
G75*
G02*
X93741097Y-30899840I4047347J0D01*
G01*
X261993910Y-68999840D02*
G75*
G02*
X250768590Y-68999840I-5612660J0D01*
G01*
X250768590Y-68999840D02*
G75*
G02*
X261993910Y-68999840I5612660J0D01*
G01*
X210343750Y-50006250D02*
G75*
G02*
X207168750Y-50006250I-1587500J0D01*
G01*
X207168750Y-50006250D02*
G75*
G02*
X210343750Y-50006250I1587500J0D01*
G01*
X127078597Y-68999840D02*
G75*
G02*
X118983903Y-68999840I-4047347J0D01*
G01*
X118983903Y-68999840D02*
G75*
G02*
X127078597Y-68999840I4047347J0D01*
G01*
X54768750Y-30899840D02*
G75*
G02*
X48418750Y-30899840I-3175000J0D01*
G01*
X48418750Y-30899840D02*
G75*
G02*
X54768750Y-30899840I3175000J0D01*
G01*
X257231410Y-49949840D02*
G75*
G02*
X246006090Y-49949840I-5612660J0D01*
G01*
X246006090Y-49949840D02*
G75*
G02*
X257231410Y-49949840I5612660J0D01*
G01*
X59531250Y-88049840D02*
G75*
G02*
X53181250Y-88049840I-3175000J0D01*
G01*
X53181250Y-88049840D02*
G75*
G02*
X59531250Y-88049840I3175000J0D01*
G01*
X79453597Y-50006250D02*
G75*
G02*
X71358903Y-50006250I-4047347J0D01*
G01*
X71358903Y-50006250D02*
G75*
G02*
X79453597Y-50006250I4047347J0D01*
G01*
X113571943Y-30899840D02*
G75*
G02*
X103915557Y-30899840I-4828193J0D01*
G01*
X103915557Y-30899840D02*
G75*
G02*
X113571943Y-30899840I4828193J0D01*
G01*
X190556410Y-30899840D02*
G75*
G02*
X179331090Y-30899840I-5612660J0D01*
G01*
X179331090Y-30899840D02*
G75*
G02*
X190556410Y-30899840I5612660J0D01*
G01*
X69928597Y-68999840D02*
G75*
G02*
X61833903Y-68999840I-4047347J0D01*
G01*
X61833903Y-68999840D02*
G75*
G02*
X69928597Y-68999840I4047347J0D01*
G01*
X185793910Y-68999840D02*
G75*
G02*
X174568590Y-68999840I-5612660J0D01*
G01*
X174568590Y-68999840D02*
G75*
G02*
X185793910Y-68999840I5612660J0D01*
G01*
X112791097Y-30899840D02*
G75*
G02*
X104696403Y-30899840I-4047347J0D01*
G01*
X104696403Y-30899840D02*
G75*
G02*
X112791097Y-30899840I4047347J0D01*
G01*
X222328597Y-68999840D02*
G75*
G02*
X214233903Y-68999840I-4047347J0D01*
G01*
X214233903Y-68999840D02*
G75*
G02*
X222328597Y-68999840I4047347J0D01*
G01*
X204843910Y-68999840D02*
G75*
G02*
X193618590Y-68999840I-5612660J0D01*
G01*
X193618590Y-68999840D02*
G75*
G02*
X204843910Y-68999840I5612660J0D01*
G01*
X205581250Y-30899840D02*
G75*
G02*
X202406250Y-30899840I-1587500J0D01*
G01*
X202406250Y-30899840D02*
G75*
G02*
X205581250Y-30899840I1587500J0D01*
G01*
D11*
X161930393Y-59590958D02*
G75*
G02*
X160267893Y-59590958I-831250J0D01*
G01*
X160267893Y-59590958D02*
G75*
G02*
X161930393Y-59590958I831250J0D01*
G01*
D10*
X145256250Y-68999840D02*
G75*
G02*
X138906250Y-68999840I-3175000J0D01*
G01*
X138906250Y-68999840D02*
G75*
G02*
X145256250Y-68999840I3175000J0D01*
G01*
X168340693Y-88049840D02*
G75*
G02*
X158684307Y-88049840I-4828193J0D01*
G01*
X158684307Y-88049840D02*
G75*
G02*
X168340693Y-88049840I4828193J0D01*
G01*
X257968750Y-88049840D02*
G75*
G02*
X254793750Y-88049840I-1587500J0D01*
G01*
X254793750Y-88049840D02*
G75*
G02*
X257968750Y-88049840I1587500J0D01*
G01*
X119118910Y-50006250D02*
G75*
G02*
X107893590Y-50006250I-5612660J0D01*
G01*
X107893590Y-50006250D02*
G75*
G02*
X119118910Y-50006250I5612660J0D01*
G01*
X260428597Y-68999840D02*
G75*
G02*
X252333903Y-68999840I-4047347J0D01*
G01*
X252333903Y-68999840D02*
G75*
G02*
X260428597Y-68999840I4047347J0D01*
G01*
X203278597Y-68999840D02*
G75*
G02*
X195183903Y-68999840I-4047347J0D01*
G01*
X195183903Y-68999840D02*
G75*
G02*
X203278597Y-68999840I4047347J0D01*
G01*
X143668750Y-68999840D02*
G75*
G02*
X140493750Y-68999840I-1587500J0D01*
G01*
X140493750Y-68999840D02*
G75*
G02*
X143668750Y-68999840I1587500J0D01*
G01*
X83400160Y-88049840D02*
G75*
G02*
X72174840Y-88049840I-5612660J0D01*
G01*
X72174840Y-88049840D02*
G75*
G02*
X83400160Y-88049840I5612660J0D01*
G01*
X119062500Y-88049840D02*
G75*
G02*
X112712500Y-88049840I-3175000J0D01*
G01*
X112712500Y-88049840D02*
G75*
G02*
X119062500Y-88049840I3175000J0D01*
G01*
X126206250Y-68999840D02*
G75*
G02*
X119856250Y-68999840I-3175000J0D01*
G01*
X119856250Y-68999840D02*
G75*
G02*
X126206250Y-68999840I3175000J0D01*
G01*
X86518750Y-68999840D02*
G75*
G02*
X83343750Y-68999840I-1587500J0D01*
G01*
X83343750Y-68999840D02*
G75*
G02*
X86518750Y-68999840I1587500J0D01*
G01*
X164306250Y-68999840D02*
G75*
G02*
X157956250Y-68999840I-3175000J0D01*
G01*
X157956250Y-68999840D02*
G75*
G02*
X164306250Y-68999840I3175000J0D01*
G01*
X240506250Y-68999840D02*
G75*
G02*
X234156250Y-68999840I-3175000J0D01*
G01*
X234156250Y-68999840D02*
G75*
G02*
X240506250Y-68999840I3175000J0D01*
G01*
X253206250Y-49949840D02*
G75*
G02*
X250031250Y-49949840I-1587500J0D01*
G01*
X250031250Y-49949840D02*
G75*
G02*
X253206250Y-49949840I1587500J0D01*
G01*
X137384443Y-50006250D02*
G75*
G02*
X127728057Y-50006250I-4828193J0D01*
G01*
X127728057Y-50006250D02*
G75*
G02*
X137384443Y-50006250I4828193J0D01*
G01*
X211931250Y-50006250D02*
G75*
G02*
X205581250Y-50006250I-3175000J0D01*
G01*
X205581250Y-50006250D02*
G75*
G02*
X211931250Y-50006250I3175000J0D01*
G01*
X69056250Y-68999840D02*
G75*
G02*
X62706250Y-68999840I-3175000J0D01*
G01*
X62706250Y-68999840D02*
G75*
G02*
X69056250Y-68999840I3175000J0D01*
G01*
X39753193Y-50006250D02*
G75*
G02*
X30096807Y-50006250I-4828193J0D01*
G01*
X30096807Y-50006250D02*
G75*
G02*
X39753193Y-50006250I4828193J0D01*
G01*
X81018910Y-50006250D02*
G75*
G02*
X69793590Y-50006250I-5612660J0D01*
G01*
X69793590Y-50006250D02*
G75*
G02*
X81018910Y-50006250I5612660J0D01*
G01*
X41275000Y-69056250D02*
G75*
G02*
X38100000Y-69056250I-1587500J0D01*
G01*
X38100000Y-69056250D02*
G75*
G02*
X41275000Y-69056250I1587500J0D01*
G01*
X202462660Y-88171942D02*
G75*
G02*
X191237340Y-88171942I-5612660J0D01*
G01*
X191237340Y-88171942D02*
G75*
G02*
X202462660Y-88171942I5612660J0D01*
G01*
X198437500Y-88171942D02*
G75*
G02*
X195262500Y-88171942I-1587500J0D01*
G01*
X195262500Y-88171942D02*
G75*
G02*
X198437500Y-88171942I1587500J0D01*
G01*
X166687500Y-88049840D02*
G75*
G02*
X160337500Y-88049840I-3175000J0D01*
G01*
X160337500Y-88049840D02*
G75*
G02*
X166687500Y-88049840I3175000J0D01*
G01*
X200025000Y-88171942D02*
G75*
G02*
X193675000Y-88171942I-3175000J0D01*
G01*
X193675000Y-88171942D02*
G75*
G02*
X200025000Y-88171942I3175000J0D01*
G01*
D12*
X264185969Y-38381219D02*
X264138350Y-38476457D01*
X264138350Y-38476457D02*
X264043111Y-38524076D01*
X264043111Y-38524076D02*
X263185969Y-38524076D01*
X264185969Y-37857409D02*
X264138350Y-37952647D01*
X264138350Y-37952647D02*
X264090730Y-38000266D01*
X264090730Y-38000266D02*
X263995492Y-38047885D01*
X263995492Y-38047885D02*
X263709778Y-38047885D01*
X263709778Y-38047885D02*
X263614540Y-38000266D01*
X263614540Y-38000266D02*
X263566921Y-37952647D01*
X263566921Y-37952647D02*
X263519302Y-37857409D01*
X263519302Y-37857409D02*
X263519302Y-37714552D01*
X263519302Y-37714552D02*
X263566921Y-37619314D01*
X263566921Y-37619314D02*
X263614540Y-37571695D01*
X263614540Y-37571695D02*
X263709778Y-37524076D01*
X263709778Y-37524076D02*
X263995492Y-37524076D01*
X263995492Y-37524076D02*
X264090730Y-37571695D01*
X264090730Y-37571695D02*
X264138350Y-37619314D01*
X264138350Y-37619314D02*
X264185969Y-37714552D01*
X264185969Y-37714552D02*
X264185969Y-37857409D01*
X263519302Y-36666933D02*
X264328826Y-36666933D01*
X264328826Y-36666933D02*
X264424064Y-36714552D01*
X264424064Y-36714552D02*
X264471683Y-36762171D01*
X264471683Y-36762171D02*
X264519302Y-36857409D01*
X264519302Y-36857409D02*
X264519302Y-37000266D01*
X264519302Y-37000266D02*
X264471683Y-37095504D01*
X264138350Y-36666933D02*
X264185969Y-36762171D01*
X264185969Y-36762171D02*
X264185969Y-36952647D01*
X264185969Y-36952647D02*
X264138350Y-37047885D01*
X264138350Y-37047885D02*
X264090730Y-37095504D01*
X264090730Y-37095504D02*
X263995492Y-37143123D01*
X263995492Y-37143123D02*
X263709778Y-37143123D01*
X263709778Y-37143123D02*
X263614540Y-37095504D01*
X263614540Y-37095504D02*
X263566921Y-37047885D01*
X263566921Y-37047885D02*
X263519302Y-36952647D01*
X263519302Y-36952647D02*
X263519302Y-36762171D01*
X263519302Y-36762171D02*
X263566921Y-36666933D01*
X264185969Y-36047885D02*
X264138350Y-36143123D01*
X264138350Y-36143123D02*
X264090730Y-36190742D01*
X264090730Y-36190742D02*
X263995492Y-36238361D01*
X263995492Y-36238361D02*
X263709778Y-36238361D01*
X263709778Y-36238361D02*
X263614540Y-36190742D01*
X263614540Y-36190742D02*
X263566921Y-36143123D01*
X263566921Y-36143123D02*
X263519302Y-36047885D01*
X263519302Y-36047885D02*
X263519302Y-35905028D01*
X263519302Y-35905028D02*
X263566921Y-35809790D01*
X263566921Y-35809790D02*
X263614540Y-35762171D01*
X263614540Y-35762171D02*
X263709778Y-35714552D01*
X263709778Y-35714552D02*
X263995492Y-35714552D01*
X263995492Y-35714552D02*
X264090730Y-35762171D01*
X264090730Y-35762171D02*
X264138350Y-35809790D01*
X264138350Y-35809790D02*
X264185969Y-35905028D01*
X264185969Y-35905028D02*
X264185969Y-36047885D01*
X264185969Y-34524075D02*
X263185969Y-34524075D01*
X263566921Y-34524075D02*
X263519302Y-34428837D01*
X263519302Y-34428837D02*
X263519302Y-34238361D01*
X263519302Y-34238361D02*
X263566921Y-34143123D01*
X263566921Y-34143123D02*
X263614540Y-34095504D01*
X263614540Y-34095504D02*
X263709778Y-34047885D01*
X263709778Y-34047885D02*
X263995492Y-34047885D01*
X263995492Y-34047885D02*
X264090730Y-34095504D01*
X264090730Y-34095504D02*
X264138350Y-34143123D01*
X264138350Y-34143123D02*
X264185969Y-34238361D01*
X264185969Y-34238361D02*
X264185969Y-34428837D01*
X264185969Y-34428837D02*
X264138350Y-34524075D01*
X263519302Y-33714551D02*
X264185969Y-33476456D01*
X263519302Y-33238361D02*
X264185969Y-33476456D01*
X264185969Y-33476456D02*
X264424064Y-33571694D01*
X264424064Y-33571694D02*
X264471683Y-33619313D01*
X264471683Y-33619313D02*
X264519302Y-33714551D01*
X264138350Y-31666932D02*
X264185969Y-31762170D01*
X264185969Y-31762170D02*
X264185969Y-31952646D01*
X264185969Y-31952646D02*
X264138350Y-32047884D01*
X264138350Y-32047884D02*
X264090730Y-32095503D01*
X264090730Y-32095503D02*
X263995492Y-32143122D01*
X263995492Y-32143122D02*
X263709778Y-32143122D01*
X263709778Y-32143122D02*
X263614540Y-32095503D01*
X263614540Y-32095503D02*
X263566921Y-32047884D01*
X263566921Y-32047884D02*
X263519302Y-31952646D01*
X263519302Y-31952646D02*
X263519302Y-31762170D01*
X263519302Y-31762170D02*
X263566921Y-31666932D01*
X264185969Y-30809789D02*
X263662159Y-30809789D01*
X263662159Y-30809789D02*
X263566921Y-30857408D01*
X263566921Y-30857408D02*
X263519302Y-30952646D01*
X263519302Y-30952646D02*
X263519302Y-31143122D01*
X263519302Y-31143122D02*
X263566921Y-31238360D01*
X264138350Y-30809789D02*
X264185969Y-30905027D01*
X264185969Y-30905027D02*
X264185969Y-31143122D01*
X264185969Y-31143122D02*
X264138350Y-31238360D01*
X264138350Y-31238360D02*
X264043111Y-31285979D01*
X264043111Y-31285979D02*
X263947873Y-31285979D01*
X263947873Y-31285979D02*
X263852635Y-31238360D01*
X263852635Y-31238360D02*
X263805016Y-31143122D01*
X263805016Y-31143122D02*
X263805016Y-30905027D01*
X263805016Y-30905027D02*
X263757397Y-30809789D01*
X264185969Y-30190741D02*
X264138350Y-30285979D01*
X264138350Y-30285979D02*
X264043111Y-30333598D01*
X264043111Y-30333598D02*
X263185969Y-30333598D01*
X263519302Y-29381217D02*
X264185969Y-29381217D01*
X263519302Y-29809788D02*
X264043111Y-29809788D01*
X264043111Y-29809788D02*
X264138350Y-29762169D01*
X264138350Y-29762169D02*
X264185969Y-29666931D01*
X264185969Y-29666931D02*
X264185969Y-29524074D01*
X264185969Y-29524074D02*
X264138350Y-29428836D01*
X264138350Y-29428836D02*
X264090730Y-29381217D01*
X264185969Y-28905026D02*
X263519302Y-28905026D01*
X263614540Y-28905026D02*
X263566921Y-28857407D01*
X263566921Y-28857407D02*
X263519302Y-28762169D01*
X263519302Y-28762169D02*
X263519302Y-28619312D01*
X263519302Y-28619312D02*
X263566921Y-28524074D01*
X263566921Y-28524074D02*
X263662159Y-28476455D01*
X263662159Y-28476455D02*
X264185969Y-28476455D01*
X263662159Y-28476455D02*
X263566921Y-28428836D01*
X263566921Y-28428836D02*
X263519302Y-28333598D01*
X263519302Y-28333598D02*
X263519302Y-28190741D01*
X263519302Y-28190741D02*
X263566921Y-28095502D01*
X263566921Y-28095502D02*
X263662159Y-28047883D01*
X263662159Y-28047883D02*
X264185969Y-28047883D01*
X263519302Y-27666931D02*
X264185969Y-27476455D01*
X264185969Y-27476455D02*
X263709778Y-27285979D01*
X263709778Y-27285979D02*
X264185969Y-27095503D01*
X264185969Y-27095503D02*
X263519302Y-26905027D01*
X264185969Y-26524074D02*
X263519302Y-26524074D01*
X263709778Y-26524074D02*
X263614540Y-26476455D01*
X263614540Y-26476455D02*
X263566921Y-26428836D01*
X263566921Y-26428836D02*
X263519302Y-26333598D01*
X263519302Y-26333598D02*
X263519302Y-26238360D01*
X264185969Y-25905026D02*
X263519302Y-25905026D01*
X263185969Y-25905026D02*
X263233588Y-25952645D01*
X263233588Y-25952645D02*
X263281207Y-25905026D01*
X263281207Y-25905026D02*
X263233588Y-25857407D01*
X263233588Y-25857407D02*
X263185969Y-25905026D01*
X263185969Y-25905026D02*
X263281207Y-25905026D01*
D13*
X136784711Y-92527119D02*
X137118044Y-93527119D01*
X137118044Y-93527119D02*
X137451377Y-92527119D01*
X138308520Y-93527119D02*
X137737092Y-93527119D01*
X138022806Y-93527119D02*
X138022806Y-92527119D01*
X138022806Y-92527119D02*
X137927568Y-92669976D01*
X137927568Y-92669976D02*
X137832330Y-92765214D01*
X137832330Y-92765214D02*
X137737092Y-92812833D01*
X138737092Y-93431880D02*
X138784711Y-93479500D01*
X138784711Y-93479500D02*
X138737092Y-93527119D01*
X138737092Y-93527119D02*
X138689473Y-93479500D01*
X138689473Y-93479500D02*
X138737092Y-93431880D01*
X138737092Y-93431880D02*
X138737092Y-93527119D01*
X139737091Y-93527119D02*
X139165663Y-93527119D01*
X139451377Y-93527119D02*
X139451377Y-92527119D01*
X139451377Y-92527119D02*
X139356139Y-92669976D01*
X139356139Y-92669976D02*
X139260901Y-92765214D01*
X139260901Y-92765214D02*
X139165663Y-92812833D01*
D12*
X261931802Y-38524076D02*
X262931802Y-38524076D01*
X261979421Y-38524076D02*
X261931802Y-38428838D01*
X261931802Y-38428838D02*
X261931802Y-38238362D01*
X261931802Y-38238362D02*
X261979421Y-38143124D01*
X261979421Y-38143124D02*
X262027040Y-38095505D01*
X262027040Y-38095505D02*
X262122278Y-38047886D01*
X262122278Y-38047886D02*
X262407992Y-38047886D01*
X262407992Y-38047886D02*
X262503230Y-38095505D01*
X262503230Y-38095505D02*
X262550850Y-38143124D01*
X262550850Y-38143124D02*
X262598469Y-38238362D01*
X262598469Y-38238362D02*
X262598469Y-38428838D01*
X262598469Y-38428838D02*
X262550850Y-38524076D01*
X262550850Y-37190743D02*
X262598469Y-37285981D01*
X262598469Y-37285981D02*
X262598469Y-37476457D01*
X262598469Y-37476457D02*
X262550850Y-37571695D01*
X262550850Y-37571695D02*
X262503230Y-37619314D01*
X262503230Y-37619314D02*
X262407992Y-37666933D01*
X262407992Y-37666933D02*
X262122278Y-37666933D01*
X262122278Y-37666933D02*
X262027040Y-37619314D01*
X262027040Y-37619314D02*
X261979421Y-37571695D01*
X261979421Y-37571695D02*
X261931802Y-37476457D01*
X261931802Y-37476457D02*
X261931802Y-37285981D01*
X261931802Y-37285981D02*
X261979421Y-37190743D01*
X262598469Y-36762171D02*
X261598469Y-36762171D01*
X261979421Y-36762171D02*
X261931802Y-36666933D01*
X261931802Y-36666933D02*
X261931802Y-36476457D01*
X261931802Y-36476457D02*
X261979421Y-36381219D01*
X261979421Y-36381219D02*
X262027040Y-36333600D01*
X262027040Y-36333600D02*
X262122278Y-36285981D01*
X262122278Y-36285981D02*
X262407992Y-36285981D01*
X262407992Y-36285981D02*
X262503230Y-36333600D01*
X262503230Y-36333600D02*
X262550850Y-36381219D01*
X262550850Y-36381219D02*
X262598469Y-36476457D01*
X262598469Y-36476457D02*
X262598469Y-36666933D01*
X262598469Y-36666933D02*
X262550850Y-36762171D01*
X262598469Y-35095504D02*
X261598469Y-35095504D01*
X261979421Y-35095504D02*
X261931802Y-35000266D01*
X261931802Y-35000266D02*
X261931802Y-34809790D01*
X261931802Y-34809790D02*
X261979421Y-34714552D01*
X261979421Y-34714552D02*
X262027040Y-34666933D01*
X262027040Y-34666933D02*
X262122278Y-34619314D01*
X262122278Y-34619314D02*
X262407992Y-34619314D01*
X262407992Y-34619314D02*
X262503230Y-34666933D01*
X262503230Y-34666933D02*
X262550850Y-34714552D01*
X262550850Y-34714552D02*
X262598469Y-34809790D01*
X262598469Y-34809790D02*
X262598469Y-35000266D01*
X262598469Y-35000266D02*
X262550850Y-35095504D01*
X261931802Y-34285980D02*
X262598469Y-34047885D01*
X261931802Y-33809790D02*
X262598469Y-34047885D01*
X262598469Y-34047885D02*
X262836564Y-34143123D01*
X262836564Y-34143123D02*
X262884183Y-34190742D01*
X262884183Y-34190742D02*
X262931802Y-34285980D01*
X262503230Y-32095504D02*
X262550850Y-32143123D01*
X262550850Y-32143123D02*
X262598469Y-32285980D01*
X262598469Y-32285980D02*
X262598469Y-32381218D01*
X262598469Y-32381218D02*
X262550850Y-32524075D01*
X262550850Y-32524075D02*
X262455611Y-32619313D01*
X262455611Y-32619313D02*
X262360373Y-32666932D01*
X262360373Y-32666932D02*
X262169897Y-32714551D01*
X262169897Y-32714551D02*
X262027040Y-32714551D01*
X262027040Y-32714551D02*
X261836564Y-32666932D01*
X261836564Y-32666932D02*
X261741326Y-32619313D01*
X261741326Y-32619313D02*
X261646088Y-32524075D01*
X261646088Y-32524075D02*
X261598469Y-32381218D01*
X261598469Y-32381218D02*
X261598469Y-32285980D01*
X261598469Y-32285980D02*
X261646088Y-32143123D01*
X261646088Y-32143123D02*
X261693707Y-32095504D01*
X262598469Y-31238361D02*
X262074659Y-31238361D01*
X262074659Y-31238361D02*
X261979421Y-31285980D01*
X261979421Y-31285980D02*
X261931802Y-31381218D01*
X261931802Y-31381218D02*
X261931802Y-31571694D01*
X261931802Y-31571694D02*
X261979421Y-31666932D01*
X262550850Y-31238361D02*
X262598469Y-31333599D01*
X262598469Y-31333599D02*
X262598469Y-31571694D01*
X262598469Y-31571694D02*
X262550850Y-31666932D01*
X262550850Y-31666932D02*
X262455611Y-31714551D01*
X262455611Y-31714551D02*
X262360373Y-31714551D01*
X262360373Y-31714551D02*
X262265135Y-31666932D01*
X262265135Y-31666932D02*
X262217516Y-31571694D01*
X262217516Y-31571694D02*
X262217516Y-31333599D01*
X262217516Y-31333599D02*
X262169897Y-31238361D01*
X262598469Y-30619313D02*
X262550850Y-30714551D01*
X262550850Y-30714551D02*
X262455611Y-30762170D01*
X262455611Y-30762170D02*
X261598469Y-30762170D01*
X261931802Y-30333598D02*
X262598469Y-30095503D01*
X262598469Y-30095503D02*
X261931802Y-29857408D01*
X262598469Y-29476455D02*
X261931802Y-29476455D01*
X261598469Y-29476455D02*
X261646088Y-29524074D01*
X261646088Y-29524074D02*
X261693707Y-29476455D01*
X261693707Y-29476455D02*
X261646088Y-29428836D01*
X261646088Y-29428836D02*
X261598469Y-29476455D01*
X261598469Y-29476455D02*
X261693707Y-29476455D01*
X261931802Y-29000265D02*
X262598469Y-29000265D01*
X262027040Y-29000265D02*
X261979421Y-28952646D01*
X261979421Y-28952646D02*
X261931802Y-28857408D01*
X261931802Y-28857408D02*
X261931802Y-28714551D01*
X261931802Y-28714551D02*
X261979421Y-28619313D01*
X261979421Y-28619313D02*
X262074659Y-28571694D01*
X262074659Y-28571694D02*
X262598469Y-28571694D01*
X261598469Y-27905027D02*
X261598469Y-27809789D01*
X261598469Y-27809789D02*
X261646088Y-27714551D01*
X261646088Y-27714551D02*
X261693707Y-27666932D01*
X261693707Y-27666932D02*
X261788945Y-27619313D01*
X261788945Y-27619313D02*
X261979421Y-27571694D01*
X261979421Y-27571694D02*
X262217516Y-27571694D01*
X262217516Y-27571694D02*
X262407992Y-27619313D01*
X262407992Y-27619313D02*
X262503230Y-27666932D01*
X262503230Y-27666932D02*
X262550850Y-27714551D01*
X262550850Y-27714551D02*
X262598469Y-27809789D01*
X262598469Y-27809789D02*
X262598469Y-27905027D01*
X262598469Y-27905027D02*
X262550850Y-28000265D01*
X262550850Y-28000265D02*
X262503230Y-28047884D01*
X262503230Y-28047884D02*
X262407992Y-28095503D01*
X262407992Y-28095503D02*
X262217516Y-28143122D01*
X262217516Y-28143122D02*
X261979421Y-28143122D01*
X261979421Y-28143122D02*
X261788945Y-28095503D01*
X261788945Y-28095503D02*
X261693707Y-28047884D01*
X261693707Y-28047884D02*
X261646088Y-28000265D01*
X261646088Y-28000265D02*
X261598469Y-27905027D01*
X261598469Y-26666932D02*
X261598469Y-27143122D01*
X261598469Y-27143122D02*
X262074659Y-27190741D01*
X262074659Y-27190741D02*
X262027040Y-27143122D01*
X262027040Y-27143122D02*
X261979421Y-27047884D01*
X261979421Y-27047884D02*
X261979421Y-26809789D01*
X261979421Y-26809789D02*
X262027040Y-26714551D01*
X262027040Y-26714551D02*
X262074659Y-26666932D01*
X262074659Y-26666932D02*
X262169897Y-26619313D01*
X262169897Y-26619313D02*
X262407992Y-26619313D01*
X262407992Y-26619313D02*
X262503230Y-26666932D01*
X262503230Y-26666932D02*
X262550850Y-26714551D01*
X262550850Y-26714551D02*
X262598469Y-26809789D01*
X262598469Y-26809789D02*
X262598469Y-27047884D01*
X262598469Y-27047884D02*
X262550850Y-27143122D01*
X262550850Y-27143122D02*
X262503230Y-27190741D01*
X261598469Y-25762170D02*
X261598469Y-25952646D01*
X261598469Y-25952646D02*
X261646088Y-26047884D01*
X261646088Y-26047884D02*
X261693707Y-26095503D01*
X261693707Y-26095503D02*
X261836564Y-26190741D01*
X261836564Y-26190741D02*
X262027040Y-26238360D01*
X262027040Y-26238360D02*
X262407992Y-26238360D01*
X262407992Y-26238360D02*
X262503230Y-26190741D01*
X262503230Y-26190741D02*
X262550850Y-26143122D01*
X262550850Y-26143122D02*
X262598469Y-26047884D01*
X262598469Y-26047884D02*
X262598469Y-25857408D01*
X262598469Y-25857408D02*
X262550850Y-25762170D01*
X262550850Y-25762170D02*
X262503230Y-25714551D01*
X262503230Y-25714551D02*
X262407992Y-25666932D01*
X262407992Y-25666932D02*
X262169897Y-25666932D01*
X262169897Y-25666932D02*
X262074659Y-25714551D01*
X262074659Y-25714551D02*
X262027040Y-25762170D01*
X262027040Y-25762170D02*
X261979421Y-25857408D01*
X261979421Y-25857408D02*
X261979421Y-26047884D01*
X261979421Y-26047884D02*
X262027040Y-26143122D01*
X262027040Y-26143122D02*
X262074659Y-26190741D01*
X262074659Y-26190741D02*
X262169897Y-26238360D01*
X261598469Y-25333598D02*
X261598469Y-24714551D01*
X261598469Y-24714551D02*
X261979421Y-25047884D01*
X261979421Y-25047884D02*
X261979421Y-24905027D01*
X261979421Y-24905027D02*
X262027040Y-24809789D01*
X262027040Y-24809789D02*
X262074659Y-24762170D01*
X262074659Y-24762170D02*
X262169897Y-24714551D01*
X262169897Y-24714551D02*
X262407992Y-24714551D01*
X262407992Y-24714551D02*
X262503230Y-24762170D01*
X262503230Y-24762170D02*
X262550850Y-24809789D01*
X262550850Y-24809789D02*
X262598469Y-24905027D01*
X262598469Y-24905027D02*
X262598469Y-25190741D01*
X262598469Y-25190741D02*
X262550850Y-25285979D01*
X262550850Y-25285979D02*
X262503230Y-25333598D01*
D14*
%TO.C,SW_EC17*%
X119973250Y-50006250D02*
G75*
G02*
X107039250Y-50006250I-6467000J0D01*
G01*
X107039250Y-50006250D02*
G75*
G02*
X119973250Y-50006250I6467000J0D01*
G01*
%TO.C,SW_EC20*%
X177123250Y-50006250D02*
G75*
G02*
X164189250Y-50006250I-6467000J0D01*
G01*
X164189250Y-50006250D02*
G75*
G02*
X177123250Y-50006250I6467000J0D01*
G01*
%TO.C,SW_EC25*%
X46154500Y-69056250D02*
G75*
G02*
X33220500Y-69056250I-6467000J0D01*
G01*
X33220500Y-69056250D02*
G75*
G02*
X46154500Y-69056250I6467000J0D01*
G01*
%TO.C,SW_EC26*%
X72348250Y-69056250D02*
G75*
G02*
X59414250Y-69056250I-6467000J0D01*
G01*
X59414250Y-69056250D02*
G75*
G02*
X72348250Y-69056250I6467000J0D01*
G01*
%TO.C,SW_EC44*%
X224748250Y-88106250D02*
G75*
G02*
X211814250Y-88106250I-6467000J0D01*
G01*
X211814250Y-88106250D02*
G75*
G02*
X224748250Y-88106250I6467000J0D01*
G01*
%TO.C,SW_EC4*%
X96160750Y-30956250D02*
G75*
G02*
X83226750Y-30956250I-6467000J0D01*
G01*
X83226750Y-30956250D02*
G75*
G02*
X96160750Y-30956250I6467000J0D01*
G01*
%TO.C,SW_EC5*%
X115210750Y-30956250D02*
G75*
G02*
X102276750Y-30956250I-6467000J0D01*
G01*
X102276750Y-30956250D02*
G75*
G02*
X115210750Y-30956250I6467000J0D01*
G01*
%TO.C,SW_EC19*%
X158073250Y-50006250D02*
G75*
G02*
X145139250Y-50006250I-6467000J0D01*
G01*
X145139250Y-50006250D02*
G75*
G02*
X158073250Y-50006250I6467000J0D01*
G01*
%TO.C,SW_EC33*%
X205698250Y-69056250D02*
G75*
G02*
X192764250Y-69056250I-6467000J0D01*
G01*
X192764250Y-69056250D02*
G75*
G02*
X205698250Y-69056250I6467000J0D01*
G01*
%TO.C,SW_EC22*%
X215223250Y-50006250D02*
G75*
G02*
X202289250Y-50006250I-6467000J0D01*
G01*
X202289250Y-50006250D02*
G75*
G02*
X215223250Y-50006250I6467000J0D01*
G01*
%TO.C,SW_EC15*%
X81873250Y-50006250D02*
G75*
G02*
X68939250Y-50006250I-6467000J0D01*
G01*
X68939250Y-50006250D02*
G75*
G02*
X81873250Y-50006250I6467000J0D01*
G01*
%TO.C,SW_EC3*%
X77110750Y-30956250D02*
G75*
G02*
X64176750Y-30956250I-6467000J0D01*
G01*
X64176750Y-30956250D02*
G75*
G02*
X77110750Y-30956250I6467000J0D01*
G01*
%TO.C,SW_EC46*%
X262848250Y-88106250D02*
G75*
G02*
X249914250Y-88106250I-6467000J0D01*
G01*
X249914250Y-88106250D02*
G75*
G02*
X262848250Y-88106250I6467000J0D01*
G01*
%TO.C,SW_EC1*%
X39010750Y-30956250D02*
G75*
G02*
X26076750Y-30956250I-6467000J0D01*
G01*
X26076750Y-30956250D02*
G75*
G02*
X39010750Y-30956250I6467000J0D01*
G01*
D15*
%TO.C,SW1*%
X182026250Y-85501250D02*
X183356250Y-85501250D01*
X182026250Y-86831250D02*
X182026250Y-85501250D01*
X182026250Y-88101250D02*
X182026250Y-90701250D01*
X182026250Y-88101250D02*
X184686250Y-88101250D01*
X182026250Y-90701250D02*
X184686250Y-90701250D01*
X184686250Y-88101250D02*
X184686250Y-90701250D01*
D14*
%TO.C,SW_EC29*%
X129498250Y-69056250D02*
G75*
G02*
X116564250Y-69056250I-6467000J0D01*
G01*
X116564250Y-69056250D02*
G75*
G02*
X129498250Y-69056250I6467000J0D01*
G01*
%TO.C,SW_EC13*%
X41392000Y-50006250D02*
G75*
G02*
X28458000Y-50006250I-6467000J0D01*
G01*
X28458000Y-50006250D02*
G75*
G02*
X41392000Y-50006250I6467000J0D01*
G01*
%TO.C,SW_EC28*%
X110448250Y-69056250D02*
G75*
G02*
X97514250Y-69056250I-6467000J0D01*
G01*
X97514250Y-69056250D02*
G75*
G02*
X110448250Y-69056250I6467000J0D01*
G01*
%TO.C,SW_EC31*%
X167598250Y-69056250D02*
G75*
G02*
X154664250Y-69056250I-6467000J0D01*
G01*
X154664250Y-69056250D02*
G75*
G02*
X167598250Y-69056250I6467000J0D01*
G01*
D16*
%TO.C,G\u002A\u002A\u002A*%
G36*
X138400709Y-88109848D02*
G01*
X138481690Y-88136302D01*
X138497581Y-88174532D01*
X138450533Y-88214621D01*
X138354691Y-88244846D01*
X138233357Y-88257298D01*
X138116907Y-88251989D01*
X138035718Y-88228933D01*
X138019736Y-88214448D01*
X138020445Y-88159978D01*
X138089605Y-88120469D01*
X138216268Y-88101085D01*
X138262500Y-88099965D01*
X138400709Y-88109848D01*
G37*
G36*
X127434182Y-87768218D02*
G01*
X127422500Y-88078707D01*
X127055658Y-88090184D01*
X126881636Y-88094193D01*
X126771298Y-88091123D01*
X126708440Y-88078160D01*
X126676861Y-88052489D01*
X126663597Y-88022076D01*
X126666106Y-87919016D01*
X126717130Y-87793678D01*
X126803722Y-87675075D01*
X126829868Y-87649462D01*
X126963719Y-87561332D01*
X127133558Y-87492186D01*
X127296536Y-87458688D01*
X127322897Y-87457729D01*
X127445865Y-87457729D01*
X127434182Y-87768218D01*
G37*
G36*
X132325567Y-88187345D02*
G01*
X132381763Y-88217734D01*
X132380419Y-88273439D01*
X132351424Y-88375337D01*
X132319198Y-88458113D01*
X132232648Y-88659622D01*
X131997574Y-88659622D01*
X131858621Y-88654533D01*
X131784996Y-88636928D01*
X131762534Y-88603300D01*
X131762500Y-88601412D01*
X131783712Y-88502311D01*
X131836107Y-88377746D01*
X131902825Y-88266322D01*
X131916433Y-88248975D01*
X131986102Y-88209141D01*
X132097419Y-88184255D01*
X132220527Y-88176322D01*
X132325567Y-88187345D01*
G37*
G36*
X134565567Y-88187345D02*
G01*
X134621763Y-88217734D01*
X134620419Y-88273439D01*
X134591424Y-88375337D01*
X134559198Y-88458113D01*
X134472648Y-88659622D01*
X134237574Y-88659622D01*
X134098621Y-88654533D01*
X134024996Y-88636928D01*
X134002534Y-88603300D01*
X134002500Y-88601412D01*
X134023712Y-88502311D01*
X134076107Y-88377746D01*
X134142825Y-88266322D01*
X134156433Y-88248975D01*
X134226102Y-88209141D01*
X134337419Y-88184255D01*
X134460527Y-88176322D01*
X134565567Y-88187345D01*
G37*
G36*
X135063463Y-85775875D02*
G01*
X135728431Y-85776024D01*
X136324782Y-85776360D01*
X136856311Y-85776929D01*
X137326813Y-85777775D01*
X137740082Y-85778943D01*
X138099912Y-85780478D01*
X138410098Y-85782427D01*
X138674434Y-85784832D01*
X138896716Y-85787741D01*
X139080737Y-85791197D01*
X139230291Y-85795245D01*
X139349174Y-85799931D01*
X139441180Y-85805300D01*
X139510103Y-85811397D01*
X139559738Y-85818267D01*
X139593879Y-85825955D01*
X139616321Y-85834505D01*
X139630859Y-85843964D01*
X139635956Y-85848651D01*
X139680372Y-85919758D01*
X139720230Y-86041587D01*
X139755808Y-86217490D01*
X139787386Y-86450818D01*
X139815243Y-86744924D01*
X139839658Y-87103159D01*
X139860911Y-87528876D01*
X139879280Y-88025425D01*
X139895044Y-88596158D01*
X139905512Y-89084532D01*
X139911204Y-89425766D01*
X139914950Y-89748798D01*
X139916751Y-90043106D01*
X139916609Y-90298164D01*
X139914525Y-90503448D01*
X139910499Y-90648434D01*
X139905340Y-90717863D01*
X139866527Y-90860744D01*
X139791656Y-90956712D01*
X139666775Y-91016350D01*
X139477937Y-91050246D01*
X139465598Y-91051555D01*
X139330363Y-91071717D01*
X139260732Y-91100223D01*
X139242276Y-91139122D01*
X139203918Y-91355360D01*
X139099842Y-91556599D01*
X138944265Y-91731081D01*
X138751402Y-91867047D01*
X138535472Y-91952739D01*
X138310689Y-91976398D01*
X138239025Y-91968917D01*
X137974132Y-91891544D01*
X137760955Y-91753113D01*
X137600624Y-91554641D01*
X137494918Y-91299493D01*
X137429383Y-91063407D01*
X134019854Y-91063407D01*
X130610326Y-91063407D01*
X130606561Y-91052590D01*
X137826009Y-91052590D01*
X137846937Y-91235154D01*
X137918350Y-91378294D01*
X138063161Y-91524300D01*
X138233690Y-91602965D01*
X138415366Y-91610700D01*
X138592865Y-91544381D01*
X138750633Y-91409715D01*
X138846657Y-91244309D01*
X138875679Y-91063673D01*
X138832442Y-90883314D01*
X138823299Y-90864640D01*
X138701528Y-90702223D01*
X138542773Y-90597861D01*
X138363640Y-90557942D01*
X138180735Y-90588856D01*
X138145601Y-90603893D01*
X137980243Y-90720254D01*
X137872078Y-90875388D01*
X137826009Y-91052590D01*
X130606561Y-91052590D01*
X130566413Y-90937239D01*
X130535300Y-90825251D01*
X130522500Y-90734729D01*
X130511891Y-90688869D01*
X130466768Y-90669056D01*
X130367188Y-90668560D01*
X130332500Y-90670597D01*
X130217565Y-90681359D01*
X130159873Y-90705546D01*
X130136745Y-90760147D01*
X130129231Y-90822868D01*
X130108833Y-90932314D01*
X130077128Y-91009522D01*
X130074334Y-91013167D01*
X130045246Y-91026466D01*
X129978092Y-91037389D01*
X129866873Y-91046122D01*
X129705586Y-91052849D01*
X129488232Y-91057756D01*
X129208810Y-91061028D01*
X128861320Y-91062850D01*
X128445605Y-91063407D01*
X126858506Y-91063407D01*
X126810396Y-91296699D01*
X126724633Y-91537833D01*
X126582849Y-91738181D01*
X126397905Y-91890941D01*
X126182660Y-91989311D01*
X125949978Y-92026490D01*
X125712717Y-91995675D01*
X125582500Y-91946113D01*
X125467670Y-91885984D01*
X125375946Y-91829747D01*
X125357637Y-91816134D01*
X125236604Y-91681087D01*
X125133627Y-91501544D01*
X125067865Y-91313124D01*
X125058138Y-91259301D01*
X125035909Y-91091463D01*
X125410293Y-91091463D01*
X125419781Y-91248166D01*
X125472500Y-91375285D01*
X125601550Y-91536903D01*
X125775934Y-91635276D01*
X125957205Y-91664089D01*
X126073422Y-91655010D01*
X126163739Y-91616784D01*
X126262214Y-91533570D01*
X126283888Y-91512137D01*
X126416763Y-91339880D01*
X126470449Y-91166737D01*
X126445710Y-90989159D01*
X126412909Y-90913922D01*
X126292152Y-90754720D01*
X126136923Y-90655554D01*
X125963697Y-90616346D01*
X125788945Y-90637018D01*
X125629141Y-90717490D01*
X125500757Y-90857685D01*
X125467431Y-90918436D01*
X125410293Y-91091463D01*
X125035909Y-91091463D01*
X125032193Y-91063407D01*
X124834717Y-91063407D01*
X124663110Y-91051533D01*
X124549615Y-91008474D01*
X124474882Y-90923075D01*
X124435703Y-90833352D01*
X124415341Y-90731403D01*
X124400045Y-90565482D01*
X124389982Y-90351591D01*
X124385317Y-90105733D01*
X124386218Y-89843911D01*
X124388817Y-89741325D01*
X132684786Y-89741325D01*
X133078180Y-89741325D01*
X133471574Y-89741325D01*
X133546993Y-89573005D01*
X139344623Y-89573005D01*
X139345093Y-89642699D01*
X139356378Y-89851349D01*
X139388669Y-89990471D01*
X139446489Y-90068946D01*
X139534364Y-90095654D01*
X139575157Y-90094217D01*
X139702500Y-90081861D01*
X139702500Y-89725660D01*
X139696468Y-89522289D01*
X139674650Y-89389330D01*
X139631456Y-89317723D01*
X139561299Y-89298407D01*
X139458590Y-89322321D01*
X139454610Y-89323732D01*
X139395847Y-89349010D01*
X139362542Y-89385546D01*
X139347774Y-89453492D01*
X139344623Y-89573005D01*
X133546993Y-89573005D01*
X133579280Y-89500947D01*
X133686986Y-89260568D01*
X134134743Y-89260345D01*
X134401474Y-89255353D01*
X134602934Y-89238527D01*
X134709985Y-89215834D01*
X135089007Y-89215834D01*
X135105061Y-89240277D01*
X135157214Y-89253676D01*
X135259545Y-89259336D01*
X135426129Y-89260562D01*
X135450749Y-89260568D01*
X135828329Y-89260568D01*
X135960549Y-88978317D01*
X135979869Y-88942335D01*
X136989166Y-88942335D01*
X137023591Y-89078165D01*
X137112917Y-89185072D01*
X137216677Y-89233279D01*
X137283345Y-89238591D01*
X137415296Y-89242671D01*
X137597815Y-89245295D01*
X137816190Y-89246239D01*
X138022001Y-89245532D01*
X138741502Y-89240536D01*
X138829640Y-89060253D01*
X138887626Y-88939232D01*
X138918279Y-88853291D01*
X138912789Y-88796428D01*
X138862348Y-88762643D01*
X138758147Y-88745935D01*
X138591378Y-88740304D01*
X138359166Y-88739748D01*
X138126741Y-88738094D01*
X137965175Y-88732579D01*
X137865384Y-88722371D01*
X137818282Y-88706637D01*
X137812380Y-88689669D01*
X137850865Y-88665457D01*
X137952403Y-88646079D01*
X138122764Y-88630780D01*
X138347757Y-88619559D01*
X138597181Y-88606848D01*
X138780967Y-88586807D01*
X138913469Y-88553328D01*
X139009040Y-88500305D01*
X139082033Y-88421629D01*
X139146802Y-88311194D01*
X139166713Y-88271083D01*
X139241326Y-88068106D01*
X139258717Y-87892022D01*
X139218877Y-87754002D01*
X139167159Y-87693830D01*
X139124246Y-87665249D01*
X139068400Y-87644819D01*
X138986519Y-87631209D01*
X138865498Y-87623089D01*
X138692236Y-87619127D01*
X138453628Y-87617991D01*
X138420672Y-87617981D01*
X138149725Y-87619382D01*
X137945613Y-87625180D01*
X137795200Y-87637772D01*
X137685347Y-87659552D01*
X137602914Y-87692916D01*
X137534764Y-87740259D01*
X137482484Y-87789019D01*
X137424050Y-87870732D01*
X137348608Y-88008522D01*
X137264223Y-88183527D01*
X137178964Y-88376886D01*
X137100899Y-88569739D01*
X137038094Y-88743225D01*
X136998618Y-88878483D01*
X136989166Y-88942335D01*
X135979869Y-88942335D01*
X136049587Y-88812494D01*
X136148526Y-88690158D01*
X136273823Y-88600349D01*
X136441942Y-88532107D01*
X136669343Y-88474472D01*
X136738763Y-88460160D01*
X137055026Y-88396956D01*
X137188763Y-88078501D01*
X137249338Y-87930727D01*
X137295608Y-87811130D01*
X137320293Y-87738802D01*
X137322500Y-87727697D01*
X137287397Y-87709770D01*
X137194767Y-87711912D01*
X137063621Y-87730888D01*
X136912973Y-87763463D01*
X136761838Y-87806403D01*
X136672500Y-87838277D01*
X136537329Y-87887097D01*
X136466146Y-87896109D01*
X136450961Y-87860489D01*
X136483789Y-87775410D01*
X136503527Y-87736181D01*
X136564554Y-87617981D01*
X136153527Y-87618732D01*
X135742500Y-87619483D01*
X135429642Y-88356499D01*
X135332385Y-88587179D01*
X135245213Y-88796894D01*
X135173325Y-88972901D01*
X135121917Y-89102459D01*
X135096186Y-89172827D01*
X135094977Y-89177042D01*
X135089007Y-89215834D01*
X134709985Y-89215834D01*
X134753385Y-89206634D01*
X134867094Y-89156439D01*
X134958326Y-89084711D01*
X134972265Y-89070522D01*
X135029752Y-88988987D01*
X135105058Y-88852861D01*
X135190168Y-88680323D01*
X135277069Y-88489553D01*
X135357746Y-88298728D01*
X135424187Y-88126029D01*
X135468377Y-87989635D01*
X135482500Y-87913080D01*
X135454924Y-87817473D01*
X135388097Y-87720208D01*
X135383519Y-87715518D01*
X135284539Y-87616382D01*
X134435557Y-87627197D01*
X133586575Y-87638013D01*
X133234585Y-88459306D01*
X133125356Y-88714150D01*
X133020459Y-88958853D01*
X132926204Y-89178697D01*
X132848901Y-89358966D01*
X132794859Y-89484943D01*
X132783691Y-89510962D01*
X132684786Y-89741325D01*
X124388817Y-89741325D01*
X124392849Y-89582128D01*
X124405379Y-89336388D01*
X124414147Y-89228335D01*
X124676115Y-89228335D01*
X124677634Y-89383631D01*
X124691199Y-89528681D01*
X124716615Y-89641154D01*
X124752500Y-89698053D01*
X124892470Y-89737789D01*
X125036202Y-89698715D01*
X125097904Y-89657661D01*
X125193830Y-89560624D01*
X125263299Y-89459336D01*
X125302216Y-89341856D01*
X125319837Y-89200642D01*
X125315500Y-89065808D01*
X125288547Y-88967466D01*
X125274500Y-88948076D01*
X125209121Y-88921925D01*
X125093539Y-88905426D01*
X124957119Y-88899901D01*
X124829223Y-88906666D01*
X124745771Y-88924318D01*
X124709989Y-88976345D01*
X124686835Y-89085129D01*
X124676115Y-89228335D01*
X124414147Y-89228335D01*
X124418477Y-89174971D01*
X124443594Y-89000711D01*
X124487842Y-88864501D01*
X124562613Y-88754155D01*
X124679300Y-88657489D01*
X124849296Y-88562315D01*
X125083993Y-88456451D01*
X125094398Y-88452029D01*
X125310823Y-88353380D01*
X125489250Y-88252541D01*
X125641005Y-88137703D01*
X125685409Y-88091919D01*
X126490771Y-88091919D01*
X126530556Y-88160214D01*
X126552500Y-88175656D01*
X126614284Y-88188836D01*
X126742163Y-88199648D01*
X126923847Y-88208116D01*
X127147042Y-88214263D01*
X127399457Y-88218113D01*
X127668799Y-88219691D01*
X127942777Y-88219022D01*
X128209098Y-88216128D01*
X128455471Y-88211035D01*
X128669603Y-88203766D01*
X128839203Y-88194347D01*
X128951978Y-88182800D01*
X128994500Y-88170852D01*
X129011150Y-88114896D01*
X129024523Y-87993225D01*
X129034620Y-87820185D01*
X129041439Y-87610120D01*
X129044982Y-87377375D01*
X129045069Y-87298139D01*
X129642500Y-87298139D01*
X129680447Y-87315711D01*
X129786221Y-87328784D01*
X129947720Y-87336235D01*
X130066779Y-87337540D01*
X130262999Y-87339810D01*
X130389214Y-87347441D01*
X130455315Y-87361661D01*
X130471191Y-87383697D01*
X130469909Y-87387618D01*
X130448378Y-87437153D01*
X130399358Y-87549162D01*
X130327610Y-87712793D01*
X130237894Y-87917191D01*
X130134971Y-88151505D01*
X130065629Y-88309282D01*
X129957917Y-88555932D01*
X129861912Y-88778862D01*
X129782098Y-88967409D01*
X129722958Y-89110907D01*
X129688976Y-89198691D01*
X129682500Y-89220718D01*
X129720531Y-89238926D01*
X129826928Y-89252233D01*
X129990148Y-89259524D01*
X130095081Y-89260568D01*
X130507663Y-89260568D01*
X130633881Y-88969767D01*
X130844379Y-88969767D01*
X130864394Y-89073676D01*
X130924355Y-89149503D01*
X131018486Y-89205005D01*
X131088182Y-89226337D01*
X131193825Y-89241042D01*
X131346097Y-89249691D01*
X131555677Y-89252858D01*
X131833245Y-89251114D01*
X131869681Y-89250629D01*
X132131708Y-89246258D01*
X132326346Y-89240558D01*
X132466210Y-89232161D01*
X132563912Y-89219698D01*
X132632064Y-89201801D01*
X132683279Y-89177101D01*
X132709681Y-89159487D01*
X132778633Y-89084666D01*
X132867198Y-88952324D01*
X132966257Y-88779717D01*
X133066691Y-88584103D01*
X133159381Y-88382740D01*
X133235208Y-88192886D01*
X133261745Y-88114711D01*
X133298184Y-87926899D01*
X133272301Y-87786169D01*
X133182775Y-87687764D01*
X133136207Y-87662462D01*
X133056656Y-87645425D01*
X132906017Y-87632103D01*
X132693137Y-87622972D01*
X132426861Y-87618506D01*
X132310617Y-87618131D01*
X132010243Y-87618931D01*
X131777318Y-87626190D01*
X131599296Y-87647406D01*
X131463632Y-87690078D01*
X131357783Y-87761703D01*
X131269202Y-87869778D01*
X131185346Y-88021803D01*
X131093669Y-88225275D01*
X131024803Y-88386651D01*
X130924504Y-88636543D01*
X130864389Y-88827485D01*
X130844379Y-88969767D01*
X130633881Y-88969767D01*
X130924506Y-88300180D01*
X131341348Y-87339793D01*
X131834561Y-87328650D01*
X132327774Y-87317508D01*
X132465137Y-87005393D01*
X132527480Y-86861720D01*
X132575047Y-86748258D01*
X132600311Y-86683117D01*
X132602500Y-86674873D01*
X132564047Y-86670486D01*
X132454877Y-86666474D01*
X132284274Y-86662964D01*
X132061519Y-86660085D01*
X131795896Y-86657965D01*
X131496687Y-86656733D01*
X131271271Y-86656467D01*
X129940042Y-86656467D01*
X129791271Y-86957603D01*
X129722904Y-87100422D01*
X129671107Y-87217074D01*
X129644373Y-87288112D01*
X129642500Y-87298139D01*
X129045069Y-87298139D01*
X129045247Y-87136295D01*
X129042236Y-86901223D01*
X129035948Y-86686506D01*
X129026383Y-86506487D01*
X129013541Y-86375512D01*
X128997422Y-86307925D01*
X128994499Y-86303912D01*
X128935659Y-86284557D01*
X128814022Y-86270101D01*
X128646643Y-86260588D01*
X128450579Y-86256058D01*
X128242886Y-86256555D01*
X128040619Y-86262120D01*
X127860834Y-86272796D01*
X127720587Y-86288625D01*
X127662500Y-86300617D01*
X127527839Y-86364387D01*
X127383377Y-86485754D01*
X127226252Y-86668462D01*
X127053603Y-86916255D01*
X126862566Y-87232875D01*
X126650279Y-87622066D01*
X126646172Y-87629900D01*
X126547088Y-87835449D01*
X126495784Y-87986560D01*
X126490771Y-88091919D01*
X125685409Y-88091919D01*
X125777415Y-87997055D01*
X125909805Y-87818789D01*
X126049502Y-87591095D01*
X126207833Y-87302162D01*
X126220906Y-87277445D01*
X126411692Y-86922890D01*
X126576324Y-86633782D01*
X126720783Y-86402191D01*
X126851054Y-86220188D01*
X126973118Y-86079843D01*
X127092960Y-85973227D01*
X127216562Y-85892410D01*
X127296041Y-85852538D01*
X127320502Y-85842358D01*
X127349517Y-85833132D01*
X127386945Y-85824812D01*
X127436642Y-85817352D01*
X127502465Y-85810703D01*
X127588272Y-85804818D01*
X127697921Y-85799649D01*
X127835268Y-85795149D01*
X128004170Y-85791271D01*
X128208486Y-85787966D01*
X128452072Y-85785188D01*
X128738786Y-85782889D01*
X129072485Y-85781022D01*
X129457026Y-85779538D01*
X129896266Y-85778390D01*
X130394063Y-85777531D01*
X130954275Y-85776914D01*
X131580758Y-85776490D01*
X132277369Y-85776212D01*
X133047967Y-85776033D01*
X133512500Y-85775959D01*
X134326084Y-85775868D01*
X135063463Y-85775875D01*
G37*
D14*
%TO.C,SW_EC32*%
X186648250Y-69056250D02*
G75*
G02*
X173714250Y-69056250I-6467000J0D01*
G01*
X173714250Y-69056250D02*
G75*
G02*
X186648250Y-69056250I6467000J0D01*
G01*
%TO.C,SW_EC10*%
X210460750Y-30956250D02*
G75*
G02*
X197526750Y-30956250I-6467000J0D01*
G01*
X197526750Y-30956250D02*
G75*
G02*
X210460750Y-30956250I6467000J0D01*
G01*
%TO.C,SW_EC37*%
X41392000Y-88106250D02*
G75*
G02*
X28458000Y-88106250I-6467000J0D01*
G01*
X28458000Y-88106250D02*
G75*
G02*
X41392000Y-88106250I6467000J0D01*
G01*
%TO.C,SW_EC23*%
X234273250Y-50006250D02*
G75*
G02*
X221339250Y-50006250I-6467000J0D01*
G01*
X221339250Y-50006250D02*
G75*
G02*
X234273250Y-50006250I6467000J0D01*
G01*
%TO.C,SW_EC36*%
X262848250Y-69056250D02*
G75*
G02*
X249914250Y-69056250I-6467000J0D01*
G01*
X249914250Y-69056250D02*
G75*
G02*
X262848250Y-69056250I6467000J0D01*
G01*
%TO.C,SW_EC24*%
X258085750Y-50006250D02*
G75*
G02*
X245151750Y-50006250I-6467000J0D01*
G01*
X245151750Y-50006250D02*
G75*
G02*
X258085750Y-50006250I6467000J0D01*
G01*
%TO.C,SW_EC14*%
X62823250Y-50006250D02*
G75*
G02*
X49889250Y-50006250I-6467000J0D01*
G01*
X49889250Y-50006250D02*
G75*
G02*
X62823250Y-50006250I6467000J0D01*
G01*
%TO.C,SW_EC6*%
X134260750Y-30956250D02*
G75*
G02*
X121326750Y-30956250I-6467000J0D01*
G01*
X121326750Y-30956250D02*
G75*
G02*
X134260750Y-30956250I6467000J0D01*
G01*
%TO.C,SW_EC30*%
X148548250Y-69056250D02*
G75*
G02*
X135614250Y-69056250I-6467000J0D01*
G01*
X135614250Y-69056250D02*
G75*
G02*
X148548250Y-69056250I6467000J0D01*
G01*
%TO.C,SW_EC11*%
X229510750Y-30956250D02*
G75*
G02*
X216576750Y-30956250I-6467000J0D01*
G01*
X216576750Y-30956250D02*
G75*
G02*
X229510750Y-30956250I6467000J0D01*
G01*
%TO.C,SW_EC7*%
X153310750Y-30956250D02*
G75*
G02*
X140376750Y-30956250I-6467000J0D01*
G01*
X140376750Y-30956250D02*
G75*
G02*
X153310750Y-30956250I6467000J0D01*
G01*
%TO.C,SW_EC8*%
X172360750Y-30956250D02*
G75*
G02*
X159426750Y-30956250I-6467000J0D01*
G01*
X159426750Y-30956250D02*
G75*
G02*
X172360750Y-30956250I6467000J0D01*
G01*
%TO.C,SW_EC43*%
X203317000Y-88106250D02*
G75*
G02*
X190383000Y-88106250I-6467000J0D01*
G01*
X190383000Y-88106250D02*
G75*
G02*
X203317000Y-88106250I6467000J0D01*
G01*
%TO.C,SW_EC35*%
X243798250Y-69056250D02*
G75*
G02*
X230864250Y-69056250I-6467000J0D01*
G01*
X230864250Y-69056250D02*
G75*
G02*
X243798250Y-69056250I6467000J0D01*
G01*
%TO.C,SW_EC41*%
X155692000Y-88106250D02*
G75*
G02*
X142758000Y-88106250I-6467000J0D01*
G01*
X142758000Y-88106250D02*
G75*
G02*
X155692000Y-88106250I6467000J0D01*
G01*
%TO.C,SW_EC42*%
X169979500Y-88106250D02*
G75*
G02*
X157045500Y-88106250I-6467000J0D01*
G01*
X157045500Y-88106250D02*
G75*
G02*
X169979500Y-88106250I6467000J0D01*
G01*
%TO.C,SW_EC34*%
X224748250Y-69056250D02*
G75*
G02*
X211814250Y-69056250I-6467000J0D01*
G01*
X211814250Y-69056250D02*
G75*
G02*
X224748250Y-69056250I6467000J0D01*
G01*
%TO.C,SW_EC39*%
X84254500Y-88106250D02*
G75*
G02*
X71320500Y-88106250I-6467000J0D01*
G01*
X71320500Y-88106250D02*
G75*
G02*
X84254500Y-88106250I6467000J0D01*
G01*
%TO.C,SW_EC18*%
X139023250Y-50006250D02*
G75*
G02*
X126089250Y-50006250I-6467000J0D01*
G01*
X126089250Y-50006250D02*
G75*
G02*
X139023250Y-50006250I6467000J0D01*
G01*
%TO.C,SW_EC21*%
X196173250Y-50006250D02*
G75*
G02*
X183239250Y-50006250I-6467000J0D01*
G01*
X183239250Y-50006250D02*
G75*
G02*
X196173250Y-50006250I6467000J0D01*
G01*
%TO.C,SW_EC16*%
X100923250Y-50006250D02*
G75*
G02*
X87989250Y-50006250I-6467000J0D01*
G01*
X87989250Y-50006250D02*
G75*
G02*
X100923250Y-50006250I6467000J0D01*
G01*
%TO.C,SW_EC27*%
X91398250Y-69056250D02*
G75*
G02*
X78464250Y-69056250I-6467000J0D01*
G01*
X78464250Y-69056250D02*
G75*
G02*
X91398250Y-69056250I6467000J0D01*
G01*
%TO.C,SW_EC38*%
X62823250Y-88106250D02*
G75*
G02*
X49889250Y-88106250I-6467000J0D01*
G01*
X49889250Y-88106250D02*
G75*
G02*
X62823250Y-88106250I6467000J0D01*
G01*
%TO.C,SW_EC9*%
X191410750Y-30956250D02*
G75*
G02*
X178476750Y-30956250I-6467000J0D01*
G01*
X178476750Y-30956250D02*
G75*
G02*
X191410750Y-30956250I6467000J0D01*
G01*
%TO.C,SW_EC45*%
X243798250Y-88106250D02*
G75*
G02*
X230864250Y-88106250I-6467000J0D01*
G01*
X230864250Y-88106250D02*
G75*
G02*
X243798250Y-88106250I6467000J0D01*
G01*
%TO.C,SW_EC2*%
X58060750Y-30956250D02*
G75*
G02*
X45126750Y-30956250I-6467000J0D01*
G01*
X45126750Y-30956250D02*
G75*
G02*
X58060750Y-30956250I6467000J0D01*
G01*
%TO.C,SW_EC12*%
X255704500Y-30956250D02*
G75*
G02*
X242770500Y-30956250I-6467000J0D01*
G01*
X242770500Y-30956250D02*
G75*
G02*
X255704500Y-30956250I6467000J0D01*
G01*
%TO.C,SW_EC40*%
X122354500Y-88106250D02*
G75*
G02*
X109420500Y-88106250I-6467000J0D01*
G01*
X109420500Y-88106250D02*
G75*
G02*
X122354500Y-88106250I6467000J0D01*
G01*
%TD*%
D17*
%TO.C,H3*%
X156368750Y-30956250D03*
%TD*%
%TO.C,H18*%
X68262500Y-88106250D03*
%TD*%
%TO.C,H22*%
X246856250Y-88106250D03*
%TD*%
%TO.C,H9*%
X142081250Y-50006250D03*
%TD*%
%TO.C,H4*%
X213518750Y-30956250D03*
%TD*%
%TO.C,H15*%
X208756250Y-69056250D03*
%TD*%
%TO.C,H14*%
X151606250Y-69056250D03*
%TD*%
%TO.C,H12*%
X30162500Y-69056250D03*
%TD*%
%TO.C,H21*%
X208756250Y-88106250D03*
%TD*%
%TO.C,H20*%
X187325000Y-88106250D03*
%TD*%
%TO.C,H16*%
X246856250Y-69056250D03*
%TD*%
%TO.C,H13*%
X94456250Y-69056250D03*
%TD*%
%TO.C,H5*%
X258762500Y-30956250D03*
%TD*%
%TO.C,H7*%
X65881250Y-50006250D03*
%TD*%
%TO.C,H6*%
X25400000Y-50006250D03*
%TD*%
%TO.C,H10*%
X199231250Y-50006250D03*
%TD*%
%TO.C,H17*%
X44450000Y-88106250D03*
%TD*%
%TO.C,H1*%
X42068750Y-30956250D03*
%TD*%
%TO.C,H19*%
X89693750Y-88106250D03*
%TD*%
%TO.C,H8*%
X103981250Y-50006250D03*
%TD*%
%TO.C,H11*%
X242093750Y-50006250D03*
%TD*%
%TO.C,H2*%
X99218750Y-30956250D03*
%TD*%
M02*
