%TF.GenerationSoftware,KiCad,Pcbnew,8.0.5*%
%TF.CreationDate,2024-11-17T18:39:50+01:00*%
%TF.ProjectId,plate tray split,706c6174-6520-4747-9261-792073706c69,rev?*%
%TF.SameCoordinates,Original*%
%TF.FileFunction,Copper,L1,Top*%
%TF.FilePolarity,Positive*%
%FSLAX46Y46*%
G04 Gerber Fmt 4.6, Leading zero omitted, Abs format (unit mm)*
G04 Created by KiCad (PCBNEW 8.0.5) date 2024-11-17 18:39:50*
%MOMM*%
%LPD*%
G01*
G04 APERTURE LIST*
G04 APERTURE END LIST*
%TA.AperFunction,Conductor*%
%TO.N,GND*%
G36*
X263156898Y-21431762D02*
G01*
X263161773Y-21431830D01*
X263318309Y-21434026D01*
X263330433Y-21434793D01*
X263652046Y-21471034D01*
X263665729Y-21473358D01*
X263980428Y-21545190D01*
X263993763Y-21549032D01*
X264298428Y-21655642D01*
X264311258Y-21660957D01*
X264468989Y-21736917D01*
X264602060Y-21801002D01*
X264614230Y-21807728D01*
X264793567Y-21920413D01*
X264887501Y-21979436D01*
X264887521Y-21979448D01*
X264898862Y-21987495D01*
X265151207Y-22188734D01*
X265161575Y-22198000D01*
X265389795Y-22426221D01*
X265399061Y-22436589D01*
X265600301Y-22688934D01*
X265608347Y-22700274D01*
X265780066Y-22973560D01*
X265786793Y-22985730D01*
X265926839Y-23276531D01*
X265932160Y-23289378D01*
X266038761Y-23594018D01*
X266042611Y-23607380D01*
X266114437Y-23922053D01*
X266116766Y-23935762D01*
X266153005Y-24257349D01*
X266153773Y-24269498D01*
X266156033Y-24430893D01*
X266156045Y-24432629D01*
X266156045Y-94630765D01*
X266156033Y-94632505D01*
X266153768Y-94793905D01*
X266153000Y-94806050D01*
X266116761Y-95127638D01*
X266114432Y-95141347D01*
X266042606Y-95456018D01*
X266038756Y-95469380D01*
X265932154Y-95774022D01*
X265926833Y-95786869D01*
X265786789Y-96077667D01*
X265780062Y-96089837D01*
X265608344Y-96363120D01*
X265600298Y-96374460D01*
X265399057Y-96626807D01*
X265389791Y-96637175D01*
X265161571Y-96865395D01*
X265151203Y-96874661D01*
X264898855Y-97075902D01*
X264887515Y-97083948D01*
X264614232Y-97255665D01*
X264602061Y-97262392D01*
X264311263Y-97402435D01*
X264298417Y-97407756D01*
X263993774Y-97514358D01*
X263980412Y-97518208D01*
X263665741Y-97590033D01*
X263652032Y-97592362D01*
X263330442Y-97628600D01*
X263318302Y-97629368D01*
X263160300Y-97631591D01*
X263156896Y-97631639D01*
X263155153Y-97631651D01*
X25769632Y-97631651D01*
X25767894Y-97631639D01*
X25606493Y-97629376D01*
X25594347Y-97628608D01*
X25272757Y-97592373D01*
X25259049Y-97590044D01*
X24944383Y-97518224D01*
X24931020Y-97514375D01*
X24626363Y-97407771D01*
X24613516Y-97402449D01*
X24322724Y-97262411D01*
X24310554Y-97255685D01*
X24037263Y-97083965D01*
X24025922Y-97075918D01*
X23773576Y-96874679D01*
X23763208Y-96865413D01*
X23534986Y-96637191D01*
X23525720Y-96626823D01*
X23324481Y-96374477D01*
X23316434Y-96363136D01*
X23144714Y-96089845D01*
X23137988Y-96077675D01*
X22997950Y-95786883D01*
X22992628Y-95774036D01*
X22992623Y-95774022D01*
X22886022Y-95469375D01*
X22882175Y-95456016D01*
X22810355Y-95141350D01*
X22808026Y-95127642D01*
X22805616Y-95106249D01*
X22771790Y-94806039D01*
X22771023Y-94793918D01*
X22768764Y-94632505D01*
X22768752Y-94630771D01*
X22768752Y-82106249D01*
X27625000Y-82106249D01*
X27625000Y-82106250D01*
X27625000Y-94106250D01*
X28625000Y-95106250D01*
X41225000Y-95106250D01*
X42225000Y-94106250D01*
X42225000Y-88106250D01*
X43324915Y-88106250D01*
X43345247Y-88319174D01*
X43405507Y-88524402D01*
X43455716Y-88621794D01*
X43503520Y-88714521D01*
X43635735Y-88882645D01*
X43635743Y-88882653D01*
X43797387Y-89022717D01*
X43982619Y-89129661D01*
X43982620Y-89129661D01*
X43982623Y-89129663D01*
X44184751Y-89199621D01*
X44396466Y-89230061D01*
X44610116Y-89219883D01*
X44817979Y-89169456D01*
X45012543Y-89080602D01*
X45186774Y-88956533D01*
X45334377Y-88801731D01*
X45450015Y-88621794D01*
X45529511Y-88423223D01*
X45569991Y-88213196D01*
X45572532Y-88106250D01*
X45569991Y-87999304D01*
X45529511Y-87789277D01*
X45450015Y-87590706D01*
X45334377Y-87410769D01*
X45186774Y-87255967D01*
X45012543Y-87131898D01*
X45012541Y-87131897D01*
X45012542Y-87131897D01*
X44905116Y-87082838D01*
X44817979Y-87043044D01*
X44610116Y-86992617D01*
X44396466Y-86982439D01*
X44396465Y-86982439D01*
X44396464Y-86982439D01*
X44396463Y-86982439D01*
X44184749Y-87012879D01*
X43982619Y-87082838D01*
X43797388Y-87189782D01*
X43797387Y-87189782D01*
X43635743Y-87329846D01*
X43635735Y-87329854D01*
X43503520Y-87497978D01*
X43455716Y-87590706D01*
X43405507Y-87688098D01*
X43345247Y-87893326D01*
X43324915Y-88106250D01*
X42225000Y-88106250D01*
X42225000Y-82106250D01*
X42224999Y-82106249D01*
X49056250Y-82106249D01*
X49056250Y-82106250D01*
X49056250Y-94106250D01*
X50056250Y-95106250D01*
X62656250Y-95106250D01*
X63656250Y-94106250D01*
X63656250Y-88106250D01*
X67137415Y-88106250D01*
X67157747Y-88319174D01*
X67218007Y-88524402D01*
X67268216Y-88621794D01*
X67316020Y-88714521D01*
X67448235Y-88882645D01*
X67448243Y-88882653D01*
X67609887Y-89022717D01*
X67795119Y-89129661D01*
X67795120Y-89129661D01*
X67795123Y-89129663D01*
X67997251Y-89199621D01*
X68208966Y-89230061D01*
X68422616Y-89219883D01*
X68630479Y-89169456D01*
X68825043Y-89080602D01*
X68999274Y-88956533D01*
X69146877Y-88801731D01*
X69262515Y-88621794D01*
X69342011Y-88423223D01*
X69382491Y-88213196D01*
X69385032Y-88106250D01*
X69382491Y-87999304D01*
X69342011Y-87789277D01*
X69262515Y-87590706D01*
X69146877Y-87410769D01*
X68999274Y-87255967D01*
X68825043Y-87131898D01*
X68825041Y-87131897D01*
X68825042Y-87131897D01*
X68717616Y-87082838D01*
X68630479Y-87043044D01*
X68422616Y-86992617D01*
X68208966Y-86982439D01*
X68208965Y-86982439D01*
X68208964Y-86982439D01*
X68208963Y-86982439D01*
X67997249Y-87012879D01*
X67795119Y-87082838D01*
X67609888Y-87189782D01*
X67609887Y-87189782D01*
X67448243Y-87329846D01*
X67448235Y-87329854D01*
X67316020Y-87497978D01*
X67268216Y-87590706D01*
X67218007Y-87688098D01*
X67157747Y-87893326D01*
X67137415Y-88106250D01*
X63656250Y-88106250D01*
X63656250Y-82106250D01*
X63656249Y-82106249D01*
X70487500Y-82106249D01*
X70487500Y-82106250D01*
X70487500Y-94106250D01*
X71487500Y-95106250D01*
X84087500Y-95106250D01*
X85087500Y-94106250D01*
X85087500Y-88106250D01*
X88568665Y-88106250D01*
X88588997Y-88319174D01*
X88649257Y-88524402D01*
X88699466Y-88621794D01*
X88747270Y-88714521D01*
X88879485Y-88882645D01*
X88879493Y-88882653D01*
X89041137Y-89022717D01*
X89226369Y-89129661D01*
X89226370Y-89129661D01*
X89226373Y-89129663D01*
X89428501Y-89199621D01*
X89640216Y-89230061D01*
X89853866Y-89219883D01*
X90061729Y-89169456D01*
X90256293Y-89080602D01*
X90430524Y-88956533D01*
X90578127Y-88801731D01*
X90693765Y-88621794D01*
X90773261Y-88423223D01*
X90813741Y-88213196D01*
X90816282Y-88106250D01*
X99887500Y-88106250D01*
X99887500Y-93606250D01*
X99887501Y-93606251D01*
X102887499Y-95106250D01*
X128887500Y-95106250D01*
X128887501Y-95106250D01*
X131887498Y-93606251D01*
X131887500Y-93606250D01*
X131887500Y-88106250D01*
X147512500Y-88106250D01*
X147512500Y-93606250D01*
X147512501Y-93606251D01*
X150512499Y-95106250D01*
X176512500Y-95106250D01*
X176512501Y-95106250D01*
X179512498Y-93606251D01*
X179512500Y-93606250D01*
X179512500Y-91151781D01*
X181559133Y-91151781D01*
X185202687Y-91151781D01*
X185202687Y-88106250D01*
X186199915Y-88106250D01*
X186220247Y-88319174D01*
X186280507Y-88524402D01*
X186330716Y-88621794D01*
X186378520Y-88714521D01*
X186510735Y-88882645D01*
X186510743Y-88882653D01*
X186672387Y-89022717D01*
X186857619Y-89129661D01*
X186857620Y-89129661D01*
X186857623Y-89129663D01*
X187059751Y-89199621D01*
X187271466Y-89230061D01*
X187485116Y-89219883D01*
X187692979Y-89169456D01*
X187887543Y-89080602D01*
X188061774Y-88956533D01*
X188209377Y-88801731D01*
X188325015Y-88621794D01*
X188404511Y-88423223D01*
X188444991Y-88213196D01*
X188447532Y-88106250D01*
X207631165Y-88106250D01*
X207651497Y-88319174D01*
X207711757Y-88524402D01*
X207761966Y-88621794D01*
X207809770Y-88714521D01*
X207941985Y-88882645D01*
X207941993Y-88882653D01*
X208103637Y-89022717D01*
X208288869Y-89129661D01*
X208288870Y-89129661D01*
X208288873Y-89129663D01*
X208491001Y-89199621D01*
X208702716Y-89230061D01*
X208916366Y-89219883D01*
X209124229Y-89169456D01*
X209318793Y-89080602D01*
X209493024Y-88956533D01*
X209640627Y-88801731D01*
X209756265Y-88621794D01*
X209835761Y-88423223D01*
X209876241Y-88213196D01*
X209878782Y-88106250D01*
X209876241Y-87999304D01*
X209835761Y-87789277D01*
X209756265Y-87590706D01*
X209640627Y-87410769D01*
X209493024Y-87255967D01*
X209318793Y-87131898D01*
X209318791Y-87131897D01*
X209318792Y-87131897D01*
X209211366Y-87082838D01*
X209124229Y-87043044D01*
X208916366Y-86992617D01*
X208702716Y-86982439D01*
X208702715Y-86982439D01*
X208702714Y-86982439D01*
X208702713Y-86982439D01*
X208490999Y-87012879D01*
X208288869Y-87082838D01*
X208103638Y-87189782D01*
X208103637Y-87189782D01*
X207941993Y-87329846D01*
X207941985Y-87329854D01*
X207809770Y-87497978D01*
X207761966Y-87590706D01*
X207711757Y-87688098D01*
X207651497Y-87893326D01*
X207631165Y-88106250D01*
X188447532Y-88106250D01*
X188444991Y-87999304D01*
X188404511Y-87789277D01*
X188325015Y-87590706D01*
X188209377Y-87410769D01*
X188061774Y-87255967D01*
X187887543Y-87131898D01*
X187887541Y-87131897D01*
X187887542Y-87131897D01*
X187780116Y-87082838D01*
X187692979Y-87043044D01*
X187485116Y-86992617D01*
X187271466Y-86982439D01*
X187271465Y-86982439D01*
X187271464Y-86982439D01*
X187271463Y-86982439D01*
X187059749Y-87012879D01*
X186857619Y-87082838D01*
X186672388Y-87189782D01*
X186672387Y-87189782D01*
X186510743Y-87329846D01*
X186510735Y-87329854D01*
X186378520Y-87497978D01*
X186330716Y-87590706D01*
X186280507Y-87688098D01*
X186220247Y-87893326D01*
X186199915Y-88106250D01*
X185202687Y-88106250D01*
X185202687Y-85023727D01*
X181559133Y-85023727D01*
X181559133Y-91151781D01*
X179512500Y-91151781D01*
X179512500Y-88106250D01*
X179512500Y-82106249D01*
X210981250Y-82106249D01*
X210981250Y-82106250D01*
X210981250Y-94106250D01*
X211981250Y-95106250D01*
X224581250Y-95106250D01*
X225581250Y-94106250D01*
X225581250Y-82106250D01*
X225581249Y-82106249D01*
X230031250Y-82106249D01*
X230031250Y-82106250D01*
X230031250Y-94106250D01*
X231031250Y-95106250D01*
X243631250Y-95106250D01*
X244631250Y-94106250D01*
X244631250Y-88106250D01*
X245731165Y-88106250D01*
X245751497Y-88319174D01*
X245811757Y-88524402D01*
X245861966Y-88621794D01*
X245909770Y-88714521D01*
X246041985Y-88882645D01*
X246041993Y-88882653D01*
X246203637Y-89022717D01*
X246388869Y-89129661D01*
X246388870Y-89129661D01*
X246388873Y-89129663D01*
X246591001Y-89199621D01*
X246802716Y-89230061D01*
X247016366Y-89219883D01*
X247224229Y-89169456D01*
X247418793Y-89080602D01*
X247593024Y-88956533D01*
X247740627Y-88801731D01*
X247856265Y-88621794D01*
X247935761Y-88423223D01*
X247976241Y-88213196D01*
X247978782Y-88106250D01*
X247976241Y-87999304D01*
X247935761Y-87789277D01*
X247856265Y-87590706D01*
X247740627Y-87410769D01*
X247593024Y-87255967D01*
X247418793Y-87131898D01*
X247418791Y-87131897D01*
X247418792Y-87131897D01*
X247311366Y-87082838D01*
X247224229Y-87043044D01*
X247016366Y-86992617D01*
X246802716Y-86982439D01*
X246802715Y-86982439D01*
X246802714Y-86982439D01*
X246802713Y-86982439D01*
X246590999Y-87012879D01*
X246388869Y-87082838D01*
X246203638Y-87189782D01*
X246203637Y-87189782D01*
X246041993Y-87329846D01*
X246041985Y-87329854D01*
X245909770Y-87497978D01*
X245861966Y-87590706D01*
X245811757Y-87688098D01*
X245751497Y-87893326D01*
X245731165Y-88106250D01*
X244631250Y-88106250D01*
X244631250Y-82106250D01*
X244631249Y-82106249D01*
X249081250Y-82106249D01*
X249081250Y-82106250D01*
X249081250Y-94106250D01*
X250081250Y-95106250D01*
X262681250Y-95106250D01*
X263681250Y-94106250D01*
X263681250Y-82106250D01*
X262681250Y-81106250D01*
X250081249Y-81106250D01*
X249081250Y-82106249D01*
X244631249Y-82106249D01*
X243631250Y-81106250D01*
X231031249Y-81106250D01*
X230031250Y-82106249D01*
X225581249Y-82106249D01*
X224581250Y-81106250D01*
X211981249Y-81106250D01*
X210981250Y-82106249D01*
X179512500Y-82106249D01*
X179512500Y-81106250D01*
X147512500Y-81106250D01*
X147512500Y-88106250D01*
X131887500Y-88106250D01*
X131887500Y-81106250D01*
X99887500Y-81106250D01*
X99887500Y-88106250D01*
X90816282Y-88106250D01*
X90813741Y-87999304D01*
X90773261Y-87789277D01*
X90693765Y-87590706D01*
X90578127Y-87410769D01*
X90430524Y-87255967D01*
X90256293Y-87131898D01*
X90256291Y-87131897D01*
X90256292Y-87131897D01*
X90148866Y-87082838D01*
X90061729Y-87043044D01*
X89853866Y-86992617D01*
X89640216Y-86982439D01*
X89640215Y-86982439D01*
X89640214Y-86982439D01*
X89640213Y-86982439D01*
X89428499Y-87012879D01*
X89226369Y-87082838D01*
X89041138Y-87189782D01*
X89041137Y-87189782D01*
X88879493Y-87329846D01*
X88879485Y-87329854D01*
X88747270Y-87497978D01*
X88699466Y-87590706D01*
X88649257Y-87688098D01*
X88588997Y-87893326D01*
X88568665Y-88106250D01*
X85087500Y-88106250D01*
X85087500Y-82106250D01*
X84087500Y-81106250D01*
X71487499Y-81106250D01*
X70487500Y-82106249D01*
X63656249Y-82106249D01*
X62656250Y-81106250D01*
X50056249Y-81106250D01*
X49056250Y-82106249D01*
X42224999Y-82106249D01*
X41225000Y-81106250D01*
X28624999Y-81106250D01*
X27625000Y-82106249D01*
X22768752Y-82106249D01*
X22768752Y-69056250D01*
X29037415Y-69056250D01*
X29057747Y-69269174D01*
X29118007Y-69474402D01*
X29168216Y-69571794D01*
X29216020Y-69664521D01*
X29348235Y-69832645D01*
X29348243Y-69832653D01*
X29509887Y-69972717D01*
X29695119Y-70079661D01*
X29695120Y-70079661D01*
X29695123Y-70079663D01*
X29897251Y-70149621D01*
X30108966Y-70180061D01*
X30322616Y-70169883D01*
X30530479Y-70119456D01*
X30725043Y-70030602D01*
X30899274Y-69906533D01*
X31046877Y-69751731D01*
X31162515Y-69571794D01*
X31242011Y-69373223D01*
X31282491Y-69163196D01*
X31285032Y-69056250D01*
X31282491Y-68949304D01*
X31242011Y-68739277D01*
X31162515Y-68540706D01*
X31046877Y-68360769D01*
X30899274Y-68205967D01*
X30725043Y-68081898D01*
X30725041Y-68081897D01*
X30725042Y-68081897D01*
X30617616Y-68032838D01*
X30530479Y-67993044D01*
X30322616Y-67942617D01*
X30108966Y-67932439D01*
X30108965Y-67932439D01*
X30108964Y-67932439D01*
X30108963Y-67932439D01*
X29897249Y-67962879D01*
X29695119Y-68032838D01*
X29509888Y-68139782D01*
X29509887Y-68139782D01*
X29348243Y-68279846D01*
X29348235Y-68279854D01*
X29216020Y-68447978D01*
X29168216Y-68540706D01*
X29118007Y-68638098D01*
X29057747Y-68843326D01*
X29037415Y-69056250D01*
X22768752Y-69056250D01*
X22768752Y-63056249D01*
X32387500Y-63056249D01*
X32387500Y-63056250D01*
X32387500Y-75056250D01*
X33387500Y-76056250D01*
X45987500Y-76056250D01*
X46978292Y-75065458D01*
X50121261Y-75065458D01*
X50121261Y-75397844D01*
X50161325Y-75727805D01*
X50221849Y-75973362D01*
X50240871Y-76050537D01*
X50358737Y-76361322D01*
X50460185Y-76554613D01*
X50513203Y-76655630D01*
X50513206Y-76655634D01*
X50513207Y-76655636D01*
X50702016Y-76929175D01*
X50702021Y-76929181D01*
X50922429Y-77177971D01*
X50922431Y-77177973D01*
X51171221Y-77398381D01*
X51171227Y-77398386D01*
X51386339Y-77546866D01*
X51444773Y-77587200D01*
X51629331Y-77684063D01*
X51739080Y-77741665D01*
X52049865Y-77859531D01*
X52049867Y-77859531D01*
X52049871Y-77859533D01*
X52372598Y-77939078D01*
X52627769Y-77970060D01*
X52702556Y-77979142D01*
X53034945Y-77979142D01*
X53034948Y-77979142D01*
X53104481Y-77970698D01*
X53364906Y-77939078D01*
X53687633Y-77859533D01*
X53998419Y-77741667D01*
X54292731Y-77587200D01*
X54566279Y-77398384D01*
X54815073Y-77177972D01*
X55035485Y-76929178D01*
X55224301Y-76655630D01*
X55378768Y-76361318D01*
X55496634Y-76050532D01*
X55576179Y-75727805D01*
X55616243Y-75397844D01*
X55618752Y-75231651D01*
X55616243Y-75065458D01*
X55576179Y-74735497D01*
X55496634Y-74412770D01*
X55378768Y-74101984D01*
X55378767Y-74101983D01*
X55378766Y-74101979D01*
X55321164Y-73992230D01*
X55224301Y-73807672D01*
X55183967Y-73749238D01*
X55035487Y-73534126D01*
X55035482Y-73534120D01*
X54815074Y-73285330D01*
X54815072Y-73285328D01*
X54566282Y-73064920D01*
X54566276Y-73064915D01*
X54292737Y-72876106D01*
X54292735Y-72876105D01*
X54292731Y-72876102D01*
X54191714Y-72823084D01*
X53998423Y-72721636D01*
X53687638Y-72603770D01*
X53610463Y-72584748D01*
X53364906Y-72524224D01*
X53199925Y-72504192D01*
X53034948Y-72484160D01*
X53034945Y-72484160D01*
X52702559Y-72484160D01*
X52702556Y-72484160D01*
X52504582Y-72508198D01*
X52372598Y-72524224D01*
X52208893Y-72564573D01*
X52049865Y-72603770D01*
X51739080Y-72721636D01*
X51444775Y-72876101D01*
X51444766Y-72876106D01*
X51171227Y-73064915D01*
X51171221Y-73064920D01*
X50922431Y-73285328D01*
X50922429Y-73285330D01*
X50702021Y-73534120D01*
X50702016Y-73534126D01*
X50513207Y-73807665D01*
X50513202Y-73807674D01*
X50358737Y-74101979D01*
X50240871Y-74412764D01*
X50240870Y-74412770D01*
X50161325Y-74735497D01*
X50121261Y-75065458D01*
X46978292Y-75065458D01*
X46987500Y-75056250D01*
X46987500Y-63056250D01*
X46987499Y-63056249D01*
X58581250Y-63056249D01*
X58581250Y-63056250D01*
X58581250Y-75056250D01*
X59581250Y-76056250D01*
X72181250Y-76056250D01*
X73181250Y-75056250D01*
X73181250Y-63056250D01*
X73181249Y-63056249D01*
X77631250Y-63056249D01*
X77631250Y-63056250D01*
X77631250Y-75056250D01*
X78631250Y-76056250D01*
X91231250Y-76056250D01*
X92231250Y-75056250D01*
X92231250Y-69056250D01*
X93331165Y-69056250D01*
X93351497Y-69269174D01*
X93411757Y-69474402D01*
X93461966Y-69571794D01*
X93509770Y-69664521D01*
X93641985Y-69832645D01*
X93641993Y-69832653D01*
X93803637Y-69972717D01*
X93988869Y-70079661D01*
X93988870Y-70079661D01*
X93988873Y-70079663D01*
X94191001Y-70149621D01*
X94402716Y-70180061D01*
X94616366Y-70169883D01*
X94824229Y-70119456D01*
X95018793Y-70030602D01*
X95193024Y-69906533D01*
X95340627Y-69751731D01*
X95456265Y-69571794D01*
X95535761Y-69373223D01*
X95576241Y-69163196D01*
X95578782Y-69056250D01*
X95576241Y-68949304D01*
X95535761Y-68739277D01*
X95456265Y-68540706D01*
X95340627Y-68360769D01*
X95193024Y-68205967D01*
X95018793Y-68081898D01*
X95018791Y-68081897D01*
X95018792Y-68081897D01*
X94911366Y-68032838D01*
X94824229Y-67993044D01*
X94616366Y-67942617D01*
X94402716Y-67932439D01*
X94402715Y-67932439D01*
X94402714Y-67932439D01*
X94402713Y-67932439D01*
X94190999Y-67962879D01*
X93988869Y-68032838D01*
X93803638Y-68139782D01*
X93803637Y-68139782D01*
X93641993Y-68279846D01*
X93641985Y-68279854D01*
X93509770Y-68447978D01*
X93461966Y-68540706D01*
X93411757Y-68638098D01*
X93351497Y-68843326D01*
X93331165Y-69056250D01*
X92231250Y-69056250D01*
X92231250Y-63056250D01*
X92231249Y-63056249D01*
X96681250Y-63056249D01*
X96681250Y-63056250D01*
X96681250Y-75056250D01*
X97681250Y-76056250D01*
X110281250Y-76056250D01*
X111281250Y-75056250D01*
X111281250Y-63056250D01*
X111281249Y-63056249D01*
X115731250Y-63056249D01*
X115731250Y-63056250D01*
X115731250Y-75056250D01*
X116731250Y-76056250D01*
X129331250Y-76056250D01*
X130331250Y-75056250D01*
X130331250Y-63056250D01*
X130331249Y-63056249D01*
X134781250Y-63056249D01*
X134781250Y-63056250D01*
X134781250Y-75056250D01*
X135781250Y-76056250D01*
X148381250Y-76056250D01*
X149381250Y-75056250D01*
X149381250Y-69056250D01*
X150481165Y-69056250D01*
X150501497Y-69269174D01*
X150561757Y-69474402D01*
X150611966Y-69571794D01*
X150659770Y-69664521D01*
X150791985Y-69832645D01*
X150791993Y-69832653D01*
X150953637Y-69972717D01*
X151138869Y-70079661D01*
X151138870Y-70079661D01*
X151138873Y-70079663D01*
X151341001Y-70149621D01*
X151552716Y-70180061D01*
X151766366Y-70169883D01*
X151974229Y-70119456D01*
X152168793Y-70030602D01*
X152343024Y-69906533D01*
X152490627Y-69751731D01*
X152606265Y-69571794D01*
X152685761Y-69373223D01*
X152726241Y-69163196D01*
X152728782Y-69056250D01*
X152726241Y-68949304D01*
X152685761Y-68739277D01*
X152606265Y-68540706D01*
X152490627Y-68360769D01*
X152343024Y-68205967D01*
X152168793Y-68081898D01*
X152168791Y-68081897D01*
X152168792Y-68081897D01*
X152061366Y-68032838D01*
X151974229Y-67993044D01*
X151766366Y-67942617D01*
X151552716Y-67932439D01*
X151552715Y-67932439D01*
X151552714Y-67932439D01*
X151552713Y-67932439D01*
X151340999Y-67962879D01*
X151138869Y-68032838D01*
X150953638Y-68139782D01*
X150953637Y-68139782D01*
X150791993Y-68279846D01*
X150791985Y-68279854D01*
X150659770Y-68447978D01*
X150611966Y-68540706D01*
X150561757Y-68638098D01*
X150501497Y-68843326D01*
X150481165Y-69056250D01*
X149381250Y-69056250D01*
X149381250Y-63056250D01*
X149381249Y-63056249D01*
X153831250Y-63056249D01*
X153831250Y-63056250D01*
X153831250Y-75056250D01*
X154831250Y-76056250D01*
X167431250Y-76056250D01*
X168431250Y-75056250D01*
X168431250Y-63056250D01*
X168431249Y-63056249D01*
X172881250Y-63056249D01*
X172881250Y-63056250D01*
X172881250Y-75056250D01*
X173881250Y-76056250D01*
X186481250Y-76056250D01*
X187481250Y-75056250D01*
X187481250Y-63056250D01*
X187481249Y-63056249D01*
X191931250Y-63056249D01*
X191931250Y-63056250D01*
X191931250Y-75056250D01*
X192931250Y-76056250D01*
X205531250Y-76056250D01*
X206531250Y-75056250D01*
X206531250Y-69056250D01*
X207631165Y-69056250D01*
X207651497Y-69269174D01*
X207711757Y-69474402D01*
X207761966Y-69571794D01*
X207809770Y-69664521D01*
X207941985Y-69832645D01*
X207941993Y-69832653D01*
X208103637Y-69972717D01*
X208288869Y-70079661D01*
X208288870Y-70079661D01*
X208288873Y-70079663D01*
X208491001Y-70149621D01*
X208702716Y-70180061D01*
X208916366Y-70169883D01*
X209124229Y-70119456D01*
X209318793Y-70030602D01*
X209493024Y-69906533D01*
X209640627Y-69751731D01*
X209756265Y-69571794D01*
X209835761Y-69373223D01*
X209876241Y-69163196D01*
X209878782Y-69056250D01*
X209876241Y-68949304D01*
X209835761Y-68739277D01*
X209756265Y-68540706D01*
X209640627Y-68360769D01*
X209493024Y-68205967D01*
X209318793Y-68081898D01*
X209318791Y-68081897D01*
X209318792Y-68081897D01*
X209211366Y-68032838D01*
X209124229Y-67993044D01*
X208916366Y-67942617D01*
X208702716Y-67932439D01*
X208702715Y-67932439D01*
X208702714Y-67932439D01*
X208702713Y-67932439D01*
X208490999Y-67962879D01*
X208288869Y-68032838D01*
X208103638Y-68139782D01*
X208103637Y-68139782D01*
X207941993Y-68279846D01*
X207941985Y-68279854D01*
X207809770Y-68447978D01*
X207761966Y-68540706D01*
X207711757Y-68638098D01*
X207651497Y-68843326D01*
X207631165Y-69056250D01*
X206531250Y-69056250D01*
X206531250Y-63056250D01*
X206531249Y-63056249D01*
X210981250Y-63056249D01*
X210981250Y-63056250D01*
X210981250Y-75056250D01*
X211981250Y-76056250D01*
X224581250Y-76056250D01*
X225581250Y-75056250D01*
X225581250Y-63056250D01*
X225581249Y-63056249D01*
X230031250Y-63056249D01*
X230031250Y-63056250D01*
X230031250Y-75056250D01*
X231031250Y-76056250D01*
X243631250Y-76056250D01*
X244631250Y-75056250D01*
X244631250Y-69056250D01*
X245731165Y-69056250D01*
X245751497Y-69269174D01*
X245811757Y-69474402D01*
X245861966Y-69571794D01*
X245909770Y-69664521D01*
X246041985Y-69832645D01*
X246041993Y-69832653D01*
X246203637Y-69972717D01*
X246388869Y-70079661D01*
X246388870Y-70079661D01*
X246388873Y-70079663D01*
X246591001Y-70149621D01*
X246802716Y-70180061D01*
X247016366Y-70169883D01*
X247224229Y-70119456D01*
X247418793Y-70030602D01*
X247593024Y-69906533D01*
X247740627Y-69751731D01*
X247856265Y-69571794D01*
X247935761Y-69373223D01*
X247976241Y-69163196D01*
X247978782Y-69056250D01*
X247976241Y-68949304D01*
X247935761Y-68739277D01*
X247856265Y-68540706D01*
X247740627Y-68360769D01*
X247593024Y-68205967D01*
X247418793Y-68081898D01*
X247418791Y-68081897D01*
X247418792Y-68081897D01*
X247311366Y-68032838D01*
X247224229Y-67993044D01*
X247016366Y-67942617D01*
X246802716Y-67932439D01*
X246802715Y-67932439D01*
X246802714Y-67932439D01*
X246802713Y-67932439D01*
X246590999Y-67962879D01*
X246388869Y-68032838D01*
X246203638Y-68139782D01*
X246203637Y-68139782D01*
X246041993Y-68279846D01*
X246041985Y-68279854D01*
X245909770Y-68447978D01*
X245861966Y-68540706D01*
X245811757Y-68638098D01*
X245751497Y-68843326D01*
X245731165Y-69056250D01*
X244631250Y-69056250D01*
X244631250Y-63056250D01*
X244631249Y-63056249D01*
X249081250Y-63056249D01*
X249081250Y-63056250D01*
X249081250Y-75056250D01*
X250081250Y-76056250D01*
X262681250Y-76056250D01*
X263681250Y-75056250D01*
X263681250Y-63056250D01*
X262681250Y-62056250D01*
X250081249Y-62056250D01*
X249081250Y-63056249D01*
X244631249Y-63056249D01*
X243631250Y-62056250D01*
X231031249Y-62056250D01*
X230031250Y-63056249D01*
X225581249Y-63056249D01*
X224581250Y-62056250D01*
X211981249Y-62056250D01*
X210981250Y-63056249D01*
X206531249Y-63056249D01*
X205531250Y-62056250D01*
X192931249Y-62056250D01*
X191931250Y-63056249D01*
X187481249Y-63056249D01*
X186481250Y-62056250D01*
X173881249Y-62056250D01*
X172881250Y-63056249D01*
X168431249Y-63056249D01*
X167431250Y-62056250D01*
X162760105Y-62056250D01*
X162693066Y-62036565D01*
X162647311Y-61983761D01*
X162637367Y-61914603D01*
X162666392Y-61851047D01*
X162693086Y-61827921D01*
X162729421Y-61804580D01*
X162982966Y-61595078D01*
X163209711Y-61356831D01*
X163209712Y-61356829D01*
X163209713Y-61356829D01*
X163406422Y-61093236D01*
X163406421Y-61093236D01*
X163570285Y-60808064D01*
X163698965Y-60505381D01*
X163790622Y-60189510D01*
X163843949Y-59864961D01*
X163858184Y-59536368D01*
X163833124Y-59208424D01*
X163769126Y-58885810D01*
X163667104Y-58573132D01*
X163528516Y-58274856D01*
X163355338Y-57995239D01*
X163150046Y-57738275D01*
X162915569Y-57507633D01*
X162915567Y-57507631D01*
X162655262Y-57306609D01*
X162655249Y-57306600D01*
X162372823Y-57138062D01*
X162372807Y-57138054D01*
X162072304Y-57004409D01*
X161757990Y-56907556D01*
X161757975Y-56907553D01*
X161434371Y-56848886D01*
X161434346Y-56848883D01*
X161106053Y-56829235D01*
X161106037Y-56829235D01*
X160777743Y-56848883D01*
X160777718Y-56848886D01*
X160454114Y-56907553D01*
X160454099Y-56907556D01*
X160139785Y-57004409D01*
X159839282Y-57138054D01*
X159839266Y-57138062D01*
X159556840Y-57306600D01*
X159556827Y-57306609D01*
X159296522Y-57507631D01*
X159062048Y-57738270D01*
X159062041Y-57738277D01*
X158856750Y-57995241D01*
X158856749Y-57995242D01*
X158683578Y-58274849D01*
X158683569Y-58274865D01*
X158544987Y-58573127D01*
X158442965Y-58885807D01*
X158378966Y-59208423D01*
X158353906Y-59536368D01*
X158368141Y-59864961D01*
X158368142Y-59864968D01*
X158421467Y-60189507D01*
X158421468Y-60189510D01*
X158513125Y-60505381D01*
X158641805Y-60808064D01*
X158641808Y-60808070D01*
X158641809Y-60808072D01*
X158805666Y-61093233D01*
X158805667Y-61093236D01*
X159002377Y-61356829D01*
X159002379Y-61356831D01*
X159229124Y-61595078D01*
X159482669Y-61804580D01*
X159519004Y-61827921D01*
X159564769Y-61880716D01*
X159574726Y-61949872D01*
X159545714Y-62013434D01*
X159486944Y-62051220D01*
X159451985Y-62056250D01*
X154831249Y-62056250D01*
X153831250Y-63056249D01*
X149381249Y-63056249D01*
X148381250Y-62056250D01*
X135781249Y-62056250D01*
X134781250Y-63056249D01*
X130331249Y-63056249D01*
X129331250Y-62056250D01*
X116731249Y-62056250D01*
X115731250Y-63056249D01*
X111281249Y-63056249D01*
X110281250Y-62056250D01*
X97681249Y-62056250D01*
X96681250Y-63056249D01*
X92231249Y-63056249D01*
X91231250Y-62056250D01*
X78631249Y-62056250D01*
X77631250Y-63056249D01*
X73181249Y-63056249D01*
X72181250Y-62056250D01*
X59581249Y-62056250D01*
X58581250Y-63056249D01*
X46987499Y-63056249D01*
X45987500Y-62056250D01*
X33387499Y-62056250D01*
X32387500Y-63056249D01*
X22768752Y-63056249D01*
X22768752Y-50006250D01*
X24274915Y-50006250D01*
X24295247Y-50219174D01*
X24355507Y-50424402D01*
X24405716Y-50521794D01*
X24453520Y-50614521D01*
X24585735Y-50782645D01*
X24585743Y-50782653D01*
X24747387Y-50922717D01*
X24932619Y-51029661D01*
X24932620Y-51029661D01*
X24932623Y-51029663D01*
X25134751Y-51099621D01*
X25346466Y-51130061D01*
X25560116Y-51119883D01*
X25767979Y-51069456D01*
X25962543Y-50980602D01*
X26136774Y-50856533D01*
X26284377Y-50701731D01*
X26400015Y-50521794D01*
X26479511Y-50323223D01*
X26519991Y-50113196D01*
X26522532Y-50006250D01*
X26519991Y-49899304D01*
X26479511Y-49689277D01*
X26400015Y-49490706D01*
X26284377Y-49310769D01*
X26136774Y-49155967D01*
X25962543Y-49031898D01*
X25962541Y-49031897D01*
X25962542Y-49031897D01*
X25855116Y-48982838D01*
X25767979Y-48943044D01*
X25560116Y-48892617D01*
X25346466Y-48882439D01*
X25346465Y-48882439D01*
X25346464Y-48882439D01*
X25346463Y-48882439D01*
X25134749Y-48912879D01*
X24932619Y-48982838D01*
X24747388Y-49089782D01*
X24747387Y-49089782D01*
X24585743Y-49229846D01*
X24585735Y-49229854D01*
X24453520Y-49397978D01*
X24405716Y-49490706D01*
X24355507Y-49588098D01*
X24295247Y-49793326D01*
X24274915Y-50006250D01*
X22768752Y-50006250D01*
X22768752Y-44006249D01*
X27625000Y-44006249D01*
X27625000Y-44006250D01*
X27625000Y-56006250D01*
X28625000Y-57006250D01*
X41225000Y-57006250D01*
X42225000Y-56006250D01*
X42225000Y-44006250D01*
X41225000Y-43006250D01*
X28624999Y-43006250D01*
X27625000Y-44006249D01*
X22768752Y-44006249D01*
X22768752Y-24956249D01*
X25243750Y-24956249D01*
X25243750Y-24956250D01*
X25243750Y-36956250D01*
X26243750Y-37956250D01*
X38843750Y-37956250D01*
X39843750Y-36956250D01*
X39843750Y-30956250D01*
X40943665Y-30956250D01*
X40963997Y-31169174D01*
X41024257Y-31374402D01*
X41074466Y-31471794D01*
X41122270Y-31564521D01*
X41254485Y-31732645D01*
X41254493Y-31732653D01*
X41416137Y-31872717D01*
X41601369Y-31979661D01*
X41601370Y-31979661D01*
X41601373Y-31979663D01*
X41803501Y-32049621D01*
X42015216Y-32080061D01*
X42228866Y-32069883D01*
X42436729Y-32019456D01*
X42631293Y-31930602D01*
X42805524Y-31806533D01*
X42953127Y-31651731D01*
X43068765Y-31471794D01*
X43148261Y-31273223D01*
X43188741Y-31063196D01*
X43191282Y-30956250D01*
X43188741Y-30849304D01*
X43148261Y-30639277D01*
X43068765Y-30440706D01*
X42953127Y-30260769D01*
X42805524Y-30105967D01*
X42631293Y-29981898D01*
X42631291Y-29981897D01*
X42631292Y-29981897D01*
X42523866Y-29932838D01*
X42436729Y-29893044D01*
X42228866Y-29842617D01*
X42015216Y-29832439D01*
X42015215Y-29832439D01*
X42015214Y-29832439D01*
X42015213Y-29832439D01*
X41803499Y-29862879D01*
X41601369Y-29932838D01*
X41416138Y-30039782D01*
X41416137Y-30039782D01*
X41254493Y-30179846D01*
X41254485Y-30179854D01*
X41122270Y-30347978D01*
X41074466Y-30440706D01*
X41024257Y-30538098D01*
X40963997Y-30743326D01*
X40943665Y-30956250D01*
X39843750Y-30956250D01*
X39843750Y-24956250D01*
X39843749Y-24956249D01*
X44293750Y-24956249D01*
X44293750Y-24956250D01*
X44293750Y-36956250D01*
X45293750Y-37956250D01*
X52837212Y-37956250D01*
X52904251Y-37975935D01*
X52950006Y-38028739D01*
X52959950Y-38097897D01*
X52930925Y-38161453D01*
X52899826Y-38187280D01*
X52885990Y-38195373D01*
X52618162Y-38399743D01*
X52377299Y-38635308D01*
X52377289Y-38635320D01*
X52167022Y-38898527D01*
X52167022Y-38898528D01*
X51990474Y-39185469D01*
X51990468Y-39185480D01*
X51850303Y-39491827D01*
X51850298Y-39491840D01*
X51748605Y-39813023D01*
X51686911Y-40144220D01*
X51686910Y-40144222D01*
X51666139Y-40480487D01*
X51666139Y-40480491D01*
X51686602Y-40816768D01*
X51686602Y-40816769D01*
X51747992Y-41148025D01*
X51849392Y-41469308D01*
X51989284Y-41775800D01*
X51989285Y-41775803D01*
X52139226Y-42019999D01*
X52165566Y-42062898D01*
X52375602Y-42326313D01*
X52375603Y-42326314D01*
X52375605Y-42326316D01*
X52616240Y-42562092D01*
X52616249Y-42562100D01*
X52883888Y-42766715D01*
X52883889Y-42766716D01*
X52898495Y-42775279D01*
X52946372Y-42826166D01*
X52959137Y-42894860D01*
X52932737Y-42959550D01*
X52875554Y-42999698D01*
X52835780Y-43006250D01*
X50056249Y-43006250D01*
X49056250Y-44006249D01*
X49056250Y-44006250D01*
X49056250Y-56006250D01*
X50056250Y-57006250D01*
X62656250Y-57006250D01*
X63656250Y-56006250D01*
X63656250Y-50006250D01*
X64756165Y-50006250D01*
X64776497Y-50219174D01*
X64836757Y-50424402D01*
X64886966Y-50521794D01*
X64934770Y-50614521D01*
X65066985Y-50782645D01*
X65066993Y-50782653D01*
X65228637Y-50922717D01*
X65413869Y-51029661D01*
X65413870Y-51029661D01*
X65413873Y-51029663D01*
X65616001Y-51099621D01*
X65827716Y-51130061D01*
X66041366Y-51119883D01*
X66249229Y-51069456D01*
X66443793Y-50980602D01*
X66618024Y-50856533D01*
X66765627Y-50701731D01*
X66881265Y-50521794D01*
X66960761Y-50323223D01*
X67001241Y-50113196D01*
X67003782Y-50006250D01*
X67001241Y-49899304D01*
X66960761Y-49689277D01*
X66881265Y-49490706D01*
X66765627Y-49310769D01*
X66618024Y-49155967D01*
X66443793Y-49031898D01*
X66443791Y-49031897D01*
X66443792Y-49031897D01*
X66336366Y-48982838D01*
X66249229Y-48943044D01*
X66041366Y-48892617D01*
X65827716Y-48882439D01*
X65827715Y-48882439D01*
X65827714Y-48882439D01*
X65827713Y-48882439D01*
X65615999Y-48912879D01*
X65413869Y-48982838D01*
X65228638Y-49089782D01*
X65228637Y-49089782D01*
X65066993Y-49229846D01*
X65066985Y-49229854D01*
X64934770Y-49397978D01*
X64886966Y-49490706D01*
X64836757Y-49588098D01*
X64776497Y-49793326D01*
X64756165Y-50006250D01*
X63656250Y-50006250D01*
X63656250Y-44006250D01*
X63656249Y-44006249D01*
X68106250Y-44006249D01*
X68106250Y-44006250D01*
X68106250Y-56006250D01*
X69106250Y-57006250D01*
X81706250Y-57006250D01*
X82706250Y-56006250D01*
X82706250Y-44006250D01*
X82706249Y-44006249D01*
X87156250Y-44006249D01*
X87156250Y-44006250D01*
X87156250Y-56006250D01*
X88156250Y-57006250D01*
X100756250Y-57006250D01*
X101756250Y-56006250D01*
X101756250Y-50006250D01*
X102856165Y-50006250D01*
X102876497Y-50219174D01*
X102936757Y-50424402D01*
X102986966Y-50521794D01*
X103034770Y-50614521D01*
X103166985Y-50782645D01*
X103166993Y-50782653D01*
X103328637Y-50922717D01*
X103513869Y-51029661D01*
X103513870Y-51029661D01*
X103513873Y-51029663D01*
X103716001Y-51099621D01*
X103927716Y-51130061D01*
X104141366Y-51119883D01*
X104349229Y-51069456D01*
X104543793Y-50980602D01*
X104718024Y-50856533D01*
X104865627Y-50701731D01*
X104981265Y-50521794D01*
X105060761Y-50323223D01*
X105101241Y-50113196D01*
X105103782Y-50006250D01*
X105101241Y-49899304D01*
X105060761Y-49689277D01*
X104981265Y-49490706D01*
X104865627Y-49310769D01*
X104718024Y-49155967D01*
X104543793Y-49031898D01*
X104543791Y-49031897D01*
X104543792Y-49031897D01*
X104436366Y-48982838D01*
X104349229Y-48943044D01*
X104141366Y-48892617D01*
X103927716Y-48882439D01*
X103927715Y-48882439D01*
X103927714Y-48882439D01*
X103927713Y-48882439D01*
X103715999Y-48912879D01*
X103513869Y-48982838D01*
X103328638Y-49089782D01*
X103328637Y-49089782D01*
X103166993Y-49229846D01*
X103166985Y-49229854D01*
X103034770Y-49397978D01*
X102986966Y-49490706D01*
X102936757Y-49588098D01*
X102876497Y-49793326D01*
X102856165Y-50006250D01*
X101756250Y-50006250D01*
X101756250Y-44006250D01*
X101756249Y-44006249D01*
X106206250Y-44006249D01*
X106206250Y-44006250D01*
X106206250Y-56006250D01*
X107206250Y-57006250D01*
X119806250Y-57006250D01*
X120806250Y-56006250D01*
X120806250Y-44006250D01*
X119806250Y-43006250D01*
X107206249Y-43006250D01*
X106206250Y-44006249D01*
X101756249Y-44006249D01*
X100756250Y-43006250D01*
X88156249Y-43006250D01*
X87156250Y-44006249D01*
X82706249Y-44006249D01*
X81706250Y-43006250D01*
X69106249Y-43006250D01*
X68106250Y-44006249D01*
X63656249Y-44006249D01*
X62656250Y-43006250D01*
X56001726Y-43006250D01*
X55934687Y-42986565D01*
X55888932Y-42933761D01*
X55878988Y-42864603D01*
X55908013Y-42801047D01*
X55939011Y-42775279D01*
X55941813Y-42773635D01*
X55953615Y-42766717D01*
X56221259Y-42562097D01*
X56461902Y-42326313D01*
X56671938Y-42062897D01*
X56848221Y-41775796D01*
X56988110Y-41469309D01*
X57089510Y-41148028D01*
X57150901Y-40816767D01*
X57171364Y-40480487D01*
X57150592Y-40144225D01*
X57150591Y-40144222D01*
X57150591Y-40144218D01*
X57088898Y-39813025D01*
X57088897Y-39813024D01*
X57088897Y-39813020D01*
X56987203Y-39491833D01*
X56904657Y-39311421D01*
X56847035Y-39185481D01*
X56847029Y-39185470D01*
X56670488Y-38898538D01*
X56670480Y-38898528D01*
X56460208Y-38635312D01*
X56219349Y-38399749D01*
X56219348Y-38399747D01*
X55951515Y-38195374D01*
X55951510Y-38195371D01*
X55937679Y-38187279D01*
X55889755Y-38136435D01*
X55876926Y-38067753D01*
X55903267Y-38003039D01*
X55960413Y-37962839D01*
X56000295Y-37956250D01*
X57893750Y-37956250D01*
X58893750Y-36956250D01*
X58893750Y-24956250D01*
X58893749Y-24956249D01*
X63343750Y-24956249D01*
X63343750Y-24956250D01*
X63343750Y-36956250D01*
X64343750Y-37956250D01*
X76943750Y-37956250D01*
X77943750Y-36956250D01*
X77943750Y-24956250D01*
X77943749Y-24956249D01*
X82393750Y-24956249D01*
X82393750Y-24956250D01*
X82393750Y-36956250D01*
X83393750Y-37956250D01*
X95993750Y-37956250D01*
X96993750Y-36956250D01*
X96993750Y-30956250D01*
X98093665Y-30956250D01*
X98113997Y-31169174D01*
X98174257Y-31374402D01*
X98224466Y-31471794D01*
X98272270Y-31564521D01*
X98404485Y-31732645D01*
X98404493Y-31732653D01*
X98566137Y-31872717D01*
X98751369Y-31979661D01*
X98751370Y-31979661D01*
X98751373Y-31979663D01*
X98953501Y-32049621D01*
X99165216Y-32080061D01*
X99378866Y-32069883D01*
X99586729Y-32019456D01*
X99781293Y-31930602D01*
X99955524Y-31806533D01*
X100103127Y-31651731D01*
X100218765Y-31471794D01*
X100298261Y-31273223D01*
X100338741Y-31063196D01*
X100341282Y-30956250D01*
X100338741Y-30849304D01*
X100298261Y-30639277D01*
X100218765Y-30440706D01*
X100103127Y-30260769D01*
X99955524Y-30105967D01*
X99781293Y-29981898D01*
X99781291Y-29981897D01*
X99781292Y-29981897D01*
X99673866Y-29932838D01*
X99586729Y-29893044D01*
X99378866Y-29842617D01*
X99165216Y-29832439D01*
X99165215Y-29832439D01*
X99165214Y-29832439D01*
X99165213Y-29832439D01*
X98953499Y-29862879D01*
X98751369Y-29932838D01*
X98566138Y-30039782D01*
X98566137Y-30039782D01*
X98404493Y-30179846D01*
X98404485Y-30179854D01*
X98272270Y-30347978D01*
X98224466Y-30440706D01*
X98174257Y-30538098D01*
X98113997Y-30743326D01*
X98093665Y-30956250D01*
X96993750Y-30956250D01*
X96993750Y-24956250D01*
X96993749Y-24956249D01*
X101443750Y-24956249D01*
X101443750Y-24956250D01*
X101443750Y-36956250D01*
X102443750Y-37956250D01*
X115043750Y-37956250D01*
X116043750Y-36956250D01*
X116043750Y-24956250D01*
X116043749Y-24956249D01*
X120493750Y-24956249D01*
X120493750Y-24956250D01*
X120493750Y-36956250D01*
X121493750Y-37956250D01*
X129037209Y-37956250D01*
X129104248Y-37975935D01*
X129150003Y-38028739D01*
X129159947Y-38097897D01*
X129130922Y-38161453D01*
X129099824Y-38187280D01*
X129085992Y-38195371D01*
X128818160Y-38399743D01*
X128577298Y-38635308D01*
X128577297Y-38635310D01*
X128367019Y-38898533D01*
X128190469Y-39185476D01*
X128190467Y-39185479D01*
X128050302Y-39491827D01*
X128050297Y-39491840D01*
X127948604Y-39813023D01*
X127886910Y-40144220D01*
X127886909Y-40144222D01*
X127866139Y-40480487D01*
X127866139Y-40480492D01*
X127886601Y-40816768D01*
X127947992Y-41148026D01*
X128049391Y-41469308D01*
X128189283Y-41775799D01*
X128365565Y-42062898D01*
X128365569Y-42062904D01*
X128575597Y-42326308D01*
X128575602Y-42326314D01*
X128803697Y-42549804D01*
X128816248Y-42562101D01*
X129083886Y-42766715D01*
X129083890Y-42766718D01*
X129098491Y-42775278D01*
X129146369Y-42826164D01*
X129159135Y-42894858D01*
X129132737Y-42959548D01*
X129075554Y-42999697D01*
X129035778Y-43006250D01*
X126256249Y-43006250D01*
X125256250Y-44006249D01*
X125256250Y-44006250D01*
X125256250Y-56006250D01*
X126256250Y-57006250D01*
X138856250Y-57006250D01*
X139856250Y-56006250D01*
X139856250Y-50006250D01*
X140956165Y-50006250D01*
X140976497Y-50219174D01*
X141036757Y-50424402D01*
X141086966Y-50521794D01*
X141134770Y-50614521D01*
X141266985Y-50782645D01*
X141266993Y-50782653D01*
X141428637Y-50922717D01*
X141613869Y-51029661D01*
X141613870Y-51029661D01*
X141613873Y-51029663D01*
X141816001Y-51099621D01*
X142027716Y-51130061D01*
X142241366Y-51119883D01*
X142449229Y-51069456D01*
X142643793Y-50980602D01*
X142818024Y-50856533D01*
X142965627Y-50701731D01*
X143081265Y-50521794D01*
X143160761Y-50323223D01*
X143201241Y-50113196D01*
X143203782Y-50006250D01*
X143201241Y-49899304D01*
X143160761Y-49689277D01*
X143081265Y-49490706D01*
X142965627Y-49310769D01*
X142818024Y-49155967D01*
X142643793Y-49031898D01*
X142643791Y-49031897D01*
X142643792Y-49031897D01*
X142536366Y-48982838D01*
X142449229Y-48943044D01*
X142241366Y-48892617D01*
X142027716Y-48882439D01*
X142027715Y-48882439D01*
X142027714Y-48882439D01*
X142027713Y-48882439D01*
X141815999Y-48912879D01*
X141613869Y-48982838D01*
X141428638Y-49089782D01*
X141428637Y-49089782D01*
X141266993Y-49229846D01*
X141266985Y-49229854D01*
X141134770Y-49397978D01*
X141086966Y-49490706D01*
X141036757Y-49588098D01*
X140976497Y-49793326D01*
X140956165Y-50006250D01*
X139856250Y-50006250D01*
X139856250Y-44006250D01*
X139856249Y-44006249D01*
X144306250Y-44006249D01*
X144306250Y-44006250D01*
X144306250Y-56006250D01*
X145306250Y-57006250D01*
X157906250Y-57006250D01*
X158906250Y-56006250D01*
X158906250Y-44006250D01*
X158906249Y-44006249D01*
X163356250Y-44006249D01*
X163356250Y-44006250D01*
X163356250Y-56006250D01*
X164356250Y-57006250D01*
X176956250Y-57006250D01*
X177956250Y-56006250D01*
X177956250Y-44006250D01*
X177956249Y-44006249D01*
X182406250Y-44006249D01*
X182406250Y-44006250D01*
X182406250Y-56006250D01*
X183406250Y-57006250D01*
X196006250Y-57006250D01*
X197006250Y-56006250D01*
X197006250Y-50006250D01*
X198106165Y-50006250D01*
X198126497Y-50219174D01*
X198186757Y-50424402D01*
X198236966Y-50521794D01*
X198284770Y-50614521D01*
X198416985Y-50782645D01*
X198416993Y-50782653D01*
X198578637Y-50922717D01*
X198763869Y-51029661D01*
X198763870Y-51029661D01*
X198763873Y-51029663D01*
X198966001Y-51099621D01*
X199177716Y-51130061D01*
X199391366Y-51119883D01*
X199599229Y-51069456D01*
X199793793Y-50980602D01*
X199968024Y-50856533D01*
X200115627Y-50701731D01*
X200231265Y-50521794D01*
X200310761Y-50323223D01*
X200351241Y-50113196D01*
X200353782Y-50006250D01*
X200351241Y-49899304D01*
X200310761Y-49689277D01*
X200231265Y-49490706D01*
X200115627Y-49310769D01*
X199968024Y-49155967D01*
X199793793Y-49031898D01*
X199793791Y-49031897D01*
X199793792Y-49031897D01*
X199686366Y-48982838D01*
X199599229Y-48943044D01*
X199391366Y-48892617D01*
X199177716Y-48882439D01*
X199177715Y-48882439D01*
X199177714Y-48882439D01*
X199177713Y-48882439D01*
X198965999Y-48912879D01*
X198763869Y-48982838D01*
X198578638Y-49089782D01*
X198578637Y-49089782D01*
X198416993Y-49229846D01*
X198416985Y-49229854D01*
X198284770Y-49397978D01*
X198236966Y-49490706D01*
X198186757Y-49588098D01*
X198126497Y-49793326D01*
X198106165Y-50006250D01*
X197006250Y-50006250D01*
X197006250Y-44006250D01*
X197006249Y-44006249D01*
X201456250Y-44006249D01*
X201456250Y-44006250D01*
X201456250Y-56006250D01*
X202456250Y-57006250D01*
X215056250Y-57006250D01*
X216056250Y-56006250D01*
X216056250Y-44006250D01*
X216056249Y-44006249D01*
X220506250Y-44006249D01*
X220506250Y-44006250D01*
X220506250Y-56006250D01*
X221506250Y-57006250D01*
X234106250Y-57006250D01*
X235106250Y-56006250D01*
X235106250Y-50006250D01*
X240968665Y-50006250D01*
X240988997Y-50219174D01*
X241049257Y-50424402D01*
X241099466Y-50521794D01*
X241147270Y-50614521D01*
X241279485Y-50782645D01*
X241279493Y-50782653D01*
X241441137Y-50922717D01*
X241626369Y-51029661D01*
X241626370Y-51029661D01*
X241626373Y-51029663D01*
X241828501Y-51099621D01*
X242040216Y-51130061D01*
X242253866Y-51119883D01*
X242461729Y-51069456D01*
X242656293Y-50980602D01*
X242830524Y-50856533D01*
X242978127Y-50701731D01*
X243093765Y-50521794D01*
X243173261Y-50323223D01*
X243213741Y-50113196D01*
X243216282Y-50006250D01*
X243213741Y-49899304D01*
X243173261Y-49689277D01*
X243093765Y-49490706D01*
X242978127Y-49310769D01*
X242830524Y-49155967D01*
X242656293Y-49031898D01*
X242656291Y-49031897D01*
X242656292Y-49031897D01*
X242548866Y-48982838D01*
X242461729Y-48943044D01*
X242253866Y-48892617D01*
X242040216Y-48882439D01*
X242040215Y-48882439D01*
X242040214Y-48882439D01*
X242040213Y-48882439D01*
X241828499Y-48912879D01*
X241626369Y-48982838D01*
X241441138Y-49089782D01*
X241441137Y-49089782D01*
X241279493Y-49229846D01*
X241279485Y-49229854D01*
X241147270Y-49397978D01*
X241099466Y-49490706D01*
X241049257Y-49588098D01*
X240988997Y-49793326D01*
X240968665Y-50006250D01*
X235106250Y-50006250D01*
X235106250Y-44006250D01*
X235106249Y-44006249D01*
X244318750Y-44006249D01*
X244318750Y-44006250D01*
X244318750Y-56006250D01*
X245318750Y-57006250D01*
X257918750Y-57006250D01*
X258918750Y-56006250D01*
X258918750Y-44006250D01*
X257918750Y-43006250D01*
X245318749Y-43006250D01*
X244318750Y-44006249D01*
X235106249Y-44006249D01*
X234106250Y-43006250D01*
X221506249Y-43006250D01*
X220506250Y-44006249D01*
X216056249Y-44006249D01*
X215056250Y-43006250D01*
X202456249Y-43006250D01*
X201456250Y-44006249D01*
X197006249Y-44006249D01*
X196006250Y-43006250D01*
X183406249Y-43006250D01*
X182406250Y-44006249D01*
X177956249Y-44006249D01*
X176956250Y-43006250D01*
X164356249Y-43006250D01*
X163356250Y-44006249D01*
X158906249Y-44006249D01*
X157906250Y-43006250D01*
X145306249Y-43006250D01*
X144306250Y-44006249D01*
X139856249Y-44006249D01*
X138856250Y-43006250D01*
X132201726Y-43006250D01*
X132134687Y-42986565D01*
X132088932Y-42933761D01*
X132078988Y-42864603D01*
X132108013Y-42801047D01*
X132139011Y-42775279D01*
X132141813Y-42773635D01*
X132153615Y-42766717D01*
X132421259Y-42562097D01*
X132661902Y-42326313D01*
X132871938Y-42062897D01*
X133048221Y-41775796D01*
X133188110Y-41469309D01*
X133289510Y-41148028D01*
X133350901Y-40816767D01*
X133371364Y-40480487D01*
X133350592Y-40144225D01*
X133350591Y-40144222D01*
X133350591Y-40144218D01*
X133288898Y-39813025D01*
X133288897Y-39813024D01*
X133288897Y-39813020D01*
X133187203Y-39491833D01*
X133104657Y-39311421D01*
X133047035Y-39185481D01*
X133047029Y-39185470D01*
X132870488Y-38898538D01*
X132870480Y-38898528D01*
X132660208Y-38635312D01*
X132419349Y-38399749D01*
X132419348Y-38399747D01*
X132151515Y-38195374D01*
X132151510Y-38195371D01*
X132137679Y-38187279D01*
X132089755Y-38136435D01*
X132076926Y-38067753D01*
X132098173Y-38015554D01*
X230908554Y-38015554D01*
X230908554Y-38347945D01*
X230914844Y-38399747D01*
X230948618Y-38677904D01*
X231002997Y-38898527D01*
X231028164Y-39000636D01*
X231146030Y-39311421D01*
X231240717Y-39491829D01*
X231300496Y-39605729D01*
X231300499Y-39605733D01*
X231300500Y-39605735D01*
X231489309Y-39879274D01*
X231489314Y-39879280D01*
X231709722Y-40128070D01*
X231709724Y-40128072D01*
X231958514Y-40348480D01*
X231958520Y-40348485D01*
X232149758Y-40480486D01*
X232232066Y-40537299D01*
X232416624Y-40634162D01*
X232526373Y-40691764D01*
X232837158Y-40809630D01*
X232837160Y-40809630D01*
X232837164Y-40809632D01*
X233159891Y-40889177D01*
X233415062Y-40920159D01*
X233489849Y-40929241D01*
X233822238Y-40929241D01*
X233822241Y-40929241D01*
X233891774Y-40920797D01*
X234152199Y-40889177D01*
X234474926Y-40809632D01*
X234785712Y-40691766D01*
X235080024Y-40537299D01*
X235353572Y-40348483D01*
X235602366Y-40128071D01*
X235822778Y-39879277D01*
X236011594Y-39605729D01*
X236166061Y-39311417D01*
X236283927Y-39000631D01*
X236363472Y-38677904D01*
X236403536Y-38347943D01*
X236406045Y-38181750D01*
X236403536Y-38015557D01*
X236363472Y-37685596D01*
X236283927Y-37362869D01*
X236166061Y-37052083D01*
X236166060Y-37052082D01*
X236166059Y-37052078D01*
X236108457Y-36942329D01*
X236011594Y-36757771D01*
X235971260Y-36699337D01*
X235822780Y-36484225D01*
X235822775Y-36484219D01*
X235602367Y-36235429D01*
X235602365Y-36235427D01*
X235353575Y-36015019D01*
X235353569Y-36015014D01*
X235080030Y-35826205D01*
X235080028Y-35826204D01*
X235080024Y-35826201D01*
X234979007Y-35773183D01*
X234785716Y-35671735D01*
X234474931Y-35553869D01*
X234397756Y-35534847D01*
X234152199Y-35474323D01*
X233987218Y-35454291D01*
X233822241Y-35434259D01*
X233822238Y-35434259D01*
X233489852Y-35434259D01*
X233489849Y-35434259D01*
X233291875Y-35458297D01*
X233159891Y-35474323D01*
X232996186Y-35514672D01*
X232837158Y-35553869D01*
X232526373Y-35671735D01*
X232232068Y-35826200D01*
X232232059Y-35826205D01*
X231958520Y-36015014D01*
X231958514Y-36015019D01*
X231709724Y-36235427D01*
X231709722Y-36235429D01*
X231489314Y-36484219D01*
X231489309Y-36484225D01*
X231300500Y-36757764D01*
X231300495Y-36757773D01*
X231146030Y-37052078D01*
X231028164Y-37362863D01*
X230948618Y-37685598D01*
X230908554Y-38015554D01*
X132098173Y-38015554D01*
X132103267Y-38003039D01*
X132160413Y-37962839D01*
X132200295Y-37956250D01*
X134093750Y-37956250D01*
X135093750Y-36956250D01*
X135093750Y-24956250D01*
X135093749Y-24956249D01*
X139543750Y-24956249D01*
X139543750Y-24956250D01*
X139543750Y-36956250D01*
X140543750Y-37956250D01*
X153143750Y-37956250D01*
X154143750Y-36956250D01*
X154143750Y-30956250D01*
X155243665Y-30956250D01*
X155263997Y-31169174D01*
X155324257Y-31374402D01*
X155374466Y-31471794D01*
X155422270Y-31564521D01*
X155554485Y-31732645D01*
X155554493Y-31732653D01*
X155716137Y-31872717D01*
X155901369Y-31979661D01*
X155901370Y-31979661D01*
X155901373Y-31979663D01*
X156103501Y-32049621D01*
X156315216Y-32080061D01*
X156528866Y-32069883D01*
X156736729Y-32019456D01*
X156931293Y-31930602D01*
X157105524Y-31806533D01*
X157253127Y-31651731D01*
X157368765Y-31471794D01*
X157448261Y-31273223D01*
X157488741Y-31063196D01*
X157491282Y-30956250D01*
X157488741Y-30849304D01*
X157448261Y-30639277D01*
X157368765Y-30440706D01*
X157253127Y-30260769D01*
X157105524Y-30105967D01*
X156931293Y-29981898D01*
X156931291Y-29981897D01*
X156931292Y-29981897D01*
X156823866Y-29932838D01*
X156736729Y-29893044D01*
X156528866Y-29842617D01*
X156315216Y-29832439D01*
X156315215Y-29832439D01*
X156315214Y-29832439D01*
X156315213Y-29832439D01*
X156103499Y-29862879D01*
X155901369Y-29932838D01*
X155716138Y-30039782D01*
X155716137Y-30039782D01*
X155554493Y-30179846D01*
X155554485Y-30179854D01*
X155422270Y-30347978D01*
X155374466Y-30440706D01*
X155324257Y-30538098D01*
X155263997Y-30743326D01*
X155243665Y-30956250D01*
X154143750Y-30956250D01*
X154143750Y-24956250D01*
X154143749Y-24956249D01*
X158593750Y-24956249D01*
X158593750Y-24956250D01*
X158593750Y-36956250D01*
X159593750Y-37956250D01*
X172193750Y-37956250D01*
X173193750Y-36956250D01*
X173193750Y-24956250D01*
X173193749Y-24956249D01*
X177643750Y-24956249D01*
X177643750Y-24956250D01*
X177643750Y-36956250D01*
X178643750Y-37956250D01*
X191243750Y-37956250D01*
X192243750Y-36956250D01*
X192243750Y-24956250D01*
X192243749Y-24956249D01*
X196693750Y-24956249D01*
X196693750Y-24956250D01*
X196693750Y-36956250D01*
X197693750Y-37956250D01*
X210293750Y-37956250D01*
X211293750Y-36956250D01*
X211293750Y-30956250D01*
X212393665Y-30956250D01*
X212413997Y-31169174D01*
X212474257Y-31374402D01*
X212524466Y-31471794D01*
X212572270Y-31564521D01*
X212704485Y-31732645D01*
X212704493Y-31732653D01*
X212866137Y-31872717D01*
X213051369Y-31979661D01*
X213051370Y-31979661D01*
X213051373Y-31979663D01*
X213253501Y-32049621D01*
X213465216Y-32080061D01*
X213678866Y-32069883D01*
X213886729Y-32019456D01*
X214081293Y-31930602D01*
X214255524Y-31806533D01*
X214403127Y-31651731D01*
X214518765Y-31471794D01*
X214598261Y-31273223D01*
X214638741Y-31063196D01*
X214641282Y-30956250D01*
X214638741Y-30849304D01*
X214598261Y-30639277D01*
X214518765Y-30440706D01*
X214403127Y-30260769D01*
X214255524Y-30105967D01*
X214081293Y-29981898D01*
X214081291Y-29981897D01*
X214081292Y-29981897D01*
X213973866Y-29932838D01*
X213886729Y-29893044D01*
X213678866Y-29842617D01*
X213465216Y-29832439D01*
X213465215Y-29832439D01*
X213465214Y-29832439D01*
X213465213Y-29832439D01*
X213253499Y-29862879D01*
X213051369Y-29932838D01*
X212866138Y-30039782D01*
X212866137Y-30039782D01*
X212704493Y-30179846D01*
X212704485Y-30179854D01*
X212572270Y-30347978D01*
X212524466Y-30440706D01*
X212474257Y-30538098D01*
X212413997Y-30743326D01*
X212393665Y-30956250D01*
X211293750Y-30956250D01*
X211293750Y-24956250D01*
X211293749Y-24956249D01*
X215743750Y-24956249D01*
X215743750Y-24956250D01*
X215743750Y-36956250D01*
X216743750Y-37956250D01*
X229343750Y-37956250D01*
X230343750Y-36956250D01*
X230343750Y-24956250D01*
X230343749Y-24956249D01*
X241937500Y-24956249D01*
X241937500Y-24956250D01*
X241937500Y-36956250D01*
X242937500Y-37956250D01*
X255537500Y-37956250D01*
X256537500Y-36956250D01*
X256537500Y-30956250D01*
X257637415Y-30956250D01*
X257657747Y-31169174D01*
X257718007Y-31374402D01*
X257768216Y-31471794D01*
X257816020Y-31564521D01*
X257948235Y-31732645D01*
X257948243Y-31732653D01*
X258109887Y-31872717D01*
X258295119Y-31979661D01*
X258295120Y-31979661D01*
X258295123Y-31979663D01*
X258497251Y-32049621D01*
X258708966Y-32080061D01*
X258922616Y-32069883D01*
X259130479Y-32019456D01*
X259325043Y-31930602D01*
X259499274Y-31806533D01*
X259646877Y-31651731D01*
X259762515Y-31471794D01*
X259842011Y-31273223D01*
X259882491Y-31063196D01*
X259885032Y-30956250D01*
X259882491Y-30849304D01*
X259842011Y-30639277D01*
X259762515Y-30440706D01*
X259646877Y-30260769D01*
X259499274Y-30105967D01*
X259325043Y-29981898D01*
X259325041Y-29981897D01*
X259325042Y-29981897D01*
X259217616Y-29932838D01*
X259130479Y-29893044D01*
X258922616Y-29842617D01*
X258708966Y-29832439D01*
X258708965Y-29832439D01*
X258708964Y-29832439D01*
X258708963Y-29832439D01*
X258497249Y-29862879D01*
X258295119Y-29932838D01*
X258109888Y-30039782D01*
X258109887Y-30039782D01*
X257948243Y-30179846D01*
X257948235Y-30179854D01*
X257816020Y-30347978D01*
X257768216Y-30440706D01*
X257718007Y-30538098D01*
X257657747Y-30743326D01*
X257637415Y-30956250D01*
X256537500Y-30956250D01*
X256537500Y-24956250D01*
X255537500Y-23956250D01*
X242937499Y-23956250D01*
X241937500Y-24956249D01*
X230343749Y-24956249D01*
X229343750Y-23956250D01*
X216743749Y-23956250D01*
X215743750Y-24956249D01*
X211293749Y-24956249D01*
X210293750Y-23956250D01*
X197693749Y-23956250D01*
X196693750Y-24956249D01*
X192243749Y-24956249D01*
X191243750Y-23956250D01*
X178643749Y-23956250D01*
X177643750Y-24956249D01*
X173193749Y-24956249D01*
X172193750Y-23956250D01*
X159593749Y-23956250D01*
X158593750Y-24956249D01*
X154143749Y-24956249D01*
X153143750Y-23956250D01*
X140543749Y-23956250D01*
X139543750Y-24956249D01*
X135093749Y-24956249D01*
X134093750Y-23956250D01*
X121493749Y-23956250D01*
X120493750Y-24956249D01*
X116043749Y-24956249D01*
X115043750Y-23956250D01*
X102443749Y-23956250D01*
X101443750Y-24956249D01*
X96993749Y-24956249D01*
X95993750Y-23956250D01*
X83393749Y-23956250D01*
X82393750Y-24956249D01*
X77943749Y-24956249D01*
X76943750Y-23956250D01*
X64343749Y-23956250D01*
X63343750Y-24956249D01*
X58893749Y-24956249D01*
X57893750Y-23956250D01*
X45293749Y-23956250D01*
X44293750Y-24956249D01*
X39843749Y-24956249D01*
X38843750Y-23956250D01*
X26243749Y-23956250D01*
X25243750Y-24956249D01*
X22768752Y-24956249D01*
X22768752Y-24432632D01*
X22768764Y-24430894D01*
X22768764Y-24430893D01*
X22771026Y-24269479D01*
X22771794Y-24257349D01*
X22808029Y-23935756D01*
X22810358Y-23922050D01*
X22882178Y-23607384D01*
X22886024Y-23594030D01*
X22992635Y-23289352D01*
X22997948Y-23276528D01*
X23137995Y-22985716D01*
X23144711Y-22973564D01*
X23316444Y-22700253D01*
X23324476Y-22688934D01*
X23525731Y-22436568D01*
X23534980Y-22426219D01*
X23763219Y-22197980D01*
X23773568Y-22188731D01*
X24025935Y-21987474D01*
X24037253Y-21979444D01*
X24310564Y-21807711D01*
X24322716Y-21800995D01*
X24613528Y-21660948D01*
X24626352Y-21655635D01*
X24931030Y-21549024D01*
X24944378Y-21545179D01*
X25162044Y-21495498D01*
X25259050Y-21473358D01*
X25272756Y-21471029D01*
X25594360Y-21434793D01*
X25606479Y-21434026D01*
X25763333Y-21431825D01*
X25767896Y-21431762D01*
X25769635Y-21431750D01*
X263155159Y-21431750D01*
X263156898Y-21431762D01*
G37*
%TD.AperFunction*%
%TD*%
M02*
