%TF.GenerationSoftware,KiCad,Pcbnew,(7.0.0)*%
%TF.CreationDate,2024-05-04T22:15:04+02:00*%
%TF.ProjectId,plate split,706c6174-6520-4737-906c-69742e6b6963,rev?*%
%TF.SameCoordinates,Original*%
%TF.FileFunction,Copper,L1,Top*%
%TF.FilePolarity,Positive*%
%FSLAX46Y46*%
G04 Gerber Fmt 4.6, Leading zero omitted, Abs format (unit mm)*
G04 Created by KiCad (PCBNEW (7.0.0)) date 2024-05-04 22:15:04*
%MOMM*%
%LPD*%
G01*
G04 APERTURE LIST*
G04 APERTURE END LIST*
%TA.AperFunction,Conductor*%
%TO.N,GND*%
G36*
X37207092Y-15431944D02*
G01*
X37256673Y-15434729D01*
X37257255Y-15434765D01*
X37518834Y-15451911D01*
X37531464Y-15453393D01*
X37650357Y-15473594D01*
X37653738Y-15474218D01*
X37841356Y-15511538D01*
X37851470Y-15513996D01*
X37979133Y-15550775D01*
X37984641Y-15552503D01*
X38154889Y-15610295D01*
X38155275Y-15610426D01*
X38162868Y-15613284D01*
X38204432Y-15630500D01*
X38288138Y-15665172D01*
X38295492Y-15668504D01*
X38457127Y-15748213D01*
X38462247Y-15750889D01*
X38578507Y-15815143D01*
X38587415Y-15820567D01*
X38746483Y-15926852D01*
X38749306Y-15928796D01*
X38847645Y-15998570D01*
X38857643Y-16006468D01*
X39054372Y-16178994D01*
X39055238Y-16179761D01*
X39092210Y-16212800D01*
X39097266Y-16217580D01*
X43234783Y-20355097D01*
X43234764Y-20355115D01*
X43234900Y-20355226D01*
X43234906Y-20355220D01*
X43234907Y-20355221D01*
X43234907Y-20355220D01*
X43234977Y-20355290D01*
X43234978Y-20355290D01*
X43348381Y-20468693D01*
X43350442Y-20470422D01*
X43350446Y-20470426D01*
X43507679Y-20602359D01*
X43594245Y-20674996D01*
X43724529Y-20766221D01*
X43854944Y-20857538D01*
X43854951Y-20857542D01*
X43857154Y-20859085D01*
X44135106Y-21019561D01*
X44425987Y-21155200D01*
X44727582Y-21264973D01*
X45037597Y-21348042D01*
X45353672Y-21403775D01*
X45673402Y-21431749D01*
X45833774Y-21431749D01*
X45833778Y-21431749D01*
X45833779Y-21431750D01*
X45833878Y-21431750D01*
X243090622Y-21431750D01*
X243091071Y-21431750D01*
X243091221Y-21431750D01*
X243091267Y-21431730D01*
X243091385Y-21431719D01*
X243268855Y-21431732D01*
X243622664Y-21397457D01*
X243971516Y-21329210D01*
X244312158Y-21227628D01*
X244641411Y-21093657D01*
X244956204Y-20928548D01*
X245253601Y-20733842D01*
X245530828Y-20511353D01*
X245657050Y-20388237D01*
X245657935Y-20387374D01*
X245657990Y-20387319D01*
X245657995Y-20387319D01*
X245658099Y-20387214D01*
X245658418Y-20386904D01*
X245659713Y-20388237D01*
X245659731Y-20388216D01*
X245658414Y-20386899D01*
X247651485Y-18393828D01*
X247864063Y-18181250D01*
X254150845Y-18181250D01*
X254151317Y-18186645D01*
X254169442Y-18393828D01*
X254169443Y-18393835D01*
X254169915Y-18399227D01*
X254171314Y-18404449D01*
X254171316Y-18404459D01*
X254225146Y-18605352D01*
X254226547Y-18610580D01*
X254228831Y-18615479D01*
X254228834Y-18615486D01*
X254316733Y-18803986D01*
X254316736Y-18803992D01*
X254319020Y-18808889D01*
X254322119Y-18813316D01*
X254322121Y-18813318D01*
X254441418Y-18983692D01*
X254441421Y-18983696D01*
X254444524Y-18988127D01*
X254599245Y-19142848D01*
X254778483Y-19268352D01*
X254976792Y-19360825D01*
X255134644Y-19403121D01*
X255182912Y-19416055D01*
X255182913Y-19416055D01*
X255188145Y-19417457D01*
X255406122Y-19436527D01*
X255624099Y-19417457D01*
X255835452Y-19360825D01*
X256033761Y-19268352D01*
X256212999Y-19142848D01*
X256367720Y-18988127D01*
X256493224Y-18808889D01*
X256585697Y-18610580D01*
X256642329Y-18399227D01*
X256661399Y-18181250D01*
X256642329Y-17963273D01*
X256585697Y-17751920D01*
X256493224Y-17553612D01*
X256367720Y-17374373D01*
X256212999Y-17219652D01*
X256208568Y-17216549D01*
X256208564Y-17216546D01*
X256038190Y-17097249D01*
X256038188Y-17097247D01*
X256033761Y-17094148D01*
X256028864Y-17091864D01*
X256028858Y-17091861D01*
X255840358Y-17003962D01*
X255840351Y-17003959D01*
X255835452Y-17001675D01*
X255830225Y-17000274D01*
X255830224Y-17000274D01*
X255629331Y-16946444D01*
X255629321Y-16946442D01*
X255624099Y-16945043D01*
X255618707Y-16944571D01*
X255618700Y-16944570D01*
X255411517Y-16926445D01*
X255406122Y-16925973D01*
X255400727Y-16926445D01*
X255193543Y-16944570D01*
X255193534Y-16944571D01*
X255188145Y-16945043D01*
X255182924Y-16946441D01*
X255182912Y-16946444D01*
X254982019Y-17000274D01*
X254982014Y-17000275D01*
X254976792Y-17001675D01*
X254971896Y-17003957D01*
X254971885Y-17003962D01*
X254783394Y-17091858D01*
X254783390Y-17091860D01*
X254778484Y-17094148D01*
X254774051Y-17097251D01*
X254774044Y-17097256D01*
X254603680Y-17216546D01*
X254603675Y-17216549D01*
X254599245Y-17219652D01*
X254595421Y-17223475D01*
X254595415Y-17223481D01*
X254448353Y-17370543D01*
X254448347Y-17370549D01*
X254444524Y-17374373D01*
X254441421Y-17378803D01*
X254441418Y-17378808D01*
X254322128Y-17549172D01*
X254322123Y-17549179D01*
X254319020Y-17553612D01*
X254316732Y-17558518D01*
X254316730Y-17558522D01*
X254228834Y-17747013D01*
X254228829Y-17747024D01*
X254226547Y-17751920D01*
X254225147Y-17757142D01*
X254225146Y-17757147D01*
X254171316Y-17958040D01*
X254171313Y-17958052D01*
X254169915Y-17963273D01*
X254169443Y-17968662D01*
X254169442Y-17968671D01*
X254151589Y-18172737D01*
X254150845Y-18181250D01*
X247864063Y-18181250D01*
X249827766Y-16217546D01*
X249832767Y-16212817D01*
X249870092Y-16179463D01*
X249870795Y-16178843D01*
X249902636Y-16150915D01*
X250067188Y-16006593D01*
X250077136Y-15998734D01*
X250176541Y-15928206D01*
X250179232Y-15926354D01*
X250337334Y-15820718D01*
X250346195Y-15815323D01*
X250463273Y-15750618D01*
X250468345Y-15747969D01*
X250629127Y-15668684D01*
X250636514Y-15665337D01*
X250640824Y-15663551D01*
X250762526Y-15613142D01*
X250770048Y-15610311D01*
X250939860Y-15552669D01*
X250945333Y-15550953D01*
X251073823Y-15513937D01*
X251083947Y-15511477D01*
X251270402Y-15474389D01*
X251273679Y-15473784D01*
X251393786Y-15453377D01*
X251406416Y-15451895D01*
X251664696Y-15434965D01*
X251665470Y-15434917D01*
X251718404Y-15431945D01*
X251725356Y-15431750D01*
X259087649Y-15431750D01*
X259094595Y-15431945D01*
X259096492Y-15432051D01*
X259143993Y-15434717D01*
X259144530Y-15434750D01*
X259406431Y-15451918D01*
X259419086Y-15453403D01*
X259537453Y-15473511D01*
X259540738Y-15474117D01*
X259689698Y-15503745D01*
X259729009Y-15511564D01*
X259739144Y-15514028D01*
X259798990Y-15531268D01*
X259866363Y-15550677D01*
X259871853Y-15552397D01*
X260042985Y-15610487D01*
X260050561Y-15613339D01*
X260175469Y-15665077D01*
X260182837Y-15668416D01*
X260344868Y-15748320D01*
X260349975Y-15750988D01*
X260465905Y-15815061D01*
X260474789Y-15820470D01*
X260634377Y-15927105D01*
X260637134Y-15929003D01*
X260735053Y-15998482D01*
X260745056Y-16006384D01*
X260886092Y-16130072D01*
X260942749Y-16179761D01*
X260942890Y-16179884D01*
X260943759Y-16180653D01*
X260979550Y-16212639D01*
X260984602Y-16217416D01*
X265119942Y-20352756D01*
X265124724Y-20357814D01*
X265157900Y-20394941D01*
X265158661Y-20395800D01*
X265220918Y-20466783D01*
X265330896Y-20592176D01*
X265338783Y-20602161D01*
X265352727Y-20621814D01*
X265409231Y-20701454D01*
X265411203Y-20704318D01*
X265516761Y-20862305D01*
X265522186Y-20871214D01*
X265586862Y-20988241D01*
X265589546Y-20993379D01*
X265668813Y-21154125D01*
X265672161Y-21161514D01*
X265724344Y-21287497D01*
X265727203Y-21295092D01*
X265784819Y-21464831D01*
X265786553Y-21470362D01*
X265823559Y-21598818D01*
X265826022Y-21608953D01*
X265863096Y-21795335D01*
X265863727Y-21798755D01*
X265884118Y-21918769D01*
X265885604Y-21931429D01*
X265902519Y-22189480D01*
X265902590Y-22190634D01*
X265905555Y-22243402D01*
X265905750Y-22250359D01*
X265905750Y-96812645D01*
X265905555Y-96819597D01*
X265902799Y-96868680D01*
X265902728Y-96869839D01*
X265885580Y-97131430D01*
X265884095Y-97144086D01*
X265863999Y-97262383D01*
X265863368Y-97265806D01*
X265825934Y-97454009D01*
X265823470Y-97464144D01*
X265786826Y-97591347D01*
X265785092Y-97596880D01*
X265727014Y-97767976D01*
X265724155Y-97775570D01*
X265672431Y-97900446D01*
X265669082Y-97907837D01*
X265589178Y-98069868D01*
X265586493Y-98075007D01*
X265522442Y-98190897D01*
X265517017Y-98199807D01*
X265410430Y-98359323D01*
X265408457Y-98362188D01*
X265339016Y-98460053D01*
X265331114Y-98470056D01*
X265157672Y-98667824D01*
X265156904Y-98668692D01*
X265124848Y-98704562D01*
X265120070Y-98709615D01*
X260984735Y-102844949D01*
X260979676Y-102849732D01*
X260942550Y-102882906D01*
X260941692Y-102883666D01*
X260745336Y-103055885D01*
X260735324Y-103063793D01*
X260636044Y-103134231D01*
X260633180Y-103136203D01*
X260475193Y-103241761D01*
X260466284Y-103247186D01*
X260349257Y-103311862D01*
X260344119Y-103314546D01*
X260183373Y-103393813D01*
X260175984Y-103397161D01*
X260050001Y-103449344D01*
X260042406Y-103452203D01*
X259872667Y-103509819D01*
X259867136Y-103511553D01*
X259738680Y-103548559D01*
X259728545Y-103551022D01*
X259542163Y-103588096D01*
X259538743Y-103588727D01*
X259418729Y-103609118D01*
X259406069Y-103610604D01*
X259148018Y-103627520D01*
X259146861Y-103627591D01*
X259094095Y-103630555D01*
X259087141Y-103630750D01*
X251724855Y-103630750D01*
X251717904Y-103630555D01*
X251668819Y-103627799D01*
X251667659Y-103627728D01*
X251406068Y-103610580D01*
X251393412Y-103609095D01*
X251275115Y-103588999D01*
X251271692Y-103588368D01*
X251083489Y-103550934D01*
X251073354Y-103548470D01*
X250946151Y-103511826D01*
X250940618Y-103510092D01*
X250769522Y-103452014D01*
X250761928Y-103449155D01*
X250637052Y-103397431D01*
X250629661Y-103394082D01*
X250467630Y-103314178D01*
X250462491Y-103311493D01*
X250346601Y-103247442D01*
X250337697Y-103242020D01*
X250178153Y-103135414D01*
X250175335Y-103133474D01*
X250077573Y-103064107D01*
X250077445Y-103064016D01*
X250067442Y-103056114D01*
X249924314Y-102930591D01*
X249869524Y-102882540D01*
X249868840Y-102881935D01*
X249832928Y-102849841D01*
X249827893Y-102845080D01*
X247864063Y-100881250D01*
X254151101Y-100881250D01*
X254151573Y-100886645D01*
X254169698Y-101093828D01*
X254169699Y-101093835D01*
X254170171Y-101099227D01*
X254171570Y-101104449D01*
X254171572Y-101104459D01*
X254225402Y-101305352D01*
X254226803Y-101310580D01*
X254229087Y-101315479D01*
X254229090Y-101315486D01*
X254316989Y-101503986D01*
X254316992Y-101503992D01*
X254319276Y-101508889D01*
X254322375Y-101513316D01*
X254322377Y-101513318D01*
X254441674Y-101683692D01*
X254441677Y-101683696D01*
X254444780Y-101688127D01*
X254599501Y-101842848D01*
X254778739Y-101968352D01*
X254977048Y-102060825D01*
X255134900Y-102103121D01*
X255183168Y-102116055D01*
X255183169Y-102116055D01*
X255188401Y-102117457D01*
X255406378Y-102136527D01*
X255624355Y-102117457D01*
X255835708Y-102060825D01*
X256034017Y-101968352D01*
X256213255Y-101842848D01*
X256367976Y-101688127D01*
X256493480Y-101508889D01*
X256585953Y-101310580D01*
X256642585Y-101099227D01*
X256661655Y-100881250D01*
X256642585Y-100663273D01*
X256585953Y-100451920D01*
X256493480Y-100253612D01*
X256367976Y-100074373D01*
X256213255Y-99919652D01*
X256208824Y-99916549D01*
X256208820Y-99916546D01*
X256038446Y-99797249D01*
X256038444Y-99797247D01*
X256034017Y-99794148D01*
X256029120Y-99791864D01*
X256029114Y-99791861D01*
X255840614Y-99703962D01*
X255840607Y-99703959D01*
X255835708Y-99701675D01*
X255830481Y-99700274D01*
X255830480Y-99700274D01*
X255629587Y-99646444D01*
X255629577Y-99646442D01*
X255624355Y-99645043D01*
X255618963Y-99644571D01*
X255618956Y-99644570D01*
X255411773Y-99626445D01*
X255406378Y-99625973D01*
X255400983Y-99626445D01*
X255193799Y-99644570D01*
X255193790Y-99644571D01*
X255188401Y-99645043D01*
X255183180Y-99646441D01*
X255183168Y-99646444D01*
X254982275Y-99700274D01*
X254982270Y-99700275D01*
X254977048Y-99701675D01*
X254972152Y-99703957D01*
X254972141Y-99703962D01*
X254783650Y-99791858D01*
X254783646Y-99791860D01*
X254778740Y-99794148D01*
X254774307Y-99797251D01*
X254774300Y-99797256D01*
X254603936Y-99916546D01*
X254603931Y-99916549D01*
X254599501Y-99919652D01*
X254595677Y-99923475D01*
X254595671Y-99923481D01*
X254448609Y-100070543D01*
X254448603Y-100070549D01*
X254444780Y-100074373D01*
X254441677Y-100078803D01*
X254441674Y-100078808D01*
X254322384Y-100249172D01*
X254322379Y-100249179D01*
X254319276Y-100253612D01*
X254316988Y-100258518D01*
X254316986Y-100258522D01*
X254229090Y-100447013D01*
X254229085Y-100447024D01*
X254226803Y-100451920D01*
X254225403Y-100457142D01*
X254225402Y-100457147D01*
X254171572Y-100658040D01*
X254171569Y-100658052D01*
X254170171Y-100663273D01*
X254169699Y-100668662D01*
X254169698Y-100668671D01*
X254151845Y-100872737D01*
X254151101Y-100881250D01*
X247864063Y-100881250D01*
X245690124Y-98707311D01*
X245690096Y-98707274D01*
X245690101Y-98707271D01*
X245576628Y-98593796D01*
X245330766Y-98387489D01*
X245067858Y-98203397D01*
X244845481Y-98075007D01*
X244792254Y-98044276D01*
X244792250Y-98044274D01*
X244789905Y-98042920D01*
X244499023Y-97907280D01*
X244496498Y-97906361D01*
X244496486Y-97906356D01*
X244199973Y-97798436D01*
X244199965Y-97798433D01*
X244197425Y-97797509D01*
X244194811Y-97796808D01*
X244194806Y-97796807D01*
X243890033Y-97715146D01*
X243890025Y-97715144D01*
X243887408Y-97714443D01*
X243884741Y-97713972D01*
X243884724Y-97713969D01*
X243574004Y-97659186D01*
X243573993Y-97659184D01*
X243571330Y-97658715D01*
X243568636Y-97658479D01*
X243568626Y-97658478D01*
X243254301Y-97630983D01*
X243254290Y-97630982D01*
X243251598Y-97630747D01*
X243248888Y-97630747D01*
X243091122Y-97630750D01*
X45833985Y-97630750D01*
X45833878Y-97630736D01*
X45833878Y-97630721D01*
X45833765Y-97630721D01*
X45676109Y-97630721D01*
X45676086Y-97630721D01*
X45673401Y-97630722D01*
X45670706Y-97630957D01*
X45670701Y-97630958D01*
X45356365Y-97658461D01*
X45356360Y-97658461D01*
X45353670Y-97658697D01*
X45351025Y-97659163D01*
X45351005Y-97659166D01*
X45040246Y-97713964D01*
X45040241Y-97713964D01*
X45037593Y-97714432D01*
X45034998Y-97715127D01*
X45034995Y-97715128D01*
X44730176Y-97796806D01*
X44730163Y-97796809D01*
X44727577Y-97797503D01*
X44725062Y-97798418D01*
X44725041Y-97798425D01*
X44428529Y-97906351D01*
X44428517Y-97906355D01*
X44425981Y-97907279D01*
X44423548Y-97908413D01*
X44423530Y-97908421D01*
X44137547Y-98041780D01*
X44137530Y-98041788D01*
X44135100Y-98042922D01*
X44132763Y-98044270D01*
X44132752Y-98044277D01*
X43859501Y-98202043D01*
X43859483Y-98202054D01*
X43857149Y-98203402D01*
X43854952Y-98204939D01*
X43854929Y-98204955D01*
X43596454Y-98385946D01*
X43596437Y-98385958D01*
X43594242Y-98387496D01*
X43592181Y-98389225D01*
X43592175Y-98389230D01*
X43470398Y-98491416D01*
X43348380Y-98593804D01*
X43346479Y-98595704D01*
X43346467Y-98595716D01*
X43235065Y-98707121D01*
X43234554Y-98707632D01*
X39097237Y-102844947D01*
X39092182Y-102849726D01*
X39055722Y-102882308D01*
X39054848Y-102883082D01*
X38857402Y-103056213D01*
X38847407Y-103064107D01*
X38750256Y-103133042D01*
X38747391Y-103135015D01*
X38587095Y-103242125D01*
X38578186Y-103247550D01*
X38462863Y-103311290D01*
X38457726Y-103313975D01*
X38295071Y-103394191D01*
X38287679Y-103397541D01*
X38163327Y-103449051D01*
X38155733Y-103451909D01*
X37983999Y-103510207D01*
X37978468Y-103511941D01*
X37851846Y-103548422D01*
X37841709Y-103550886D01*
X37652663Y-103588491D01*
X37649245Y-103589122D01*
X37531786Y-103609082D01*
X37519123Y-103610568D01*
X37254387Y-103627921D01*
X37253233Y-103627992D01*
X37210121Y-103630414D01*
X37207617Y-103630555D01*
X37200663Y-103630750D01*
X29837360Y-103630750D01*
X29830407Y-103630555D01*
X29824259Y-103630209D01*
X29781079Y-103627784D01*
X29779923Y-103627713D01*
X29518681Y-103610589D01*
X29506020Y-103609103D01*
X29387161Y-103588907D01*
X29383741Y-103588276D01*
X29196154Y-103550962D01*
X29186018Y-103548499D01*
X29058377Y-103511726D01*
X29052846Y-103509991D01*
X28882223Y-103452072D01*
X28874630Y-103449214D01*
X28749374Y-103397332D01*
X28741982Y-103393983D01*
X28580380Y-103314289D01*
X28575243Y-103311605D01*
X28458991Y-103247355D01*
X28450082Y-103241930D01*
X28291037Y-103135661D01*
X28288172Y-103133688D01*
X28189859Y-103063932D01*
X28179855Y-103056030D01*
X27983126Y-102883504D01*
X27982260Y-102882737D01*
X27945280Y-102849691D01*
X27940224Y-102844911D01*
X25976563Y-100881250D01*
X32263601Y-100881250D01*
X32264073Y-100886645D01*
X32282198Y-101093828D01*
X32282199Y-101093835D01*
X32282671Y-101099227D01*
X32284070Y-101104449D01*
X32284072Y-101104459D01*
X32337902Y-101305352D01*
X32339303Y-101310580D01*
X32341587Y-101315479D01*
X32341590Y-101315486D01*
X32429489Y-101503986D01*
X32429492Y-101503992D01*
X32431776Y-101508889D01*
X32434875Y-101513316D01*
X32434877Y-101513318D01*
X32554174Y-101683692D01*
X32554177Y-101683696D01*
X32557280Y-101688127D01*
X32712001Y-101842848D01*
X32891239Y-101968352D01*
X33089548Y-102060825D01*
X33247400Y-102103121D01*
X33295668Y-102116055D01*
X33295669Y-102116055D01*
X33300901Y-102117457D01*
X33518878Y-102136527D01*
X33736855Y-102117457D01*
X33948208Y-102060825D01*
X34146517Y-101968352D01*
X34325755Y-101842848D01*
X34480476Y-101688127D01*
X34605980Y-101508889D01*
X34698453Y-101310580D01*
X34755085Y-101099227D01*
X34774155Y-100881250D01*
X34755085Y-100663273D01*
X34698453Y-100451920D01*
X34605980Y-100253612D01*
X34480476Y-100074373D01*
X34325755Y-99919652D01*
X34321324Y-99916549D01*
X34321320Y-99916546D01*
X34150946Y-99797249D01*
X34150944Y-99797247D01*
X34146517Y-99794148D01*
X34141620Y-99791864D01*
X34141614Y-99791861D01*
X33953114Y-99703962D01*
X33953107Y-99703959D01*
X33948208Y-99701675D01*
X33942981Y-99700274D01*
X33942980Y-99700274D01*
X33742087Y-99646444D01*
X33742077Y-99646442D01*
X33736855Y-99645043D01*
X33731463Y-99644571D01*
X33731456Y-99644570D01*
X33524273Y-99626445D01*
X33518878Y-99625973D01*
X33513483Y-99626445D01*
X33306299Y-99644570D01*
X33306290Y-99644571D01*
X33300901Y-99645043D01*
X33295680Y-99646441D01*
X33295668Y-99646444D01*
X33094775Y-99700274D01*
X33094770Y-99700275D01*
X33089548Y-99701675D01*
X33084652Y-99703957D01*
X33084641Y-99703962D01*
X32896150Y-99791858D01*
X32896146Y-99791860D01*
X32891240Y-99794148D01*
X32886807Y-99797251D01*
X32886800Y-99797256D01*
X32716436Y-99916546D01*
X32716431Y-99916549D01*
X32712001Y-99919652D01*
X32708177Y-99923475D01*
X32708171Y-99923481D01*
X32561109Y-100070543D01*
X32561103Y-100070549D01*
X32557280Y-100074373D01*
X32554177Y-100078803D01*
X32554174Y-100078808D01*
X32434884Y-100249172D01*
X32434879Y-100249179D01*
X32431776Y-100253612D01*
X32429488Y-100258518D01*
X32429486Y-100258522D01*
X32341590Y-100447013D01*
X32341585Y-100447024D01*
X32339303Y-100451920D01*
X32337903Y-100457142D01*
X32337902Y-100457147D01*
X32284072Y-100658040D01*
X32284069Y-100658052D01*
X32282671Y-100663273D01*
X32282199Y-100668662D01*
X32282198Y-100668671D01*
X32264345Y-100872737D01*
X32263601Y-100881250D01*
X25976563Y-100881250D01*
X23805051Y-98709737D01*
X23800291Y-98704703D01*
X23767226Y-98667703D01*
X23766792Y-98667212D01*
X23593946Y-98470116D01*
X23586055Y-98460125D01*
X23516350Y-98361883D01*
X23514406Y-98359061D01*
X23408052Y-98199889D01*
X23402634Y-98190992D01*
X23365622Y-98124024D01*
X23338407Y-98074782D01*
X23335731Y-98069660D01*
X23333520Y-98065176D01*
X23255993Y-97907968D01*
X23252660Y-97900612D01*
X23200790Y-97775387D01*
X23197942Y-97767819D01*
X23139988Y-97597094D01*
X23138265Y-97591599D01*
X23101499Y-97463984D01*
X23099046Y-97453886D01*
X23061699Y-97266138D01*
X23061085Y-97262808D01*
X23040895Y-97143983D01*
X23039413Y-97131351D01*
X23022271Y-96869839D01*
X23022207Y-96868793D01*
X23019445Y-96819611D01*
X23019250Y-96812658D01*
X23019250Y-94106250D01*
X27624458Y-94106250D01*
X27624576Y-94106533D01*
X27624617Y-94106633D01*
X27624715Y-94106673D01*
X28624575Y-95106532D01*
X28624617Y-95106633D01*
X28624717Y-95106674D01*
X28625000Y-95106792D01*
X28625101Y-95106750D01*
X41224899Y-95106750D01*
X41225000Y-95106792D01*
X41225284Y-95106674D01*
X41225284Y-95106673D01*
X41225383Y-95106633D01*
X41225423Y-95106534D01*
X42225282Y-94106674D01*
X42225383Y-94106633D01*
X42225440Y-94106493D01*
X42225542Y-94106250D01*
X49055708Y-94106250D01*
X49055826Y-94106533D01*
X49055867Y-94106633D01*
X49055965Y-94106673D01*
X50055825Y-95106532D01*
X50055867Y-95106633D01*
X50055967Y-95106674D01*
X50056250Y-95106792D01*
X50056351Y-95106750D01*
X62656149Y-95106750D01*
X62656250Y-95106792D01*
X62656534Y-95106674D01*
X62656534Y-95106673D01*
X62656633Y-95106633D01*
X62656673Y-95106534D01*
X63656532Y-94106674D01*
X63656633Y-94106633D01*
X63656690Y-94106493D01*
X63656792Y-94106250D01*
X70486958Y-94106250D01*
X70487076Y-94106533D01*
X70487117Y-94106633D01*
X70487215Y-94106673D01*
X71487075Y-95106532D01*
X71487117Y-95106633D01*
X71487217Y-95106674D01*
X71487500Y-95106792D01*
X71487601Y-95106750D01*
X84087399Y-95106750D01*
X84087500Y-95106792D01*
X84087784Y-95106674D01*
X84087784Y-95106673D01*
X84087883Y-95106633D01*
X84087923Y-95106534D01*
X85087782Y-94106674D01*
X85087883Y-94106633D01*
X85087940Y-94106493D01*
X85088042Y-94106250D01*
X85088000Y-94106149D01*
X85088000Y-88106250D01*
X88565907Y-88106250D01*
X88585111Y-88313491D01*
X88586680Y-88319005D01*
X88640498Y-88508159D01*
X88640501Y-88508167D01*
X88642068Y-88513674D01*
X88644620Y-88518800D01*
X88644622Y-88518804D01*
X88732284Y-88694853D01*
X88732286Y-88694857D01*
X88734839Y-88699983D01*
X88738292Y-88704555D01*
X88856806Y-88861495D01*
X88856811Y-88861500D01*
X88860264Y-88866073D01*
X88864504Y-88869938D01*
X89009837Y-89002427D01*
X89009840Y-89002429D01*
X89014073Y-89006288D01*
X89191027Y-89115854D01*
X89385101Y-89191038D01*
X89589686Y-89229282D01*
X89792085Y-89229282D01*
X89797814Y-89229282D01*
X90002399Y-89191038D01*
X90196473Y-89115854D01*
X90373427Y-89006288D01*
X90527236Y-88866073D01*
X90652661Y-88699983D01*
X90745432Y-88513674D01*
X90802389Y-88313491D01*
X90821593Y-88106250D01*
X90802389Y-87899009D01*
X90745432Y-87698826D01*
X90652661Y-87512517D01*
X90588978Y-87428187D01*
X90530693Y-87351004D01*
X90530689Y-87351000D01*
X90527236Y-87346427D01*
X90378514Y-87210849D01*
X90377662Y-87210072D01*
X90377657Y-87210068D01*
X90373427Y-87206212D01*
X90368561Y-87203199D01*
X90368557Y-87203196D01*
X90201344Y-87099662D01*
X90201343Y-87099661D01*
X90196473Y-87096646D01*
X90191135Y-87094578D01*
X90191131Y-87094576D01*
X90007746Y-87023533D01*
X90007741Y-87023531D01*
X90002399Y-87021462D01*
X89996761Y-87020408D01*
X89803443Y-86984270D01*
X89803440Y-86984269D01*
X89797814Y-86983218D01*
X89589686Y-86983218D01*
X89584060Y-86984269D01*
X89584056Y-86984270D01*
X89390738Y-87020408D01*
X89390735Y-87020408D01*
X89385101Y-87021462D01*
X89379760Y-87023530D01*
X89379753Y-87023533D01*
X89196368Y-87094576D01*
X89196359Y-87094580D01*
X89191027Y-87096646D01*
X89186160Y-87099659D01*
X89186155Y-87099662D01*
X89018942Y-87203196D01*
X89018933Y-87203202D01*
X89014073Y-87206212D01*
X89009847Y-87210064D01*
X89009837Y-87210072D01*
X88864504Y-87342561D01*
X88864499Y-87342565D01*
X88860264Y-87346427D01*
X88856815Y-87350993D01*
X88856806Y-87351004D01*
X88738292Y-87507944D01*
X88734839Y-87512517D01*
X88732289Y-87517637D01*
X88732284Y-87517646D01*
X88644622Y-87693695D01*
X88644618Y-87693703D01*
X88642068Y-87698826D01*
X88640502Y-87704329D01*
X88640498Y-87704340D01*
X88586680Y-87893494D01*
X88585111Y-87899009D01*
X88565907Y-88106250D01*
X85088000Y-88106250D01*
X85088000Y-82106351D01*
X85088042Y-82106250D01*
X85087924Y-82105967D01*
X85087883Y-82105867D01*
X85087782Y-82105825D01*
X84088208Y-81106250D01*
X99886959Y-81106250D01*
X99887000Y-81106349D01*
X99887000Y-88106151D01*
X99887000Y-93606228D01*
X99886986Y-93606421D01*
X99887068Y-93606516D01*
X99887117Y-93606633D01*
X99887294Y-93606706D01*
X102887109Y-95106614D01*
X102887117Y-95106633D01*
X102887287Y-95106703D01*
X102887365Y-95106742D01*
X102887385Y-95106743D01*
X102887401Y-95106750D01*
X102887476Y-95106750D01*
X102887671Y-95106764D01*
X102887687Y-95106750D01*
X128887313Y-95106750D01*
X128887329Y-95106764D01*
X128887515Y-95106750D01*
X128887599Y-95106750D01*
X128887617Y-95106742D01*
X128887635Y-95106741D01*
X128887701Y-95106707D01*
X128887883Y-95106633D01*
X128887891Y-95106612D01*
X131887705Y-93606706D01*
X131887883Y-93606633D01*
X131887931Y-93606516D01*
X131888014Y-93606421D01*
X131888000Y-93606228D01*
X131888000Y-88106151D01*
X131888000Y-81106349D01*
X131888041Y-81106250D01*
X147511959Y-81106250D01*
X147512000Y-81106349D01*
X147512000Y-88106151D01*
X147512000Y-93606228D01*
X147511986Y-93606421D01*
X147512068Y-93606516D01*
X147512117Y-93606633D01*
X147512294Y-93606706D01*
X150512109Y-95106614D01*
X150512117Y-95106633D01*
X150512287Y-95106703D01*
X150512365Y-95106742D01*
X150512385Y-95106743D01*
X150512401Y-95106750D01*
X150512476Y-95106750D01*
X150512671Y-95106764D01*
X150512687Y-95106750D01*
X176512313Y-95106750D01*
X176512329Y-95106764D01*
X176512515Y-95106750D01*
X176512599Y-95106750D01*
X176512617Y-95106742D01*
X176512635Y-95106741D01*
X176512701Y-95106707D01*
X176512883Y-95106633D01*
X176512891Y-95106612D01*
X178513616Y-94106250D01*
X189549458Y-94106250D01*
X189549576Y-94106533D01*
X189549617Y-94106633D01*
X189549715Y-94106673D01*
X190549575Y-95106532D01*
X190549617Y-95106633D01*
X190549717Y-95106674D01*
X190550000Y-95106792D01*
X190550101Y-95106750D01*
X203149899Y-95106750D01*
X203150000Y-95106792D01*
X203150284Y-95106674D01*
X203150284Y-95106673D01*
X203150383Y-95106633D01*
X203150423Y-95106534D01*
X204150282Y-94106674D01*
X204150383Y-94106633D01*
X204150440Y-94106493D01*
X204150542Y-94106250D01*
X210980708Y-94106250D01*
X210980826Y-94106533D01*
X210980867Y-94106633D01*
X210980965Y-94106673D01*
X211980825Y-95106532D01*
X211980867Y-95106633D01*
X211980967Y-95106674D01*
X211981250Y-95106792D01*
X211981351Y-95106750D01*
X224581149Y-95106750D01*
X224581250Y-95106792D01*
X224581534Y-95106674D01*
X224581534Y-95106673D01*
X224581633Y-95106633D01*
X224581673Y-95106534D01*
X225581532Y-94106674D01*
X225581633Y-94106633D01*
X225581690Y-94106493D01*
X225581792Y-94106250D01*
X230030708Y-94106250D01*
X230030826Y-94106533D01*
X230030867Y-94106633D01*
X230030965Y-94106673D01*
X231030825Y-95106532D01*
X231030867Y-95106633D01*
X231030967Y-95106674D01*
X231031250Y-95106792D01*
X231031351Y-95106750D01*
X243631149Y-95106750D01*
X243631250Y-95106792D01*
X243631534Y-95106674D01*
X243631534Y-95106673D01*
X243631633Y-95106633D01*
X243631673Y-95106534D01*
X244631532Y-94106674D01*
X244631633Y-94106633D01*
X244631690Y-94106493D01*
X244631792Y-94106250D01*
X249080708Y-94106250D01*
X249080826Y-94106533D01*
X249080867Y-94106633D01*
X249080965Y-94106673D01*
X250080825Y-95106532D01*
X250080867Y-95106633D01*
X250080967Y-95106674D01*
X250081250Y-95106792D01*
X250081351Y-95106750D01*
X262681149Y-95106750D01*
X262681250Y-95106792D01*
X262681534Y-95106674D01*
X262681534Y-95106673D01*
X262681633Y-95106633D01*
X262681673Y-95106534D01*
X263681532Y-94106674D01*
X263681633Y-94106633D01*
X263681690Y-94106493D01*
X263681792Y-94106250D01*
X263681750Y-94106149D01*
X263681750Y-82106351D01*
X263681792Y-82106250D01*
X263681674Y-82105967D01*
X263681633Y-82105867D01*
X263681532Y-82105825D01*
X262681673Y-81105965D01*
X262681633Y-81105867D01*
X262681534Y-81105826D01*
X262681250Y-81105708D01*
X262681149Y-81105750D01*
X250081351Y-81105750D01*
X250081250Y-81105708D01*
X250081006Y-81105809D01*
X250080867Y-81105867D01*
X250080825Y-81105967D01*
X250072546Y-81114245D01*
X250072540Y-81114250D01*
X249089310Y-82097479D01*
X249089305Y-82097485D01*
X249080965Y-82105826D01*
X249080867Y-82105867D01*
X249080826Y-82105965D01*
X249080826Y-82105966D01*
X249080708Y-82106250D01*
X249080750Y-82106351D01*
X249080750Y-94106149D01*
X249080708Y-94106250D01*
X244631792Y-94106250D01*
X244631750Y-94106149D01*
X244631750Y-88106250D01*
X245728407Y-88106250D01*
X245747611Y-88313491D01*
X245749180Y-88319005D01*
X245802998Y-88508159D01*
X245803001Y-88508167D01*
X245804568Y-88513674D01*
X245807120Y-88518800D01*
X245807122Y-88518804D01*
X245894784Y-88694853D01*
X245894786Y-88694857D01*
X245897339Y-88699983D01*
X245900792Y-88704555D01*
X246019306Y-88861495D01*
X246019311Y-88861500D01*
X246022764Y-88866073D01*
X246027004Y-88869938D01*
X246172337Y-89002427D01*
X246172340Y-89002429D01*
X246176573Y-89006288D01*
X246353527Y-89115854D01*
X246547601Y-89191038D01*
X246752186Y-89229282D01*
X246954585Y-89229282D01*
X246960314Y-89229282D01*
X247164899Y-89191038D01*
X247358973Y-89115854D01*
X247535927Y-89006288D01*
X247689736Y-88866073D01*
X247815161Y-88699983D01*
X247907932Y-88513674D01*
X247964889Y-88313491D01*
X247984093Y-88106250D01*
X247964889Y-87899009D01*
X247907932Y-87698826D01*
X247815161Y-87512517D01*
X247751478Y-87428187D01*
X247693193Y-87351004D01*
X247693189Y-87351000D01*
X247689736Y-87346427D01*
X247541014Y-87210849D01*
X247540162Y-87210072D01*
X247540157Y-87210068D01*
X247535927Y-87206212D01*
X247531061Y-87203199D01*
X247531057Y-87203196D01*
X247363844Y-87099662D01*
X247363843Y-87099661D01*
X247358973Y-87096646D01*
X247353635Y-87094578D01*
X247353631Y-87094576D01*
X247170246Y-87023533D01*
X247170241Y-87023531D01*
X247164899Y-87021462D01*
X247159261Y-87020408D01*
X246965943Y-86984270D01*
X246965940Y-86984269D01*
X246960314Y-86983218D01*
X246752186Y-86983218D01*
X246746560Y-86984269D01*
X246746556Y-86984270D01*
X246553238Y-87020408D01*
X246553235Y-87020408D01*
X246547601Y-87021462D01*
X246542260Y-87023530D01*
X246542253Y-87023533D01*
X246358868Y-87094576D01*
X246358859Y-87094580D01*
X246353527Y-87096646D01*
X246348660Y-87099659D01*
X246348655Y-87099662D01*
X246181442Y-87203196D01*
X246181433Y-87203202D01*
X246176573Y-87206212D01*
X246172347Y-87210064D01*
X246172337Y-87210072D01*
X246027004Y-87342561D01*
X246026999Y-87342565D01*
X246022764Y-87346427D01*
X246019315Y-87350993D01*
X246019306Y-87351004D01*
X245900792Y-87507944D01*
X245897339Y-87512517D01*
X245894789Y-87517637D01*
X245894784Y-87517646D01*
X245807122Y-87693695D01*
X245807118Y-87693703D01*
X245804568Y-87698826D01*
X245803002Y-87704329D01*
X245802998Y-87704340D01*
X245749180Y-87893494D01*
X245747611Y-87899009D01*
X245728407Y-88106250D01*
X244631750Y-88106250D01*
X244631750Y-82106351D01*
X244631792Y-82106250D01*
X244631674Y-82105967D01*
X244631633Y-82105867D01*
X244631532Y-82105825D01*
X243631673Y-81105965D01*
X243631633Y-81105867D01*
X243631534Y-81105826D01*
X243631250Y-81105708D01*
X243631149Y-81105750D01*
X231031351Y-81105750D01*
X231031250Y-81105708D01*
X231031006Y-81105809D01*
X231030867Y-81105867D01*
X231030825Y-81105967D01*
X231022546Y-81114245D01*
X231022540Y-81114250D01*
X230039310Y-82097479D01*
X230039305Y-82097485D01*
X230030965Y-82105826D01*
X230030867Y-82105867D01*
X230030826Y-82105965D01*
X230030826Y-82105966D01*
X230030708Y-82106250D01*
X230030750Y-82106351D01*
X230030750Y-94106149D01*
X230030708Y-94106250D01*
X225581792Y-94106250D01*
X225581750Y-94106149D01*
X225581750Y-82106351D01*
X225581792Y-82106250D01*
X225581674Y-82105967D01*
X225581633Y-82105867D01*
X225581532Y-82105825D01*
X224581673Y-81105965D01*
X224581633Y-81105867D01*
X224581534Y-81105826D01*
X224581250Y-81105708D01*
X224581149Y-81105750D01*
X211981351Y-81105750D01*
X211981250Y-81105708D01*
X211981006Y-81105809D01*
X211980867Y-81105867D01*
X211980825Y-81105967D01*
X211972546Y-81114245D01*
X211972540Y-81114250D01*
X210989310Y-82097479D01*
X210989305Y-82097485D01*
X210980965Y-82105826D01*
X210980867Y-82105867D01*
X210980826Y-82105965D01*
X210980826Y-82105966D01*
X210980708Y-82106250D01*
X210980750Y-82106351D01*
X210980750Y-94106149D01*
X210980708Y-94106250D01*
X204150542Y-94106250D01*
X204150500Y-94106149D01*
X204150500Y-88106250D01*
X207628407Y-88106250D01*
X207647611Y-88313491D01*
X207649180Y-88319005D01*
X207702998Y-88508159D01*
X207703001Y-88508167D01*
X207704568Y-88513674D01*
X207707120Y-88518800D01*
X207707122Y-88518804D01*
X207794784Y-88694853D01*
X207794786Y-88694857D01*
X207797339Y-88699983D01*
X207800792Y-88704555D01*
X207919306Y-88861495D01*
X207919311Y-88861500D01*
X207922764Y-88866073D01*
X207927004Y-88869938D01*
X208072337Y-89002427D01*
X208072340Y-89002429D01*
X208076573Y-89006288D01*
X208253527Y-89115854D01*
X208447601Y-89191038D01*
X208652186Y-89229282D01*
X208854585Y-89229282D01*
X208860314Y-89229282D01*
X209064899Y-89191038D01*
X209258973Y-89115854D01*
X209435927Y-89006288D01*
X209589736Y-88866073D01*
X209715161Y-88699983D01*
X209807932Y-88513674D01*
X209864889Y-88313491D01*
X209884093Y-88106250D01*
X209864889Y-87899009D01*
X209807932Y-87698826D01*
X209715161Y-87512517D01*
X209651478Y-87428187D01*
X209593193Y-87351004D01*
X209593189Y-87351000D01*
X209589736Y-87346427D01*
X209441014Y-87210849D01*
X209440162Y-87210072D01*
X209440157Y-87210068D01*
X209435927Y-87206212D01*
X209431061Y-87203199D01*
X209431057Y-87203196D01*
X209263844Y-87099662D01*
X209263843Y-87099661D01*
X209258973Y-87096646D01*
X209253635Y-87094578D01*
X209253631Y-87094576D01*
X209070246Y-87023533D01*
X209070241Y-87023531D01*
X209064899Y-87021462D01*
X209059261Y-87020408D01*
X208865943Y-86984270D01*
X208865940Y-86984269D01*
X208860314Y-86983218D01*
X208652186Y-86983218D01*
X208646560Y-86984269D01*
X208646556Y-86984270D01*
X208453238Y-87020408D01*
X208453235Y-87020408D01*
X208447601Y-87021462D01*
X208442260Y-87023530D01*
X208442253Y-87023533D01*
X208258868Y-87094576D01*
X208258859Y-87094580D01*
X208253527Y-87096646D01*
X208248660Y-87099659D01*
X208248655Y-87099662D01*
X208081442Y-87203196D01*
X208081433Y-87203202D01*
X208076573Y-87206212D01*
X208072347Y-87210064D01*
X208072337Y-87210072D01*
X207927004Y-87342561D01*
X207926999Y-87342565D01*
X207922764Y-87346427D01*
X207919315Y-87350993D01*
X207919306Y-87351004D01*
X207800792Y-87507944D01*
X207797339Y-87512517D01*
X207794789Y-87517637D01*
X207794784Y-87517646D01*
X207707122Y-87693695D01*
X207707118Y-87693703D01*
X207704568Y-87698826D01*
X207703002Y-87704329D01*
X207702998Y-87704340D01*
X207649180Y-87893494D01*
X207647611Y-87899009D01*
X207628407Y-88106250D01*
X204150500Y-88106250D01*
X204150500Y-82106351D01*
X204150542Y-82106250D01*
X204150424Y-82105967D01*
X204150383Y-82105867D01*
X204150282Y-82105825D01*
X203150423Y-81105965D01*
X203150383Y-81105867D01*
X203150284Y-81105826D01*
X203150000Y-81105708D01*
X203149899Y-81105750D01*
X190550101Y-81105750D01*
X190550000Y-81105708D01*
X190549756Y-81105809D01*
X190549617Y-81105867D01*
X190549575Y-81105967D01*
X190541296Y-81114245D01*
X190541290Y-81114250D01*
X189558060Y-82097479D01*
X189558055Y-82097485D01*
X189549715Y-82105826D01*
X189549617Y-82105867D01*
X189549576Y-82105965D01*
X189549576Y-82105966D01*
X189549458Y-82106250D01*
X189549500Y-82106351D01*
X189549500Y-94106149D01*
X189549458Y-94106250D01*
X178513616Y-94106250D01*
X179512705Y-93606706D01*
X179512883Y-93606633D01*
X179512931Y-93606516D01*
X179513014Y-93606421D01*
X179513000Y-93606228D01*
X179513000Y-88106151D01*
X179513000Y-81106349D01*
X179513041Y-81106250D01*
X179512883Y-81105867D01*
X179512882Y-81105866D01*
X179512500Y-81105709D01*
X179512401Y-81105750D01*
X147512599Y-81105750D01*
X147512500Y-81105709D01*
X147512117Y-81105866D01*
X147512117Y-81105867D01*
X147511959Y-81106250D01*
X131888041Y-81106250D01*
X131887883Y-81105867D01*
X131887882Y-81105866D01*
X131887500Y-81105709D01*
X131887401Y-81105750D01*
X99887599Y-81105750D01*
X99887500Y-81105709D01*
X99887117Y-81105866D01*
X99887117Y-81105867D01*
X99886959Y-81106250D01*
X84088208Y-81106250D01*
X84087923Y-81105965D01*
X84087883Y-81105867D01*
X84087784Y-81105826D01*
X84087500Y-81105708D01*
X84087399Y-81105750D01*
X71487601Y-81105750D01*
X71487500Y-81105708D01*
X71487256Y-81105809D01*
X71487117Y-81105867D01*
X71487075Y-81105967D01*
X71478796Y-81114245D01*
X71478790Y-81114250D01*
X70495560Y-82097479D01*
X70495555Y-82097485D01*
X70487215Y-82105826D01*
X70487117Y-82105867D01*
X70487076Y-82105965D01*
X70487076Y-82105966D01*
X70486958Y-82106250D01*
X70487000Y-82106351D01*
X70487000Y-94106149D01*
X70486958Y-94106250D01*
X63656792Y-94106250D01*
X63656750Y-94106149D01*
X63656750Y-88106250D01*
X67134657Y-88106250D01*
X67153861Y-88313491D01*
X67155430Y-88319005D01*
X67209248Y-88508159D01*
X67209251Y-88508167D01*
X67210818Y-88513674D01*
X67213370Y-88518800D01*
X67213372Y-88518804D01*
X67301034Y-88694853D01*
X67301036Y-88694857D01*
X67303589Y-88699983D01*
X67307042Y-88704555D01*
X67425556Y-88861495D01*
X67425561Y-88861500D01*
X67429014Y-88866073D01*
X67433254Y-88869938D01*
X67578587Y-89002427D01*
X67578590Y-89002429D01*
X67582823Y-89006288D01*
X67759777Y-89115854D01*
X67953851Y-89191038D01*
X68158436Y-89229282D01*
X68360835Y-89229282D01*
X68366564Y-89229282D01*
X68571149Y-89191038D01*
X68765223Y-89115854D01*
X68942177Y-89006288D01*
X69095986Y-88866073D01*
X69221411Y-88699983D01*
X69314182Y-88513674D01*
X69371139Y-88313491D01*
X69390343Y-88106250D01*
X69371139Y-87899009D01*
X69314182Y-87698826D01*
X69221411Y-87512517D01*
X69157728Y-87428187D01*
X69099443Y-87351004D01*
X69099439Y-87351000D01*
X69095986Y-87346427D01*
X68947264Y-87210849D01*
X68946412Y-87210072D01*
X68946407Y-87210068D01*
X68942177Y-87206212D01*
X68937311Y-87203199D01*
X68937307Y-87203196D01*
X68770094Y-87099662D01*
X68770093Y-87099661D01*
X68765223Y-87096646D01*
X68759885Y-87094578D01*
X68759881Y-87094576D01*
X68576496Y-87023533D01*
X68576491Y-87023531D01*
X68571149Y-87021462D01*
X68565511Y-87020408D01*
X68372193Y-86984270D01*
X68372190Y-86984269D01*
X68366564Y-86983218D01*
X68158436Y-86983218D01*
X68152810Y-86984269D01*
X68152806Y-86984270D01*
X67959488Y-87020408D01*
X67959485Y-87020408D01*
X67953851Y-87021462D01*
X67948510Y-87023530D01*
X67948503Y-87023533D01*
X67765118Y-87094576D01*
X67765109Y-87094580D01*
X67759777Y-87096646D01*
X67754910Y-87099659D01*
X67754905Y-87099662D01*
X67587692Y-87203196D01*
X67587683Y-87203202D01*
X67582823Y-87206212D01*
X67578597Y-87210064D01*
X67578587Y-87210072D01*
X67433254Y-87342561D01*
X67433249Y-87342565D01*
X67429014Y-87346427D01*
X67425565Y-87350993D01*
X67425556Y-87351004D01*
X67307042Y-87507944D01*
X67303589Y-87512517D01*
X67301039Y-87517637D01*
X67301034Y-87517646D01*
X67213372Y-87693695D01*
X67213368Y-87693703D01*
X67210818Y-87698826D01*
X67209252Y-87704329D01*
X67209248Y-87704340D01*
X67155430Y-87893494D01*
X67153861Y-87899009D01*
X67134657Y-88106250D01*
X63656750Y-88106250D01*
X63656750Y-82106351D01*
X63656792Y-82106250D01*
X63656674Y-82105967D01*
X63656633Y-82105867D01*
X63656532Y-82105825D01*
X62656673Y-81105965D01*
X62656633Y-81105867D01*
X62656534Y-81105826D01*
X62656250Y-81105708D01*
X62656149Y-81105750D01*
X50056351Y-81105750D01*
X50056250Y-81105708D01*
X50056006Y-81105809D01*
X50055867Y-81105867D01*
X50055825Y-81105967D01*
X50047546Y-81114245D01*
X50047540Y-81114250D01*
X49064310Y-82097479D01*
X49064305Y-82097485D01*
X49055965Y-82105826D01*
X49055867Y-82105867D01*
X49055826Y-82105965D01*
X49055826Y-82105966D01*
X49055708Y-82106250D01*
X49055750Y-82106351D01*
X49055750Y-94106149D01*
X49055708Y-94106250D01*
X42225542Y-94106250D01*
X42225500Y-94106149D01*
X42225500Y-88106250D01*
X43322157Y-88106250D01*
X43341361Y-88313491D01*
X43342930Y-88319005D01*
X43396748Y-88508159D01*
X43396751Y-88508167D01*
X43398318Y-88513674D01*
X43400870Y-88518800D01*
X43400872Y-88518804D01*
X43488534Y-88694853D01*
X43488536Y-88694857D01*
X43491089Y-88699983D01*
X43494542Y-88704555D01*
X43613056Y-88861495D01*
X43613061Y-88861500D01*
X43616514Y-88866073D01*
X43620754Y-88869938D01*
X43766087Y-89002427D01*
X43766090Y-89002429D01*
X43770323Y-89006288D01*
X43947277Y-89115854D01*
X44141351Y-89191038D01*
X44345936Y-89229282D01*
X44548335Y-89229282D01*
X44554064Y-89229282D01*
X44758649Y-89191038D01*
X44952723Y-89115854D01*
X45129677Y-89006288D01*
X45283486Y-88866073D01*
X45408911Y-88699983D01*
X45501682Y-88513674D01*
X45558639Y-88313491D01*
X45577843Y-88106250D01*
X45558639Y-87899009D01*
X45501682Y-87698826D01*
X45408911Y-87512517D01*
X45345228Y-87428187D01*
X45286943Y-87351004D01*
X45286939Y-87351000D01*
X45283486Y-87346427D01*
X45134764Y-87210849D01*
X45133912Y-87210072D01*
X45133907Y-87210068D01*
X45129677Y-87206212D01*
X45124811Y-87203199D01*
X45124807Y-87203196D01*
X44957594Y-87099662D01*
X44957593Y-87099661D01*
X44952723Y-87096646D01*
X44947385Y-87094578D01*
X44947381Y-87094576D01*
X44763996Y-87023533D01*
X44763991Y-87023531D01*
X44758649Y-87021462D01*
X44753011Y-87020408D01*
X44559693Y-86984270D01*
X44559690Y-86984269D01*
X44554064Y-86983218D01*
X44345936Y-86983218D01*
X44340310Y-86984269D01*
X44340306Y-86984270D01*
X44146988Y-87020408D01*
X44146985Y-87020408D01*
X44141351Y-87021462D01*
X44136010Y-87023530D01*
X44136003Y-87023533D01*
X43952618Y-87094576D01*
X43952609Y-87094580D01*
X43947277Y-87096646D01*
X43942410Y-87099659D01*
X43942405Y-87099662D01*
X43775192Y-87203196D01*
X43775183Y-87203202D01*
X43770323Y-87206212D01*
X43766097Y-87210064D01*
X43766087Y-87210072D01*
X43620754Y-87342561D01*
X43620749Y-87342565D01*
X43616514Y-87346427D01*
X43613065Y-87350993D01*
X43613056Y-87351004D01*
X43494542Y-87507944D01*
X43491089Y-87512517D01*
X43488539Y-87517637D01*
X43488534Y-87517646D01*
X43400872Y-87693695D01*
X43400868Y-87693703D01*
X43398318Y-87698826D01*
X43396752Y-87704329D01*
X43396748Y-87704340D01*
X43342930Y-87893494D01*
X43341361Y-87899009D01*
X43322157Y-88106250D01*
X42225500Y-88106250D01*
X42225500Y-82106351D01*
X42225542Y-82106250D01*
X42225424Y-82105967D01*
X42225383Y-82105867D01*
X42225282Y-82105825D01*
X41225423Y-81105965D01*
X41225383Y-81105867D01*
X41225284Y-81105826D01*
X41225000Y-81105708D01*
X41224899Y-81105750D01*
X28625101Y-81105750D01*
X28625000Y-81105708D01*
X28624756Y-81105809D01*
X28624617Y-81105867D01*
X28624575Y-81105967D01*
X28616296Y-81114245D01*
X28616290Y-81114250D01*
X27633060Y-82097479D01*
X27633055Y-82097485D01*
X27624715Y-82105826D01*
X27624617Y-82105867D01*
X27624576Y-82105965D01*
X27624576Y-82105966D01*
X27624458Y-82106250D01*
X27624500Y-82106351D01*
X27624500Y-94106149D01*
X27624458Y-94106250D01*
X23019250Y-94106250D01*
X23019250Y-75056250D01*
X32386958Y-75056250D01*
X32387076Y-75056533D01*
X32387117Y-75056633D01*
X32387215Y-75056673D01*
X33387075Y-76056532D01*
X33387117Y-76056633D01*
X33387217Y-76056674D01*
X33387500Y-76056792D01*
X33387601Y-76056750D01*
X45987399Y-76056750D01*
X45987500Y-76056792D01*
X45987784Y-76056674D01*
X45987784Y-76056673D01*
X45987883Y-76056633D01*
X45987923Y-76056534D01*
X46987782Y-75056674D01*
X46987883Y-75056633D01*
X46987940Y-75056493D01*
X46988042Y-75056250D01*
X58580708Y-75056250D01*
X58580826Y-75056533D01*
X58580867Y-75056633D01*
X58580965Y-75056673D01*
X59580825Y-76056532D01*
X59580867Y-76056633D01*
X59580967Y-76056674D01*
X59581250Y-76056792D01*
X59581351Y-76056750D01*
X72181149Y-76056750D01*
X72181250Y-76056792D01*
X72181534Y-76056674D01*
X72181534Y-76056673D01*
X72181633Y-76056633D01*
X72181673Y-76056534D01*
X73181532Y-75056674D01*
X73181633Y-75056633D01*
X73181690Y-75056493D01*
X73181792Y-75056250D01*
X77630708Y-75056250D01*
X77630826Y-75056533D01*
X77630867Y-75056633D01*
X77630965Y-75056673D01*
X78630825Y-76056532D01*
X78630867Y-76056633D01*
X78630967Y-76056674D01*
X78631250Y-76056792D01*
X78631351Y-76056750D01*
X91231149Y-76056750D01*
X91231250Y-76056792D01*
X91231534Y-76056674D01*
X91231534Y-76056673D01*
X91231633Y-76056633D01*
X91231673Y-76056534D01*
X92231532Y-75056674D01*
X92231633Y-75056633D01*
X92231690Y-75056493D01*
X92231792Y-75056250D01*
X96680708Y-75056250D01*
X96680826Y-75056533D01*
X96680867Y-75056633D01*
X96680965Y-75056673D01*
X97680825Y-76056532D01*
X97680867Y-76056633D01*
X97680967Y-76056674D01*
X97681250Y-76056792D01*
X97681351Y-76056750D01*
X110281149Y-76056750D01*
X110281250Y-76056792D01*
X110281534Y-76056674D01*
X110281534Y-76056673D01*
X110281633Y-76056633D01*
X110281673Y-76056534D01*
X111281532Y-75056674D01*
X111281633Y-75056633D01*
X111281690Y-75056493D01*
X111281792Y-75056250D01*
X115730708Y-75056250D01*
X115730826Y-75056533D01*
X115730867Y-75056633D01*
X115730965Y-75056673D01*
X116730825Y-76056532D01*
X116730867Y-76056633D01*
X116730967Y-76056674D01*
X116731250Y-76056792D01*
X116731351Y-76056750D01*
X129331149Y-76056750D01*
X129331250Y-76056792D01*
X129331534Y-76056674D01*
X129331534Y-76056673D01*
X129331633Y-76056633D01*
X129331673Y-76056534D01*
X130331532Y-75056674D01*
X130331633Y-75056633D01*
X130331690Y-75056493D01*
X130331792Y-75056250D01*
X134780708Y-75056250D01*
X134780826Y-75056533D01*
X134780867Y-75056633D01*
X134780965Y-75056673D01*
X135780825Y-76056532D01*
X135780867Y-76056633D01*
X135780967Y-76056674D01*
X135781250Y-76056792D01*
X135781351Y-76056750D01*
X148381149Y-76056750D01*
X148381250Y-76056792D01*
X148381534Y-76056674D01*
X148381534Y-76056673D01*
X148381633Y-76056633D01*
X148381673Y-76056534D01*
X149381532Y-75056674D01*
X149381633Y-75056633D01*
X149381690Y-75056493D01*
X149381792Y-75056250D01*
X153830708Y-75056250D01*
X153830826Y-75056533D01*
X153830867Y-75056633D01*
X153830965Y-75056673D01*
X154830825Y-76056532D01*
X154830867Y-76056633D01*
X154830967Y-76056674D01*
X154831250Y-76056792D01*
X154831351Y-76056750D01*
X167431149Y-76056750D01*
X167431250Y-76056792D01*
X167431534Y-76056674D01*
X167431534Y-76056673D01*
X167431633Y-76056633D01*
X167431673Y-76056534D01*
X168431532Y-75056674D01*
X168431633Y-75056633D01*
X168431690Y-75056493D01*
X168431792Y-75056250D01*
X172880708Y-75056250D01*
X172880826Y-75056533D01*
X172880867Y-75056633D01*
X172880965Y-75056673D01*
X173880825Y-76056532D01*
X173880867Y-76056633D01*
X173880967Y-76056674D01*
X173881250Y-76056792D01*
X173881351Y-76056750D01*
X186481149Y-76056750D01*
X186481250Y-76056792D01*
X186481534Y-76056674D01*
X186481534Y-76056673D01*
X186481633Y-76056633D01*
X186481673Y-76056534D01*
X187481532Y-75056674D01*
X187481633Y-75056633D01*
X187481690Y-75056493D01*
X187481792Y-75056250D01*
X191930708Y-75056250D01*
X191930826Y-75056533D01*
X191930867Y-75056633D01*
X191930965Y-75056673D01*
X192930825Y-76056532D01*
X192930867Y-76056633D01*
X192930967Y-76056674D01*
X192931250Y-76056792D01*
X192931351Y-76056750D01*
X205531149Y-76056750D01*
X205531250Y-76056792D01*
X205531534Y-76056674D01*
X205531534Y-76056673D01*
X205531633Y-76056633D01*
X205531673Y-76056534D01*
X206531532Y-75056674D01*
X206531633Y-75056633D01*
X206531690Y-75056493D01*
X206531792Y-75056250D01*
X210980708Y-75056250D01*
X210980826Y-75056533D01*
X210980867Y-75056633D01*
X210980965Y-75056673D01*
X211980825Y-76056532D01*
X211980867Y-76056633D01*
X211980967Y-76056674D01*
X211981250Y-76056792D01*
X211981351Y-76056750D01*
X224581149Y-76056750D01*
X224581250Y-76056792D01*
X224581534Y-76056674D01*
X224581534Y-76056673D01*
X224581633Y-76056633D01*
X224581673Y-76056534D01*
X225581532Y-75056674D01*
X225581633Y-75056633D01*
X225581690Y-75056493D01*
X225581792Y-75056250D01*
X230030708Y-75056250D01*
X230030826Y-75056533D01*
X230030867Y-75056633D01*
X230030965Y-75056673D01*
X231030825Y-76056532D01*
X231030867Y-76056633D01*
X231030967Y-76056674D01*
X231031250Y-76056792D01*
X231031351Y-76056750D01*
X243631149Y-76056750D01*
X243631250Y-76056792D01*
X243631534Y-76056674D01*
X243631534Y-76056673D01*
X243631633Y-76056633D01*
X243631673Y-76056534D01*
X244631532Y-75056674D01*
X244631633Y-75056633D01*
X244631690Y-75056493D01*
X244631792Y-75056250D01*
X249080708Y-75056250D01*
X249080826Y-75056533D01*
X249080867Y-75056633D01*
X249080965Y-75056673D01*
X250080825Y-76056532D01*
X250080867Y-76056633D01*
X250080967Y-76056674D01*
X250081250Y-76056792D01*
X250081351Y-76056750D01*
X262681149Y-76056750D01*
X262681250Y-76056792D01*
X262681534Y-76056674D01*
X262681534Y-76056673D01*
X262681633Y-76056633D01*
X262681673Y-76056534D01*
X263681532Y-75056674D01*
X263681633Y-75056633D01*
X263681690Y-75056493D01*
X263681792Y-75056250D01*
X263681750Y-75056149D01*
X263681750Y-63056351D01*
X263681792Y-63056250D01*
X263681674Y-63055967D01*
X263681633Y-63055867D01*
X263681532Y-63055825D01*
X262681673Y-62055965D01*
X262681633Y-62055867D01*
X262681534Y-62055826D01*
X262681250Y-62055708D01*
X262681149Y-62055750D01*
X250081351Y-62055750D01*
X250081250Y-62055708D01*
X250081006Y-62055809D01*
X250080867Y-62055867D01*
X250080825Y-62055967D01*
X250072546Y-62064245D01*
X250072540Y-62064250D01*
X249089310Y-63047479D01*
X249089305Y-63047485D01*
X249080965Y-63055826D01*
X249080867Y-63055867D01*
X249080826Y-63055965D01*
X249080826Y-63055966D01*
X249080708Y-63056250D01*
X249080750Y-63056351D01*
X249080750Y-75056149D01*
X249080708Y-75056250D01*
X244631792Y-75056250D01*
X244631750Y-75056149D01*
X244631750Y-69056250D01*
X245728407Y-69056250D01*
X245747611Y-69263491D01*
X245749180Y-69269005D01*
X245802998Y-69458159D01*
X245803001Y-69458167D01*
X245804568Y-69463674D01*
X245807120Y-69468800D01*
X245807122Y-69468804D01*
X245894784Y-69644853D01*
X245894786Y-69644857D01*
X245897339Y-69649983D01*
X245900792Y-69654555D01*
X246019306Y-69811495D01*
X246019311Y-69811500D01*
X246022764Y-69816073D01*
X246027004Y-69819938D01*
X246172337Y-69952427D01*
X246172340Y-69952429D01*
X246176573Y-69956288D01*
X246353527Y-70065854D01*
X246547601Y-70141038D01*
X246752186Y-70179282D01*
X246954585Y-70179282D01*
X246960314Y-70179282D01*
X247164899Y-70141038D01*
X247358973Y-70065854D01*
X247535927Y-69956288D01*
X247689736Y-69816073D01*
X247815161Y-69649983D01*
X247907932Y-69463674D01*
X247964889Y-69263491D01*
X247984093Y-69056250D01*
X247964889Y-68849009D01*
X247907932Y-68648826D01*
X247815161Y-68462517D01*
X247751478Y-68378187D01*
X247693193Y-68301004D01*
X247693189Y-68301000D01*
X247689736Y-68296427D01*
X247541014Y-68160849D01*
X247540162Y-68160072D01*
X247540157Y-68160068D01*
X247535927Y-68156212D01*
X247531061Y-68153199D01*
X247531057Y-68153196D01*
X247363844Y-68049662D01*
X247363843Y-68049661D01*
X247358973Y-68046646D01*
X247353635Y-68044578D01*
X247353631Y-68044576D01*
X247170246Y-67973533D01*
X247170241Y-67973531D01*
X247164899Y-67971462D01*
X247159261Y-67970408D01*
X246965943Y-67934270D01*
X246965940Y-67934269D01*
X246960314Y-67933218D01*
X246752186Y-67933218D01*
X246746560Y-67934269D01*
X246746556Y-67934270D01*
X246553238Y-67970408D01*
X246553235Y-67970408D01*
X246547601Y-67971462D01*
X246542260Y-67973530D01*
X246542253Y-67973533D01*
X246358868Y-68044576D01*
X246358859Y-68044580D01*
X246353527Y-68046646D01*
X246348660Y-68049659D01*
X246348655Y-68049662D01*
X246181442Y-68153196D01*
X246181433Y-68153202D01*
X246176573Y-68156212D01*
X246172347Y-68160064D01*
X246172337Y-68160072D01*
X246027004Y-68292561D01*
X246026999Y-68292565D01*
X246022764Y-68296427D01*
X246019315Y-68300993D01*
X246019306Y-68301004D01*
X245900792Y-68457944D01*
X245897339Y-68462517D01*
X245894789Y-68467637D01*
X245894784Y-68467646D01*
X245807122Y-68643695D01*
X245807118Y-68643703D01*
X245804568Y-68648826D01*
X245803002Y-68654329D01*
X245802998Y-68654340D01*
X245749180Y-68843494D01*
X245747611Y-68849009D01*
X245728407Y-69056250D01*
X244631750Y-69056250D01*
X244631750Y-63056351D01*
X244631792Y-63056250D01*
X244631674Y-63055967D01*
X244631633Y-63055867D01*
X244631532Y-63055825D01*
X243631673Y-62055965D01*
X243631633Y-62055867D01*
X243631534Y-62055826D01*
X243631250Y-62055708D01*
X243631149Y-62055750D01*
X231031351Y-62055750D01*
X231031250Y-62055708D01*
X231031006Y-62055809D01*
X231030867Y-62055867D01*
X231030825Y-62055967D01*
X231022546Y-62064245D01*
X231022540Y-62064250D01*
X230039310Y-63047479D01*
X230039305Y-63047485D01*
X230030965Y-63055826D01*
X230030867Y-63055867D01*
X230030826Y-63055965D01*
X230030826Y-63055966D01*
X230030708Y-63056250D01*
X230030750Y-63056351D01*
X230030750Y-75056149D01*
X230030708Y-75056250D01*
X225581792Y-75056250D01*
X225581750Y-75056149D01*
X225581750Y-63056351D01*
X225581792Y-63056250D01*
X225581674Y-63055967D01*
X225581633Y-63055867D01*
X225581532Y-63055825D01*
X224581673Y-62055965D01*
X224581633Y-62055867D01*
X224581534Y-62055826D01*
X224581250Y-62055708D01*
X224581149Y-62055750D01*
X211981351Y-62055750D01*
X211981250Y-62055708D01*
X211981006Y-62055809D01*
X211980867Y-62055867D01*
X211980825Y-62055967D01*
X211972546Y-62064245D01*
X211972540Y-62064250D01*
X210989310Y-63047479D01*
X210989305Y-63047485D01*
X210980965Y-63055826D01*
X210980867Y-63055867D01*
X210980826Y-63055965D01*
X210980826Y-63055966D01*
X210980708Y-63056250D01*
X210980750Y-63056351D01*
X210980750Y-75056149D01*
X210980708Y-75056250D01*
X206531792Y-75056250D01*
X206531750Y-75056149D01*
X206531750Y-69056250D01*
X207628407Y-69056250D01*
X207647611Y-69263491D01*
X207649180Y-69269005D01*
X207702998Y-69458159D01*
X207703001Y-69458167D01*
X207704568Y-69463674D01*
X207707120Y-69468800D01*
X207707122Y-69468804D01*
X207794784Y-69644853D01*
X207794786Y-69644857D01*
X207797339Y-69649983D01*
X207800792Y-69654555D01*
X207919306Y-69811495D01*
X207919311Y-69811500D01*
X207922764Y-69816073D01*
X207927004Y-69819938D01*
X208072337Y-69952427D01*
X208072340Y-69952429D01*
X208076573Y-69956288D01*
X208253527Y-70065854D01*
X208447601Y-70141038D01*
X208652186Y-70179282D01*
X208854585Y-70179282D01*
X208860314Y-70179282D01*
X209064899Y-70141038D01*
X209258973Y-70065854D01*
X209435927Y-69956288D01*
X209589736Y-69816073D01*
X209715161Y-69649983D01*
X209807932Y-69463674D01*
X209864889Y-69263491D01*
X209884093Y-69056250D01*
X209864889Y-68849009D01*
X209807932Y-68648826D01*
X209715161Y-68462517D01*
X209651478Y-68378187D01*
X209593193Y-68301004D01*
X209593189Y-68301000D01*
X209589736Y-68296427D01*
X209441014Y-68160849D01*
X209440162Y-68160072D01*
X209440157Y-68160068D01*
X209435927Y-68156212D01*
X209431061Y-68153199D01*
X209431057Y-68153196D01*
X209263844Y-68049662D01*
X209263843Y-68049661D01*
X209258973Y-68046646D01*
X209253635Y-68044578D01*
X209253631Y-68044576D01*
X209070246Y-67973533D01*
X209070241Y-67973531D01*
X209064899Y-67971462D01*
X209059261Y-67970408D01*
X208865943Y-67934270D01*
X208865940Y-67934269D01*
X208860314Y-67933218D01*
X208652186Y-67933218D01*
X208646560Y-67934269D01*
X208646556Y-67934270D01*
X208453238Y-67970408D01*
X208453235Y-67970408D01*
X208447601Y-67971462D01*
X208442260Y-67973530D01*
X208442253Y-67973533D01*
X208258868Y-68044576D01*
X208258859Y-68044580D01*
X208253527Y-68046646D01*
X208248660Y-68049659D01*
X208248655Y-68049662D01*
X208081442Y-68153196D01*
X208081433Y-68153202D01*
X208076573Y-68156212D01*
X208072347Y-68160064D01*
X208072337Y-68160072D01*
X207927004Y-68292561D01*
X207926999Y-68292565D01*
X207922764Y-68296427D01*
X207919315Y-68300993D01*
X207919306Y-68301004D01*
X207800792Y-68457944D01*
X207797339Y-68462517D01*
X207794789Y-68467637D01*
X207794784Y-68467646D01*
X207707122Y-68643695D01*
X207707118Y-68643703D01*
X207704568Y-68648826D01*
X207703002Y-68654329D01*
X207702998Y-68654340D01*
X207649180Y-68843494D01*
X207647611Y-68849009D01*
X207628407Y-69056250D01*
X206531750Y-69056250D01*
X206531750Y-63056351D01*
X206531792Y-63056250D01*
X206531674Y-63055967D01*
X206531633Y-63055867D01*
X206531532Y-63055825D01*
X205531673Y-62055965D01*
X205531633Y-62055867D01*
X205531534Y-62055826D01*
X205531250Y-62055708D01*
X205531149Y-62055750D01*
X192931351Y-62055750D01*
X192931250Y-62055708D01*
X192931006Y-62055809D01*
X192930867Y-62055867D01*
X192930825Y-62055967D01*
X192922546Y-62064245D01*
X192922540Y-62064250D01*
X191939310Y-63047479D01*
X191939305Y-63047485D01*
X191930965Y-63055826D01*
X191930867Y-63055867D01*
X191930826Y-63055965D01*
X191930826Y-63055966D01*
X191930708Y-63056250D01*
X191930750Y-63056351D01*
X191930750Y-75056149D01*
X191930708Y-75056250D01*
X187481792Y-75056250D01*
X187481750Y-75056149D01*
X187481750Y-63056351D01*
X187481792Y-63056250D01*
X187481674Y-63055967D01*
X187481633Y-63055867D01*
X187481532Y-63055825D01*
X186481673Y-62055965D01*
X186481633Y-62055867D01*
X186481534Y-62055826D01*
X186481250Y-62055708D01*
X186481149Y-62055750D01*
X173881351Y-62055750D01*
X173881250Y-62055708D01*
X173881006Y-62055809D01*
X173880867Y-62055867D01*
X173880825Y-62055967D01*
X173872546Y-62064245D01*
X173872540Y-62064250D01*
X172889310Y-63047479D01*
X172889305Y-63047485D01*
X172880965Y-63055826D01*
X172880867Y-63055867D01*
X172880826Y-63055965D01*
X172880826Y-63055966D01*
X172880708Y-63056250D01*
X172880750Y-63056351D01*
X172880750Y-75056149D01*
X172880708Y-75056250D01*
X168431792Y-75056250D01*
X168431750Y-75056149D01*
X168431750Y-63056351D01*
X168431792Y-63056250D01*
X168431674Y-63055967D01*
X168431633Y-63055867D01*
X168431532Y-63055825D01*
X167431673Y-62055965D01*
X167431633Y-62055867D01*
X167431534Y-62055826D01*
X167431250Y-62055708D01*
X167431149Y-62055750D01*
X154831351Y-62055750D01*
X154831250Y-62055708D01*
X154831006Y-62055809D01*
X154830867Y-62055867D01*
X154830825Y-62055967D01*
X154822546Y-62064245D01*
X154822540Y-62064250D01*
X153839310Y-63047479D01*
X153839305Y-63047485D01*
X153830965Y-63055826D01*
X153830867Y-63055867D01*
X153830826Y-63055965D01*
X153830826Y-63055966D01*
X153830708Y-63056250D01*
X153830750Y-63056351D01*
X153830750Y-75056149D01*
X153830708Y-75056250D01*
X149381792Y-75056250D01*
X149381750Y-75056149D01*
X149381750Y-69056250D01*
X150478407Y-69056250D01*
X150497611Y-69263491D01*
X150499180Y-69269005D01*
X150552998Y-69458159D01*
X150553001Y-69458167D01*
X150554568Y-69463674D01*
X150557120Y-69468800D01*
X150557122Y-69468804D01*
X150644784Y-69644853D01*
X150644786Y-69644857D01*
X150647339Y-69649983D01*
X150650792Y-69654555D01*
X150769306Y-69811495D01*
X150769311Y-69811500D01*
X150772764Y-69816073D01*
X150777004Y-69819938D01*
X150922337Y-69952427D01*
X150922340Y-69952429D01*
X150926573Y-69956288D01*
X151103527Y-70065854D01*
X151297601Y-70141038D01*
X151502186Y-70179282D01*
X151704585Y-70179282D01*
X151710314Y-70179282D01*
X151914899Y-70141038D01*
X152108973Y-70065854D01*
X152285927Y-69956288D01*
X152439736Y-69816073D01*
X152565161Y-69649983D01*
X152657932Y-69463674D01*
X152714889Y-69263491D01*
X152734093Y-69056250D01*
X152714889Y-68849009D01*
X152657932Y-68648826D01*
X152565161Y-68462517D01*
X152501478Y-68378187D01*
X152443193Y-68301004D01*
X152443189Y-68301000D01*
X152439736Y-68296427D01*
X152291014Y-68160849D01*
X152290162Y-68160072D01*
X152290157Y-68160068D01*
X152285927Y-68156212D01*
X152281061Y-68153199D01*
X152281057Y-68153196D01*
X152113844Y-68049662D01*
X152113843Y-68049661D01*
X152108973Y-68046646D01*
X152103635Y-68044578D01*
X152103631Y-68044576D01*
X151920246Y-67973533D01*
X151920241Y-67973531D01*
X151914899Y-67971462D01*
X151909261Y-67970408D01*
X151715943Y-67934270D01*
X151715940Y-67934269D01*
X151710314Y-67933218D01*
X151502186Y-67933218D01*
X151496560Y-67934269D01*
X151496556Y-67934270D01*
X151303238Y-67970408D01*
X151303235Y-67970408D01*
X151297601Y-67971462D01*
X151292260Y-67973530D01*
X151292253Y-67973533D01*
X151108868Y-68044576D01*
X151108859Y-68044580D01*
X151103527Y-68046646D01*
X151098660Y-68049659D01*
X151098655Y-68049662D01*
X150931442Y-68153196D01*
X150931433Y-68153202D01*
X150926573Y-68156212D01*
X150922347Y-68160064D01*
X150922337Y-68160072D01*
X150777004Y-68292561D01*
X150776999Y-68292565D01*
X150772764Y-68296427D01*
X150769315Y-68300993D01*
X150769306Y-68301004D01*
X150650792Y-68457944D01*
X150647339Y-68462517D01*
X150644789Y-68467637D01*
X150644784Y-68467646D01*
X150557122Y-68643695D01*
X150557118Y-68643703D01*
X150554568Y-68648826D01*
X150553002Y-68654329D01*
X150552998Y-68654340D01*
X150499180Y-68843494D01*
X150497611Y-68849009D01*
X150478407Y-69056250D01*
X149381750Y-69056250D01*
X149381750Y-63056351D01*
X149381792Y-63056250D01*
X149381674Y-63055967D01*
X149381633Y-63055867D01*
X149381532Y-63055825D01*
X148381673Y-62055965D01*
X148381633Y-62055867D01*
X148381534Y-62055826D01*
X148381250Y-62055708D01*
X148381149Y-62055750D01*
X135781351Y-62055750D01*
X135781250Y-62055708D01*
X135781006Y-62055809D01*
X135780867Y-62055867D01*
X135780825Y-62055967D01*
X135772546Y-62064245D01*
X135772540Y-62064250D01*
X134789310Y-63047479D01*
X134789305Y-63047485D01*
X134780965Y-63055826D01*
X134780867Y-63055867D01*
X134780826Y-63055965D01*
X134780826Y-63055966D01*
X134780708Y-63056250D01*
X134780750Y-63056351D01*
X134780750Y-75056149D01*
X134780708Y-75056250D01*
X130331792Y-75056250D01*
X130331750Y-75056149D01*
X130331750Y-63056351D01*
X130331792Y-63056250D01*
X130331674Y-63055967D01*
X130331633Y-63055867D01*
X130331532Y-63055825D01*
X129331673Y-62055965D01*
X129331633Y-62055867D01*
X129331534Y-62055826D01*
X129331250Y-62055708D01*
X129331149Y-62055750D01*
X116731351Y-62055750D01*
X116731250Y-62055708D01*
X116731006Y-62055809D01*
X116730867Y-62055867D01*
X116730825Y-62055967D01*
X116722546Y-62064245D01*
X116722540Y-62064250D01*
X115739310Y-63047479D01*
X115739305Y-63047485D01*
X115730965Y-63055826D01*
X115730867Y-63055867D01*
X115730826Y-63055965D01*
X115730826Y-63055966D01*
X115730708Y-63056250D01*
X115730750Y-63056351D01*
X115730750Y-75056149D01*
X115730708Y-75056250D01*
X111281792Y-75056250D01*
X111281750Y-75056149D01*
X111281750Y-63056351D01*
X111281792Y-63056250D01*
X111281674Y-63055967D01*
X111281633Y-63055867D01*
X111281532Y-63055825D01*
X110281673Y-62055965D01*
X110281633Y-62055867D01*
X110281534Y-62055826D01*
X110281250Y-62055708D01*
X110281149Y-62055750D01*
X97681351Y-62055750D01*
X97681250Y-62055708D01*
X97681006Y-62055809D01*
X97680867Y-62055867D01*
X97680825Y-62055967D01*
X97672546Y-62064245D01*
X97672540Y-62064250D01*
X96689310Y-63047479D01*
X96689305Y-63047485D01*
X96680965Y-63055826D01*
X96680867Y-63055867D01*
X96680826Y-63055965D01*
X96680826Y-63055966D01*
X96680708Y-63056250D01*
X96680750Y-63056351D01*
X96680750Y-75056149D01*
X96680708Y-75056250D01*
X92231792Y-75056250D01*
X92231750Y-75056149D01*
X92231750Y-69056250D01*
X93328407Y-69056250D01*
X93347611Y-69263491D01*
X93349180Y-69269005D01*
X93402998Y-69458159D01*
X93403001Y-69458167D01*
X93404568Y-69463674D01*
X93407120Y-69468800D01*
X93407122Y-69468804D01*
X93494784Y-69644853D01*
X93494786Y-69644857D01*
X93497339Y-69649983D01*
X93500792Y-69654555D01*
X93619306Y-69811495D01*
X93619311Y-69811500D01*
X93622764Y-69816073D01*
X93627004Y-69819938D01*
X93772337Y-69952427D01*
X93772340Y-69952429D01*
X93776573Y-69956288D01*
X93953527Y-70065854D01*
X94147601Y-70141038D01*
X94352186Y-70179282D01*
X94554585Y-70179282D01*
X94560314Y-70179282D01*
X94764899Y-70141038D01*
X94958973Y-70065854D01*
X95135927Y-69956288D01*
X95289736Y-69816073D01*
X95415161Y-69649983D01*
X95507932Y-69463674D01*
X95564889Y-69263491D01*
X95584093Y-69056250D01*
X95564889Y-68849009D01*
X95507932Y-68648826D01*
X95415161Y-68462517D01*
X95351478Y-68378187D01*
X95293193Y-68301004D01*
X95293189Y-68301000D01*
X95289736Y-68296427D01*
X95141014Y-68160849D01*
X95140162Y-68160072D01*
X95140157Y-68160068D01*
X95135927Y-68156212D01*
X95131061Y-68153199D01*
X95131057Y-68153196D01*
X94963844Y-68049662D01*
X94963843Y-68049661D01*
X94958973Y-68046646D01*
X94953635Y-68044578D01*
X94953631Y-68044576D01*
X94770246Y-67973533D01*
X94770241Y-67973531D01*
X94764899Y-67971462D01*
X94759261Y-67970408D01*
X94565943Y-67934270D01*
X94565940Y-67934269D01*
X94560314Y-67933218D01*
X94352186Y-67933218D01*
X94346560Y-67934269D01*
X94346556Y-67934270D01*
X94153238Y-67970408D01*
X94153235Y-67970408D01*
X94147601Y-67971462D01*
X94142260Y-67973530D01*
X94142253Y-67973533D01*
X93958868Y-68044576D01*
X93958859Y-68044580D01*
X93953527Y-68046646D01*
X93948660Y-68049659D01*
X93948655Y-68049662D01*
X93781442Y-68153196D01*
X93781433Y-68153202D01*
X93776573Y-68156212D01*
X93772347Y-68160064D01*
X93772337Y-68160072D01*
X93627004Y-68292561D01*
X93626999Y-68292565D01*
X93622764Y-68296427D01*
X93619315Y-68300993D01*
X93619306Y-68301004D01*
X93500792Y-68457944D01*
X93497339Y-68462517D01*
X93494789Y-68467637D01*
X93494784Y-68467646D01*
X93407122Y-68643695D01*
X93407118Y-68643703D01*
X93404568Y-68648826D01*
X93403002Y-68654329D01*
X93402998Y-68654340D01*
X93349180Y-68843494D01*
X93347611Y-68849009D01*
X93328407Y-69056250D01*
X92231750Y-69056250D01*
X92231750Y-63056351D01*
X92231792Y-63056250D01*
X92231674Y-63055967D01*
X92231633Y-63055867D01*
X92231532Y-63055825D01*
X91231673Y-62055965D01*
X91231633Y-62055867D01*
X91231534Y-62055826D01*
X91231250Y-62055708D01*
X91231149Y-62055750D01*
X78631351Y-62055750D01*
X78631250Y-62055708D01*
X78631006Y-62055809D01*
X78630867Y-62055867D01*
X78630825Y-62055967D01*
X78622546Y-62064245D01*
X78622540Y-62064250D01*
X77639310Y-63047479D01*
X77639305Y-63047485D01*
X77630965Y-63055826D01*
X77630867Y-63055867D01*
X77630826Y-63055965D01*
X77630826Y-63055966D01*
X77630708Y-63056250D01*
X77630750Y-63056351D01*
X77630750Y-75056149D01*
X77630708Y-75056250D01*
X73181792Y-75056250D01*
X73181750Y-75056149D01*
X73181750Y-63056351D01*
X73181792Y-63056250D01*
X73181674Y-63055967D01*
X73181633Y-63055867D01*
X73181532Y-63055825D01*
X72181673Y-62055965D01*
X72181633Y-62055867D01*
X72181534Y-62055826D01*
X72181250Y-62055708D01*
X72181149Y-62055750D01*
X59581351Y-62055750D01*
X59581250Y-62055708D01*
X59581006Y-62055809D01*
X59580867Y-62055867D01*
X59580825Y-62055967D01*
X59572546Y-62064245D01*
X59572540Y-62064250D01*
X58589310Y-63047479D01*
X58589305Y-63047485D01*
X58580965Y-63055826D01*
X58580867Y-63055867D01*
X58580826Y-63055965D01*
X58580826Y-63055966D01*
X58580708Y-63056250D01*
X58580750Y-63056351D01*
X58580750Y-75056149D01*
X58580708Y-75056250D01*
X46988042Y-75056250D01*
X46988000Y-75056149D01*
X46988000Y-63056351D01*
X46988042Y-63056250D01*
X46987924Y-63055967D01*
X46987883Y-63055867D01*
X46987782Y-63055825D01*
X45987923Y-62055965D01*
X45987883Y-62055867D01*
X45987784Y-62055826D01*
X45987500Y-62055708D01*
X45987399Y-62055750D01*
X33387601Y-62055750D01*
X33387500Y-62055708D01*
X33387256Y-62055809D01*
X33387117Y-62055867D01*
X33387075Y-62055967D01*
X33378796Y-62064245D01*
X33378790Y-62064250D01*
X32395560Y-63047479D01*
X32395555Y-63047485D01*
X32387215Y-63055826D01*
X32387117Y-63055867D01*
X32387076Y-63055965D01*
X32387076Y-63055966D01*
X32386958Y-63056250D01*
X32387000Y-63056351D01*
X32387000Y-75056149D01*
X32386958Y-75056250D01*
X23019250Y-75056250D01*
X23019250Y-69056250D01*
X29034657Y-69056250D01*
X29053861Y-69263491D01*
X29055430Y-69269005D01*
X29109248Y-69458159D01*
X29109251Y-69458167D01*
X29110818Y-69463674D01*
X29113370Y-69468800D01*
X29113372Y-69468804D01*
X29201034Y-69644853D01*
X29201036Y-69644857D01*
X29203589Y-69649983D01*
X29207042Y-69654555D01*
X29325556Y-69811495D01*
X29325561Y-69811500D01*
X29329014Y-69816073D01*
X29333254Y-69819938D01*
X29478587Y-69952427D01*
X29478590Y-69952429D01*
X29482823Y-69956288D01*
X29659777Y-70065854D01*
X29853851Y-70141038D01*
X30058436Y-70179282D01*
X30260835Y-70179282D01*
X30266564Y-70179282D01*
X30471149Y-70141038D01*
X30665223Y-70065854D01*
X30842177Y-69956288D01*
X30995986Y-69816073D01*
X31121411Y-69649983D01*
X31214182Y-69463674D01*
X31271139Y-69263491D01*
X31290343Y-69056250D01*
X31271139Y-68849009D01*
X31214182Y-68648826D01*
X31121411Y-68462517D01*
X31057728Y-68378187D01*
X30999443Y-68301004D01*
X30999439Y-68301000D01*
X30995986Y-68296427D01*
X30847264Y-68160849D01*
X30846412Y-68160072D01*
X30846407Y-68160068D01*
X30842177Y-68156212D01*
X30837311Y-68153199D01*
X30837307Y-68153196D01*
X30670094Y-68049662D01*
X30670093Y-68049661D01*
X30665223Y-68046646D01*
X30659885Y-68044578D01*
X30659881Y-68044576D01*
X30476496Y-67973533D01*
X30476491Y-67973531D01*
X30471149Y-67971462D01*
X30465511Y-67970408D01*
X30272193Y-67934270D01*
X30272190Y-67934269D01*
X30266564Y-67933218D01*
X30058436Y-67933218D01*
X30052810Y-67934269D01*
X30052806Y-67934270D01*
X29859488Y-67970408D01*
X29859485Y-67970408D01*
X29853851Y-67971462D01*
X29848510Y-67973530D01*
X29848503Y-67973533D01*
X29665118Y-68044576D01*
X29665109Y-68044580D01*
X29659777Y-68046646D01*
X29654910Y-68049659D01*
X29654905Y-68049662D01*
X29487692Y-68153196D01*
X29487683Y-68153202D01*
X29482823Y-68156212D01*
X29478597Y-68160064D01*
X29478587Y-68160072D01*
X29333254Y-68292561D01*
X29333249Y-68292565D01*
X29329014Y-68296427D01*
X29325565Y-68300993D01*
X29325556Y-68301004D01*
X29207042Y-68457944D01*
X29203589Y-68462517D01*
X29201039Y-68467637D01*
X29201034Y-68467646D01*
X29113372Y-68643695D01*
X29113368Y-68643703D01*
X29110818Y-68648826D01*
X29109252Y-68654329D01*
X29109248Y-68654340D01*
X29055430Y-68843494D01*
X29053861Y-68849009D01*
X29034657Y-69056250D01*
X23019250Y-69056250D01*
X23019250Y-56006250D01*
X27624458Y-56006250D01*
X27624576Y-56006533D01*
X27624617Y-56006633D01*
X27624715Y-56006673D01*
X28624575Y-57006532D01*
X28624617Y-57006633D01*
X28624717Y-57006674D01*
X28625000Y-57006792D01*
X28625101Y-57006750D01*
X41224899Y-57006750D01*
X41225000Y-57006792D01*
X41225284Y-57006674D01*
X41225284Y-57006673D01*
X41225383Y-57006633D01*
X41225423Y-57006534D01*
X42225282Y-56006674D01*
X42225383Y-56006633D01*
X42225440Y-56006493D01*
X42225542Y-56006250D01*
X49055708Y-56006250D01*
X49055826Y-56006533D01*
X49055867Y-56006633D01*
X49055965Y-56006673D01*
X50055825Y-57006532D01*
X50055867Y-57006633D01*
X50055967Y-57006674D01*
X50056250Y-57006792D01*
X50056351Y-57006750D01*
X62656149Y-57006750D01*
X62656250Y-57006792D01*
X62656534Y-57006674D01*
X62656534Y-57006673D01*
X62656633Y-57006633D01*
X62656673Y-57006534D01*
X63656532Y-56006674D01*
X63656633Y-56006633D01*
X63656690Y-56006493D01*
X63656792Y-56006250D01*
X68105708Y-56006250D01*
X68105826Y-56006533D01*
X68105867Y-56006633D01*
X68105965Y-56006673D01*
X69105825Y-57006532D01*
X69105867Y-57006633D01*
X69105967Y-57006674D01*
X69106250Y-57006792D01*
X69106351Y-57006750D01*
X81706149Y-57006750D01*
X81706250Y-57006792D01*
X81706534Y-57006674D01*
X81706534Y-57006673D01*
X81706633Y-57006633D01*
X81706673Y-57006534D01*
X82706532Y-56006674D01*
X82706633Y-56006633D01*
X82706690Y-56006493D01*
X82706792Y-56006250D01*
X87155708Y-56006250D01*
X87155826Y-56006533D01*
X87155867Y-56006633D01*
X87155965Y-56006673D01*
X88155825Y-57006532D01*
X88155867Y-57006633D01*
X88155967Y-57006674D01*
X88156250Y-57006792D01*
X88156351Y-57006750D01*
X100756149Y-57006750D01*
X100756250Y-57006792D01*
X100756534Y-57006674D01*
X100756534Y-57006673D01*
X100756633Y-57006633D01*
X100756673Y-57006534D01*
X101756532Y-56006674D01*
X101756633Y-56006633D01*
X101756690Y-56006493D01*
X101756792Y-56006250D01*
X106205708Y-56006250D01*
X106205826Y-56006533D01*
X106205867Y-56006633D01*
X106205965Y-56006673D01*
X107205825Y-57006532D01*
X107205867Y-57006633D01*
X107205967Y-57006674D01*
X107206250Y-57006792D01*
X107206351Y-57006750D01*
X119806149Y-57006750D01*
X119806250Y-57006792D01*
X119806534Y-57006674D01*
X119806534Y-57006673D01*
X119806633Y-57006633D01*
X119806673Y-57006534D01*
X120806532Y-56006674D01*
X120806633Y-56006633D01*
X120806690Y-56006493D01*
X120806792Y-56006250D01*
X125255708Y-56006250D01*
X125255826Y-56006533D01*
X125255867Y-56006633D01*
X125255965Y-56006673D01*
X126255825Y-57006532D01*
X126255867Y-57006633D01*
X126255967Y-57006674D01*
X126256250Y-57006792D01*
X126256351Y-57006750D01*
X138856149Y-57006750D01*
X138856250Y-57006792D01*
X138856534Y-57006674D01*
X138856534Y-57006673D01*
X138856633Y-57006633D01*
X138856673Y-57006534D01*
X139856532Y-56006674D01*
X139856633Y-56006633D01*
X139856690Y-56006493D01*
X139856792Y-56006250D01*
X144305708Y-56006250D01*
X144305826Y-56006533D01*
X144305867Y-56006633D01*
X144305965Y-56006673D01*
X145305825Y-57006532D01*
X145305867Y-57006633D01*
X145305967Y-57006674D01*
X145306250Y-57006792D01*
X145306351Y-57006750D01*
X157906149Y-57006750D01*
X157906250Y-57006792D01*
X157906534Y-57006674D01*
X157906534Y-57006673D01*
X157906633Y-57006633D01*
X157906673Y-57006534D01*
X158906532Y-56006674D01*
X158906633Y-56006633D01*
X158906690Y-56006493D01*
X158906792Y-56006250D01*
X163355708Y-56006250D01*
X163355826Y-56006533D01*
X163355867Y-56006633D01*
X163355965Y-56006673D01*
X164355825Y-57006532D01*
X164355867Y-57006633D01*
X164355967Y-57006674D01*
X164356250Y-57006792D01*
X164356351Y-57006750D01*
X176956149Y-57006750D01*
X176956250Y-57006792D01*
X176956534Y-57006674D01*
X176956534Y-57006673D01*
X176956633Y-57006633D01*
X176956673Y-57006534D01*
X177956532Y-56006674D01*
X177956633Y-56006633D01*
X177956690Y-56006493D01*
X177956792Y-56006250D01*
X182405708Y-56006250D01*
X182405826Y-56006533D01*
X182405867Y-56006633D01*
X182405965Y-56006673D01*
X183405825Y-57006532D01*
X183405867Y-57006633D01*
X183405967Y-57006674D01*
X183406250Y-57006792D01*
X183406351Y-57006750D01*
X196006149Y-57006750D01*
X196006250Y-57006792D01*
X196006534Y-57006674D01*
X196006534Y-57006673D01*
X196006633Y-57006633D01*
X196006673Y-57006534D01*
X197006532Y-56006674D01*
X197006633Y-56006633D01*
X197006690Y-56006493D01*
X197006792Y-56006250D01*
X201455708Y-56006250D01*
X201455826Y-56006533D01*
X201455867Y-56006633D01*
X201455965Y-56006673D01*
X202455825Y-57006532D01*
X202455867Y-57006633D01*
X202455967Y-57006674D01*
X202456250Y-57006792D01*
X202456351Y-57006750D01*
X215056149Y-57006750D01*
X215056250Y-57006792D01*
X215056534Y-57006674D01*
X215056534Y-57006673D01*
X215056633Y-57006633D01*
X215056673Y-57006534D01*
X216056532Y-56006674D01*
X216056633Y-56006633D01*
X216056690Y-56006493D01*
X216056792Y-56006250D01*
X220505708Y-56006250D01*
X220505826Y-56006533D01*
X220505867Y-56006633D01*
X220505965Y-56006673D01*
X221505825Y-57006532D01*
X221505867Y-57006633D01*
X221505967Y-57006674D01*
X221506250Y-57006792D01*
X221506351Y-57006750D01*
X234106149Y-57006750D01*
X234106250Y-57006792D01*
X234106534Y-57006674D01*
X234106534Y-57006673D01*
X234106633Y-57006633D01*
X234106673Y-57006534D01*
X235106532Y-56006674D01*
X235106633Y-56006633D01*
X235106690Y-56006493D01*
X235106792Y-56006250D01*
X244318208Y-56006250D01*
X244318326Y-56006533D01*
X244318367Y-56006633D01*
X244318465Y-56006673D01*
X245318325Y-57006532D01*
X245318367Y-57006633D01*
X245318467Y-57006674D01*
X245318750Y-57006792D01*
X245318851Y-57006750D01*
X257918649Y-57006750D01*
X257918750Y-57006792D01*
X257919034Y-57006674D01*
X257919034Y-57006673D01*
X257919133Y-57006633D01*
X257919173Y-57006534D01*
X258919032Y-56006674D01*
X258919133Y-56006633D01*
X258919190Y-56006493D01*
X258919292Y-56006250D01*
X258919250Y-56006149D01*
X258919250Y-44006351D01*
X258919292Y-44006250D01*
X258919174Y-44005967D01*
X258919133Y-44005867D01*
X258919032Y-44005825D01*
X257919173Y-43005965D01*
X257919133Y-43005867D01*
X257919034Y-43005826D01*
X257918750Y-43005708D01*
X257918649Y-43005750D01*
X245318851Y-43005750D01*
X245318750Y-43005708D01*
X245318506Y-43005809D01*
X245318367Y-43005867D01*
X245318325Y-43005967D01*
X245310046Y-43014245D01*
X245310040Y-43014250D01*
X244326810Y-43997479D01*
X244326805Y-43997485D01*
X244318465Y-44005826D01*
X244318367Y-44005867D01*
X244318326Y-44005965D01*
X244318326Y-44005966D01*
X244318208Y-44006250D01*
X244318250Y-44006351D01*
X244318250Y-56006149D01*
X244318208Y-56006250D01*
X235106792Y-56006250D01*
X235106750Y-56006149D01*
X235106750Y-50006250D01*
X240965907Y-50006250D01*
X240985111Y-50213491D01*
X240986680Y-50219005D01*
X241040498Y-50408159D01*
X241040501Y-50408167D01*
X241042068Y-50413674D01*
X241044620Y-50418800D01*
X241044622Y-50418804D01*
X241132284Y-50594853D01*
X241132286Y-50594857D01*
X241134839Y-50599983D01*
X241138292Y-50604555D01*
X241256806Y-50761495D01*
X241256811Y-50761500D01*
X241260264Y-50766073D01*
X241264504Y-50769938D01*
X241409837Y-50902427D01*
X241409840Y-50902429D01*
X241414073Y-50906288D01*
X241591027Y-51015854D01*
X241785101Y-51091038D01*
X241989686Y-51129282D01*
X242192085Y-51129282D01*
X242197814Y-51129282D01*
X242402399Y-51091038D01*
X242596473Y-51015854D01*
X242773427Y-50906288D01*
X242927236Y-50766073D01*
X243052661Y-50599983D01*
X243145432Y-50413674D01*
X243202389Y-50213491D01*
X243221593Y-50006250D01*
X243202389Y-49799009D01*
X243145432Y-49598826D01*
X243052661Y-49412517D01*
X242988978Y-49328187D01*
X242930693Y-49251004D01*
X242930689Y-49251000D01*
X242927236Y-49246427D01*
X242778514Y-49110849D01*
X242777662Y-49110072D01*
X242777657Y-49110068D01*
X242773427Y-49106212D01*
X242768561Y-49103199D01*
X242768557Y-49103196D01*
X242601344Y-48999662D01*
X242601343Y-48999661D01*
X242596473Y-48996646D01*
X242591135Y-48994578D01*
X242591131Y-48994576D01*
X242407746Y-48923533D01*
X242407741Y-48923531D01*
X242402399Y-48921462D01*
X242396761Y-48920408D01*
X242203443Y-48884270D01*
X242203440Y-48884269D01*
X242197814Y-48883218D01*
X241989686Y-48883218D01*
X241984060Y-48884269D01*
X241984056Y-48884270D01*
X241790738Y-48920408D01*
X241790735Y-48920408D01*
X241785101Y-48921462D01*
X241779760Y-48923530D01*
X241779753Y-48923533D01*
X241596368Y-48994576D01*
X241596359Y-48994580D01*
X241591027Y-48996646D01*
X241586160Y-48999659D01*
X241586155Y-48999662D01*
X241418942Y-49103196D01*
X241418933Y-49103202D01*
X241414073Y-49106212D01*
X241409847Y-49110064D01*
X241409837Y-49110072D01*
X241264504Y-49242561D01*
X241264499Y-49242565D01*
X241260264Y-49246427D01*
X241256815Y-49250993D01*
X241256806Y-49251004D01*
X241138292Y-49407944D01*
X241134839Y-49412517D01*
X241132289Y-49417637D01*
X241132284Y-49417646D01*
X241044622Y-49593695D01*
X241044618Y-49593703D01*
X241042068Y-49598826D01*
X241040502Y-49604329D01*
X241040498Y-49604340D01*
X240986680Y-49793494D01*
X240985111Y-49799009D01*
X240965907Y-50006250D01*
X235106750Y-50006250D01*
X235106750Y-44006351D01*
X235106792Y-44006250D01*
X235106674Y-44005967D01*
X235106633Y-44005867D01*
X235106532Y-44005825D01*
X234106673Y-43005965D01*
X234106633Y-43005867D01*
X234106534Y-43005826D01*
X234106250Y-43005708D01*
X234106149Y-43005750D01*
X221506351Y-43005750D01*
X221506250Y-43005708D01*
X221506006Y-43005809D01*
X221505867Y-43005867D01*
X221505825Y-43005967D01*
X221497546Y-43014245D01*
X221497540Y-43014250D01*
X220514310Y-43997479D01*
X220514305Y-43997485D01*
X220505965Y-44005826D01*
X220505867Y-44005867D01*
X220505826Y-44005965D01*
X220505826Y-44005966D01*
X220505708Y-44006250D01*
X220505750Y-44006351D01*
X220505750Y-56006149D01*
X220505708Y-56006250D01*
X216056792Y-56006250D01*
X216056750Y-56006149D01*
X216056750Y-44006351D01*
X216056792Y-44006250D01*
X216056674Y-44005967D01*
X216056633Y-44005867D01*
X216056532Y-44005825D01*
X215056673Y-43005965D01*
X215056633Y-43005867D01*
X215056534Y-43005826D01*
X215056250Y-43005708D01*
X215056149Y-43005750D01*
X202456351Y-43005750D01*
X202456250Y-43005708D01*
X202456006Y-43005809D01*
X202455867Y-43005867D01*
X202455825Y-43005967D01*
X202447546Y-43014245D01*
X202447540Y-43014250D01*
X201464310Y-43997479D01*
X201464305Y-43997485D01*
X201455965Y-44005826D01*
X201455867Y-44005867D01*
X201455826Y-44005965D01*
X201455826Y-44005966D01*
X201455708Y-44006250D01*
X201455750Y-44006351D01*
X201455750Y-56006149D01*
X201455708Y-56006250D01*
X197006792Y-56006250D01*
X197006750Y-56006149D01*
X197006750Y-50006250D01*
X198103407Y-50006250D01*
X198122611Y-50213491D01*
X198124180Y-50219005D01*
X198177998Y-50408159D01*
X198178001Y-50408167D01*
X198179568Y-50413674D01*
X198182120Y-50418800D01*
X198182122Y-50418804D01*
X198269784Y-50594853D01*
X198269786Y-50594857D01*
X198272339Y-50599983D01*
X198275792Y-50604555D01*
X198394306Y-50761495D01*
X198394311Y-50761500D01*
X198397764Y-50766073D01*
X198402004Y-50769938D01*
X198547337Y-50902427D01*
X198547340Y-50902429D01*
X198551573Y-50906288D01*
X198728527Y-51015854D01*
X198922601Y-51091038D01*
X199127186Y-51129282D01*
X199329585Y-51129282D01*
X199335314Y-51129282D01*
X199539899Y-51091038D01*
X199733973Y-51015854D01*
X199910927Y-50906288D01*
X200064736Y-50766073D01*
X200190161Y-50599983D01*
X200282932Y-50413674D01*
X200339889Y-50213491D01*
X200359093Y-50006250D01*
X200339889Y-49799009D01*
X200282932Y-49598826D01*
X200190161Y-49412517D01*
X200126478Y-49328187D01*
X200068193Y-49251004D01*
X200068189Y-49251000D01*
X200064736Y-49246427D01*
X199916014Y-49110849D01*
X199915162Y-49110072D01*
X199915157Y-49110068D01*
X199910927Y-49106212D01*
X199906061Y-49103199D01*
X199906057Y-49103196D01*
X199738844Y-48999662D01*
X199738843Y-48999661D01*
X199733973Y-48996646D01*
X199728635Y-48994578D01*
X199728631Y-48994576D01*
X199545246Y-48923533D01*
X199545241Y-48923531D01*
X199539899Y-48921462D01*
X199534261Y-48920408D01*
X199340943Y-48884270D01*
X199340940Y-48884269D01*
X199335314Y-48883218D01*
X199127186Y-48883218D01*
X199121560Y-48884269D01*
X199121556Y-48884270D01*
X198928238Y-48920408D01*
X198928235Y-48920408D01*
X198922601Y-48921462D01*
X198917260Y-48923530D01*
X198917253Y-48923533D01*
X198733868Y-48994576D01*
X198733859Y-48994580D01*
X198728527Y-48996646D01*
X198723660Y-48999659D01*
X198723655Y-48999662D01*
X198556442Y-49103196D01*
X198556433Y-49103202D01*
X198551573Y-49106212D01*
X198547347Y-49110064D01*
X198547337Y-49110072D01*
X198402004Y-49242561D01*
X198401999Y-49242565D01*
X198397764Y-49246427D01*
X198394315Y-49250993D01*
X198394306Y-49251004D01*
X198275792Y-49407944D01*
X198272339Y-49412517D01*
X198269789Y-49417637D01*
X198269784Y-49417646D01*
X198182122Y-49593695D01*
X198182118Y-49593703D01*
X198179568Y-49598826D01*
X198178002Y-49604329D01*
X198177998Y-49604340D01*
X198124180Y-49793494D01*
X198122611Y-49799009D01*
X198103407Y-50006250D01*
X197006750Y-50006250D01*
X197006750Y-44006351D01*
X197006792Y-44006250D01*
X197006674Y-44005967D01*
X197006633Y-44005867D01*
X197006532Y-44005825D01*
X196006673Y-43005965D01*
X196006633Y-43005867D01*
X196006534Y-43005826D01*
X196006250Y-43005708D01*
X196006149Y-43005750D01*
X183406351Y-43005750D01*
X183406250Y-43005708D01*
X183406006Y-43005809D01*
X183405867Y-43005867D01*
X183405825Y-43005967D01*
X183397546Y-43014245D01*
X183397540Y-43014250D01*
X182414310Y-43997479D01*
X182414305Y-43997485D01*
X182405965Y-44005826D01*
X182405867Y-44005867D01*
X182405826Y-44005965D01*
X182405826Y-44005966D01*
X182405708Y-44006250D01*
X182405750Y-44006351D01*
X182405750Y-56006149D01*
X182405708Y-56006250D01*
X177956792Y-56006250D01*
X177956750Y-56006149D01*
X177956750Y-44006351D01*
X177956792Y-44006250D01*
X177956674Y-44005967D01*
X177956633Y-44005867D01*
X177956532Y-44005825D01*
X176956673Y-43005965D01*
X176956633Y-43005867D01*
X176956534Y-43005826D01*
X176956250Y-43005708D01*
X176956149Y-43005750D01*
X164356351Y-43005750D01*
X164356250Y-43005708D01*
X164356006Y-43005809D01*
X164355867Y-43005867D01*
X164355825Y-43005967D01*
X164347546Y-43014245D01*
X164347540Y-43014250D01*
X163364310Y-43997479D01*
X163364305Y-43997485D01*
X163355965Y-44005826D01*
X163355867Y-44005867D01*
X163355826Y-44005965D01*
X163355826Y-44005966D01*
X163355708Y-44006250D01*
X163355750Y-44006351D01*
X163355750Y-56006149D01*
X163355708Y-56006250D01*
X158906792Y-56006250D01*
X158906750Y-56006149D01*
X158906750Y-44006351D01*
X158906792Y-44006250D01*
X158906674Y-44005967D01*
X158906633Y-44005867D01*
X158906532Y-44005825D01*
X157906673Y-43005965D01*
X157906633Y-43005867D01*
X157906534Y-43005826D01*
X157906250Y-43005708D01*
X157906149Y-43005750D01*
X145306351Y-43005750D01*
X145306250Y-43005708D01*
X145306006Y-43005809D01*
X145305867Y-43005867D01*
X145305825Y-43005967D01*
X145297546Y-43014245D01*
X145297540Y-43014250D01*
X144314310Y-43997479D01*
X144314305Y-43997485D01*
X144305965Y-44005826D01*
X144305867Y-44005867D01*
X144305826Y-44005965D01*
X144305826Y-44005966D01*
X144305708Y-44006250D01*
X144305750Y-44006351D01*
X144305750Y-56006149D01*
X144305708Y-56006250D01*
X139856792Y-56006250D01*
X139856750Y-56006149D01*
X139856750Y-50006250D01*
X140953407Y-50006250D01*
X140972611Y-50213491D01*
X140974180Y-50219005D01*
X141027998Y-50408159D01*
X141028001Y-50408167D01*
X141029568Y-50413674D01*
X141032120Y-50418800D01*
X141032122Y-50418804D01*
X141119784Y-50594853D01*
X141119786Y-50594857D01*
X141122339Y-50599983D01*
X141125792Y-50604555D01*
X141244306Y-50761495D01*
X141244311Y-50761500D01*
X141247764Y-50766073D01*
X141252004Y-50769938D01*
X141397337Y-50902427D01*
X141397340Y-50902429D01*
X141401573Y-50906288D01*
X141578527Y-51015854D01*
X141772601Y-51091038D01*
X141977186Y-51129282D01*
X142179585Y-51129282D01*
X142185314Y-51129282D01*
X142389899Y-51091038D01*
X142583973Y-51015854D01*
X142760927Y-50906288D01*
X142914736Y-50766073D01*
X143040161Y-50599983D01*
X143132932Y-50413674D01*
X143189889Y-50213491D01*
X143209093Y-50006250D01*
X143189889Y-49799009D01*
X143132932Y-49598826D01*
X143040161Y-49412517D01*
X142976478Y-49328187D01*
X142918193Y-49251004D01*
X142918189Y-49251000D01*
X142914736Y-49246427D01*
X142766014Y-49110849D01*
X142765162Y-49110072D01*
X142765157Y-49110068D01*
X142760927Y-49106212D01*
X142756061Y-49103199D01*
X142756057Y-49103196D01*
X142588844Y-48999662D01*
X142588843Y-48999661D01*
X142583973Y-48996646D01*
X142578635Y-48994578D01*
X142578631Y-48994576D01*
X142395246Y-48923533D01*
X142395241Y-48923531D01*
X142389899Y-48921462D01*
X142384261Y-48920408D01*
X142190943Y-48884270D01*
X142190940Y-48884269D01*
X142185314Y-48883218D01*
X141977186Y-48883218D01*
X141971560Y-48884269D01*
X141971556Y-48884270D01*
X141778238Y-48920408D01*
X141778235Y-48920408D01*
X141772601Y-48921462D01*
X141767260Y-48923530D01*
X141767253Y-48923533D01*
X141583868Y-48994576D01*
X141583859Y-48994580D01*
X141578527Y-48996646D01*
X141573660Y-48999659D01*
X141573655Y-48999662D01*
X141406442Y-49103196D01*
X141406433Y-49103202D01*
X141401573Y-49106212D01*
X141397347Y-49110064D01*
X141397337Y-49110072D01*
X141252004Y-49242561D01*
X141251999Y-49242565D01*
X141247764Y-49246427D01*
X141244315Y-49250993D01*
X141244306Y-49251004D01*
X141125792Y-49407944D01*
X141122339Y-49412517D01*
X141119789Y-49417637D01*
X141119784Y-49417646D01*
X141032122Y-49593695D01*
X141032118Y-49593703D01*
X141029568Y-49598826D01*
X141028002Y-49604329D01*
X141027998Y-49604340D01*
X140974180Y-49793494D01*
X140972611Y-49799009D01*
X140953407Y-50006250D01*
X139856750Y-50006250D01*
X139856750Y-44006351D01*
X139856792Y-44006250D01*
X139856674Y-44005967D01*
X139856633Y-44005867D01*
X139856532Y-44005825D01*
X138856673Y-43005965D01*
X138856633Y-43005867D01*
X138856534Y-43005826D01*
X138856250Y-43005708D01*
X138856149Y-43005750D01*
X126256351Y-43005750D01*
X126256250Y-43005708D01*
X126256006Y-43005809D01*
X126255867Y-43005867D01*
X126255825Y-43005967D01*
X126247546Y-43014245D01*
X126247540Y-43014250D01*
X125264310Y-43997479D01*
X125264305Y-43997485D01*
X125255965Y-44005826D01*
X125255867Y-44005867D01*
X125255826Y-44005965D01*
X125255826Y-44005966D01*
X125255708Y-44006250D01*
X125255750Y-44006351D01*
X125255750Y-56006149D01*
X125255708Y-56006250D01*
X120806792Y-56006250D01*
X120806750Y-56006149D01*
X120806750Y-44006351D01*
X120806792Y-44006250D01*
X120806674Y-44005967D01*
X120806633Y-44005867D01*
X120806532Y-44005825D01*
X119806673Y-43005965D01*
X119806633Y-43005867D01*
X119806534Y-43005826D01*
X119806250Y-43005708D01*
X119806149Y-43005750D01*
X107206351Y-43005750D01*
X107206250Y-43005708D01*
X107206006Y-43005809D01*
X107205867Y-43005867D01*
X107205825Y-43005967D01*
X107197546Y-43014245D01*
X107197540Y-43014250D01*
X106214310Y-43997479D01*
X106214305Y-43997485D01*
X106205965Y-44005826D01*
X106205867Y-44005867D01*
X106205826Y-44005965D01*
X106205826Y-44005966D01*
X106205708Y-44006250D01*
X106205750Y-44006351D01*
X106205750Y-56006149D01*
X106205708Y-56006250D01*
X101756792Y-56006250D01*
X101756750Y-56006149D01*
X101756750Y-50006250D01*
X102853407Y-50006250D01*
X102872611Y-50213491D01*
X102874180Y-50219005D01*
X102927998Y-50408159D01*
X102928001Y-50408167D01*
X102929568Y-50413674D01*
X102932120Y-50418800D01*
X102932122Y-50418804D01*
X103019784Y-50594853D01*
X103019786Y-50594857D01*
X103022339Y-50599983D01*
X103025792Y-50604555D01*
X103144306Y-50761495D01*
X103144311Y-50761500D01*
X103147764Y-50766073D01*
X103152004Y-50769938D01*
X103297337Y-50902427D01*
X103297340Y-50902429D01*
X103301573Y-50906288D01*
X103478527Y-51015854D01*
X103672601Y-51091038D01*
X103877186Y-51129282D01*
X104079585Y-51129282D01*
X104085314Y-51129282D01*
X104289899Y-51091038D01*
X104483973Y-51015854D01*
X104660927Y-50906288D01*
X104814736Y-50766073D01*
X104940161Y-50599983D01*
X105032932Y-50413674D01*
X105089889Y-50213491D01*
X105109093Y-50006250D01*
X105089889Y-49799009D01*
X105032932Y-49598826D01*
X104940161Y-49412517D01*
X104876478Y-49328187D01*
X104818193Y-49251004D01*
X104818189Y-49251000D01*
X104814736Y-49246427D01*
X104666014Y-49110849D01*
X104665162Y-49110072D01*
X104665157Y-49110068D01*
X104660927Y-49106212D01*
X104656061Y-49103199D01*
X104656057Y-49103196D01*
X104488844Y-48999662D01*
X104488843Y-48999661D01*
X104483973Y-48996646D01*
X104478635Y-48994578D01*
X104478631Y-48994576D01*
X104295246Y-48923533D01*
X104295241Y-48923531D01*
X104289899Y-48921462D01*
X104284261Y-48920408D01*
X104090943Y-48884270D01*
X104090940Y-48884269D01*
X104085314Y-48883218D01*
X103877186Y-48883218D01*
X103871560Y-48884269D01*
X103871556Y-48884270D01*
X103678238Y-48920408D01*
X103678235Y-48920408D01*
X103672601Y-48921462D01*
X103667260Y-48923530D01*
X103667253Y-48923533D01*
X103483868Y-48994576D01*
X103483859Y-48994580D01*
X103478527Y-48996646D01*
X103473660Y-48999659D01*
X103473655Y-48999662D01*
X103306442Y-49103196D01*
X103306433Y-49103202D01*
X103301573Y-49106212D01*
X103297347Y-49110064D01*
X103297337Y-49110072D01*
X103152004Y-49242561D01*
X103151999Y-49242565D01*
X103147764Y-49246427D01*
X103144315Y-49250993D01*
X103144306Y-49251004D01*
X103025792Y-49407944D01*
X103022339Y-49412517D01*
X103019789Y-49417637D01*
X103019784Y-49417646D01*
X102932122Y-49593695D01*
X102932118Y-49593703D01*
X102929568Y-49598826D01*
X102928002Y-49604329D01*
X102927998Y-49604340D01*
X102874180Y-49793494D01*
X102872611Y-49799009D01*
X102853407Y-50006250D01*
X101756750Y-50006250D01*
X101756750Y-44006351D01*
X101756792Y-44006250D01*
X101756674Y-44005967D01*
X101756633Y-44005867D01*
X101756532Y-44005825D01*
X100756673Y-43005965D01*
X100756633Y-43005867D01*
X100756534Y-43005826D01*
X100756250Y-43005708D01*
X100756149Y-43005750D01*
X88156351Y-43005750D01*
X88156250Y-43005708D01*
X88156006Y-43005809D01*
X88155867Y-43005867D01*
X88155825Y-43005967D01*
X88147546Y-43014245D01*
X88147540Y-43014250D01*
X87164310Y-43997479D01*
X87164305Y-43997485D01*
X87155965Y-44005826D01*
X87155867Y-44005867D01*
X87155826Y-44005965D01*
X87155826Y-44005966D01*
X87155708Y-44006250D01*
X87155750Y-44006351D01*
X87155750Y-56006149D01*
X87155708Y-56006250D01*
X82706792Y-56006250D01*
X82706750Y-56006149D01*
X82706750Y-44006351D01*
X82706792Y-44006250D01*
X82706674Y-44005967D01*
X82706633Y-44005867D01*
X82706532Y-44005825D01*
X81706673Y-43005965D01*
X81706633Y-43005867D01*
X81706534Y-43005826D01*
X81706250Y-43005708D01*
X81706149Y-43005750D01*
X69106351Y-43005750D01*
X69106250Y-43005708D01*
X69106006Y-43005809D01*
X69105867Y-43005867D01*
X69105825Y-43005967D01*
X69097546Y-43014245D01*
X69097540Y-43014250D01*
X68114310Y-43997479D01*
X68114305Y-43997485D01*
X68105965Y-44005826D01*
X68105867Y-44005867D01*
X68105826Y-44005965D01*
X68105826Y-44005966D01*
X68105708Y-44006250D01*
X68105750Y-44006351D01*
X68105750Y-56006149D01*
X68105708Y-56006250D01*
X63656792Y-56006250D01*
X63656750Y-56006149D01*
X63656750Y-50006250D01*
X64753407Y-50006250D01*
X64772611Y-50213491D01*
X64774180Y-50219005D01*
X64827998Y-50408159D01*
X64828001Y-50408167D01*
X64829568Y-50413674D01*
X64832120Y-50418800D01*
X64832122Y-50418804D01*
X64919784Y-50594853D01*
X64919786Y-50594857D01*
X64922339Y-50599983D01*
X64925792Y-50604555D01*
X65044306Y-50761495D01*
X65044311Y-50761500D01*
X65047764Y-50766073D01*
X65052004Y-50769938D01*
X65197337Y-50902427D01*
X65197340Y-50902429D01*
X65201573Y-50906288D01*
X65378527Y-51015854D01*
X65572601Y-51091038D01*
X65777186Y-51129282D01*
X65979585Y-51129282D01*
X65985314Y-51129282D01*
X66189899Y-51091038D01*
X66383973Y-51015854D01*
X66560927Y-50906288D01*
X66714736Y-50766073D01*
X66840161Y-50599983D01*
X66932932Y-50413674D01*
X66989889Y-50213491D01*
X67009093Y-50006250D01*
X66989889Y-49799009D01*
X66932932Y-49598826D01*
X66840161Y-49412517D01*
X66776478Y-49328187D01*
X66718193Y-49251004D01*
X66718189Y-49251000D01*
X66714736Y-49246427D01*
X66566014Y-49110849D01*
X66565162Y-49110072D01*
X66565157Y-49110068D01*
X66560927Y-49106212D01*
X66556061Y-49103199D01*
X66556057Y-49103196D01*
X66388844Y-48999662D01*
X66388843Y-48999661D01*
X66383973Y-48996646D01*
X66378635Y-48994578D01*
X66378631Y-48994576D01*
X66195246Y-48923533D01*
X66195241Y-48923531D01*
X66189899Y-48921462D01*
X66184261Y-48920408D01*
X65990943Y-48884270D01*
X65990940Y-48884269D01*
X65985314Y-48883218D01*
X65777186Y-48883218D01*
X65771560Y-48884269D01*
X65771556Y-48884270D01*
X65578238Y-48920408D01*
X65578235Y-48920408D01*
X65572601Y-48921462D01*
X65567260Y-48923530D01*
X65567253Y-48923533D01*
X65383868Y-48994576D01*
X65383859Y-48994580D01*
X65378527Y-48996646D01*
X65373660Y-48999659D01*
X65373655Y-48999662D01*
X65206442Y-49103196D01*
X65206433Y-49103202D01*
X65201573Y-49106212D01*
X65197347Y-49110064D01*
X65197337Y-49110072D01*
X65052004Y-49242561D01*
X65051999Y-49242565D01*
X65047764Y-49246427D01*
X65044315Y-49250993D01*
X65044306Y-49251004D01*
X64925792Y-49407944D01*
X64922339Y-49412517D01*
X64919789Y-49417637D01*
X64919784Y-49417646D01*
X64832122Y-49593695D01*
X64832118Y-49593703D01*
X64829568Y-49598826D01*
X64828002Y-49604329D01*
X64827998Y-49604340D01*
X64774180Y-49793494D01*
X64772611Y-49799009D01*
X64753407Y-50006250D01*
X63656750Y-50006250D01*
X63656750Y-44006351D01*
X63656792Y-44006250D01*
X63656674Y-44005967D01*
X63656633Y-44005867D01*
X63656532Y-44005825D01*
X62656673Y-43005965D01*
X62656633Y-43005867D01*
X62656534Y-43005826D01*
X62656250Y-43005708D01*
X62656149Y-43005750D01*
X50056351Y-43005750D01*
X50056250Y-43005708D01*
X50056006Y-43005809D01*
X50055867Y-43005867D01*
X50055825Y-43005967D01*
X50047546Y-43014245D01*
X50047540Y-43014250D01*
X49064310Y-43997479D01*
X49064305Y-43997485D01*
X49055965Y-44005826D01*
X49055867Y-44005867D01*
X49055826Y-44005965D01*
X49055826Y-44005966D01*
X49055708Y-44006250D01*
X49055750Y-44006351D01*
X49055750Y-56006149D01*
X49055708Y-56006250D01*
X42225542Y-56006250D01*
X42225500Y-56006149D01*
X42225500Y-44006351D01*
X42225542Y-44006250D01*
X42225424Y-44005967D01*
X42225383Y-44005867D01*
X42225282Y-44005825D01*
X41225423Y-43005965D01*
X41225383Y-43005867D01*
X41225284Y-43005826D01*
X41225000Y-43005708D01*
X41224899Y-43005750D01*
X28625101Y-43005750D01*
X28625000Y-43005708D01*
X28624756Y-43005809D01*
X28624617Y-43005867D01*
X28624575Y-43005967D01*
X28616296Y-43014245D01*
X28616290Y-43014250D01*
X27633060Y-43997479D01*
X27633055Y-43997485D01*
X27624715Y-44005826D01*
X27624617Y-44005867D01*
X27624576Y-44005965D01*
X27624576Y-44005966D01*
X27624458Y-44006250D01*
X27624500Y-44006351D01*
X27624500Y-56006149D01*
X27624458Y-56006250D01*
X23019250Y-56006250D01*
X23019250Y-50006250D01*
X24272157Y-50006250D01*
X24291361Y-50213491D01*
X24292930Y-50219005D01*
X24346748Y-50408159D01*
X24346751Y-50408167D01*
X24348318Y-50413674D01*
X24350870Y-50418800D01*
X24350872Y-50418804D01*
X24438534Y-50594853D01*
X24438536Y-50594857D01*
X24441089Y-50599983D01*
X24444542Y-50604555D01*
X24563056Y-50761495D01*
X24563061Y-50761500D01*
X24566514Y-50766073D01*
X24570754Y-50769938D01*
X24716087Y-50902427D01*
X24716090Y-50902429D01*
X24720323Y-50906288D01*
X24897277Y-51015854D01*
X25091351Y-51091038D01*
X25295936Y-51129282D01*
X25498335Y-51129282D01*
X25504064Y-51129282D01*
X25708649Y-51091038D01*
X25902723Y-51015854D01*
X26079677Y-50906288D01*
X26233486Y-50766073D01*
X26358911Y-50599983D01*
X26451682Y-50413674D01*
X26508639Y-50213491D01*
X26527843Y-50006250D01*
X26508639Y-49799009D01*
X26451682Y-49598826D01*
X26358911Y-49412517D01*
X26295228Y-49328187D01*
X26236943Y-49251004D01*
X26236939Y-49251000D01*
X26233486Y-49246427D01*
X26084764Y-49110849D01*
X26083912Y-49110072D01*
X26083907Y-49110068D01*
X26079677Y-49106212D01*
X26074811Y-49103199D01*
X26074807Y-49103196D01*
X25907594Y-48999662D01*
X25907593Y-48999661D01*
X25902723Y-48996646D01*
X25897385Y-48994578D01*
X25897381Y-48994576D01*
X25713996Y-48923533D01*
X25713991Y-48923531D01*
X25708649Y-48921462D01*
X25703011Y-48920408D01*
X25509693Y-48884270D01*
X25509690Y-48884269D01*
X25504064Y-48883218D01*
X25295936Y-48883218D01*
X25290310Y-48884269D01*
X25290306Y-48884270D01*
X25096988Y-48920408D01*
X25096985Y-48920408D01*
X25091351Y-48921462D01*
X25086010Y-48923530D01*
X25086003Y-48923533D01*
X24902618Y-48994576D01*
X24902609Y-48994580D01*
X24897277Y-48996646D01*
X24892410Y-48999659D01*
X24892405Y-48999662D01*
X24725192Y-49103196D01*
X24725183Y-49103202D01*
X24720323Y-49106212D01*
X24716097Y-49110064D01*
X24716087Y-49110072D01*
X24570754Y-49242561D01*
X24570749Y-49242565D01*
X24566514Y-49246427D01*
X24563065Y-49250993D01*
X24563056Y-49251004D01*
X24444542Y-49407944D01*
X24441089Y-49412517D01*
X24438539Y-49417637D01*
X24438534Y-49417646D01*
X24350872Y-49593695D01*
X24350868Y-49593703D01*
X24348318Y-49598826D01*
X24346752Y-49604329D01*
X24346748Y-49604340D01*
X24292930Y-49793494D01*
X24291361Y-49799009D01*
X24272157Y-50006250D01*
X23019250Y-50006250D01*
X23019250Y-36956250D01*
X25243208Y-36956250D01*
X25243326Y-36956533D01*
X25243367Y-36956633D01*
X25243465Y-36956673D01*
X26243325Y-37956532D01*
X26243367Y-37956633D01*
X26243467Y-37956674D01*
X26243750Y-37956792D01*
X26243851Y-37956750D01*
X38843649Y-37956750D01*
X38843750Y-37956792D01*
X38844034Y-37956674D01*
X38844034Y-37956673D01*
X38844133Y-37956633D01*
X38844173Y-37956534D01*
X39844032Y-36956674D01*
X39844133Y-36956633D01*
X39844190Y-36956493D01*
X39844292Y-36956250D01*
X44293208Y-36956250D01*
X44293326Y-36956533D01*
X44293367Y-36956633D01*
X44293465Y-36956673D01*
X45293325Y-37956532D01*
X45293367Y-37956633D01*
X45293467Y-37956674D01*
X45293750Y-37956792D01*
X45293851Y-37956750D01*
X57893649Y-37956750D01*
X57893750Y-37956792D01*
X57894034Y-37956674D01*
X57894034Y-37956673D01*
X57894133Y-37956633D01*
X57894173Y-37956534D01*
X58894032Y-36956674D01*
X58894133Y-36956633D01*
X58894190Y-36956493D01*
X58894292Y-36956250D01*
X63343208Y-36956250D01*
X63343326Y-36956533D01*
X63343367Y-36956633D01*
X63343465Y-36956673D01*
X64343325Y-37956532D01*
X64343367Y-37956633D01*
X64343467Y-37956674D01*
X64343750Y-37956792D01*
X64343851Y-37956750D01*
X76943649Y-37956750D01*
X76943750Y-37956792D01*
X76944034Y-37956674D01*
X76944034Y-37956673D01*
X76944133Y-37956633D01*
X76944173Y-37956534D01*
X77944032Y-36956674D01*
X77944133Y-36956633D01*
X77944190Y-36956493D01*
X77944292Y-36956250D01*
X82393208Y-36956250D01*
X82393326Y-36956533D01*
X82393367Y-36956633D01*
X82393465Y-36956673D01*
X83393325Y-37956532D01*
X83393367Y-37956633D01*
X83393467Y-37956674D01*
X83393750Y-37956792D01*
X83393851Y-37956750D01*
X95993649Y-37956750D01*
X95993750Y-37956792D01*
X95994034Y-37956674D01*
X95994034Y-37956673D01*
X95994133Y-37956633D01*
X95994173Y-37956534D01*
X96994032Y-36956674D01*
X96994133Y-36956633D01*
X96994190Y-36956493D01*
X96994292Y-36956250D01*
X101443208Y-36956250D01*
X101443326Y-36956533D01*
X101443367Y-36956633D01*
X101443465Y-36956673D01*
X102443325Y-37956532D01*
X102443367Y-37956633D01*
X102443467Y-37956674D01*
X102443750Y-37956792D01*
X102443851Y-37956750D01*
X115043649Y-37956750D01*
X115043750Y-37956792D01*
X115044034Y-37956674D01*
X115044034Y-37956673D01*
X115044133Y-37956633D01*
X115044173Y-37956534D01*
X116044032Y-36956674D01*
X116044133Y-36956633D01*
X116044190Y-36956493D01*
X116044292Y-36956250D01*
X120493208Y-36956250D01*
X120493326Y-36956533D01*
X120493367Y-36956633D01*
X120493465Y-36956673D01*
X121493325Y-37956532D01*
X121493367Y-37956633D01*
X121493467Y-37956674D01*
X121493750Y-37956792D01*
X121493851Y-37956750D01*
X134093649Y-37956750D01*
X134093750Y-37956792D01*
X134094034Y-37956674D01*
X134094034Y-37956673D01*
X134094133Y-37956633D01*
X134094173Y-37956534D01*
X135094032Y-36956674D01*
X135094133Y-36956633D01*
X135094190Y-36956493D01*
X135094292Y-36956250D01*
X139543208Y-36956250D01*
X139543326Y-36956533D01*
X139543367Y-36956633D01*
X139543465Y-36956673D01*
X140543325Y-37956532D01*
X140543367Y-37956633D01*
X140543467Y-37956674D01*
X140543750Y-37956792D01*
X140543851Y-37956750D01*
X153143649Y-37956750D01*
X153143750Y-37956792D01*
X153144034Y-37956674D01*
X153144034Y-37956673D01*
X153144133Y-37956633D01*
X153144173Y-37956534D01*
X154144032Y-36956674D01*
X154144133Y-36956633D01*
X154144190Y-36956493D01*
X154144292Y-36956250D01*
X158593208Y-36956250D01*
X158593326Y-36956533D01*
X158593367Y-36956633D01*
X158593465Y-36956673D01*
X159593325Y-37956532D01*
X159593367Y-37956633D01*
X159593467Y-37956674D01*
X159593750Y-37956792D01*
X159593851Y-37956750D01*
X172193649Y-37956750D01*
X172193750Y-37956792D01*
X172194034Y-37956674D01*
X172194034Y-37956673D01*
X172194133Y-37956633D01*
X172194173Y-37956534D01*
X173194032Y-36956674D01*
X173194133Y-36956633D01*
X173194190Y-36956493D01*
X173194292Y-36956250D01*
X177643208Y-36956250D01*
X177643326Y-36956533D01*
X177643367Y-36956633D01*
X177643465Y-36956673D01*
X178643325Y-37956532D01*
X178643367Y-37956633D01*
X178643467Y-37956674D01*
X178643750Y-37956792D01*
X178643851Y-37956750D01*
X191243649Y-37956750D01*
X191243750Y-37956792D01*
X191244034Y-37956674D01*
X191244034Y-37956673D01*
X191244133Y-37956633D01*
X191244173Y-37956534D01*
X192244032Y-36956674D01*
X192244133Y-36956633D01*
X192244190Y-36956493D01*
X192244292Y-36956250D01*
X196693208Y-36956250D01*
X196693326Y-36956533D01*
X196693367Y-36956633D01*
X196693465Y-36956673D01*
X197693325Y-37956532D01*
X197693367Y-37956633D01*
X197693467Y-37956674D01*
X197693750Y-37956792D01*
X197693851Y-37956750D01*
X210293649Y-37956750D01*
X210293750Y-37956792D01*
X210294034Y-37956674D01*
X210294034Y-37956673D01*
X210294133Y-37956633D01*
X210294173Y-37956534D01*
X211294032Y-36956674D01*
X211294133Y-36956633D01*
X211294190Y-36956493D01*
X211294292Y-36956250D01*
X215743208Y-36956250D01*
X215743326Y-36956533D01*
X215743367Y-36956633D01*
X215743465Y-36956673D01*
X216743325Y-37956532D01*
X216743367Y-37956633D01*
X216743467Y-37956674D01*
X216743750Y-37956792D01*
X216743851Y-37956750D01*
X229343649Y-37956750D01*
X229343750Y-37956792D01*
X229344034Y-37956674D01*
X229344034Y-37956673D01*
X229344133Y-37956633D01*
X229344173Y-37956534D01*
X230344032Y-36956674D01*
X230344133Y-36956633D01*
X230344190Y-36956493D01*
X230344292Y-36956250D01*
X241936958Y-36956250D01*
X241937076Y-36956533D01*
X241937117Y-36956633D01*
X241937215Y-36956673D01*
X242937075Y-37956532D01*
X242937117Y-37956633D01*
X242937217Y-37956674D01*
X242937500Y-37956792D01*
X242937601Y-37956750D01*
X255537399Y-37956750D01*
X255537500Y-37956792D01*
X255537784Y-37956674D01*
X255537784Y-37956673D01*
X255537883Y-37956633D01*
X255537923Y-37956534D01*
X256537782Y-36956674D01*
X256537883Y-36956633D01*
X256537940Y-36956493D01*
X256538042Y-36956250D01*
X256538000Y-36956149D01*
X256538000Y-30956250D01*
X257634657Y-30956250D01*
X257653861Y-31163491D01*
X257655430Y-31169005D01*
X257709248Y-31358159D01*
X257709251Y-31358167D01*
X257710818Y-31363674D01*
X257713370Y-31368800D01*
X257713372Y-31368804D01*
X257801034Y-31544853D01*
X257801036Y-31544857D01*
X257803589Y-31549983D01*
X257807042Y-31554555D01*
X257925556Y-31711495D01*
X257925561Y-31711500D01*
X257929014Y-31716073D01*
X257933254Y-31719938D01*
X258078587Y-31852427D01*
X258078590Y-31852429D01*
X258082823Y-31856288D01*
X258259777Y-31965854D01*
X258453851Y-32041038D01*
X258658436Y-32079282D01*
X258860835Y-32079282D01*
X258866564Y-32079282D01*
X259071149Y-32041038D01*
X259265223Y-31965854D01*
X259442177Y-31856288D01*
X259595986Y-31716073D01*
X259721411Y-31549983D01*
X259814182Y-31363674D01*
X259871139Y-31163491D01*
X259890343Y-30956250D01*
X259871139Y-30749009D01*
X259814182Y-30548826D01*
X259721411Y-30362517D01*
X259657728Y-30278187D01*
X259599443Y-30201004D01*
X259599439Y-30201000D01*
X259595986Y-30196427D01*
X259447264Y-30060849D01*
X259446412Y-30060072D01*
X259446407Y-30060068D01*
X259442177Y-30056212D01*
X259437311Y-30053199D01*
X259437307Y-30053196D01*
X259270094Y-29949662D01*
X259270093Y-29949661D01*
X259265223Y-29946646D01*
X259259885Y-29944578D01*
X259259881Y-29944576D01*
X259076496Y-29873533D01*
X259076491Y-29873531D01*
X259071149Y-29871462D01*
X259065511Y-29870408D01*
X258872193Y-29834270D01*
X258872190Y-29834269D01*
X258866564Y-29833218D01*
X258658436Y-29833218D01*
X258652810Y-29834269D01*
X258652806Y-29834270D01*
X258459488Y-29870408D01*
X258459485Y-29870408D01*
X258453851Y-29871462D01*
X258448510Y-29873530D01*
X258448503Y-29873533D01*
X258265118Y-29944576D01*
X258265109Y-29944580D01*
X258259777Y-29946646D01*
X258254910Y-29949659D01*
X258254905Y-29949662D01*
X258087692Y-30053196D01*
X258087683Y-30053202D01*
X258082823Y-30056212D01*
X258078597Y-30060064D01*
X258078587Y-30060072D01*
X257933254Y-30192561D01*
X257933249Y-30192565D01*
X257929014Y-30196427D01*
X257925565Y-30200993D01*
X257925556Y-30201004D01*
X257807042Y-30357944D01*
X257803589Y-30362517D01*
X257801039Y-30367637D01*
X257801034Y-30367646D01*
X257713372Y-30543695D01*
X257713368Y-30543703D01*
X257710818Y-30548826D01*
X257709252Y-30554329D01*
X257709248Y-30554340D01*
X257655430Y-30743494D01*
X257653861Y-30749009D01*
X257634657Y-30956250D01*
X256538000Y-30956250D01*
X256538000Y-24956351D01*
X256538042Y-24956250D01*
X256537924Y-24955967D01*
X256537883Y-24955867D01*
X256537782Y-24955825D01*
X255537923Y-23955965D01*
X255537883Y-23955867D01*
X255537784Y-23955826D01*
X255537500Y-23955708D01*
X255537399Y-23955750D01*
X242937601Y-23955750D01*
X242937500Y-23955708D01*
X242937256Y-23955809D01*
X242937117Y-23955867D01*
X242937075Y-23955967D01*
X242928796Y-23964245D01*
X242928790Y-23964250D01*
X241945560Y-24947479D01*
X241945555Y-24947485D01*
X241937215Y-24955826D01*
X241937117Y-24955867D01*
X241937076Y-24955965D01*
X241937076Y-24955966D01*
X241936958Y-24956250D01*
X241937000Y-24956351D01*
X241937000Y-36956149D01*
X241936958Y-36956250D01*
X230344292Y-36956250D01*
X230344250Y-36956149D01*
X230344250Y-24956351D01*
X230344292Y-24956250D01*
X230344174Y-24955967D01*
X230344133Y-24955867D01*
X230344032Y-24955825D01*
X229344173Y-23955965D01*
X229344133Y-23955867D01*
X229344034Y-23955826D01*
X229343750Y-23955708D01*
X229343649Y-23955750D01*
X216743851Y-23955750D01*
X216743750Y-23955708D01*
X216743506Y-23955809D01*
X216743367Y-23955867D01*
X216743325Y-23955967D01*
X216735046Y-23964245D01*
X216735040Y-23964250D01*
X215751810Y-24947479D01*
X215751805Y-24947485D01*
X215743465Y-24955826D01*
X215743367Y-24955867D01*
X215743326Y-24955965D01*
X215743326Y-24955966D01*
X215743208Y-24956250D01*
X215743250Y-24956351D01*
X215743250Y-36956149D01*
X215743208Y-36956250D01*
X211294292Y-36956250D01*
X211294250Y-36956149D01*
X211294250Y-30956250D01*
X212390907Y-30956250D01*
X212410111Y-31163491D01*
X212411680Y-31169005D01*
X212465498Y-31358159D01*
X212465501Y-31358167D01*
X212467068Y-31363674D01*
X212469620Y-31368800D01*
X212469622Y-31368804D01*
X212557284Y-31544853D01*
X212557286Y-31544857D01*
X212559839Y-31549983D01*
X212563292Y-31554555D01*
X212681806Y-31711495D01*
X212681811Y-31711500D01*
X212685264Y-31716073D01*
X212689504Y-31719938D01*
X212834837Y-31852427D01*
X212834840Y-31852429D01*
X212839073Y-31856288D01*
X213016027Y-31965854D01*
X213210101Y-32041038D01*
X213414686Y-32079282D01*
X213617085Y-32079282D01*
X213622814Y-32079282D01*
X213827399Y-32041038D01*
X214021473Y-31965854D01*
X214198427Y-31856288D01*
X214352236Y-31716073D01*
X214477661Y-31549983D01*
X214570432Y-31363674D01*
X214627389Y-31163491D01*
X214646593Y-30956250D01*
X214627389Y-30749009D01*
X214570432Y-30548826D01*
X214477661Y-30362517D01*
X214413978Y-30278187D01*
X214355693Y-30201004D01*
X214355689Y-30201000D01*
X214352236Y-30196427D01*
X214203514Y-30060849D01*
X214202662Y-30060072D01*
X214202657Y-30060068D01*
X214198427Y-30056212D01*
X214193561Y-30053199D01*
X214193557Y-30053196D01*
X214026344Y-29949662D01*
X214026343Y-29949661D01*
X214021473Y-29946646D01*
X214016135Y-29944578D01*
X214016131Y-29944576D01*
X213832746Y-29873533D01*
X213832741Y-29873531D01*
X213827399Y-29871462D01*
X213821761Y-29870408D01*
X213628443Y-29834270D01*
X213628440Y-29834269D01*
X213622814Y-29833218D01*
X213414686Y-29833218D01*
X213409060Y-29834269D01*
X213409056Y-29834270D01*
X213215738Y-29870408D01*
X213215735Y-29870408D01*
X213210101Y-29871462D01*
X213204760Y-29873530D01*
X213204753Y-29873533D01*
X213021368Y-29944576D01*
X213021359Y-29944580D01*
X213016027Y-29946646D01*
X213011160Y-29949659D01*
X213011155Y-29949662D01*
X212843942Y-30053196D01*
X212843933Y-30053202D01*
X212839073Y-30056212D01*
X212834847Y-30060064D01*
X212834837Y-30060072D01*
X212689504Y-30192561D01*
X212689499Y-30192565D01*
X212685264Y-30196427D01*
X212681815Y-30200993D01*
X212681806Y-30201004D01*
X212563292Y-30357944D01*
X212559839Y-30362517D01*
X212557289Y-30367637D01*
X212557284Y-30367646D01*
X212469622Y-30543695D01*
X212469618Y-30543703D01*
X212467068Y-30548826D01*
X212465502Y-30554329D01*
X212465498Y-30554340D01*
X212411680Y-30743494D01*
X212410111Y-30749009D01*
X212390907Y-30956250D01*
X211294250Y-30956250D01*
X211294250Y-24956351D01*
X211294292Y-24956250D01*
X211294174Y-24955967D01*
X211294133Y-24955867D01*
X211294032Y-24955825D01*
X210294173Y-23955965D01*
X210294133Y-23955867D01*
X210294034Y-23955826D01*
X210293750Y-23955708D01*
X210293649Y-23955750D01*
X197693851Y-23955750D01*
X197693750Y-23955708D01*
X197693506Y-23955809D01*
X197693367Y-23955867D01*
X197693325Y-23955967D01*
X197685046Y-23964245D01*
X197685040Y-23964250D01*
X196701810Y-24947479D01*
X196701805Y-24947485D01*
X196693465Y-24955826D01*
X196693367Y-24955867D01*
X196693326Y-24955965D01*
X196693326Y-24955966D01*
X196693208Y-24956250D01*
X196693250Y-24956351D01*
X196693250Y-36956149D01*
X196693208Y-36956250D01*
X192244292Y-36956250D01*
X192244250Y-36956149D01*
X192244250Y-24956351D01*
X192244292Y-24956250D01*
X192244174Y-24955967D01*
X192244133Y-24955867D01*
X192244032Y-24955825D01*
X191244173Y-23955965D01*
X191244133Y-23955867D01*
X191244034Y-23955826D01*
X191243750Y-23955708D01*
X191243649Y-23955750D01*
X178643851Y-23955750D01*
X178643750Y-23955708D01*
X178643506Y-23955809D01*
X178643367Y-23955867D01*
X178643325Y-23955967D01*
X178635046Y-23964245D01*
X178635040Y-23964250D01*
X177651810Y-24947479D01*
X177651805Y-24947485D01*
X177643465Y-24955826D01*
X177643367Y-24955867D01*
X177643326Y-24955965D01*
X177643326Y-24955966D01*
X177643208Y-24956250D01*
X177643250Y-24956351D01*
X177643250Y-36956149D01*
X177643208Y-36956250D01*
X173194292Y-36956250D01*
X173194250Y-36956149D01*
X173194250Y-24956351D01*
X173194292Y-24956250D01*
X173194174Y-24955967D01*
X173194133Y-24955867D01*
X173194032Y-24955825D01*
X172194173Y-23955965D01*
X172194133Y-23955867D01*
X172194034Y-23955826D01*
X172193750Y-23955708D01*
X172193649Y-23955750D01*
X159593851Y-23955750D01*
X159593750Y-23955708D01*
X159593506Y-23955809D01*
X159593367Y-23955867D01*
X159593325Y-23955967D01*
X159585046Y-23964245D01*
X159585040Y-23964250D01*
X158601810Y-24947479D01*
X158601805Y-24947485D01*
X158593465Y-24955826D01*
X158593367Y-24955867D01*
X158593326Y-24955965D01*
X158593326Y-24955966D01*
X158593208Y-24956250D01*
X158593250Y-24956351D01*
X158593250Y-36956149D01*
X158593208Y-36956250D01*
X154144292Y-36956250D01*
X154144250Y-36956149D01*
X154144250Y-30956250D01*
X155240907Y-30956250D01*
X155260111Y-31163491D01*
X155261680Y-31169005D01*
X155315498Y-31358159D01*
X155315501Y-31358167D01*
X155317068Y-31363674D01*
X155319620Y-31368800D01*
X155319622Y-31368804D01*
X155407284Y-31544853D01*
X155407286Y-31544857D01*
X155409839Y-31549983D01*
X155413292Y-31554555D01*
X155531806Y-31711495D01*
X155531811Y-31711500D01*
X155535264Y-31716073D01*
X155539504Y-31719938D01*
X155684837Y-31852427D01*
X155684840Y-31852429D01*
X155689073Y-31856288D01*
X155866027Y-31965854D01*
X156060101Y-32041038D01*
X156264686Y-32079282D01*
X156467085Y-32079282D01*
X156472814Y-32079282D01*
X156677399Y-32041038D01*
X156871473Y-31965854D01*
X157048427Y-31856288D01*
X157202236Y-31716073D01*
X157327661Y-31549983D01*
X157420432Y-31363674D01*
X157477389Y-31163491D01*
X157496593Y-30956250D01*
X157477389Y-30749009D01*
X157420432Y-30548826D01*
X157327661Y-30362517D01*
X157263978Y-30278187D01*
X157205693Y-30201004D01*
X157205689Y-30201000D01*
X157202236Y-30196427D01*
X157053514Y-30060849D01*
X157052662Y-30060072D01*
X157052657Y-30060068D01*
X157048427Y-30056212D01*
X157043561Y-30053199D01*
X157043557Y-30053196D01*
X156876344Y-29949662D01*
X156876343Y-29949661D01*
X156871473Y-29946646D01*
X156866135Y-29944578D01*
X156866131Y-29944576D01*
X156682746Y-29873533D01*
X156682741Y-29873531D01*
X156677399Y-29871462D01*
X156671761Y-29870408D01*
X156478443Y-29834270D01*
X156478440Y-29834269D01*
X156472814Y-29833218D01*
X156264686Y-29833218D01*
X156259060Y-29834269D01*
X156259056Y-29834270D01*
X156065738Y-29870408D01*
X156065735Y-29870408D01*
X156060101Y-29871462D01*
X156054760Y-29873530D01*
X156054753Y-29873533D01*
X155871368Y-29944576D01*
X155871359Y-29944580D01*
X155866027Y-29946646D01*
X155861160Y-29949659D01*
X155861155Y-29949662D01*
X155693942Y-30053196D01*
X155693933Y-30053202D01*
X155689073Y-30056212D01*
X155684847Y-30060064D01*
X155684837Y-30060072D01*
X155539504Y-30192561D01*
X155539499Y-30192565D01*
X155535264Y-30196427D01*
X155531815Y-30200993D01*
X155531806Y-30201004D01*
X155413292Y-30357944D01*
X155409839Y-30362517D01*
X155407289Y-30367637D01*
X155407284Y-30367646D01*
X155319622Y-30543695D01*
X155319618Y-30543703D01*
X155317068Y-30548826D01*
X155315502Y-30554329D01*
X155315498Y-30554340D01*
X155261680Y-30743494D01*
X155260111Y-30749009D01*
X155240907Y-30956250D01*
X154144250Y-30956250D01*
X154144250Y-24956351D01*
X154144292Y-24956250D01*
X154144174Y-24955967D01*
X154144133Y-24955867D01*
X154144032Y-24955825D01*
X153144173Y-23955965D01*
X153144133Y-23955867D01*
X153144034Y-23955826D01*
X153143750Y-23955708D01*
X153143649Y-23955750D01*
X140543851Y-23955750D01*
X140543750Y-23955708D01*
X140543506Y-23955809D01*
X140543367Y-23955867D01*
X140543325Y-23955967D01*
X140535046Y-23964245D01*
X140535040Y-23964250D01*
X139551810Y-24947479D01*
X139551805Y-24947485D01*
X139543465Y-24955826D01*
X139543367Y-24955867D01*
X139543326Y-24955965D01*
X139543326Y-24955966D01*
X139543208Y-24956250D01*
X139543250Y-24956351D01*
X139543250Y-36956149D01*
X139543208Y-36956250D01*
X135094292Y-36956250D01*
X135094250Y-36956149D01*
X135094250Y-24956351D01*
X135094292Y-24956250D01*
X135094174Y-24955967D01*
X135094133Y-24955867D01*
X135094032Y-24955825D01*
X134094173Y-23955965D01*
X134094133Y-23955867D01*
X134094034Y-23955826D01*
X134093750Y-23955708D01*
X134093649Y-23955750D01*
X121493851Y-23955750D01*
X121493750Y-23955708D01*
X121493506Y-23955809D01*
X121493367Y-23955867D01*
X121493325Y-23955967D01*
X121485046Y-23964245D01*
X121485040Y-23964250D01*
X120501810Y-24947479D01*
X120501805Y-24947485D01*
X120493465Y-24955826D01*
X120493367Y-24955867D01*
X120493326Y-24955965D01*
X120493326Y-24955966D01*
X120493208Y-24956250D01*
X120493250Y-24956351D01*
X120493250Y-36956149D01*
X120493208Y-36956250D01*
X116044292Y-36956250D01*
X116044250Y-36956149D01*
X116044250Y-24956351D01*
X116044292Y-24956250D01*
X116044174Y-24955967D01*
X116044133Y-24955867D01*
X116044032Y-24955825D01*
X115044173Y-23955965D01*
X115044133Y-23955867D01*
X115044034Y-23955826D01*
X115043750Y-23955708D01*
X115043649Y-23955750D01*
X102443851Y-23955750D01*
X102443750Y-23955708D01*
X102443506Y-23955809D01*
X102443367Y-23955867D01*
X102443325Y-23955967D01*
X102435046Y-23964245D01*
X102435040Y-23964250D01*
X101451810Y-24947479D01*
X101451805Y-24947485D01*
X101443465Y-24955826D01*
X101443367Y-24955867D01*
X101443326Y-24955965D01*
X101443326Y-24955966D01*
X101443208Y-24956250D01*
X101443250Y-24956351D01*
X101443250Y-36956149D01*
X101443208Y-36956250D01*
X96994292Y-36956250D01*
X96994250Y-36956149D01*
X96994250Y-30956250D01*
X98090907Y-30956250D01*
X98110111Y-31163491D01*
X98111680Y-31169005D01*
X98165498Y-31358159D01*
X98165501Y-31358167D01*
X98167068Y-31363674D01*
X98169620Y-31368800D01*
X98169622Y-31368804D01*
X98257284Y-31544853D01*
X98257286Y-31544857D01*
X98259839Y-31549983D01*
X98263292Y-31554555D01*
X98381806Y-31711495D01*
X98381811Y-31711500D01*
X98385264Y-31716073D01*
X98389504Y-31719938D01*
X98534837Y-31852427D01*
X98534840Y-31852429D01*
X98539073Y-31856288D01*
X98716027Y-31965854D01*
X98910101Y-32041038D01*
X99114686Y-32079282D01*
X99317085Y-32079282D01*
X99322814Y-32079282D01*
X99527399Y-32041038D01*
X99721473Y-31965854D01*
X99898427Y-31856288D01*
X100052236Y-31716073D01*
X100177661Y-31549983D01*
X100270432Y-31363674D01*
X100327389Y-31163491D01*
X100346593Y-30956250D01*
X100327389Y-30749009D01*
X100270432Y-30548826D01*
X100177661Y-30362517D01*
X100113978Y-30278187D01*
X100055693Y-30201004D01*
X100055689Y-30201000D01*
X100052236Y-30196427D01*
X99903514Y-30060849D01*
X99902662Y-30060072D01*
X99902657Y-30060068D01*
X99898427Y-30056212D01*
X99893561Y-30053199D01*
X99893557Y-30053196D01*
X99726344Y-29949662D01*
X99726343Y-29949661D01*
X99721473Y-29946646D01*
X99716135Y-29944578D01*
X99716131Y-29944576D01*
X99532746Y-29873533D01*
X99532741Y-29873531D01*
X99527399Y-29871462D01*
X99521761Y-29870408D01*
X99328443Y-29834270D01*
X99328440Y-29834269D01*
X99322814Y-29833218D01*
X99114686Y-29833218D01*
X99109060Y-29834269D01*
X99109056Y-29834270D01*
X98915738Y-29870408D01*
X98915735Y-29870408D01*
X98910101Y-29871462D01*
X98904760Y-29873530D01*
X98904753Y-29873533D01*
X98721368Y-29944576D01*
X98721359Y-29944580D01*
X98716027Y-29946646D01*
X98711160Y-29949659D01*
X98711155Y-29949662D01*
X98543942Y-30053196D01*
X98543933Y-30053202D01*
X98539073Y-30056212D01*
X98534847Y-30060064D01*
X98534837Y-30060072D01*
X98389504Y-30192561D01*
X98389499Y-30192565D01*
X98385264Y-30196427D01*
X98381815Y-30200993D01*
X98381806Y-30201004D01*
X98263292Y-30357944D01*
X98259839Y-30362517D01*
X98257289Y-30367637D01*
X98257284Y-30367646D01*
X98169622Y-30543695D01*
X98169618Y-30543703D01*
X98167068Y-30548826D01*
X98165502Y-30554329D01*
X98165498Y-30554340D01*
X98111680Y-30743494D01*
X98110111Y-30749009D01*
X98090907Y-30956250D01*
X96994250Y-30956250D01*
X96994250Y-24956351D01*
X96994292Y-24956250D01*
X96994174Y-24955967D01*
X96994133Y-24955867D01*
X96994032Y-24955825D01*
X95994173Y-23955965D01*
X95994133Y-23955867D01*
X95994034Y-23955826D01*
X95993750Y-23955708D01*
X95993649Y-23955750D01*
X83393851Y-23955750D01*
X83393750Y-23955708D01*
X83393506Y-23955809D01*
X83393367Y-23955867D01*
X83393325Y-23955967D01*
X83385046Y-23964245D01*
X83385040Y-23964250D01*
X82401810Y-24947479D01*
X82401805Y-24947485D01*
X82393465Y-24955826D01*
X82393367Y-24955867D01*
X82393326Y-24955965D01*
X82393326Y-24955966D01*
X82393208Y-24956250D01*
X82393250Y-24956351D01*
X82393250Y-36956149D01*
X82393208Y-36956250D01*
X77944292Y-36956250D01*
X77944250Y-36956149D01*
X77944250Y-24956351D01*
X77944292Y-24956250D01*
X77944174Y-24955967D01*
X77944133Y-24955867D01*
X77944032Y-24955825D01*
X76944173Y-23955965D01*
X76944133Y-23955867D01*
X76944034Y-23955826D01*
X76943750Y-23955708D01*
X76943649Y-23955750D01*
X64343851Y-23955750D01*
X64343750Y-23955708D01*
X64343506Y-23955809D01*
X64343367Y-23955867D01*
X64343325Y-23955967D01*
X64335046Y-23964245D01*
X64335040Y-23964250D01*
X63351810Y-24947479D01*
X63351805Y-24947485D01*
X63343465Y-24955826D01*
X63343367Y-24955867D01*
X63343326Y-24955965D01*
X63343326Y-24955966D01*
X63343208Y-24956250D01*
X63343250Y-24956351D01*
X63343250Y-36956149D01*
X63343208Y-36956250D01*
X58894292Y-36956250D01*
X58894250Y-36956149D01*
X58894250Y-24956351D01*
X58894292Y-24956250D01*
X58894174Y-24955967D01*
X58894133Y-24955867D01*
X58894032Y-24955825D01*
X57894173Y-23955965D01*
X57894133Y-23955867D01*
X57894034Y-23955826D01*
X57893750Y-23955708D01*
X57893649Y-23955750D01*
X45293851Y-23955750D01*
X45293750Y-23955708D01*
X45293506Y-23955809D01*
X45293367Y-23955867D01*
X45293325Y-23955967D01*
X45285046Y-23964245D01*
X45285040Y-23964250D01*
X44301810Y-24947479D01*
X44301805Y-24947485D01*
X44293465Y-24955826D01*
X44293367Y-24955867D01*
X44293326Y-24955965D01*
X44293326Y-24955966D01*
X44293208Y-24956250D01*
X44293250Y-24956351D01*
X44293250Y-36956149D01*
X44293208Y-36956250D01*
X39844292Y-36956250D01*
X39844250Y-36956149D01*
X39844250Y-30956250D01*
X40940907Y-30956250D01*
X40960111Y-31163491D01*
X40961680Y-31169005D01*
X41015498Y-31358159D01*
X41015501Y-31358167D01*
X41017068Y-31363674D01*
X41019620Y-31368800D01*
X41019622Y-31368804D01*
X41107284Y-31544853D01*
X41107286Y-31544857D01*
X41109839Y-31549983D01*
X41113292Y-31554555D01*
X41231806Y-31711495D01*
X41231811Y-31711500D01*
X41235264Y-31716073D01*
X41239504Y-31719938D01*
X41384837Y-31852427D01*
X41384840Y-31852429D01*
X41389073Y-31856288D01*
X41566027Y-31965854D01*
X41760101Y-32041038D01*
X41964686Y-32079282D01*
X42167085Y-32079282D01*
X42172814Y-32079282D01*
X42377399Y-32041038D01*
X42571473Y-31965854D01*
X42748427Y-31856288D01*
X42902236Y-31716073D01*
X43027661Y-31549983D01*
X43120432Y-31363674D01*
X43177389Y-31163491D01*
X43196593Y-30956250D01*
X43177389Y-30749009D01*
X43120432Y-30548826D01*
X43027661Y-30362517D01*
X42963978Y-30278187D01*
X42905693Y-30201004D01*
X42905689Y-30201000D01*
X42902236Y-30196427D01*
X42753514Y-30060849D01*
X42752662Y-30060072D01*
X42752657Y-30060068D01*
X42748427Y-30056212D01*
X42743561Y-30053199D01*
X42743557Y-30053196D01*
X42576344Y-29949662D01*
X42576343Y-29949661D01*
X42571473Y-29946646D01*
X42566135Y-29944578D01*
X42566131Y-29944576D01*
X42382746Y-29873533D01*
X42382741Y-29873531D01*
X42377399Y-29871462D01*
X42371761Y-29870408D01*
X42178443Y-29834270D01*
X42178440Y-29834269D01*
X42172814Y-29833218D01*
X41964686Y-29833218D01*
X41959060Y-29834269D01*
X41959056Y-29834270D01*
X41765738Y-29870408D01*
X41765735Y-29870408D01*
X41760101Y-29871462D01*
X41754760Y-29873530D01*
X41754753Y-29873533D01*
X41571368Y-29944576D01*
X41571359Y-29944580D01*
X41566027Y-29946646D01*
X41561160Y-29949659D01*
X41561155Y-29949662D01*
X41393942Y-30053196D01*
X41393933Y-30053202D01*
X41389073Y-30056212D01*
X41384847Y-30060064D01*
X41384837Y-30060072D01*
X41239504Y-30192561D01*
X41239499Y-30192565D01*
X41235264Y-30196427D01*
X41231815Y-30200993D01*
X41231806Y-30201004D01*
X41113292Y-30357944D01*
X41109839Y-30362517D01*
X41107289Y-30367637D01*
X41107284Y-30367646D01*
X41019622Y-30543695D01*
X41019618Y-30543703D01*
X41017068Y-30548826D01*
X41015502Y-30554329D01*
X41015498Y-30554340D01*
X40961680Y-30743494D01*
X40960111Y-30749009D01*
X40940907Y-30956250D01*
X39844250Y-30956250D01*
X39844250Y-24956351D01*
X39844292Y-24956250D01*
X39844174Y-24955967D01*
X39844133Y-24955867D01*
X39844032Y-24955825D01*
X38844173Y-23955965D01*
X38844133Y-23955867D01*
X38844034Y-23955826D01*
X38843750Y-23955708D01*
X38843649Y-23955750D01*
X26243851Y-23955750D01*
X26243750Y-23955708D01*
X26243506Y-23955809D01*
X26243367Y-23955867D01*
X26243325Y-23955967D01*
X26235046Y-23964245D01*
X26235040Y-23964250D01*
X25251810Y-24947479D01*
X25251805Y-24947485D01*
X25243465Y-24955826D01*
X25243367Y-24955867D01*
X25243326Y-24955965D01*
X25243326Y-24955966D01*
X25243208Y-24956250D01*
X25243250Y-24956351D01*
X25243250Y-36956149D01*
X25243208Y-36956250D01*
X23019250Y-36956250D01*
X23019250Y-22249856D01*
X23019445Y-22242906D01*
X23022233Y-22193264D01*
X23022263Y-22192768D01*
X23039411Y-21931160D01*
X23040892Y-21918539D01*
X23061099Y-21799616D01*
X23061713Y-21796286D01*
X23099041Y-21608632D01*
X23101493Y-21598540D01*
X23138282Y-21470842D01*
X23139995Y-21465382D01*
X23197933Y-21294702D01*
X23200784Y-21287130D01*
X23204791Y-21277457D01*
X23252682Y-21161837D01*
X23255993Y-21154529D01*
X23335731Y-20992837D01*
X23338370Y-20987786D01*
X23402657Y-20871467D01*
X23408053Y-20862605D01*
X23514397Y-20703448D01*
X23516248Y-20700761D01*
X23586084Y-20602335D01*
X23593950Y-20592377D01*
X23766609Y-20395494D01*
X23767123Y-20394913D01*
X23800325Y-20357760D01*
X23805069Y-20352743D01*
X25976562Y-18181250D01*
X32263345Y-18181250D01*
X32263817Y-18186645D01*
X32281942Y-18393828D01*
X32281943Y-18393835D01*
X32282415Y-18399227D01*
X32283814Y-18404449D01*
X32283816Y-18404459D01*
X32337646Y-18605352D01*
X32339047Y-18610580D01*
X32341331Y-18615479D01*
X32341334Y-18615486D01*
X32429233Y-18803986D01*
X32429236Y-18803992D01*
X32431520Y-18808889D01*
X32434619Y-18813316D01*
X32434621Y-18813318D01*
X32553918Y-18983692D01*
X32553921Y-18983696D01*
X32557024Y-18988127D01*
X32711745Y-19142848D01*
X32890983Y-19268352D01*
X33089292Y-19360825D01*
X33247144Y-19403121D01*
X33295412Y-19416055D01*
X33295413Y-19416055D01*
X33300645Y-19417457D01*
X33518622Y-19436527D01*
X33736599Y-19417457D01*
X33947952Y-19360825D01*
X34146261Y-19268352D01*
X34325499Y-19142848D01*
X34480220Y-18988127D01*
X34605724Y-18808889D01*
X34698197Y-18610580D01*
X34754829Y-18399227D01*
X34773899Y-18181250D01*
X34754829Y-17963273D01*
X34698197Y-17751920D01*
X34605724Y-17553612D01*
X34480220Y-17374373D01*
X34325499Y-17219652D01*
X34321068Y-17216549D01*
X34321064Y-17216546D01*
X34150690Y-17097249D01*
X34150688Y-17097247D01*
X34146261Y-17094148D01*
X34141364Y-17091864D01*
X34141358Y-17091861D01*
X33952858Y-17003962D01*
X33952851Y-17003959D01*
X33947952Y-17001675D01*
X33942725Y-17000274D01*
X33942724Y-17000274D01*
X33741831Y-16946444D01*
X33741821Y-16946442D01*
X33736599Y-16945043D01*
X33731207Y-16944571D01*
X33731200Y-16944570D01*
X33524017Y-16926445D01*
X33518622Y-16925973D01*
X33513227Y-16926445D01*
X33306043Y-16944570D01*
X33306034Y-16944571D01*
X33300645Y-16945043D01*
X33295424Y-16946441D01*
X33295412Y-16946444D01*
X33094519Y-17000274D01*
X33094514Y-17000275D01*
X33089292Y-17001675D01*
X33084396Y-17003957D01*
X33084385Y-17003962D01*
X32895894Y-17091858D01*
X32895890Y-17091860D01*
X32890984Y-17094148D01*
X32886551Y-17097251D01*
X32886544Y-17097256D01*
X32716180Y-17216546D01*
X32716175Y-17216549D01*
X32711745Y-17219652D01*
X32707921Y-17223475D01*
X32707915Y-17223481D01*
X32560853Y-17370543D01*
X32560847Y-17370549D01*
X32557024Y-17374373D01*
X32553921Y-17378803D01*
X32553918Y-17378808D01*
X32434628Y-17549172D01*
X32434623Y-17549179D01*
X32431520Y-17553612D01*
X32429232Y-17558518D01*
X32429230Y-17558522D01*
X32341334Y-17747013D01*
X32341329Y-17747024D01*
X32339047Y-17751920D01*
X32337647Y-17757142D01*
X32337646Y-17757147D01*
X32283816Y-17958040D01*
X32283813Y-17958052D01*
X32282415Y-17963273D01*
X32281943Y-17968662D01*
X32281942Y-17968671D01*
X32264089Y-18172737D01*
X32263345Y-18181250D01*
X25976562Y-18181250D01*
X27940272Y-16217540D01*
X27945269Y-16212815D01*
X27982562Y-16179489D01*
X28179901Y-16006430D01*
X28189860Y-15998566D01*
X28288177Y-15928807D01*
X28290871Y-15926951D01*
X28450130Y-15820538D01*
X28458988Y-15815144D01*
X28575251Y-15750888D01*
X28580288Y-15748257D01*
X28742054Y-15668482D01*
X28749364Y-15665170D01*
X28874632Y-15613282D01*
X28882159Y-15610449D01*
X29052930Y-15552480D01*
X29058375Y-15550772D01*
X29186026Y-15513996D01*
X29196102Y-15511548D01*
X29383887Y-15474194D01*
X29387166Y-15473589D01*
X29506020Y-15453394D01*
X29518643Y-15451913D01*
X29780170Y-15434770D01*
X29781121Y-15434712D01*
X29820232Y-15432515D01*
X29830390Y-15431945D01*
X29837342Y-15431750D01*
X37200144Y-15431750D01*
X37207092Y-15431944D01*
G37*
%TD.AperFunction*%
%TD*%
M02*
