%TF.GenerationSoftware,KiCad,Pcbnew,8.0.3*%
%TF.CreationDate,2024-08-24T23:39:28+02:00*%
%TF.ProjectId,toprevan,746f7072-6576-4616-9e2e-6b696361645f,rev?*%
%TF.SameCoordinates,Original*%
%TF.FileFunction,Soldermask,Bot*%
%TF.FilePolarity,Negative*%
%FSLAX46Y46*%
G04 Gerber Fmt 4.6, Leading zero omitted, Abs format (unit mm)*
G04 Created by KiCad (PCBNEW 8.0.3) date 2024-08-24 23:39:28*
%MOMM*%
%LPD*%
G01*
G04 APERTURE LIST*
G04 Aperture macros list*
%AMRoundRect*
0 Rectangle with rounded corners*
0 $1 Rounding radius*
0 $2 $3 $4 $5 $6 $7 $8 $9 X,Y pos of 4 corners*
0 Add a 4 corners polygon primitive as box body*
4,1,4,$2,$3,$4,$5,$6,$7,$8,$9,$2,$3,0*
0 Add four circle primitives for the rounded corners*
1,1,$1+$1,$2,$3*
1,1,$1+$1,$4,$5*
1,1,$1+$1,$6,$7*
1,1,$1+$1,$8,$9*
0 Add four rect primitives between the rounded corners*
20,1,$1+$1,$2,$3,$4,$5,0*
20,1,$1+$1,$4,$5,$6,$7,0*
20,1,$1+$1,$6,$7,$8,$9,0*
20,1,$1+$1,$8,$9,$2,$3,0*%
G04 Aperture macros list end*
%ADD10C,2.200000*%
%ADD11R,1.700000X1.700000*%
%ADD12O,1.700000X1.700000*%
%ADD13RoundRect,0.140000X-0.170000X0.140000X-0.170000X-0.140000X0.170000X-0.140000X0.170000X0.140000X0*%
%ADD14RoundRect,0.135000X-0.135000X-0.185000X0.135000X-0.185000X0.135000X0.185000X-0.135000X0.185000X0*%
%ADD15RoundRect,0.135000X-0.185000X0.135000X-0.185000X-0.135000X0.185000X-0.135000X0.185000X0.135000X0*%
%ADD16RoundRect,0.135000X0.135000X0.185000X-0.135000X0.185000X-0.135000X-0.185000X0.135000X-0.185000X0*%
%ADD17R,0.400000X1.900000*%
%ADD18RoundRect,0.062500X0.062500X-0.375000X0.062500X0.375000X-0.062500X0.375000X-0.062500X-0.375000X0*%
%ADD19RoundRect,0.062500X0.375000X-0.062500X0.375000X0.062500X-0.375000X0.062500X-0.375000X-0.062500X0*%
%ADD20R,5.600000X5.600000*%
%ADD21R,1.778000X0.419100*%
%ADD22RoundRect,0.150000X-0.150000X-0.625000X0.150000X-0.625000X0.150000X0.625000X-0.150000X0.625000X0*%
%ADD23RoundRect,0.250000X-0.350000X-0.650000X0.350000X-0.650000X0.350000X0.650000X-0.350000X0.650000X0*%
%ADD24R,0.700000X1.000000*%
%ADD25R,0.700000X0.600000*%
%ADD26RoundRect,0.250000X-0.625000X0.375000X-0.625000X-0.375000X0.625000X-0.375000X0.625000X0.375000X0*%
%ADD27C,0.650000*%
%ADD28R,0.600000X1.450000*%
%ADD29R,0.300000X1.450000*%
%ADD30O,1.000000X1.600000*%
%ADD31O,1.000000X2.100000*%
%ADD32RoundRect,0.140000X0.170000X-0.140000X0.170000X0.140000X-0.170000X0.140000X-0.170000X-0.140000X0*%
%ADD33RoundRect,0.150000X-0.825000X-0.150000X0.825000X-0.150000X0.825000X0.150000X-0.825000X0.150000X0*%
%ADD34RoundRect,0.150000X0.150000X-0.587500X0.150000X0.587500X-0.150000X0.587500X-0.150000X-0.587500X0*%
%ADD35RoundRect,0.140000X0.140000X0.170000X-0.140000X0.170000X-0.140000X-0.170000X0.140000X-0.170000X0*%
%ADD36RoundRect,0.140000X-0.140000X-0.170000X0.140000X-0.170000X0.140000X0.170000X-0.140000X0.170000X0*%
%ADD37RoundRect,0.135000X0.185000X-0.135000X0.185000X0.135000X-0.185000X0.135000X-0.185000X-0.135000X0*%
%ADD38RoundRect,0.150000X-0.150000X-0.275000X0.150000X-0.275000X0.150000X0.275000X-0.150000X0.275000X0*%
%ADD39RoundRect,0.175000X-0.175000X-0.225000X0.175000X-0.225000X0.175000X0.225000X-0.175000X0.225000X0*%
%ADD40RoundRect,0.237500X0.250000X0.237500X-0.250000X0.237500X-0.250000X-0.237500X0.250000X-0.237500X0*%
G04 APERTURE END LIST*
D10*
%TO.C,H3*%
X156368750Y-30956250D03*
%TD*%
%TO.C,H18*%
X68262500Y-88106250D03*
%TD*%
%TO.C,H22*%
X246856250Y-88106250D03*
%TD*%
%TO.C,H9*%
X142081250Y-50006250D03*
%TD*%
%TO.C,H4*%
X213518750Y-30956250D03*
%TD*%
%TO.C,H15*%
X208756250Y-69056250D03*
%TD*%
%TO.C,H14*%
X151606250Y-69056250D03*
%TD*%
%TO.C,H12*%
X30162500Y-69056250D03*
%TD*%
%TO.C,H21*%
X208756250Y-88106250D03*
%TD*%
%TO.C,H20*%
X187325000Y-88106250D03*
%TD*%
D11*
%TO.C,SW1*%
X183356250Y-86831250D03*
D12*
X183356250Y-89371250D03*
%TD*%
D10*
%TO.C,H16*%
X246856250Y-69056250D03*
%TD*%
%TO.C,H13*%
X94456250Y-69056250D03*
%TD*%
%TO.C,H5*%
X258762500Y-30956250D03*
%TD*%
%TO.C,H7*%
X65881250Y-50006250D03*
%TD*%
%TO.C,H6*%
X25400000Y-50006250D03*
%TD*%
%TO.C,H10*%
X199231250Y-50006250D03*
%TD*%
%TO.C,H17*%
X44450000Y-88106250D03*
%TD*%
%TO.C,H1*%
X42068750Y-30956250D03*
%TD*%
%TO.C,H19*%
X89693750Y-88106250D03*
%TD*%
%TO.C,H8*%
X103981250Y-50006250D03*
%TD*%
%TO.C,H11*%
X242093750Y-50006250D03*
%TD*%
%TO.C,H2*%
X99218750Y-30956250D03*
%TD*%
D13*
%TO.C,C10*%
X133886072Y-93745973D03*
X133886072Y-94705973D03*
%TD*%
D14*
%TO.C,R14*%
X63832898Y-81756250D03*
X64852898Y-81756250D03*
%TD*%
%TO.C,R23*%
X210627500Y-81756250D03*
X211647500Y-81756250D03*
%TD*%
D15*
%TO.C,R5*%
X132256250Y-80387058D03*
X132256250Y-81407058D03*
%TD*%
D16*
%TO.C,R18*%
X125922500Y-94362500D03*
X124902500Y-94362500D03*
%TD*%
D17*
%TO.C,Y1*%
X136401214Y-94917035D03*
X137601214Y-94917035D03*
X138801214Y-94917035D03*
%TD*%
D14*
%TO.C,R25*%
X248727500Y-81746059D03*
X249747500Y-81746059D03*
%TD*%
D18*
%TO.C,U1*%
X138481250Y-91543750D03*
X137981250Y-91543750D03*
X137481250Y-91543750D03*
X136981250Y-91543750D03*
X136481250Y-91543750D03*
X135981250Y-91543750D03*
X135481250Y-91543750D03*
X134981250Y-91543750D03*
X134481250Y-91543750D03*
X133981250Y-91543750D03*
X133481250Y-91543750D03*
X132981250Y-91543750D03*
D19*
X132293750Y-90856250D03*
X132293750Y-90356250D03*
X132293750Y-89856250D03*
X132293750Y-89356250D03*
X132293750Y-88856250D03*
X132293750Y-88356250D03*
X132293750Y-87856250D03*
X132293750Y-87356250D03*
X132293750Y-86856250D03*
X132293750Y-86356250D03*
X132293750Y-85856250D03*
X132293750Y-85356250D03*
D18*
X132981250Y-84668750D03*
X133481250Y-84668750D03*
X133981250Y-84668750D03*
X134481250Y-84668750D03*
X134981250Y-84668750D03*
X135481250Y-84668750D03*
X135981250Y-84668750D03*
X136481250Y-84668750D03*
X136981250Y-84668750D03*
X137481250Y-84668750D03*
X137981250Y-84668750D03*
X138481250Y-84668750D03*
D19*
X139168750Y-85356250D03*
X139168750Y-85856250D03*
X139168750Y-86356250D03*
X139168750Y-86856250D03*
X139168750Y-87356250D03*
X139168750Y-87856250D03*
X139168750Y-88356250D03*
X139168750Y-88856250D03*
X139168750Y-89356250D03*
X139168750Y-89856250D03*
X139168750Y-90356250D03*
X139168750Y-90856250D03*
D20*
X135731250Y-88106250D03*
%TD*%
D13*
%TO.C,C16*%
X132789679Y-93745973D03*
X132789679Y-94705973D03*
%TD*%
D11*
%TO.C,J4*%
X246856250Y-64452500D03*
D12*
X246856250Y-61912500D03*
X246856250Y-59372500D03*
%TD*%
D21*
%TO.C,U6*%
X178393090Y-85832950D03*
X178393090Y-86483190D03*
X178393090Y-87133430D03*
X178393090Y-87783670D03*
X178393090Y-88428830D03*
X178393090Y-89079070D03*
X178393090Y-89729310D03*
X178393090Y-90379550D03*
X172444410Y-90379550D03*
X172444410Y-89729310D03*
X172444410Y-89079070D03*
X172444410Y-88428830D03*
X172444410Y-87783670D03*
X172444410Y-87133430D03*
X172444410Y-86483190D03*
X172444410Y-85832950D03*
%TD*%
D14*
%TO.C,R8*%
X239202500Y-29368750D03*
X240222500Y-29368750D03*
%TD*%
D22*
%TO.C,J1*%
X236625000Y-47243750D03*
X237625000Y-47243750D03*
X238625000Y-47243750D03*
X239625000Y-47243750D03*
D23*
X235325000Y-43368750D03*
X240925000Y-43368750D03*
%TD*%
D14*
%TO.C,R16*%
X97915000Y-78997940D03*
X98935000Y-78997940D03*
%TD*%
D24*
%TO.C,D1*%
X240710621Y-32587500D03*
D25*
X240710621Y-34287500D03*
X238710621Y-34287500D03*
X238710621Y-32387500D03*
%TD*%
D21*
%TO.C,U4*%
X101399340Y-85832950D03*
X101399340Y-86483190D03*
X101399340Y-87133430D03*
X101399340Y-87783670D03*
X101399340Y-88428830D03*
X101399340Y-89079070D03*
X101399340Y-89729310D03*
X101399340Y-90379550D03*
X95450660Y-90379550D03*
X95450660Y-89729310D03*
X95450660Y-89079070D03*
X95450660Y-88428830D03*
X95450660Y-87783670D03*
X95450660Y-87133430D03*
X95450660Y-86483190D03*
X95450660Y-85832950D03*
%TD*%
D15*
%TO.C,R6*%
X130056250Y-80387058D03*
X130056250Y-81407058D03*
%TD*%
D16*
%TO.C,R20*%
X156085000Y-81756250D03*
X155065000Y-81756250D03*
%TD*%
D13*
%TO.C,C11*%
X134889679Y-93753408D03*
X134889679Y-94713408D03*
%TD*%
D15*
%TO.C,R4*%
X131156250Y-80387058D03*
X131156250Y-81407058D03*
%TD*%
D14*
%TO.C,R11*%
X140777500Y-88900000D03*
X141797500Y-88900000D03*
%TD*%
D26*
%TO.C,F_USBC1*%
X236537500Y-32082528D03*
X236537500Y-34882528D03*
%TD*%
D14*
%TO.C,R9*%
X133883473Y-95832687D03*
X134903473Y-95832687D03*
%TD*%
D27*
%TO.C,J3*%
X233234750Y-25580750D03*
X239014750Y-25580750D03*
D28*
X232874750Y-27025750D03*
X233674750Y-27025750D03*
D29*
X234874750Y-27025750D03*
X235874750Y-27025750D03*
X236374750Y-27025750D03*
X237374750Y-27025750D03*
D28*
X238574750Y-27025750D03*
X239374750Y-27025750D03*
X239374750Y-27025750D03*
X238574750Y-27025750D03*
D29*
X237874750Y-27025750D03*
X236874750Y-27025750D03*
X235374750Y-27025750D03*
X234374750Y-27025750D03*
D28*
X233674750Y-27025750D03*
X232874750Y-27025750D03*
D30*
X231804750Y-21930750D03*
D31*
X231804750Y-26110750D03*
D30*
X240444750Y-21930750D03*
D31*
X240444750Y-26110750D03*
%TD*%
D15*
%TO.C,R7*%
X234950000Y-28858750D03*
X234950000Y-29878750D03*
%TD*%
D14*
%TO.C,R15*%
X42068750Y-81756250D03*
X43088750Y-81756250D03*
%TD*%
D32*
%TO.C,C1*%
X130775537Y-86080138D03*
X130775537Y-85120138D03*
%TD*%
D16*
%TO.C,R17*%
X108453663Y-81746059D03*
X107433663Y-81746059D03*
%TD*%
D33*
%TO.C,U5*%
X125318750Y-93092500D03*
X125318750Y-91822500D03*
X125318750Y-90552500D03*
X125318750Y-89282500D03*
X130268750Y-89282500D03*
X130268750Y-90552500D03*
X130268750Y-91822500D03*
X130268750Y-93092500D03*
%TD*%
D14*
%TO.C,R24*%
X229677500Y-81756250D03*
X230697500Y-81756250D03*
%TD*%
D34*
%TO.C,U3*%
X233518750Y-34129972D03*
X231618750Y-34129972D03*
X232568750Y-32254972D03*
%TD*%
D35*
%TO.C,C12*%
X233048750Y-30596511D03*
X232088750Y-30596511D03*
%TD*%
%TO.C,C13*%
X233048750Y-35944924D03*
X232088750Y-35944924D03*
%TD*%
D16*
%TO.C,R19*%
X174057500Y-80168750D03*
X173037500Y-80168750D03*
%TD*%
D36*
%TO.C,C9*%
X140819430Y-90289802D03*
X141779430Y-90289802D03*
%TD*%
D32*
%TO.C,C15*%
X123451464Y-91501881D03*
X123451464Y-90541881D03*
%TD*%
D37*
%TO.C,R2*%
X135731250Y-83460000D03*
X135731250Y-82440000D03*
%TD*%
D16*
%TO.C,R21*%
X142591250Y-81756250D03*
X141571250Y-81756250D03*
%TD*%
D36*
%TO.C,C6*%
X140830343Y-91336235D03*
X141790343Y-91336235D03*
%TD*%
D35*
%TO.C,C7*%
X130686750Y-84105750D03*
X129726750Y-84105750D03*
%TD*%
D14*
%TO.C,R12*%
X129948750Y-94362500D03*
X130968750Y-94362500D03*
%TD*%
D36*
%TO.C,C8*%
X140295000Y-84650000D03*
X141255000Y-84650000D03*
%TD*%
D15*
%TO.C,R10*%
X129695761Y-85072261D03*
X129695761Y-86092261D03*
%TD*%
D38*
%TO.C,J2*%
X236325000Y-45531250D03*
X237525000Y-45531250D03*
X238725000Y-45531250D03*
X239925000Y-45531250D03*
D39*
X235175000Y-41756250D03*
X241075000Y-41756250D03*
%TD*%
D14*
%TO.C,R13*%
X85498750Y-81756250D03*
X86518750Y-81756250D03*
%TD*%
D15*
%TO.C,R3*%
X133350000Y-80387058D03*
X133350000Y-81407058D03*
%TD*%
D32*
%TO.C,C14*%
X95250000Y-83823750D03*
X95250000Y-82863750D03*
%TD*%
%TO.C,C17*%
X172243750Y-83823750D03*
X172243750Y-82863750D03*
%TD*%
D16*
%TO.C,R22*%
X189422500Y-81756250D03*
X188402500Y-81756250D03*
%TD*%
D40*
%TO.C,JP1*%
X128723442Y-95665357D03*
X126898442Y-95665357D03*
%TD*%
M02*
