M48
; DRILL file {KiCad 8.0.5} date 2024-12-22T15:25:04+0100
; FORMAT={-:-/ absolute / inch / decimal}
; #@! TF.CreationDate,2024-12-22T15:25:04+01:00
; #@! TF.GenerationSoftware,Kicad,Pcbnew,8.0.5
; #@! TF.FileFunction,NonPlated,1,4,NPTH
FMAT,2
INCH
; #@! TA.AperFunction,NonPlated,NPTH,ComponentDrill
T1C0.0866
%
G90
G05
T1
X1.0Y-1.9688
X1.1875Y-2.7188
X1.6562Y-1.2188
X1.75Y-3.4688
X2.5938Y-1.9688
X2.6875Y-3.4688
X3.5312Y-3.4688
X3.7188Y-2.7188
X3.9062Y-1.2188
X4.0938Y-1.9688
X5.5938Y-1.9688
X5.9688Y-2.7188
X6.1562Y-1.2188
X7.375Y-3.4688
X7.8438Y-1.9688
X8.2188Y-2.7188
X8.2188Y-3.4688
X8.4062Y-1.2188
X9.5312Y-1.9688
X9.7188Y-2.7188
X9.7188Y-3.4688
X10.1875Y-1.2188
M30
