%TF.GenerationSoftware,KiCad,Pcbnew,8.0.5*%
%TF.CreationDate,2024-12-22T15:25:04+01:00*%
%TF.ProjectId,toprevan V2,746f7072-6576-4616-9e20-56322e6b6963,rev?*%
%TF.SameCoordinates,Original*%
%TF.FileFunction,Paste,Bot*%
%TF.FilePolarity,Positive*%
%FSLAX46Y46*%
G04 Gerber Fmt 4.6, Leading zero omitted, Abs format (unit mm)*
G04 Created by KiCad (PCBNEW 8.0.5) date 2024-12-22 15:25:04*
%MOMM*%
%LPD*%
G01*
G04 APERTURE LIST*
G04 Aperture macros list*
%AMRoundRect*
0 Rectangle with rounded corners*
0 $1 Rounding radius*
0 $2 $3 $4 $5 $6 $7 $8 $9 X,Y pos of 4 corners*
0 Add a 4 corners polygon primitive as box body*
4,1,4,$2,$3,$4,$5,$6,$7,$8,$9,$2,$3,0*
0 Add four circle primitives for the rounded corners*
1,1,$1+$1,$2,$3*
1,1,$1+$1,$4,$5*
1,1,$1+$1,$6,$7*
1,1,$1+$1,$8,$9*
0 Add four rect primitives between the rounded corners*
20,1,$1+$1,$2,$3,$4,$5,0*
20,1,$1+$1,$4,$5,$6,$7,0*
20,1,$1+$1,$6,$7,$8,$9,0*
20,1,$1+$1,$8,$9,$2,$3,0*%
G04 Aperture macros list end*
%ADD10RoundRect,0.140000X-0.170000X0.140000X-0.170000X-0.140000X0.170000X-0.140000X0.170000X0.140000X0*%
%ADD11RoundRect,0.135000X-0.135000X-0.185000X0.135000X-0.185000X0.135000X0.185000X-0.135000X0.185000X0*%
%ADD12RoundRect,0.135000X-0.185000X0.135000X-0.185000X-0.135000X0.185000X-0.135000X0.185000X0.135000X0*%
%ADD13RoundRect,0.135000X0.135000X0.185000X-0.135000X0.185000X-0.135000X-0.185000X0.135000X-0.185000X0*%
%ADD14R,0.400000X1.900000*%
%ADD15RoundRect,0.250000X0.315000X-0.315000X0.315000X0.315000X-0.315000X0.315000X-0.315000X-0.315000X0*%
%ADD16RoundRect,0.062500X0.062500X-0.375000X0.062500X0.375000X-0.062500X0.375000X-0.062500X-0.375000X0*%
%ADD17RoundRect,0.062500X0.375000X-0.062500X0.375000X0.062500X-0.375000X0.062500X-0.375000X-0.062500X0*%
%ADD18R,1.778000X0.419100*%
%ADD19R,0.600000X1.300000*%
%ADD20R,0.300000X1.300000*%
%ADD21RoundRect,0.150000X-0.150000X-0.625000X0.150000X-0.625000X0.150000X0.625000X-0.150000X0.625000X0*%
%ADD22RoundRect,0.250000X-0.350000X-0.650000X0.350000X-0.650000X0.350000X0.650000X-0.350000X0.650000X0*%
%ADD23R,0.700000X1.000000*%
%ADD24R,0.700000X0.600000*%
%ADD25RoundRect,0.250000X-0.625000X0.375000X-0.625000X-0.375000X0.625000X-0.375000X0.625000X0.375000X0*%
%ADD26RoundRect,0.140000X0.170000X-0.140000X0.170000X0.140000X-0.170000X0.140000X-0.170000X-0.140000X0*%
%ADD27RoundRect,0.150000X-0.825000X-0.150000X0.825000X-0.150000X0.825000X0.150000X-0.825000X0.150000X0*%
%ADD28RoundRect,0.150000X-0.150000X0.587500X-0.150000X-0.587500X0.150000X-0.587500X0.150000X0.587500X0*%
%ADD29RoundRect,0.140000X-0.140000X-0.170000X0.140000X-0.170000X0.140000X0.170000X-0.140000X0.170000X0*%
%ADD30RoundRect,0.135000X0.185000X-0.135000X0.185000X0.135000X-0.185000X0.135000X-0.185000X-0.135000X0*%
%ADD31RoundRect,0.140000X0.140000X0.170000X-0.140000X0.170000X-0.140000X-0.170000X0.140000X-0.170000X0*%
%ADD32RoundRect,0.150000X-0.150000X-0.275000X0.150000X-0.275000X0.150000X0.275000X-0.150000X0.275000X0*%
%ADD33RoundRect,0.175000X-0.175000X-0.225000X0.175000X-0.225000X0.175000X0.225000X-0.175000X0.225000X0*%
%ADD34RoundRect,0.237500X0.250000X0.237500X-0.250000X0.237500X-0.250000X-0.237500X0.250000X-0.237500X0*%
G04 APERTURE END LIST*
D10*
%TO.C,C10*%
X133886072Y-93745973D03*
X133886072Y-94705973D03*
%TD*%
D11*
%TO.C,R14*%
X63832898Y-81756250D03*
X64852898Y-81756250D03*
%TD*%
%TO.C,R23*%
X210627500Y-81756250D03*
X211647500Y-81756250D03*
%TD*%
D12*
%TO.C,R5*%
X132256250Y-80387058D03*
X132256250Y-81407058D03*
%TD*%
D13*
%TO.C,R18*%
X125922500Y-94362500D03*
X124902500Y-94362500D03*
%TD*%
D14*
%TO.C,Y1*%
X136401214Y-94917035D03*
X137601214Y-94917035D03*
X138801214Y-94917035D03*
%TD*%
D11*
%TO.C,R25*%
X248727500Y-81746059D03*
X249747500Y-81746059D03*
%TD*%
D15*
%TO.C,U1*%
X133631250Y-90206250D03*
X135031250Y-90206250D03*
X136431250Y-90206250D03*
X137831250Y-90206250D03*
X133631250Y-88806250D03*
X135031250Y-88806250D03*
X136431250Y-88806250D03*
X137831250Y-88806250D03*
X133631250Y-87406250D03*
X135031250Y-87406250D03*
X136431250Y-87406250D03*
X137831250Y-87406250D03*
X133631250Y-86006250D03*
X135031250Y-86006250D03*
X136431250Y-86006250D03*
X137831250Y-86006250D03*
D16*
X138481250Y-91543750D03*
X137981250Y-91543750D03*
X137481250Y-91543750D03*
X136981250Y-91543750D03*
X136481250Y-91543750D03*
X135981250Y-91543750D03*
X135481250Y-91543750D03*
X134981250Y-91543750D03*
X134481250Y-91543750D03*
X133981250Y-91543750D03*
X133481250Y-91543750D03*
X132981250Y-91543750D03*
D17*
X132293750Y-90856250D03*
X132293750Y-90356250D03*
X132293750Y-89856250D03*
X132293750Y-89356250D03*
X132293750Y-88856250D03*
X132293750Y-88356250D03*
X132293750Y-87856250D03*
X132293750Y-87356250D03*
X132293750Y-86856250D03*
X132293750Y-86356250D03*
X132293750Y-85856250D03*
X132293750Y-85356250D03*
D16*
X132981250Y-84668750D03*
X133481250Y-84668750D03*
X133981250Y-84668750D03*
X134481250Y-84668750D03*
X134981250Y-84668750D03*
X135481250Y-84668750D03*
X135981250Y-84668750D03*
X136481250Y-84668750D03*
X136981250Y-84668750D03*
X137481250Y-84668750D03*
X137981250Y-84668750D03*
X138481250Y-84668750D03*
D17*
X139168750Y-85356250D03*
X139168750Y-85856250D03*
X139168750Y-86356250D03*
X139168750Y-86856250D03*
X139168750Y-87356250D03*
X139168750Y-87856250D03*
X139168750Y-88356250D03*
X139168750Y-88856250D03*
X139168750Y-89356250D03*
X139168750Y-89856250D03*
X139168750Y-90356250D03*
X139168750Y-90856250D03*
%TD*%
D10*
%TO.C,C16*%
X132789679Y-93745973D03*
X132789679Y-94705973D03*
%TD*%
D18*
%TO.C,U6*%
X178393090Y-89007950D03*
X178393090Y-89658190D03*
X178393090Y-90308430D03*
X178393090Y-90958670D03*
X178393090Y-91603830D03*
X178393090Y-92254070D03*
X178393090Y-92904310D03*
X178393090Y-93554550D03*
X172444410Y-93554550D03*
X172444410Y-92904310D03*
X172444410Y-92254070D03*
X172444410Y-91603830D03*
X172444410Y-90958670D03*
X172444410Y-90308430D03*
X172444410Y-89658190D03*
X172444410Y-89007950D03*
%TD*%
D19*
%TO.C,J5*%
X232924750Y-27180750D03*
X233724750Y-27180750D03*
D20*
X234874750Y-27180750D03*
X235874750Y-27180750D03*
X236374750Y-27180750D03*
X237374750Y-27180750D03*
D19*
X238524750Y-27180750D03*
X239324750Y-27180750D03*
D20*
X237874750Y-27180750D03*
X236874750Y-27180750D03*
X235374750Y-27180750D03*
X234374750Y-27180750D03*
%TD*%
D12*
%TO.C,R8*%
X238918750Y-29652500D03*
X238918750Y-30672500D03*
%TD*%
D21*
%TO.C,J1*%
X236625000Y-47243750D03*
X237625000Y-47243750D03*
X238625000Y-47243750D03*
X239625000Y-47243750D03*
D22*
X235325000Y-43368750D03*
X240925000Y-43368750D03*
%TD*%
D11*
%TO.C,R16*%
X97915000Y-78997940D03*
X98935000Y-78997940D03*
%TD*%
D23*
%TO.C,D1*%
X240712500Y-33381250D03*
D24*
X240712500Y-35081250D03*
X238712500Y-35081250D03*
X238712500Y-33181250D03*
%TD*%
D18*
%TO.C,U4*%
X101399340Y-89007950D03*
X101399340Y-89658190D03*
X101399340Y-90308430D03*
X101399340Y-90958670D03*
X101399340Y-91603830D03*
X101399340Y-92254070D03*
X101399340Y-92904310D03*
X101399340Y-93554550D03*
X95450660Y-93554550D03*
X95450660Y-92904310D03*
X95450660Y-92254070D03*
X95450660Y-91603830D03*
X95450660Y-90958670D03*
X95450660Y-90308430D03*
X95450660Y-89658190D03*
X95450660Y-89007950D03*
%TD*%
D12*
%TO.C,R6*%
X130056250Y-80387058D03*
X130056250Y-81407058D03*
%TD*%
D13*
%TO.C,R20*%
X156085000Y-81756250D03*
X155065000Y-81756250D03*
%TD*%
D10*
%TO.C,C11*%
X134889679Y-93753408D03*
X134889679Y-94713408D03*
%TD*%
D12*
%TO.C,R4*%
X131156250Y-80387058D03*
X131156250Y-81407058D03*
%TD*%
D11*
%TO.C,R11*%
X140777500Y-88900000D03*
X141797500Y-88900000D03*
%TD*%
D25*
%TO.C,F_USBC1*%
X236539379Y-32876278D03*
X236539379Y-35676278D03*
%TD*%
D11*
%TO.C,R9*%
X133883473Y-95832687D03*
X134903473Y-95832687D03*
%TD*%
D12*
%TO.C,R7*%
X234484473Y-29652500D03*
X234484473Y-30672500D03*
%TD*%
D11*
%TO.C,R15*%
X42068750Y-81756250D03*
X43088750Y-81756250D03*
%TD*%
D26*
%TO.C,C1*%
X130775537Y-86080138D03*
X130775537Y-85120138D03*
%TD*%
D13*
%TO.C,R17*%
X108453663Y-81746059D03*
X107433663Y-81746059D03*
%TD*%
D27*
%TO.C,U5*%
X125318750Y-93092500D03*
X125318750Y-91822500D03*
X125318750Y-90552500D03*
X125318750Y-89282500D03*
X130268750Y-89282500D03*
X130268750Y-90552500D03*
X130268750Y-91822500D03*
X130268750Y-93092500D03*
%TD*%
D11*
%TO.C,R24*%
X229677500Y-81756250D03*
X230697500Y-81756250D03*
%TD*%
D28*
%TO.C,U3*%
X230825000Y-32545028D03*
X232725000Y-32545028D03*
X231775000Y-34420028D03*
%TD*%
D10*
%TO.C,C12*%
X234360949Y-34664941D03*
X234360949Y-35624941D03*
%TD*%
D29*
%TO.C,C13*%
X231295000Y-30730076D03*
X232255000Y-30730076D03*
%TD*%
D13*
%TO.C,R19*%
X174057500Y-80168750D03*
X173037500Y-80168750D03*
%TD*%
D29*
%TO.C,C9*%
X140819430Y-90289802D03*
X141779430Y-90289802D03*
%TD*%
D26*
%TO.C,C15*%
X123451464Y-91501881D03*
X123451464Y-90541881D03*
%TD*%
D30*
%TO.C,R2*%
X135731250Y-83460000D03*
X135731250Y-82440000D03*
%TD*%
D13*
%TO.C,R21*%
X142591250Y-81756250D03*
X141571250Y-81756250D03*
%TD*%
D29*
%TO.C,C6*%
X140830343Y-91336235D03*
X141790343Y-91336235D03*
%TD*%
D31*
%TO.C,C7*%
X130686750Y-84105750D03*
X129726750Y-84105750D03*
%TD*%
D11*
%TO.C,R12*%
X129948750Y-94362500D03*
X130968750Y-94362500D03*
%TD*%
D29*
%TO.C,C8*%
X140295000Y-84650000D03*
X141255000Y-84650000D03*
%TD*%
D12*
%TO.C,R10*%
X129695761Y-85072261D03*
X129695761Y-86092261D03*
%TD*%
D32*
%TO.C,J2*%
X236325000Y-45531250D03*
X237525000Y-45531250D03*
X238725000Y-45531250D03*
X239925000Y-45531250D03*
D33*
X235175000Y-41756250D03*
X241075000Y-41756250D03*
%TD*%
D11*
%TO.C,R13*%
X85498750Y-81756250D03*
X86518750Y-81756250D03*
%TD*%
D12*
%TO.C,R3*%
X133350000Y-80387058D03*
X133350000Y-81407058D03*
%TD*%
D26*
%TO.C,C14*%
X95250000Y-86998750D03*
X95250000Y-86038750D03*
%TD*%
%TO.C,C17*%
X172243750Y-86998750D03*
X172243750Y-86038750D03*
%TD*%
D13*
%TO.C,R22*%
X189422500Y-81756250D03*
X188402500Y-81756250D03*
%TD*%
D34*
%TO.C,JP1*%
X128723442Y-95665357D03*
X126898442Y-95665357D03*
%TD*%
M02*
